%TF.GenerationSoftware,KiCad,Pcbnew,9.0.4*%
%TF.CreationDate,2025-10-04T22:47:02-03:00*%
%TF.ProjectId,mb,6d622e6b-6963-4616-945f-706362585858,rev?*%
%TF.SameCoordinates,Original*%
%TF.FileFunction,Legend,Bot*%
%TF.FilePolarity,Positive*%
%FSLAX46Y46*%
G04 Gerber Fmt 4.6, Leading zero omitted, Abs format (unit mm)*
G04 Created by KiCad (PCBNEW 9.0.4) date 2025-10-04 22:47:02*
%MOMM*%
%LPD*%
G01*
G04 APERTURE LIST*
%ADD10C,0.000000*%
G04 APERTURE END LIST*
D10*
%TO.C,G\u002A\u002A\u002A*%
G36*
X169074861Y-74171739D02*
G01*
X169074749Y-74228608D01*
X169058393Y-74831026D01*
X169008270Y-75288745D01*
X168915657Y-75623416D01*
X168771829Y-75856693D01*
X168568063Y-76010227D01*
X168295634Y-76105669D01*
X168077540Y-76139509D01*
X167754429Y-76166906D01*
X167403167Y-76180602D01*
X166789333Y-76189297D01*
X166789333Y-75891973D01*
X166789333Y-75594648D01*
X167382000Y-75594648D01*
X167590400Y-75592386D01*
X167880885Y-75567213D01*
X168081103Y-75494145D01*
X168207756Y-75348809D01*
X168277544Y-75106830D01*
X168307170Y-74743836D01*
X168313333Y-74235451D01*
X168313333Y-73216053D01*
X168694333Y-73216053D01*
X169075333Y-73216053D01*
X169074861Y-74171739D01*
G37*
G36*
X149527502Y-71764853D02*
G01*
X149578153Y-71903621D01*
X149645122Y-72184949D01*
X149733855Y-72621404D01*
X149834425Y-73100430D01*
X150068338Y-74049358D01*
X150349423Y-75025681D01*
X150666112Y-75996762D01*
X151006834Y-76929964D01*
X151360018Y-77792649D01*
X151714096Y-78552182D01*
X152057496Y-79175925D01*
X152164405Y-79355009D01*
X152270337Y-79546189D01*
X152311333Y-79640628D01*
X152310457Y-79643324D01*
X152218198Y-79662401D01*
X152003746Y-79667446D01*
X151709437Y-79657289D01*
X151623208Y-79651937D01*
X151302565Y-79616851D01*
X151105386Y-79558672D01*
X150994030Y-79467412D01*
X150881031Y-79263525D01*
X150733526Y-78911270D01*
X150566911Y-78448455D01*
X150389762Y-77903776D01*
X150210654Y-77305933D01*
X150038164Y-76683623D01*
X149880867Y-76065545D01*
X149747340Y-75480397D01*
X149646157Y-74956878D01*
X149610847Y-74734776D01*
X149542400Y-74212027D01*
X149486282Y-73659452D01*
X149445205Y-73116597D01*
X149421882Y-72623007D01*
X149419025Y-72218228D01*
X149439347Y-71941806D01*
X149453373Y-71864736D01*
X149487724Y-71756080D01*
X149527502Y-71764853D01*
G37*
G36*
X156367966Y-68218320D02*
G01*
X156419813Y-68422265D01*
X156615949Y-69446547D01*
X156950897Y-70905792D01*
X157344130Y-72359443D01*
X157774765Y-73725752D01*
X158227488Y-74947783D01*
X158928779Y-76514533D01*
X159721759Y-77946676D01*
X160610605Y-79251540D01*
X161599494Y-80436454D01*
X162169758Y-81054451D01*
X161876046Y-81304020D01*
X161822776Y-81347990D01*
X161548381Y-81550080D01*
X161286000Y-81713508D01*
X161223641Y-81746961D01*
X161048091Y-81838564D01*
X160965913Y-81877182D01*
X160936812Y-81861998D01*
X160815308Y-81740050D01*
X160623991Y-81515799D01*
X160381954Y-81212819D01*
X160108292Y-80854685D01*
X159822099Y-80464972D01*
X159353573Y-79776463D01*
X158529672Y-78345952D01*
X157828086Y-76807664D01*
X157254721Y-75173771D01*
X157098113Y-74619196D01*
X156898078Y-73804737D01*
X156711962Y-72932205D01*
X156545968Y-72038273D01*
X156406301Y-71159614D01*
X156299164Y-70332900D01*
X156230761Y-69594807D01*
X156207297Y-68982005D01*
X156209948Y-68805654D01*
X156230856Y-68477825D01*
X156267892Y-68260836D01*
X156315460Y-68169422D01*
X156367966Y-68218320D01*
G37*
G36*
X153904002Y-75319447D02*
G01*
X154058163Y-75666771D01*
X154167800Y-75916726D01*
X154220196Y-76040635D01*
X154228751Y-76065226D01*
X154224333Y-76144673D01*
X154121917Y-76180771D01*
X153886040Y-76189297D01*
X153732340Y-76187193D01*
X153557157Y-76156688D01*
X153453754Y-76057542D01*
X153359788Y-75849498D01*
X153224281Y-75509699D01*
X152565333Y-75509699D01*
X151906386Y-75509699D01*
X151770879Y-75849498D01*
X151700073Y-76015765D01*
X151609819Y-76135910D01*
X151467081Y-76181885D01*
X151213448Y-76189297D01*
X151083871Y-76192456D01*
X150966190Y-76193474D01*
X150890745Y-76173332D01*
X150861224Y-76112827D01*
X150881313Y-75992758D01*
X150954699Y-75793920D01*
X151085070Y-75497113D01*
X151276113Y-75083132D01*
X151354114Y-74915050D01*
X152148018Y-74915050D01*
X152560570Y-74915050D01*
X152973122Y-74915050D01*
X152791189Y-74451276D01*
X152702641Y-74248378D01*
X152609246Y-74086578D01*
X152550345Y-74047764D01*
X152518175Y-74095602D01*
X152428742Y-74269535D01*
X152319726Y-74511538D01*
X152148018Y-74915050D01*
X151354114Y-74915050D01*
X151531514Y-74532776D01*
X152120390Y-73258528D01*
X152537672Y-73233438D01*
X152954955Y-73208347D01*
X153559282Y-74550160D01*
X153718032Y-74903430D01*
X153723226Y-74915050D01*
X153904002Y-75319447D01*
G37*
G36*
X150965274Y-67959757D02*
G01*
X151441374Y-68099723D01*
X151936517Y-68396633D01*
X152440399Y-68843345D01*
X152942714Y-69432721D01*
X153186290Y-69777916D01*
X153639096Y-70544841D01*
X154058268Y-71412752D01*
X154430674Y-72343643D01*
X154743181Y-73299508D01*
X154982660Y-74242340D01*
X155135976Y-75134134D01*
X155190000Y-75936884D01*
X155182650Y-76237301D01*
X155161779Y-76506765D01*
X155132129Y-76666516D01*
X155129593Y-76672887D01*
X155082044Y-76710097D01*
X155017897Y-76608718D01*
X154928084Y-76354902D01*
X154923544Y-76340521D01*
X154838172Y-76070030D01*
X154718158Y-75689648D01*
X154578798Y-75247865D01*
X154435392Y-74793171D01*
X154361612Y-74567579D01*
X154110790Y-73884986D01*
X153818302Y-73186923D01*
X153501497Y-72509237D01*
X153177726Y-71887775D01*
X152864339Y-71358386D01*
X152578685Y-70956917D01*
X152491471Y-70853138D01*
X152046439Y-70407602D01*
X151594948Y-70084602D01*
X151155173Y-69892595D01*
X150745286Y-69840038D01*
X150383461Y-69935387D01*
X150279137Y-70008843D01*
X150053925Y-70280435D01*
X149810317Y-70713847D01*
X149550987Y-71304682D01*
X149503732Y-71379239D01*
X149466481Y-71323704D01*
X149448352Y-71133953D01*
X149449856Y-70828595D01*
X149471500Y-70426236D01*
X149513795Y-69945485D01*
X149577559Y-69457314D01*
X149706961Y-68884684D01*
X149886888Y-68458690D01*
X150124524Y-68168196D01*
X150427052Y-68002066D01*
X150801657Y-67949163D01*
X150965274Y-67959757D01*
G37*
G36*
X160535445Y-73218243D02*
G01*
X160847627Y-73231623D01*
X161064218Y-73263410D01*
X161227390Y-73320643D01*
X161379313Y-73410361D01*
X161422723Y-73440701D01*
X161680673Y-73691577D01*
X161843630Y-74019602D01*
X161933911Y-74467309D01*
X161948463Y-74692344D01*
X161891580Y-75179397D01*
X161719094Y-75593776D01*
X161444974Y-75908717D01*
X161083184Y-76097459D01*
X161036601Y-76108770D01*
X160791055Y-76143413D01*
X160452450Y-76169343D01*
X160079500Y-76181636D01*
X159338667Y-76189297D01*
X159338667Y-75891973D01*
X159338667Y-75594648D01*
X160004582Y-75594648D01*
X160275181Y-75590700D01*
X160552072Y-75566704D01*
X160742127Y-75512516D01*
X160893582Y-75418583D01*
X160902110Y-75411734D01*
X161053933Y-75241842D01*
X161116667Y-75078784D01*
X161116428Y-75064430D01*
X161098373Y-74996007D01*
X161030290Y-74952350D01*
X160882358Y-74927966D01*
X160624758Y-74917363D01*
X160227667Y-74915050D01*
X159338667Y-74915050D01*
X159338667Y-74617725D01*
X159338667Y-74320401D01*
X160227667Y-74320401D01*
X160512121Y-74317863D01*
X160824661Y-74307875D01*
X161037836Y-74292070D01*
X161116667Y-74272341D01*
X161110745Y-74210581D01*
X160989586Y-74009257D01*
X160724300Y-73856900D01*
X160330926Y-73760296D01*
X159825500Y-73726226D01*
X159780442Y-73726170D01*
X159526012Y-73720481D01*
X159394752Y-73690294D01*
X159345893Y-73614229D01*
X159338667Y-73470903D01*
X159338667Y-73216053D01*
X160215146Y-73216053D01*
X160535445Y-73218243D01*
G37*
G36*
X144623436Y-74429017D02*
G01*
X144703249Y-74654637D01*
X144818800Y-75042475D01*
X144863330Y-75188852D01*
X145230907Y-76065356D01*
X145747271Y-76873199D01*
X146404379Y-77605600D01*
X147194184Y-78255778D01*
X148108641Y-78816951D01*
X149139706Y-79282338D01*
X150279333Y-79645158D01*
X150288996Y-79647659D01*
X151104975Y-79801601D01*
X151880853Y-79837422D01*
X152588636Y-79755958D01*
X153200333Y-79558043D01*
X153399864Y-79458894D01*
X153896292Y-79126566D01*
X154296309Y-78703419D01*
X154620383Y-78164317D01*
X154888982Y-77484123D01*
X154956092Y-77300791D01*
X155040952Y-77128446D01*
X155100270Y-77078130D01*
X155113067Y-77089011D01*
X155172159Y-77238095D01*
X155210754Y-77509744D01*
X155226808Y-77864730D01*
X155218276Y-78263829D01*
X155183114Y-78667812D01*
X155122787Y-79040775D01*
X154925322Y-79746300D01*
X154638074Y-80362575D01*
X154273271Y-80870693D01*
X153843141Y-81251749D01*
X153359911Y-81486836D01*
X153328202Y-81496103D01*
X152969476Y-81562683D01*
X152498301Y-81603450D01*
X151963989Y-81618129D01*
X151415855Y-81606446D01*
X150903210Y-81568126D01*
X150475369Y-81502895D01*
X150115768Y-81417475D01*
X149050036Y-81057433D01*
X148056960Y-80559605D01*
X147151997Y-79935759D01*
X146350605Y-79197666D01*
X145668242Y-78357094D01*
X145120367Y-77425812D01*
X144912194Y-76966996D01*
X144684858Y-76305522D01*
X144561660Y-75652356D01*
X144527730Y-74945263D01*
X144531053Y-74702962D01*
X144544076Y-74455429D01*
X144572624Y-74363364D01*
X144623436Y-74429017D01*
G37*
G36*
X173353155Y-80150412D02*
G01*
X173311140Y-80428130D01*
X173133736Y-81101822D01*
X172855490Y-81820395D01*
X172495386Y-82538488D01*
X172072407Y-83210738D01*
X171937221Y-83393011D01*
X171349067Y-84035426D01*
X170663837Y-84588185D01*
X169918374Y-85024721D01*
X169149523Y-85318462D01*
X169116328Y-85327347D01*
X168836023Y-85380476D01*
X168472519Y-85413090D01*
X167997337Y-85426884D01*
X167382000Y-85423550D01*
X167291407Y-85422035D01*
X166798838Y-85410876D01*
X166428236Y-85393157D01*
X166138632Y-85363256D01*
X165889058Y-85315554D01*
X165638547Y-85244430D01*
X165346128Y-85144265D01*
X165341290Y-85142538D01*
X164660550Y-84855892D01*
X163962928Y-84485830D01*
X163309923Y-84068196D01*
X162763037Y-83638833D01*
X162300049Y-83224799D01*
X162682025Y-82798529D01*
X162873925Y-82577157D01*
X163012098Y-82403885D01*
X163065297Y-82317735D01*
X163073943Y-82280204D01*
X163139947Y-82147033D01*
X163176191Y-82113223D01*
X163277582Y-82117331D01*
X163455373Y-82205170D01*
X163737444Y-82387985D01*
X164084089Y-82610293D01*
X164964013Y-83066094D01*
X165858000Y-83385530D01*
X165952313Y-83408835D01*
X166387221Y-83478326D01*
X166930449Y-83523595D01*
X167536011Y-83544633D01*
X168157922Y-83541430D01*
X168750195Y-83513977D01*
X169266844Y-83462265D01*
X169661884Y-83386285D01*
X169852068Y-83330308D01*
X170723096Y-82973848D01*
X171493419Y-82480812D01*
X172162967Y-81851267D01*
X172731667Y-81085275D01*
X173199450Y-80182902D01*
X173400753Y-79714715D01*
X173353155Y-80150412D01*
G37*
G36*
X163856760Y-78071124D02*
G01*
X163884336Y-78206116D01*
X163903491Y-78456658D01*
X163910667Y-78783848D01*
X163907455Y-78989898D01*
X163804168Y-79965525D01*
X163562810Y-80896063D01*
X163193397Y-81761498D01*
X162705945Y-82541816D01*
X162110468Y-83217003D01*
X161416983Y-83767044D01*
X161387540Y-83785904D01*
X160906162Y-84039760D01*
X160316754Y-84272773D01*
X159676437Y-84464990D01*
X159042333Y-84596461D01*
X158765922Y-84624077D01*
X158366659Y-84643065D01*
X157904589Y-84650820D01*
X157433667Y-84645691D01*
X157173712Y-84637505D01*
X156708272Y-84611332D01*
X156335190Y-84567659D01*
X156001858Y-84499173D01*
X155655667Y-84398561D01*
X154983641Y-84134538D01*
X154279988Y-83754389D01*
X153677763Y-83315435D01*
X153537307Y-83187686D01*
X153290608Y-82940739D01*
X153035857Y-82664751D01*
X152798530Y-82389639D01*
X152604102Y-82145321D01*
X152478049Y-81961714D01*
X152445848Y-81868736D01*
X152516907Y-81823595D01*
X152689787Y-81795986D01*
X152837053Y-81778157D01*
X153105386Y-81718932D01*
X153412199Y-81632577D01*
X153935484Y-81469168D01*
X154304613Y-81751873D01*
X154371660Y-81802558D01*
X154833283Y-82110426D01*
X155301215Y-82339542D01*
X155807106Y-82497642D01*
X156382605Y-82592463D01*
X157059362Y-82631743D01*
X157869027Y-82623217D01*
X158806802Y-82564142D01*
X159669199Y-82441450D01*
X160411417Y-82250312D01*
X161054099Y-81983808D01*
X161617885Y-81635019D01*
X162123417Y-81197026D01*
X162356832Y-80952589D01*
X162867175Y-80309860D01*
X163251027Y-79628619D01*
X163537707Y-78860429D01*
X163607309Y-78636793D01*
X163710001Y-78338646D01*
X163793447Y-78134131D01*
X163844291Y-78058194D01*
X163856760Y-78071124D01*
G37*
G36*
X157643120Y-64383597D02*
G01*
X157896789Y-64420375D01*
X158146092Y-64520229D01*
X158457707Y-64706659D01*
X158619574Y-64820107D01*
X159048990Y-65178886D01*
X159518313Y-65637562D01*
X159996418Y-66162730D01*
X160452176Y-66720983D01*
X160854462Y-67278915D01*
X160858717Y-67285289D01*
X161332061Y-68053418D01*
X161800689Y-68922619D01*
X162250797Y-69859010D01*
X162668582Y-70828706D01*
X163040239Y-71797825D01*
X163351964Y-72732482D01*
X163589954Y-73598793D01*
X163740405Y-74362876D01*
X163762413Y-74533581D01*
X163800120Y-74916011D01*
X163834129Y-75366192D01*
X163862987Y-75850258D01*
X163885239Y-76334338D01*
X163899431Y-76784564D01*
X163904109Y-77167068D01*
X163897819Y-77447980D01*
X163879107Y-77593433D01*
X163841126Y-77672083D01*
X163790181Y-77709315D01*
X163776209Y-77667624D01*
X163731772Y-77484149D01*
X163665051Y-77181390D01*
X163582314Y-76788082D01*
X163489833Y-76332955D01*
X163283442Y-75398223D01*
X162773050Y-73620612D01*
X162121503Y-71925403D01*
X161321794Y-70295495D01*
X160366913Y-68713790D01*
X159995595Y-68197016D01*
X159562667Y-67679195D01*
X159112390Y-67214056D01*
X158665839Y-66820092D01*
X158244087Y-66515795D01*
X157868208Y-66319656D01*
X157559277Y-66250167D01*
X157337950Y-66276440D01*
X157084426Y-66402786D01*
X156868426Y-66648825D01*
X156676428Y-67031284D01*
X156494913Y-67566889D01*
X156421024Y-67808489D01*
X156363743Y-67948728D01*
X156322769Y-67960814D01*
X156284316Y-67864214D01*
X156268098Y-67779815D01*
X156243004Y-67528556D01*
X156224055Y-67184553D01*
X156214440Y-66796522D01*
X156216340Y-66481620D01*
X156259622Y-65896763D01*
X156363691Y-65429248D01*
X156537197Y-65047824D01*
X156788787Y-64721241D01*
X156909309Y-64598211D01*
X157088221Y-64455673D01*
X157272453Y-64394367D01*
X157534431Y-64381271D01*
X157643120Y-64383597D01*
G37*
G36*
X122418060Y-87020666D02*
G01*
X122418060Y-87359333D01*
X122035786Y-87359333D01*
X121653511Y-87359333D01*
X121653511Y-87020666D01*
X121653511Y-86682000D01*
X122035786Y-86682000D01*
X122418060Y-86682000D01*
X122418060Y-87020666D01*
G37*
G36*
X122418060Y-88883333D02*
G01*
X122418060Y-90153333D01*
X122035786Y-90153333D01*
X121653511Y-90153333D01*
X121653511Y-88883333D01*
X121653511Y-87613333D01*
X122035786Y-87613333D01*
X122418060Y-87613333D01*
X122418060Y-88883333D01*
G37*
G36*
X143400669Y-87020666D02*
G01*
X143400669Y-87359333D01*
X142975920Y-87359333D01*
X142551170Y-87359333D01*
X142551170Y-87020666D01*
X142551170Y-86682000D01*
X142975920Y-86682000D01*
X143400669Y-86682000D01*
X143400669Y-87020666D01*
G37*
G36*
X143400669Y-88883333D02*
G01*
X143400669Y-90153333D01*
X142975920Y-90153333D01*
X142551170Y-90153333D01*
X142551170Y-88883333D01*
X142551170Y-87613333D01*
X142975920Y-87613333D01*
X143400669Y-87613333D01*
X143400669Y-88883333D01*
G37*
G36*
X158096990Y-93794000D02*
G01*
X158096990Y-94725333D01*
X157799665Y-94725333D01*
X157502341Y-94725333D01*
X157502341Y-93794000D01*
X157502341Y-92862666D01*
X157799665Y-92862666D01*
X158096990Y-92862666D01*
X158096990Y-93794000D01*
G37*
G36*
X170244816Y-87020666D02*
G01*
X170244816Y-87359333D01*
X169862542Y-87359333D01*
X169480267Y-87359333D01*
X169480267Y-87020666D01*
X169480267Y-86682000D01*
X169862542Y-86682000D01*
X170244816Y-86682000D01*
X170244816Y-87020666D01*
G37*
G36*
X170244816Y-88883333D02*
G01*
X170244816Y-90153333D01*
X169862542Y-90153333D01*
X169480267Y-90153333D01*
X169480267Y-88883333D01*
X169480267Y-87613333D01*
X169862542Y-87613333D01*
X170244816Y-87613333D01*
X170244816Y-88883333D01*
G37*
G36*
X157822296Y-92185370D02*
G01*
X158009646Y-92201602D01*
X158083839Y-92283054D01*
X158096990Y-92481666D01*
X158096953Y-92504222D01*
X158080666Y-92690947D01*
X157998942Y-92764893D01*
X157799665Y-92778000D01*
X157777035Y-92777963D01*
X157589685Y-92761730D01*
X157515491Y-92680278D01*
X157502341Y-92481666D01*
X157502378Y-92459111D01*
X157518664Y-92272386D01*
X157600389Y-92198439D01*
X157799665Y-92185333D01*
X157822296Y-92185370D01*
G37*
G36*
X173891307Y-86684292D02*
G01*
X174108695Y-86710213D01*
X174250190Y-86796545D01*
X174386120Y-86978193D01*
X174430132Y-87047085D01*
X174535230Y-87223996D01*
X174577257Y-87315812D01*
X174531855Y-87343439D01*
X174378824Y-87359333D01*
X174284843Y-87334104D01*
X174087792Y-87236990D01*
X173852392Y-87095545D01*
X173625831Y-86940548D01*
X173455292Y-86802775D01*
X173387960Y-86713007D01*
X173410733Y-86702820D01*
X173556144Y-86688295D01*
X173791471Y-86683048D01*
X173891307Y-86684292D01*
G37*
G36*
X142890970Y-93794000D02*
G01*
X142890970Y-94725333D01*
X142593645Y-94725333D01*
X142296321Y-94725333D01*
X142296321Y-94042635D01*
X142296321Y-93359937D01*
X142020234Y-93386468D01*
X141744147Y-93413000D01*
X141719336Y-94069166D01*
X141694525Y-94725333D01*
X141443249Y-94725333D01*
X141191973Y-94725333D01*
X141191973Y-93925800D01*
X141197330Y-93570201D01*
X141234021Y-93242589D01*
X141328963Y-93035367D01*
X141508853Y-92921197D01*
X141800390Y-92872743D01*
X142230273Y-92862666D01*
X142890970Y-92862666D01*
X142890970Y-93794000D01*
G37*
G36*
X163448829Y-93794000D02*
G01*
X163448829Y-94725333D01*
X163193980Y-94725333D01*
X162939130Y-94725333D01*
X162939130Y-94048000D01*
X162939130Y-93370666D01*
X162641806Y-93370666D01*
X162344481Y-93370666D01*
X162344481Y-94048000D01*
X162344481Y-94725333D01*
X162038705Y-94725333D01*
X161732928Y-94725333D01*
X161762618Y-93955799D01*
X161778632Y-93657039D01*
X161829151Y-93300052D01*
X161932872Y-93068751D01*
X162115583Y-92936506D01*
X162403069Y-92876688D01*
X162821117Y-92862666D01*
X163448829Y-92862666D01*
X163448829Y-93794000D01*
G37*
G36*
X173812709Y-93794000D02*
G01*
X173812709Y-94725333D01*
X173515384Y-94725333D01*
X173218060Y-94725333D01*
X173218060Y-94048000D01*
X173218060Y-93370666D01*
X172920736Y-93370666D01*
X172623411Y-93370666D01*
X172623411Y-94048000D01*
X172623411Y-94725333D01*
X172315696Y-94725333D01*
X172007980Y-94725333D01*
X172045105Y-93951416D01*
X172066341Y-93618972D01*
X172120909Y-93274973D01*
X172228698Y-93054242D01*
X172416822Y-92929879D01*
X172712392Y-92874986D01*
X173142521Y-92862666D01*
X173812709Y-92862666D01*
X173812709Y-93794000D01*
G37*
G36*
X191312374Y-93794000D02*
G01*
X191312374Y-94725333D01*
X191015050Y-94725333D01*
X190717726Y-94725333D01*
X190717726Y-94042635D01*
X190717726Y-93359937D01*
X190441639Y-93386468D01*
X190165552Y-93413000D01*
X190140741Y-94069166D01*
X190115930Y-94725333D01*
X189864654Y-94725333D01*
X189613378Y-94725333D01*
X189613378Y-93925800D01*
X189618735Y-93570201D01*
X189655426Y-93242589D01*
X189750367Y-93035367D01*
X189930257Y-92921197D01*
X190221795Y-92872743D01*
X190651678Y-92862666D01*
X191312374Y-92862666D01*
X191312374Y-93794000D01*
G37*
G36*
X186215384Y-93794000D02*
G01*
X186215384Y-94725333D01*
X185918060Y-94725333D01*
X185620736Y-94725333D01*
X185620736Y-94005666D01*
X185615505Y-93651027D01*
X185596007Y-93428567D01*
X185557016Y-93316724D01*
X185493311Y-93286000D01*
X185410194Y-93327428D01*
X185365886Y-93497666D01*
X185349562Y-93628744D01*
X185263242Y-93694837D01*
X185057376Y-93709333D01*
X184748867Y-93709333D01*
X184796085Y-93358464D01*
X184809052Y-93280470D01*
X184874539Y-93059736D01*
X184955933Y-92936427D01*
X185084886Y-92901434D01*
X185333153Y-92874678D01*
X185641973Y-92863963D01*
X186215384Y-92862666D01*
X186215384Y-93794000D01*
G37*
G36*
X115622073Y-93794000D02*
G01*
X115622073Y-94725333D01*
X115324749Y-94725333D01*
X115027425Y-94725333D01*
X115027425Y-94005666D01*
X115022194Y-93651027D01*
X115002695Y-93428567D01*
X114963705Y-93316724D01*
X114900000Y-93286000D01*
X114816883Y-93327428D01*
X114772575Y-93497666D01*
X114766489Y-93589712D01*
X114699859Y-93686552D01*
X114517726Y-93709333D01*
X114484284Y-93709154D01*
X114335069Y-93688291D01*
X114274371Y-93597651D01*
X114262876Y-93387600D01*
X114266787Y-93262764D01*
X114314152Y-93057370D01*
X114439461Y-92935712D01*
X114672840Y-92877555D01*
X115044414Y-92862666D01*
X115622073Y-92862666D01*
X115622073Y-93794000D01*
G37*
G36*
X125391304Y-93794000D02*
G01*
X125391304Y-94725333D01*
X125136455Y-94725333D01*
X124881605Y-94725333D01*
X124881605Y-93999458D01*
X124880891Y-93808080D01*
X124872553Y-93527617D01*
X124849509Y-93370370D01*
X124805169Y-93305413D01*
X124732943Y-93301823D01*
X124636850Y-93358407D01*
X124557135Y-93519698D01*
X124550047Y-93558423D01*
X124471131Y-93677375D01*
X124281048Y-93709333D01*
X124122267Y-93695132D01*
X124047270Y-93615594D01*
X124032107Y-93419047D01*
X124032491Y-93384545D01*
X124076100Y-93130676D01*
X124209495Y-92970427D01*
X124457564Y-92886768D01*
X124845198Y-92862666D01*
X125391304Y-92862666D01*
X125391304Y-93794000D01*
G37*
G36*
X151555853Y-93794000D02*
G01*
X151555853Y-94725333D01*
X151301003Y-94725333D01*
X151046154Y-94725333D01*
X151046154Y-94048000D01*
X151046154Y-93370666D01*
X150748829Y-93370666D01*
X150451505Y-93370666D01*
X150451505Y-94048000D01*
X150451505Y-94725333D01*
X150154180Y-94725333D01*
X149856856Y-94725333D01*
X149856856Y-94001818D01*
X149857736Y-93808162D01*
X149868756Y-93513238D01*
X149900407Y-93321586D01*
X149962631Y-93188803D01*
X150065369Y-93070484D01*
X150075478Y-93060486D01*
X150203499Y-92955834D01*
X150353178Y-92896027D01*
X150573853Y-92868995D01*
X150914868Y-92862666D01*
X151555853Y-92862666D01*
X151555853Y-93794000D01*
G37*
G36*
X156567893Y-93794000D02*
G01*
X156567893Y-94725333D01*
X156270568Y-94725333D01*
X155973244Y-94725333D01*
X155973244Y-94005666D01*
X155968013Y-93651027D01*
X155948515Y-93428567D01*
X155909525Y-93316724D01*
X155845819Y-93286000D01*
X155762703Y-93327428D01*
X155718394Y-93497666D01*
X155712308Y-93589712D01*
X155645679Y-93686552D01*
X155463545Y-93709333D01*
X155430103Y-93709154D01*
X155280888Y-93688291D01*
X155220191Y-93597651D01*
X155208695Y-93387600D01*
X155212607Y-93262764D01*
X155259971Y-93057370D01*
X155385281Y-92935712D01*
X155618660Y-92877555D01*
X155990234Y-92862666D01*
X156567893Y-92862666D01*
X156567893Y-93794000D01*
G37*
G36*
X118680267Y-88883333D02*
G01*
X118680267Y-90153333D01*
X118297993Y-90153333D01*
X117915719Y-90153333D01*
X117915719Y-89179666D01*
X117915719Y-88206000D01*
X117597157Y-88207296D01*
X117410534Y-88213070D01*
X117234166Y-88249834D01*
X117120278Y-88345211D01*
X117053039Y-88526881D01*
X117016619Y-88822524D01*
X116995187Y-89259820D01*
X116962001Y-90153333D01*
X116631836Y-90153333D01*
X116301672Y-90153333D01*
X116304374Y-89116166D01*
X116312711Y-88609153D01*
X116350921Y-88208786D01*
X116441600Y-87932926D01*
X116607432Y-87758512D01*
X116871105Y-87662483D01*
X117255302Y-87621777D01*
X117782709Y-87613333D01*
X118680267Y-87613333D01*
X118680267Y-88883333D01*
G37*
G36*
X148497659Y-88883333D02*
G01*
X148497659Y-90153333D01*
X148115384Y-90153333D01*
X147733110Y-90153333D01*
X147733110Y-89137333D01*
X147733108Y-89130016D01*
X147726819Y-88737341D01*
X147710063Y-88416725D01*
X147685330Y-88200584D01*
X147655108Y-88121333D01*
X147557121Y-88130415D01*
X147372249Y-88240982D01*
X147308361Y-88469058D01*
X147307901Y-88516224D01*
X147283503Y-88649440D01*
X147186579Y-88703695D01*
X146968562Y-88714000D01*
X146628762Y-88714000D01*
X146628762Y-88296714D01*
X146632099Y-88138469D01*
X146668054Y-87903406D01*
X146765527Y-87750616D01*
X146951482Y-87662844D01*
X147252886Y-87622835D01*
X147696703Y-87613333D01*
X148497659Y-87613333D01*
X148497659Y-88883333D01*
G37*
G36*
X136176923Y-93180166D02*
G01*
X136176750Y-93219398D01*
X136163131Y-93708271D01*
X136122400Y-94061128D01*
X136045387Y-94308327D01*
X135922922Y-94480226D01*
X135745833Y-94607180D01*
X135581509Y-94660509D01*
X135296778Y-94704368D01*
X134969398Y-94722333D01*
X134395986Y-94725333D01*
X134395986Y-94471333D01*
X134396020Y-94444003D01*
X134406892Y-94313340D01*
X134465476Y-94246005D01*
X134612501Y-94221001D01*
X134888695Y-94217333D01*
X135102338Y-94208122D01*
X135347164Y-94171219D01*
X135483344Y-94115733D01*
X135491977Y-94105315D01*
X135543089Y-93937271D01*
X135574554Y-93612726D01*
X135585284Y-93142066D01*
X135585284Y-92270000D01*
X135882608Y-92270000D01*
X136179933Y-92270000D01*
X136176923Y-93180166D01*
G37*
G36*
X172538461Y-88883333D02*
G01*
X172538461Y-90153333D01*
X172156187Y-90153333D01*
X171773913Y-90153333D01*
X171773913Y-89131444D01*
X171772995Y-88717979D01*
X171766716Y-88424884D01*
X171749815Y-88247580D01*
X171717031Y-88158686D01*
X171663105Y-88130823D01*
X171582776Y-88136611D01*
X171536594Y-88145704D01*
X171415800Y-88233172D01*
X171365019Y-88438833D01*
X171351968Y-88548590D01*
X171306168Y-88662239D01*
X171188790Y-88706498D01*
X170950699Y-88714000D01*
X170562999Y-88713999D01*
X170605182Y-88276453D01*
X170623413Y-88122695D01*
X170681852Y-87894854D01*
X170794766Y-87746674D01*
X170990886Y-87661478D01*
X171298945Y-87622590D01*
X171747674Y-87613333D01*
X172538461Y-87613333D01*
X172538461Y-88883333D01*
G37*
G36*
X182647491Y-88883333D02*
G01*
X182647491Y-90153333D01*
X182265217Y-90153333D01*
X181882943Y-90153333D01*
X181882943Y-89131444D01*
X181882025Y-88717979D01*
X181875746Y-88424884D01*
X181858845Y-88247580D01*
X181826062Y-88158686D01*
X181772135Y-88130823D01*
X181691806Y-88136611D01*
X181645624Y-88145704D01*
X181524830Y-88233172D01*
X181474049Y-88438833D01*
X181460998Y-88548590D01*
X181415198Y-88662239D01*
X181297821Y-88706498D01*
X181059729Y-88714000D01*
X180672029Y-88713999D01*
X180714212Y-88276453D01*
X180732443Y-88122695D01*
X180790882Y-87894854D01*
X180903796Y-87746674D01*
X181099916Y-87661478D01*
X181407975Y-87622590D01*
X181856704Y-87613333D01*
X182647491Y-87613333D01*
X182647491Y-88883333D01*
G37*
G36*
X194109517Y-87676833D02*
G01*
X194104774Y-88058282D01*
X194083750Y-88622554D01*
X194043476Y-89053930D01*
X193980235Y-89375448D01*
X193890308Y-89610150D01*
X193769979Y-89781074D01*
X193760138Y-89791508D01*
X193568451Y-89962534D01*
X193393645Y-90072558D01*
X193340909Y-90087284D01*
X193122597Y-90116709D01*
X192805294Y-90138224D01*
X192437960Y-90147966D01*
X191652174Y-90153333D01*
X191652174Y-89868134D01*
X191652174Y-89582935D01*
X192289783Y-89542152D01*
X192418857Y-89533681D01*
X192730833Y-89503750D01*
X192954955Y-89447609D01*
X193105751Y-89341404D01*
X193197748Y-89161282D01*
X193245473Y-88883390D01*
X193263455Y-88483873D01*
X193266221Y-87938877D01*
X193266221Y-86682000D01*
X193690970Y-86682000D01*
X194115719Y-86682000D01*
X194109517Y-87676833D01*
G37*
G36*
X153849498Y-88883333D02*
G01*
X153849498Y-90153333D01*
X153467224Y-90153333D01*
X153084950Y-90153333D01*
X153084950Y-89179666D01*
X153084950Y-88206000D01*
X152762140Y-88206000D01*
X152716361Y-88206981D01*
X152484795Y-88240722D01*
X152337391Y-88307600D01*
X152328758Y-88318017D01*
X152277646Y-88486061D01*
X152246181Y-88810606D01*
X152235451Y-89281266D01*
X152235451Y-90153333D01*
X151846249Y-90153333D01*
X151457046Y-90153333D01*
X151485212Y-89087469D01*
X151485640Y-89071283D01*
X151498646Y-88633984D01*
X151514964Y-88331977D01*
X151541512Y-88132291D01*
X151585210Y-88001958D01*
X151652975Y-87908007D01*
X151751727Y-87817469D01*
X151779358Y-87794180D01*
X151896406Y-87711312D01*
X152030857Y-87658454D01*
X152220827Y-87628946D01*
X152504432Y-87616126D01*
X152919787Y-87613333D01*
X153849498Y-87613333D01*
X153849498Y-88883333D01*
G37*
G36*
X129468896Y-88878201D02*
G01*
X129468896Y-90153333D01*
X129086622Y-90153333D01*
X128704348Y-90153333D01*
X128704348Y-89179666D01*
X128704348Y-88206000D01*
X128364548Y-88206000D01*
X128024749Y-88206000D01*
X128024749Y-89179666D01*
X128024749Y-90153333D01*
X127642475Y-90153333D01*
X127260200Y-90153333D01*
X127260200Y-89179666D01*
X127260200Y-88206000D01*
X127022341Y-88206000D01*
X126939754Y-88208444D01*
X126781450Y-88243882D01*
X126677261Y-88342404D01*
X126616309Y-88530488D01*
X126587716Y-88834615D01*
X126580602Y-89281266D01*
X126580602Y-90153333D01*
X126191399Y-90153333D01*
X125802197Y-90153333D01*
X125830363Y-89097113D01*
X125839230Y-88745171D01*
X125857165Y-88372235D01*
X125900925Y-88095777D01*
X125991068Y-87900909D01*
X126148150Y-87772745D01*
X126392729Y-87696396D01*
X126745359Y-87656976D01*
X127226599Y-87639595D01*
X127857005Y-87629368D01*
X129468896Y-87603069D01*
X129468896Y-88878201D01*
G37*
G36*
X188424080Y-88424952D02*
G01*
X188424080Y-90167904D01*
X187440432Y-90139452D01*
X186456785Y-90111000D01*
X186166185Y-89794743D01*
X185959031Y-89514610D01*
X185860320Y-89202076D01*
X185852948Y-88921830D01*
X185853041Y-88920865D01*
X186640134Y-88920865D01*
X186646797Y-89088828D01*
X186701060Y-89293884D01*
X186828935Y-89428865D01*
X186846371Y-89440209D01*
X187071217Y-89525650D01*
X187338634Y-89560666D01*
X187659532Y-89560666D01*
X187659532Y-88883333D01*
X187659532Y-88206000D01*
X187319732Y-88206000D01*
X187141086Y-88218823D01*
X186858733Y-88330551D01*
X186693772Y-88562438D01*
X186640134Y-88920865D01*
X185853041Y-88920865D01*
X185901497Y-88420181D01*
X186045758Y-88049978D01*
X186295011Y-87799750D01*
X186658536Y-87658025D01*
X187145614Y-87613333D01*
X187659532Y-87613333D01*
X187659532Y-87147666D01*
X187659532Y-86682000D01*
X188041806Y-86682000D01*
X188424080Y-86682000D01*
X188424080Y-88206000D01*
X188424080Y-88424952D01*
G37*
G36*
X164432296Y-89167792D02*
G01*
X164303240Y-89534560D01*
X164101508Y-89838161D01*
X163855196Y-90025910D01*
X163634338Y-90086523D01*
X163248015Y-90132504D01*
X162747993Y-90150019D01*
X161919732Y-90153333D01*
X161919732Y-88417666D01*
X161919732Y-88206000D01*
X162599331Y-88206000D01*
X162599331Y-88883333D01*
X162599331Y-89560666D01*
X162929719Y-89560666D01*
X163094078Y-89550607D01*
X163405826Y-89443475D01*
X163594169Y-89220503D01*
X163657342Y-88883333D01*
X163646536Y-88730334D01*
X163531450Y-88440132D01*
X163291923Y-88264806D01*
X162929719Y-88206000D01*
X162599331Y-88206000D01*
X161919732Y-88206000D01*
X161919732Y-86682000D01*
X162259532Y-86682000D01*
X162599331Y-86682000D01*
X162599331Y-87147666D01*
X162599331Y-87613333D01*
X163113248Y-87613333D01*
X163283159Y-87618936D01*
X163629768Y-87664781D01*
X163884473Y-87745948D01*
X164056478Y-87877976D01*
X164263347Y-88164142D01*
X164409257Y-88518682D01*
X164464496Y-88883333D01*
X164432296Y-89167792D01*
G37*
G36*
X171136087Y-94133814D02*
G01*
X170982514Y-94450310D01*
X170724188Y-94641379D01*
X170567892Y-94676892D01*
X170291777Y-94706561D01*
X169968729Y-94719966D01*
X169395317Y-94725333D01*
X169395317Y-93497666D01*
X169395317Y-93370666D01*
X169905016Y-93370666D01*
X169905016Y-93794000D01*
X169905016Y-94217333D01*
X170204162Y-94217333D01*
X170326986Y-94206836D01*
X170547050Y-94098503D01*
X170639697Y-93889620D01*
X170591774Y-93601100D01*
X170543120Y-93496790D01*
X170423250Y-93395557D01*
X170204443Y-93370666D01*
X169905016Y-93370666D01*
X169395317Y-93370666D01*
X169395317Y-92270000D01*
X169650167Y-92270000D01*
X169818749Y-92285577D01*
X169890810Y-92367238D01*
X169905016Y-92566333D01*
X169907699Y-92703773D01*
X169942925Y-92815344D01*
X170056350Y-92856660D01*
X170293825Y-92862666D01*
X170500923Y-92873324D01*
X170724921Y-92943849D01*
X170930949Y-93110153D01*
X171077267Y-93281126D01*
X171158892Y-93482386D01*
X171179264Y-93768648D01*
X171164960Y-93889620D01*
X171136087Y-94133814D01*
G37*
G36*
X125306354Y-90153333D02*
G01*
X124435618Y-90153016D01*
X124281714Y-90152439D01*
X123903481Y-90142286D01*
X123639141Y-90114639D01*
X123446580Y-90063239D01*
X123283684Y-89981829D01*
X123079522Y-89813001D01*
X122873633Y-89486212D01*
X122770172Y-89096754D01*
X122769009Y-88889478D01*
X123522408Y-88889478D01*
X123550665Y-89131798D01*
X123692307Y-89391333D01*
X123857983Y-89500798D01*
X124202006Y-89560666D01*
X124541806Y-89560666D01*
X124541806Y-88883333D01*
X124541806Y-88206000D01*
X124255938Y-88205999D01*
X124112757Y-88216521D01*
X123801098Y-88334976D01*
X123596158Y-88566895D01*
X123522408Y-88889478D01*
X122769009Y-88889478D01*
X122767862Y-88685098D01*
X122865425Y-88291715D01*
X123061583Y-87957074D01*
X123355058Y-87721648D01*
X123472512Y-87681117D01*
X123743044Y-87633614D01*
X124053344Y-87614581D01*
X124541806Y-87613333D01*
X124541806Y-87147666D01*
X124541806Y-86682000D01*
X124924080Y-86682000D01*
X125306354Y-86682000D01*
X125306354Y-88417666D01*
X125306354Y-89560666D01*
X125306354Y-90153333D01*
G37*
G36*
X118378870Y-94026748D02*
G01*
X118350562Y-94241660D01*
X118278772Y-94387186D01*
X118144594Y-94520997D01*
X118048329Y-94588847D01*
X117718593Y-94705854D01*
X117330776Y-94726522D01*
X116948395Y-94644304D01*
X116796195Y-94556062D01*
X116602707Y-94311674D01*
X116497514Y-93987125D01*
X116493848Y-93721032D01*
X117078368Y-93721032D01*
X117088639Y-93964955D01*
X117199713Y-94168952D01*
X117299249Y-94246484D01*
X117448495Y-94302000D01*
X117631892Y-94228272D01*
X117774055Y-94040353D01*
X117830769Y-93794000D01*
X117775289Y-93550285D01*
X117633878Y-93361366D01*
X117448495Y-93286000D01*
X117299265Y-93329790D01*
X117153657Y-93491278D01*
X117078368Y-93721032D01*
X116493848Y-93721032D01*
X116492582Y-93629105D01*
X116599876Y-93284305D01*
X116662754Y-93176267D01*
X116845069Y-92988192D01*
X117103232Y-92890585D01*
X117480648Y-92862666D01*
X117664189Y-92869351D01*
X117928271Y-92928120D01*
X118144594Y-93067002D01*
X118249142Y-93165562D01*
X118336081Y-93302170D01*
X118374379Y-93492425D01*
X118382943Y-93794000D01*
X118378870Y-94026748D01*
G37*
G36*
X160728152Y-92862999D02*
G01*
X160910713Y-92882386D01*
X160985284Y-92922457D01*
X160962948Y-92996910D01*
X160886844Y-93200494D01*
X160769510Y-93496893D01*
X160624247Y-93851864D01*
X160263210Y-94721481D01*
X159959287Y-94723407D01*
X159866589Y-94722731D01*
X159754900Y-94704068D01*
X159663802Y-94639834D01*
X159571115Y-94502641D01*
X159454656Y-94265103D01*
X159292244Y-93899833D01*
X159177362Y-93638215D01*
X159038653Y-93321008D01*
X158935384Y-93083245D01*
X158884016Y-92962716D01*
X158876519Y-92921963D01*
X158947411Y-92875523D01*
X159157676Y-92878050D01*
X159212135Y-92883045D01*
X159367070Y-92913578D01*
X159475270Y-92991116D01*
X159572435Y-93152751D01*
X159694265Y-93435576D01*
X159699779Y-93448943D01*
X159815084Y-93700605D01*
X159911343Y-93862897D01*
X159968215Y-93901243D01*
X160014625Y-93818868D01*
X160106776Y-93616747D01*
X160217356Y-93349500D01*
X160220893Y-93340583D01*
X160332973Y-93075937D01*
X160425452Y-92932761D01*
X160534885Y-92874017D01*
X160697826Y-92862666D01*
X160728152Y-92862999D01*
G37*
G36*
X180098996Y-93545364D02*
G01*
X180098996Y-94228062D01*
X180375083Y-94201531D01*
X180651170Y-94175000D01*
X180675981Y-93518833D01*
X180700792Y-92862666D01*
X180952068Y-92862666D01*
X181203344Y-92862666D01*
X181203344Y-93608484D01*
X181202319Y-93778004D01*
X181182567Y-94163869D01*
X181124065Y-94420322D01*
X181009166Y-94576512D01*
X180820220Y-94661583D01*
X180539579Y-94704684D01*
X180273380Y-94745241D01*
X180160603Y-94795195D01*
X180199629Y-94843604D01*
X180381850Y-94880187D01*
X180698659Y-94894666D01*
X180707683Y-94894667D01*
X180984661Y-94899563D01*
X181132874Y-94925264D01*
X181192407Y-94988584D01*
X181203344Y-95106333D01*
X181199964Y-95190169D01*
X181167027Y-95262886D01*
X181069439Y-95300967D01*
X180872118Y-95315607D01*
X180539982Y-95318000D01*
X180206041Y-95314916D01*
X179931046Y-95289509D01*
X179744981Y-95217285D01*
X179629288Y-95073751D01*
X179565406Y-94834411D01*
X179534774Y-94474772D01*
X179518834Y-93970337D01*
X179490846Y-92862666D01*
X179794921Y-92862666D01*
X180098996Y-92862666D01*
X180098996Y-93545364D01*
G37*
G36*
X130828093Y-94725333D02*
G01*
X130237442Y-94725333D01*
X130201075Y-94725239D01*
X129761341Y-94700664D01*
X129451742Y-94623331D01*
X129239220Y-94479719D01*
X129090716Y-94256306D01*
X129050202Y-94163122D01*
X128972553Y-93794000D01*
X129553846Y-93794000D01*
X129577288Y-93957412D01*
X129655786Y-94115733D01*
X129658132Y-94118002D01*
X129812956Y-94188234D01*
X130038060Y-94217333D01*
X130187084Y-94212486D01*
X130279336Y-94169455D01*
X130313455Y-94044533D01*
X130318394Y-93794000D01*
X130315185Y-93568958D01*
X130286689Y-93429648D01*
X130203965Y-93378125D01*
X130038060Y-93370666D01*
X129785459Y-93406002D01*
X129609831Y-93543415D01*
X129553846Y-93794000D01*
X128972553Y-93794000D01*
X128965243Y-93759252D01*
X129030469Y-93403161D01*
X129230592Y-93118960D01*
X129550323Y-92930758D01*
X129974376Y-92862666D01*
X130081882Y-92861909D01*
X130245740Y-92839799D01*
X130308346Y-92755255D01*
X130318394Y-92566333D01*
X130331792Y-92370309D01*
X130402020Y-92286519D01*
X130573244Y-92270000D01*
X130828093Y-92270000D01*
X130828093Y-93497666D01*
X130828093Y-93794000D01*
X130828093Y-94725333D01*
G37*
G36*
X154390602Y-93909731D02*
G01*
X154364797Y-94147812D01*
X154283856Y-94314834D01*
X154119344Y-94482642D01*
X153958978Y-94608161D01*
X153735636Y-94701252D01*
X153434865Y-94725333D01*
X153146579Y-94692635D01*
X152799735Y-94535150D01*
X152564387Y-94268448D01*
X152458508Y-93916059D01*
X152470747Y-93794000D01*
X153000000Y-93794000D01*
X153042625Y-93948352D01*
X153169899Y-94132666D01*
X153315504Y-94246111D01*
X153462407Y-94302000D01*
X153521714Y-94287344D01*
X153670192Y-94167369D01*
X153796266Y-93980858D01*
X153849498Y-93794000D01*
X153838331Y-93716168D01*
X153746911Y-93521312D01*
X153604791Y-93355859D01*
X153462407Y-93286000D01*
X153393750Y-93298864D01*
X153214103Y-93415796D01*
X153063301Y-93602321D01*
X153000000Y-93794000D01*
X152470747Y-93794000D01*
X152500074Y-93501517D01*
X152522486Y-93430020D01*
X152712923Y-93116276D01*
X153018112Y-92926432D01*
X153434865Y-92862666D01*
X153660770Y-92874105D01*
X153897383Y-92944097D01*
X154119344Y-93105357D01*
X154189378Y-93169799D01*
X154320829Y-93329085D01*
X154378849Y-93513203D01*
X154391870Y-93794000D01*
X154390602Y-93909731D01*
G37*
G36*
X112657677Y-87619471D02*
G01*
X113162749Y-87685677D01*
X113531188Y-87833759D01*
X113777008Y-88075124D01*
X113914223Y-88421179D01*
X113956847Y-88883333D01*
X113952957Y-89017856D01*
X113867527Y-89472252D01*
X113676146Y-89814683D01*
X113386643Y-90029410D01*
X113383908Y-90030582D01*
X113151731Y-90090842D01*
X112809379Y-90133070D01*
X112415217Y-90150019D01*
X111714381Y-90153333D01*
X111714381Y-89857000D01*
X111714381Y-89560666D01*
X112334515Y-89560666D01*
X112538024Y-89556627D01*
X112890071Y-89515783D01*
X113093245Y-89428022D01*
X113158528Y-89289733D01*
X113146132Y-89277240D01*
X113012315Y-89248990D01*
X112762757Y-89229357D01*
X112436455Y-89222000D01*
X111714381Y-89222000D01*
X111714381Y-88883333D01*
X111714381Y-88544666D01*
X112436455Y-88544666D01*
X112556324Y-88543610D01*
X112866893Y-88529149D01*
X113079622Y-88500915D01*
X113158528Y-88462978D01*
X113140008Y-88401154D01*
X112986185Y-88296112D01*
X112691071Y-88229372D01*
X112272140Y-88206000D01*
X111714381Y-88206000D01*
X111714381Y-87909666D01*
X111714381Y-87613333D01*
X112396708Y-87613333D01*
X112657677Y-87619471D01*
G37*
G36*
X112224080Y-93540000D02*
G01*
X112224080Y-94217333D01*
X112521404Y-94217333D01*
X112818729Y-94217333D01*
X112818729Y-93540000D01*
X112818729Y-92862666D01*
X113124506Y-92862666D01*
X113430282Y-92862666D01*
X113400593Y-93632200D01*
X113390502Y-93862391D01*
X113367669Y-94157825D01*
X113329950Y-94346530D01*
X113267470Y-94468451D01*
X113170355Y-94563534D01*
X112964307Y-94671657D01*
X112591930Y-94725333D01*
X112490105Y-94727784D01*
X112306416Y-94755821D01*
X112266555Y-94810000D01*
X112341103Y-94847153D01*
X112545504Y-94881438D01*
X112823742Y-94894666D01*
X112832767Y-94894667D01*
X113109744Y-94899563D01*
X113257958Y-94925264D01*
X113317491Y-94988584D01*
X113328428Y-95106333D01*
X113325535Y-95186072D01*
X113294314Y-95261033D01*
X113199371Y-95300345D01*
X113005316Y-95315502D01*
X112676756Y-95318000D01*
X112361004Y-95314478D01*
X112092144Y-95287531D01*
X111910529Y-95212830D01*
X111799053Y-95066062D01*
X111740608Y-94822912D01*
X111718087Y-94459067D01*
X111714381Y-93950211D01*
X111714381Y-92862666D01*
X111969231Y-92862666D01*
X112224080Y-92862666D01*
X112224080Y-93540000D01*
G37*
G36*
X120051482Y-87623538D02*
G01*
X120532948Y-87693950D01*
X120879774Y-87842278D01*
X121107842Y-88081380D01*
X121233036Y-88424113D01*
X121271237Y-88883333D01*
X121257157Y-89182977D01*
X121167044Y-89569239D01*
X120982674Y-89843185D01*
X120691414Y-90029793D01*
X120686812Y-90031752D01*
X120454548Y-90091361D01*
X120113042Y-90133203D01*
X119720903Y-90150019D01*
X119020067Y-90153333D01*
X119020067Y-89857000D01*
X119020067Y-89560666D01*
X119640200Y-89560666D01*
X119843709Y-89556627D01*
X120195757Y-89515783D01*
X120398930Y-89428022D01*
X120464214Y-89289733D01*
X120451817Y-89277240D01*
X120318000Y-89248990D01*
X120068442Y-89229357D01*
X119742140Y-89222000D01*
X119020067Y-89222000D01*
X119020067Y-88883333D01*
X119020067Y-88544666D01*
X119742140Y-88544666D01*
X119875318Y-88543503D01*
X120176485Y-88530951D01*
X120385782Y-88507541D01*
X120464214Y-88476933D01*
X120451930Y-88410020D01*
X120327708Y-88294267D01*
X120060792Y-88227465D01*
X119640200Y-88206000D01*
X119020067Y-88206000D01*
X119020067Y-87909666D01*
X119020067Y-87613333D01*
X119702394Y-87613333D01*
X120051482Y-87623538D01*
G37*
G36*
X149580769Y-87613649D02*
G01*
X149887954Y-87618175D01*
X150197535Y-87642648D01*
X150420667Y-87695532D01*
X150605279Y-87784837D01*
X150795102Y-87937590D01*
X151007670Y-88258543D01*
X151116299Y-88642762D01*
X151122241Y-89049882D01*
X151026747Y-89439543D01*
X150831068Y-89771381D01*
X150536455Y-90005035D01*
X150347663Y-90076384D01*
X150007388Y-90134873D01*
X149538294Y-90153201D01*
X148837458Y-90153333D01*
X148837458Y-89857000D01*
X148837458Y-89560666D01*
X149457592Y-89560666D01*
X149661100Y-89556627D01*
X150013148Y-89515783D01*
X150216322Y-89428022D01*
X150281605Y-89289733D01*
X150269208Y-89277240D01*
X150135391Y-89248990D01*
X149885834Y-89229357D01*
X149559532Y-89222000D01*
X148837458Y-89222000D01*
X148837458Y-88883333D01*
X148837458Y-88544666D01*
X149559532Y-88544666D01*
X149692710Y-88543503D01*
X149993876Y-88530951D01*
X150203173Y-88507541D01*
X150281605Y-88476933D01*
X150269321Y-88410020D01*
X150145099Y-88294267D01*
X149878184Y-88227465D01*
X149457592Y-88206000D01*
X148837458Y-88206000D01*
X148837458Y-87909666D01*
X148837458Y-87613333D01*
X149580769Y-87613649D01*
G37*
G36*
X148922408Y-93794000D02*
G01*
X148922408Y-94725333D01*
X148625083Y-94725333D01*
X148327759Y-94725333D01*
X148327759Y-94048000D01*
X148326470Y-93762545D01*
X148315424Y-93539275D01*
X148283782Y-93422571D01*
X148220713Y-93377884D01*
X148115384Y-93370666D01*
X148025882Y-93374776D01*
X147955876Y-93410007D01*
X147919284Y-93510922D01*
X147905273Y-93712070D01*
X147903010Y-94048000D01*
X147903010Y-94725333D01*
X147605685Y-94725333D01*
X147308361Y-94725333D01*
X147308361Y-94048000D01*
X147307108Y-93769114D01*
X147296255Y-93542985D01*
X147265143Y-93424226D01*
X147203127Y-93378300D01*
X147099560Y-93370666D01*
X147025342Y-93373638D01*
X146948482Y-93405632D01*
X146904610Y-93501809D01*
X146881257Y-93697198D01*
X146865948Y-94026833D01*
X146841137Y-94683000D01*
X146565050Y-94709531D01*
X146288963Y-94736062D01*
X146290264Y-93989864D01*
X146291649Y-93846409D01*
X146303825Y-93519784D01*
X146325734Y-93272887D01*
X146353976Y-93150508D01*
X146466893Y-93035987D01*
X146649289Y-92952827D01*
X146924439Y-92899479D01*
X147317829Y-92871055D01*
X147854950Y-92862666D01*
X148922408Y-92862666D01*
X148922408Y-93794000D01*
G37*
G36*
X175552967Y-88938030D02*
G01*
X175475279Y-89342341D01*
X175293425Y-89704128D01*
X175016131Y-89987417D01*
X174652126Y-90156237D01*
X174650508Y-90156633D01*
X174367030Y-90190292D01*
X174026141Y-90183006D01*
X173703036Y-90140396D01*
X173472909Y-90068084D01*
X173164067Y-89814304D01*
X172955291Y-89461827D01*
X172853890Y-89053309D01*
X172858076Y-88883333D01*
X173642809Y-88883333D01*
X173642875Y-88892966D01*
X173683051Y-89156300D01*
X173775051Y-89372494D01*
X173915130Y-89501192D01*
X174186634Y-89560666D01*
X174287719Y-89554977D01*
X174545882Y-89455704D01*
X174697568Y-89228721D01*
X174747157Y-88868622D01*
X174743154Y-88757770D01*
X174662276Y-88447358D01*
X174473530Y-88265371D01*
X174171874Y-88206000D01*
X174115158Y-88208673D01*
X173861954Y-88308403D01*
X173699898Y-88539186D01*
X173642809Y-88883333D01*
X172858076Y-88883333D01*
X172864317Y-88629878D01*
X172991025Y-88232660D01*
X173238466Y-87902781D01*
X173540038Y-87702251D01*
X173964340Y-87576050D01*
X174412878Y-87572858D01*
X174837896Y-87691946D01*
X175191633Y-87932584D01*
X175360931Y-88145723D01*
X175517760Y-88527166D01*
X175547019Y-88868622D01*
X175552967Y-88938030D01*
G37*
G36*
X185593805Y-89293884D02*
G01*
X185417637Y-89686603D01*
X185135272Y-89983159D01*
X184761156Y-90156237D01*
X184759538Y-90156633D01*
X184476060Y-90190292D01*
X184135172Y-90183006D01*
X183812066Y-90140396D01*
X183581940Y-90068084D01*
X183563823Y-90058089D01*
X183255679Y-89792530D01*
X183045509Y-89421108D01*
X182949116Y-88984528D01*
X182955342Y-88898044D01*
X183751839Y-88898044D01*
X183788743Y-89219332D01*
X183907190Y-89420544D01*
X184085256Y-89516316D01*
X184327123Y-89560666D01*
X184383838Y-89557993D01*
X184637042Y-89458263D01*
X184799098Y-89227480D01*
X184856187Y-88883333D01*
X184854038Y-88808330D01*
X184775388Y-88482500D01*
X184591298Y-88277324D01*
X184312362Y-88206000D01*
X184211277Y-88211689D01*
X183953115Y-88310962D01*
X183801428Y-88537945D01*
X183751839Y-88898044D01*
X182955342Y-88898044D01*
X182982304Y-88523500D01*
X183133322Y-88153948D01*
X183394753Y-87863448D01*
X183731890Y-87669806D01*
X184113916Y-87572891D01*
X184510019Y-87572574D01*
X184889383Y-87668724D01*
X185221194Y-87861210D01*
X185474638Y-88149901D01*
X185618901Y-88534668D01*
X185649327Y-88832313D01*
X185643190Y-88883333D01*
X185593805Y-89293884D01*
G37*
G36*
X169098154Y-89285087D02*
G01*
X168953272Y-89676708D01*
X168686001Y-89959209D01*
X168290970Y-90141684D01*
X168133521Y-90175327D01*
X167737044Y-90189452D01*
X167333638Y-90130336D01*
X167006999Y-90006773D01*
X166777969Y-89817504D01*
X166569039Y-89480349D01*
X166464477Y-89079651D01*
X166466199Y-88883333D01*
X167248404Y-88883333D01*
X167284680Y-89161781D01*
X167400579Y-89393075D01*
X167527844Y-89491533D01*
X167785484Y-89561703D01*
X168046609Y-89521474D01*
X168243678Y-89372494D01*
X168247869Y-89366380D01*
X168338449Y-89146046D01*
X168375920Y-88883333D01*
X168373770Y-88808330D01*
X168295120Y-88482500D01*
X168111030Y-88277324D01*
X167832095Y-88206000D01*
X167756037Y-88209512D01*
X167478982Y-88308037D01*
X167307289Y-88535524D01*
X167248404Y-88883333D01*
X166466199Y-88883333D01*
X166468177Y-88657902D01*
X166584031Y-88257591D01*
X166815932Y-87921212D01*
X167122192Y-87704686D01*
X167539335Y-87574379D01*
X167987392Y-87565088D01*
X168419499Y-87677067D01*
X168788790Y-87910569D01*
X168939903Y-88060152D01*
X169042261Y-88217618D01*
X169095108Y-88421109D01*
X169123564Y-88732280D01*
X169126023Y-88775249D01*
X169120115Y-88883333D01*
X169098154Y-89285087D01*
G37*
G36*
X160312984Y-87625181D02*
G01*
X160783018Y-87696651D01*
X161119543Y-87844638D01*
X161339249Y-88082707D01*
X161458832Y-88424417D01*
X161494983Y-88883333D01*
X161487382Y-89108213D01*
X161410243Y-89518623D01*
X161240956Y-89811880D01*
X160968456Y-90011701D01*
X160805017Y-90071722D01*
X160446916Y-90131225D01*
X159944649Y-90151405D01*
X159201338Y-90153333D01*
X159201338Y-89857000D01*
X159201338Y-89560666D01*
X159832393Y-89560666D01*
X159964915Y-89559686D01*
X160282422Y-89541734D01*
X160484719Y-89495247D01*
X160612485Y-89412500D01*
X160614101Y-89410891D01*
X160673173Y-89341730D01*
X160665128Y-89297081D01*
X160564280Y-89269923D01*
X160344942Y-89253232D01*
X159981429Y-89239989D01*
X159201338Y-89215645D01*
X159201338Y-88883333D01*
X159201338Y-88551021D01*
X159981429Y-88526677D01*
X159989895Y-88526412D01*
X160350409Y-88513169D01*
X160567239Y-88496344D01*
X160666071Y-88468917D01*
X160672591Y-88423865D01*
X160612485Y-88354166D01*
X160577245Y-88323283D01*
X160430064Y-88252974D01*
X160195340Y-88216456D01*
X159832393Y-88205999D01*
X159201338Y-88206000D01*
X159201338Y-87909666D01*
X159201338Y-87613333D01*
X159931810Y-87613333D01*
X160312984Y-87625181D01*
G37*
G36*
X120123097Y-92285577D02*
G01*
X120195157Y-92367238D01*
X120209364Y-92566333D01*
X120214918Y-92700111D01*
X120262166Y-92829518D01*
X120379264Y-92862666D01*
X120509344Y-92908352D01*
X120549164Y-93074333D01*
X120512493Y-93236391D01*
X120379264Y-93286000D01*
X120291676Y-93300771D01*
X120238246Y-93372453D01*
X120214660Y-93538501D01*
X120209364Y-93836333D01*
X120208873Y-93920640D01*
X120190884Y-94223199D01*
X120138344Y-94418342D01*
X120039465Y-94556000D01*
X119873789Y-94665464D01*
X119529766Y-94725333D01*
X119500174Y-94725257D01*
X119295995Y-94710652D01*
X119208513Y-94650039D01*
X119189966Y-94513666D01*
X119225543Y-94353185D01*
X119356877Y-94302000D01*
X119366244Y-94301848D01*
X119547046Y-94218264D01*
X119660402Y-93990049D01*
X119699665Y-93630232D01*
X119699155Y-93547773D01*
X119680181Y-93370228D01*
X119607289Y-93299028D01*
X119444816Y-93286000D01*
X119333992Y-93280945D01*
X119217395Y-93225605D01*
X119189966Y-93074333D01*
X119196052Y-92982287D01*
X119262682Y-92885447D01*
X119444816Y-92862666D01*
X119613398Y-92847088D01*
X119685458Y-92765428D01*
X119699665Y-92566333D01*
X119713062Y-92370309D01*
X119783291Y-92286519D01*
X119954515Y-92270000D01*
X120123097Y-92285577D01*
G37*
G36*
X139916408Y-92285577D02*
G01*
X139988468Y-92367238D01*
X140002675Y-92566333D01*
X140008229Y-92700111D01*
X140055477Y-92829518D01*
X140172575Y-92862666D01*
X140302655Y-92908352D01*
X140342475Y-93074333D01*
X140305804Y-93236391D01*
X140172575Y-93286000D01*
X140172217Y-93286000D01*
X140081352Y-93302856D01*
X140030225Y-93377952D01*
X140007708Y-93548281D01*
X140002675Y-93850833D01*
X139993953Y-94133286D01*
X139949730Y-94405474D01*
X139862084Y-94570499D01*
X139683093Y-94681468D01*
X139352385Y-94725333D01*
X139271309Y-94724815D01*
X139080490Y-94707526D01*
X138999880Y-94645975D01*
X138983277Y-94513666D01*
X139013440Y-94362260D01*
X139136187Y-94302000D01*
X139159559Y-94301460D01*
X139350278Y-94231095D01*
X139458673Y-94032762D01*
X139492976Y-93692400D01*
X139490720Y-93508906D01*
X139466125Y-93355365D01*
X139391240Y-93295915D01*
X139238127Y-93286000D01*
X139127303Y-93280945D01*
X139010706Y-93225605D01*
X138983277Y-93074333D01*
X138989363Y-92982287D01*
X139055993Y-92885447D01*
X139238127Y-92862666D01*
X139406709Y-92847088D01*
X139478770Y-92765428D01*
X139492976Y-92566333D01*
X139506374Y-92370309D01*
X139576602Y-92286519D01*
X139747826Y-92270000D01*
X139916408Y-92285577D01*
G37*
G36*
X177125752Y-87147666D02*
G01*
X177125753Y-87154787D01*
X177130294Y-87417920D01*
X177159076Y-87554269D01*
X177234908Y-87605513D01*
X177380602Y-87613333D01*
X177549184Y-87628911D01*
X177621244Y-87710571D01*
X177635451Y-87909666D01*
X177622054Y-88105690D01*
X177551825Y-88189480D01*
X177380602Y-88206000D01*
X177125752Y-88206000D01*
X177125752Y-88971848D01*
X177124164Y-89239047D01*
X177111734Y-89520376D01*
X177079164Y-89703595D01*
X177017363Y-89831156D01*
X176917239Y-89945515D01*
X176862940Y-89996559D01*
X176709371Y-90095163D01*
X176506771Y-90141667D01*
X176195165Y-90153333D01*
X175681605Y-90153333D01*
X175681605Y-89862110D01*
X175681789Y-89820591D01*
X175702003Y-89649502D01*
X175791344Y-89574238D01*
X176000167Y-89544610D01*
X176318729Y-89518333D01*
X176343540Y-88862166D01*
X176368350Y-88205999D01*
X176024978Y-88206000D01*
X175918575Y-88205257D01*
X175754434Y-88183222D01*
X175691689Y-88098711D01*
X175681605Y-87909666D01*
X175682365Y-87822225D01*
X175707157Y-87677696D01*
X175803843Y-87622304D01*
X176021404Y-87613333D01*
X176361204Y-87613333D01*
X176361204Y-87147666D01*
X176361204Y-86682000D01*
X176743478Y-86682000D01*
X177125752Y-86682000D01*
X177125752Y-87147666D01*
G37*
G36*
X132778385Y-88849536D02*
G01*
X132959269Y-89280141D01*
X133106370Y-89633799D01*
X133208751Y-89884234D01*
X133255469Y-90005166D01*
X133264282Y-90037843D01*
X133247305Y-90111546D01*
X133132553Y-90145272D01*
X132884155Y-90153333D01*
X132662776Y-90149243D01*
X132507987Y-90110848D01*
X132412968Y-89997658D01*
X132318013Y-89769156D01*
X132170804Y-89384980D01*
X131442592Y-89409323D01*
X130714380Y-89433666D01*
X130594258Y-89793500D01*
X130474136Y-90153333D01*
X130006912Y-90153333D01*
X129814064Y-90146542D01*
X129628441Y-90119809D01*
X129568004Y-90079731D01*
X129575077Y-90062451D01*
X129636584Y-89917127D01*
X129751264Y-89648375D01*
X129908908Y-89280056D01*
X130099307Y-88836031D01*
X130151712Y-88714000D01*
X131010618Y-88714000D01*
X131462140Y-88714000D01*
X131913662Y-88714000D01*
X131690114Y-88119315D01*
X131664234Y-88051713D01*
X131557952Y-87800914D01*
X131475596Y-87648161D01*
X131433212Y-87624362D01*
X131396578Y-87724309D01*
X131312931Y-87942905D01*
X131205238Y-88219046D01*
X131010618Y-88714000D01*
X130151712Y-88714000D01*
X130312254Y-88340161D01*
X131028186Y-86674195D01*
X131451845Y-86699263D01*
X131875503Y-86724333D01*
X132541677Y-88290666D01*
X132574661Y-88368263D01*
X132721012Y-88714000D01*
X132778385Y-88849536D01*
G37*
G36*
X128194575Y-93821197D02*
G01*
X128174902Y-94100495D01*
X128101356Y-94294039D01*
X127946334Y-94477846D01*
X127942916Y-94481246D01*
X127756037Y-94635801D01*
X127557059Y-94707688D01*
X127268075Y-94725333D01*
X127001902Y-94710454D01*
X126778089Y-94639271D01*
X126565605Y-94482642D01*
X126495571Y-94418200D01*
X126364120Y-94258914D01*
X126306101Y-94074796D01*
X126293079Y-93794000D01*
X126293285Y-93775161D01*
X126835451Y-93775161D01*
X126866662Y-93916405D01*
X126967693Y-94113827D01*
X127086094Y-94238359D01*
X127222543Y-94302000D01*
X127291199Y-94289135D01*
X127470847Y-94172203D01*
X127621648Y-93985678D01*
X127684950Y-93794000D01*
X127666427Y-93702448D01*
X127560160Y-93514564D01*
X127406575Y-93354010D01*
X127260200Y-93286000D01*
X127184822Y-93308504D01*
X127028716Y-93433368D01*
X126893265Y-93610796D01*
X126835451Y-93775161D01*
X126293285Y-93775161D01*
X126294347Y-93678268D01*
X126320152Y-93440187D01*
X126401094Y-93273165D01*
X126565605Y-93105357D01*
X126750092Y-92964541D01*
X126967397Y-92883326D01*
X127268075Y-92862666D01*
X127273986Y-92862670D01*
X127560855Y-92880978D01*
X127759002Y-92953997D01*
X127946334Y-93110153D01*
X127961769Y-93125666D01*
X128109548Y-93307525D01*
X128177974Y-93504963D01*
X128194649Y-93794000D01*
X128194575Y-93821197D01*
G37*
G36*
X144330980Y-92876813D02*
G01*
X144632345Y-92904974D01*
X144982088Y-92995423D01*
X145204011Y-93160285D01*
X145320644Y-93419748D01*
X145354515Y-93794000D01*
X145353916Y-93846163D01*
X145294387Y-94231020D01*
X145128777Y-94497152D01*
X144844816Y-94665539D01*
X144751745Y-94684826D01*
X144519554Y-94707214D01*
X144228930Y-94718649D01*
X143962053Y-94717990D01*
X143811804Y-94695096D01*
X143751516Y-94632684D01*
X143740468Y-94513666D01*
X143758969Y-94377720D01*
X143848855Y-94315139D01*
X144059030Y-94300843D01*
X144083269Y-94300616D01*
X144352716Y-94283717D01*
X144568729Y-94248635D01*
X144637381Y-94228088D01*
X144755165Y-94162138D01*
X144720831Y-94104434D01*
X144547969Y-94063535D01*
X144250167Y-94048000D01*
X143740468Y-94048000D01*
X143740468Y-93794000D01*
X143740468Y-93540000D01*
X144250167Y-93540000D01*
X144353908Y-93538447D01*
X144614859Y-93514228D01*
X144746707Y-93467268D01*
X144735860Y-93406127D01*
X144568729Y-93339364D01*
X144553622Y-93335561D01*
X144327496Y-93301698D01*
X144059030Y-93287156D01*
X144058082Y-93287152D01*
X143848777Y-93273187D01*
X143759332Y-93210529D01*
X143740468Y-93064778D01*
X143741614Y-92993610D01*
X143764420Y-92908420D01*
X143845508Y-92868433D01*
X144021991Y-92861835D01*
X144330980Y-92876813D01*
G37*
G36*
X193245798Y-92277994D02*
G01*
X193675201Y-92337625D01*
X193973234Y-92471508D01*
X194160548Y-92698496D01*
X194257793Y-93037447D01*
X194285618Y-93507216D01*
X194285587Y-93529007D01*
X194265959Y-93921816D01*
X194197002Y-94194727D01*
X194059493Y-94392580D01*
X193834210Y-94560214D01*
X193801429Y-94579327D01*
X193586906Y-94666078D01*
X193304970Y-94711659D01*
X192905184Y-94725016D01*
X192246823Y-94725333D01*
X192246823Y-94471333D01*
X192246823Y-94217333D01*
X192798996Y-94217333D01*
X192883585Y-94216843D01*
X193187156Y-94198914D01*
X193382952Y-94146549D01*
X193521070Y-94048000D01*
X193640434Y-93912751D01*
X193672077Y-93809402D01*
X193581103Y-93747428D01*
X193351910Y-93717262D01*
X192968896Y-93709333D01*
X192246823Y-93709333D01*
X192246823Y-93458629D01*
X192246823Y-93207925D01*
X192990134Y-93183462D01*
X193733445Y-93159000D01*
X193503694Y-92926166D01*
X193418161Y-92845201D01*
X193264592Y-92747848D01*
X193066053Y-92703716D01*
X192760383Y-92693333D01*
X192735755Y-92693324D01*
X192462221Y-92688084D01*
X192316055Y-92661984D01*
X192257505Y-92598639D01*
X192246823Y-92481666D01*
X192251152Y-92391125D01*
X192287133Y-92322087D01*
X192389335Y-92286018D01*
X192592318Y-92272221D01*
X192930640Y-92270000D01*
X193245798Y-92277994D01*
G37*
G36*
X187669773Y-92877623D02*
G01*
X187983675Y-92901707D01*
X188201270Y-92943771D01*
X188348523Y-93019476D01*
X188476797Y-93145899D01*
X188510137Y-93187466D01*
X188652931Y-93492060D01*
X188687537Y-93838005D01*
X188622118Y-94177044D01*
X188464836Y-94460921D01*
X188223853Y-94641379D01*
X188114313Y-94670293D01*
X187856939Y-94704442D01*
X187553344Y-94719966D01*
X187287138Y-94718589D01*
X187136517Y-94695297D01*
X187076005Y-94632722D01*
X187064883Y-94513666D01*
X187083384Y-94377720D01*
X187173270Y-94315139D01*
X187383445Y-94300843D01*
X187407684Y-94300616D01*
X187677131Y-94283717D01*
X187893144Y-94248635D01*
X187961795Y-94228088D01*
X188079580Y-94162138D01*
X188045246Y-94104434D01*
X187872383Y-94063535D01*
X187574582Y-94048000D01*
X187064883Y-94048000D01*
X187064883Y-93794000D01*
X187064883Y-93540000D01*
X187595819Y-93537307D01*
X187597305Y-93537299D01*
X187879597Y-93532375D01*
X188017522Y-93515443D01*
X188036475Y-93477691D01*
X187961857Y-93410307D01*
X187920365Y-93384874D01*
X187700472Y-93314332D01*
X187430921Y-93286000D01*
X187343585Y-93285409D01*
X187157682Y-93267451D01*
X187080315Y-93203296D01*
X187064883Y-93064778D01*
X187066379Y-92987205D01*
X187091138Y-92905674D01*
X187175509Y-92867797D01*
X187356164Y-92862229D01*
X187669773Y-92877623D01*
G37*
G36*
X155272408Y-86697698D02*
G01*
X155307301Y-86699052D01*
X155827674Y-86733753D01*
X156215156Y-86798282D01*
X156503944Y-86905011D01*
X156728237Y-87066311D01*
X156922232Y-87294555D01*
X157016960Y-87450770D01*
X157085403Y-87648439D01*
X157126045Y-87918817D01*
X157149694Y-88310162D01*
X157153337Y-88432723D01*
X157125961Y-88981461D01*
X157014667Y-89404596D01*
X156810593Y-89724867D01*
X156504879Y-89965015D01*
X156398318Y-90021756D01*
X156222519Y-90087312D01*
X156004639Y-90126479D01*
X155702121Y-90145693D01*
X155272408Y-90151388D01*
X154359197Y-90153333D01*
X154359197Y-89814666D01*
X154359197Y-89476000D01*
X155114335Y-89476000D01*
X155443692Y-89468763D01*
X155802121Y-89426063D01*
X156041242Y-89333539D01*
X156189704Y-89178146D01*
X156276155Y-88946833D01*
X156331462Y-88713999D01*
X155345329Y-88714000D01*
X154359197Y-88714000D01*
X154359197Y-88375333D01*
X154359197Y-88036666D01*
X155328167Y-88036666D01*
X155605211Y-88036216D01*
X155930003Y-88031361D01*
X156129555Y-88016949D01*
X156231407Y-87987872D01*
X156263099Y-87939022D01*
X156252172Y-87865290D01*
X156249869Y-87856715D01*
X156130001Y-87626674D01*
X155906286Y-87472623D01*
X155559349Y-87386274D01*
X155069814Y-87359333D01*
X154359197Y-87359333D01*
X154359197Y-87011300D01*
X154359197Y-86663268D01*
X155272408Y-86697698D01*
G37*
G36*
X115622073Y-87147666D02*
G01*
X115625553Y-87380229D01*
X115649484Y-87537356D01*
X115712817Y-87601245D01*
X115834448Y-87613333D01*
X115959552Y-87627229D01*
X116030955Y-87709268D01*
X116046823Y-87909666D01*
X116037962Y-88075692D01*
X115982338Y-88181591D01*
X115846231Y-88206000D01*
X115845208Y-88206000D01*
X115750267Y-88215149D01*
X115688769Y-88264038D01*
X115650399Y-88385020D01*
X115624841Y-88610449D01*
X115601779Y-88972678D01*
X115596592Y-89059942D01*
X115567149Y-89417402D01*
X115525292Y-89656090D01*
X115460641Y-89818304D01*
X115362814Y-89946345D01*
X115321148Y-89988456D01*
X115173478Y-90092106D01*
X114977454Y-90141039D01*
X114672817Y-90153333D01*
X114177926Y-90153333D01*
X114177926Y-89857000D01*
X114191102Y-89662148D01*
X114260524Y-89577490D01*
X114429787Y-89560666D01*
X114442182Y-89560572D01*
X114641681Y-89516910D01*
X114769499Y-89377733D01*
X114837495Y-89119724D01*
X114857525Y-88719566D01*
X114857525Y-88206000D01*
X114517726Y-88206000D01*
X114417459Y-88205337D01*
X114251730Y-88183716D01*
X114188213Y-88099398D01*
X114177926Y-87909666D01*
X114178686Y-87822225D01*
X114203478Y-87677696D01*
X114300164Y-87622304D01*
X114517726Y-87613333D01*
X114857525Y-87613333D01*
X114857525Y-87147666D01*
X114857525Y-86682000D01*
X115239799Y-86682000D01*
X115622073Y-86682000D01*
X115622073Y-87147666D01*
G37*
G36*
X123245022Y-94303586D02*
G01*
X123097659Y-94556000D01*
X123054338Y-94595466D01*
X122939466Y-94662392D01*
X122771497Y-94701852D01*
X122511547Y-94720586D01*
X122120736Y-94725333D01*
X121313712Y-94725333D01*
X121314186Y-94196166D01*
X121316028Y-94132666D01*
X121908361Y-94132666D01*
X121926380Y-94228312D01*
X122022846Y-94287342D01*
X122243147Y-94302000D01*
X122410275Y-94290327D01*
X122595027Y-94232200D01*
X122658963Y-94142305D01*
X122577606Y-94039830D01*
X122414323Y-93987350D01*
X122184448Y-93964629D01*
X122082187Y-93967779D01*
X121944344Y-94012807D01*
X121908361Y-94132666D01*
X121316028Y-94132666D01*
X121323239Y-93884073D01*
X121387993Y-93416443D01*
X121515584Y-93103505D01*
X121706627Y-92943301D01*
X121883673Y-92904279D01*
X122175640Y-92874185D01*
X122508540Y-92862666D01*
X122658394Y-92863010D01*
X122906360Y-92871050D01*
X123037431Y-92900042D01*
X123088800Y-92963349D01*
X123097659Y-93074333D01*
X123091512Y-93172777D01*
X123042600Y-93248904D01*
X122908409Y-93280032D01*
X122646671Y-93286000D01*
X122479454Y-93293295D01*
X122210981Y-93335132D01*
X122036881Y-93401732D01*
X121970060Y-93462275D01*
X121990787Y-93503754D01*
X122130888Y-93531641D01*
X122415554Y-93556212D01*
X122492359Y-93562192D01*
X122790740Y-93602523D01*
X122979915Y-93672349D01*
X123110294Y-93788526D01*
X123236508Y-94020310D01*
X123240175Y-94142305D01*
X123245022Y-94303586D01*
G37*
G36*
X165433676Y-92271400D02*
G01*
X165709652Y-92284516D01*
X165894388Y-92321294D01*
X166035944Y-92393484D01*
X166182382Y-92512834D01*
X166317391Y-92645426D01*
X166411940Y-92796660D01*
X166462422Y-93001585D01*
X166490997Y-93318022D01*
X166498252Y-93630162D01*
X166442784Y-94044163D01*
X166295191Y-94347675D01*
X166046569Y-94565697D01*
X166032180Y-94574263D01*
X165818632Y-94663382D01*
X165532711Y-94710872D01*
X165126588Y-94725016D01*
X164468227Y-94725333D01*
X164468227Y-94471333D01*
X164468227Y-94217333D01*
X164983511Y-94217333D01*
X165222880Y-94210499D01*
X165566152Y-94157121D01*
X165763960Y-94047018D01*
X165827425Y-93875687D01*
X165825144Y-93834495D01*
X165791268Y-93767220D01*
X165689814Y-93729498D01*
X165486696Y-93712983D01*
X165147826Y-93709333D01*
X164468227Y-93709333D01*
X164468227Y-93455333D01*
X164468227Y-93201333D01*
X165154055Y-93201333D01*
X165275068Y-93201033D01*
X165570272Y-93193890D01*
X165737009Y-93171904D01*
X165806925Y-93128047D01*
X165811663Y-93055293D01*
X165787360Y-92987580D01*
X165617973Y-92832499D01*
X165318389Y-92731402D01*
X164914214Y-92694581D01*
X164712565Y-92691316D01*
X164548499Y-92668194D01*
X164481214Y-92605072D01*
X164468227Y-92481666D01*
X164474589Y-92380341D01*
X164516174Y-92317235D01*
X164626652Y-92284401D01*
X164839691Y-92271952D01*
X165188961Y-92270000D01*
X165433676Y-92271400D01*
G37*
G36*
X133720850Y-94149117D02*
G01*
X133663889Y-94409118D01*
X133527586Y-94593532D01*
X133508896Y-94605729D01*
X133323035Y-94674941D01*
X133027584Y-94713426D01*
X132593138Y-94725333D01*
X131847491Y-94725333D01*
X131848532Y-94132666D01*
X132357190Y-94132666D01*
X132375209Y-94228312D01*
X132471675Y-94287342D01*
X132691976Y-94302000D01*
X132859104Y-94290327D01*
X133043857Y-94232200D01*
X133107793Y-94142305D01*
X133026435Y-94039830D01*
X132863152Y-93987350D01*
X132633277Y-93964629D01*
X132531016Y-93967779D01*
X132393173Y-94012807D01*
X132357190Y-94132666D01*
X131848532Y-94132666D01*
X131848792Y-93984500D01*
X131850109Y-93845958D01*
X131862223Y-93519837D01*
X131884167Y-93273020D01*
X131912505Y-93150508D01*
X131949771Y-93103116D01*
X132161561Y-92966524D01*
X132502255Y-92887878D01*
X132988729Y-92862666D01*
X133220880Y-92863505D01*
X133453950Y-92873358D01*
X133576311Y-92903956D01*
X133623595Y-92967036D01*
X133631438Y-93074333D01*
X133624446Y-93177025D01*
X133573397Y-93250403D01*
X133436258Y-93280309D01*
X133171162Y-93286000D01*
X132992686Y-93289610D01*
X132734564Y-93308233D01*
X132576513Y-93337391D01*
X132488999Y-93380466D01*
X132445898Y-93457922D01*
X132547214Y-93516687D01*
X132776409Y-93540000D01*
X132874481Y-93542845D01*
X133208922Y-93592830D01*
X133485986Y-93691367D01*
X133649646Y-93820463D01*
X133685815Y-93893685D01*
X133719916Y-94142305D01*
X133720850Y-94149117D01*
G37*
G36*
X135923619Y-87626566D02*
G01*
X136065483Y-87631558D01*
X136408461Y-87648172D01*
X136636672Y-87675251D01*
X136791766Y-87724113D01*
X136915394Y-87806076D01*
X137049204Y-87932461D01*
X137144508Y-88030466D01*
X137246416Y-88164714D01*
X137300904Y-88317164D01*
X137322757Y-88538183D01*
X137326756Y-88878140D01*
X137326571Y-88962652D01*
X137317680Y-89282460D01*
X137287046Y-89491931D01*
X137223127Y-89639793D01*
X137114381Y-89774771D01*
X137098692Y-89791307D01*
X136905378Y-89963235D01*
X136732107Y-90072558D01*
X136692951Y-90084413D01*
X136485580Y-90115146D01*
X136177205Y-90137736D01*
X135818896Y-90147966D01*
X135075585Y-90153333D01*
X135075585Y-89857000D01*
X135075585Y-89560666D01*
X135663286Y-89560666D01*
X135702383Y-89560606D01*
X136096419Y-89548832D01*
X136347791Y-89512305D01*
X136480796Y-89444761D01*
X136519732Y-89339941D01*
X136498065Y-89292169D01*
X136389370Y-89250262D01*
X136164852Y-89228334D01*
X135797659Y-89222000D01*
X135075585Y-89222000D01*
X135075585Y-88883333D01*
X135075585Y-88544666D01*
X135797659Y-88544666D01*
X136090133Y-88541127D01*
X136346701Y-88523373D01*
X136480950Y-88486701D01*
X136519732Y-88426725D01*
X136519499Y-88416648D01*
X136473814Y-88315097D01*
X136332082Y-88250313D01*
X136070005Y-88216034D01*
X135663286Y-88206000D01*
X135075585Y-88206000D01*
X135075585Y-87901732D01*
X135075585Y-87597465D01*
X135923619Y-87626566D01*
G37*
G36*
X146376726Y-89252497D02*
G01*
X146195762Y-89694295D01*
X146093974Y-89837046D01*
X145862212Y-90022700D01*
X145541353Y-90123160D01*
X145095668Y-90153333D01*
X144867504Y-90160665D01*
X144667115Y-90185219D01*
X144589966Y-90221066D01*
X144613292Y-90311300D01*
X144752118Y-90414673D01*
X145028400Y-90473414D01*
X145456455Y-90492000D01*
X146119063Y-90492000D01*
X146119063Y-90788333D01*
X146119063Y-91084666D01*
X145351786Y-91084666D01*
X145006421Y-91077660D01*
X144563646Y-91032664D01*
X144250406Y-90938984D01*
X144044034Y-90788512D01*
X143921863Y-90573139D01*
X143911359Y-90536442D01*
X143876514Y-90303332D01*
X143849351Y-89940277D01*
X143831707Y-89478214D01*
X143825418Y-88948079D01*
X143825418Y-88206000D01*
X144589966Y-88206000D01*
X144589966Y-88883333D01*
X144589966Y-89560666D01*
X144910864Y-89560666D01*
X145137875Y-89544760D01*
X145410472Y-89440312D01*
X145562306Y-89225004D01*
X145609364Y-88883333D01*
X145592961Y-88663201D01*
X145485249Y-88398865D01*
X145263212Y-88251632D01*
X144910864Y-88206000D01*
X144589966Y-88206000D01*
X143825418Y-88206000D01*
X143825418Y-87598761D01*
X144800931Y-87627214D01*
X145137648Y-87637813D01*
X145453044Y-87654300D01*
X145663907Y-87681825D01*
X145807162Y-87729037D01*
X145919734Y-87804584D01*
X146038546Y-87917117D01*
X146089001Y-87970645D01*
X146319714Y-88349629D01*
X146416833Y-88790594D01*
X146408780Y-88883333D01*
X146376726Y-89252497D01*
G37*
G36*
X176579677Y-94362700D02*
G01*
X176475462Y-94570499D01*
X176456274Y-94590312D01*
X176352315Y-94658591D01*
X176189815Y-94699762D01*
X175931730Y-94719963D01*
X175541014Y-94725333D01*
X174747157Y-94725333D01*
X174747157Y-94132666D01*
X175341806Y-94132666D01*
X175357662Y-94224237D01*
X175450838Y-94286446D01*
X175667447Y-94302000D01*
X175722891Y-94301209D01*
X175934789Y-94282366D01*
X176048984Y-94246290D01*
X176076292Y-94184724D01*
X176010642Y-94081088D01*
X175847077Y-93997612D01*
X175628729Y-93963333D01*
X175510586Y-93967884D01*
X175376504Y-94014323D01*
X175341806Y-94132666D01*
X174747157Y-94132666D01*
X174747157Y-94001818D01*
X174748037Y-93808162D01*
X174759057Y-93513238D01*
X174790708Y-93321586D01*
X174852932Y-93188803D01*
X174955670Y-93070484D01*
X174991950Y-93035408D01*
X175114977Y-92943485D01*
X175267414Y-92891319D01*
X175496043Y-92868013D01*
X175847643Y-92862666D01*
X176139634Y-92864002D01*
X176362753Y-92875128D01*
X176479326Y-92906755D01*
X176523920Y-92969588D01*
X176531103Y-93074333D01*
X176524112Y-93177025D01*
X176473062Y-93250403D01*
X176335924Y-93280309D01*
X176070827Y-93286000D01*
X175732975Y-93299509D01*
X175473875Y-93339819D01*
X175346439Y-93396365D01*
X175359691Y-93458393D01*
X175522655Y-93515148D01*
X175844357Y-93555877D01*
X176066390Y-93581208D01*
X176326377Y-93636857D01*
X176481481Y-93703420D01*
X176572130Y-93847243D01*
X176612071Y-94096931D01*
X176601370Y-94184724D01*
X176579677Y-94362700D01*
G37*
G36*
X183981307Y-94154728D02*
G01*
X183791510Y-94454037D01*
X183490660Y-94653086D01*
X183098246Y-94725333D01*
X182998124Y-94727729D01*
X182814682Y-94755738D01*
X182774916Y-94810000D01*
X182849464Y-94847153D01*
X183053865Y-94881438D01*
X183332104Y-94894666D01*
X183341128Y-94894667D01*
X183618106Y-94899563D01*
X183766319Y-94925264D01*
X183825852Y-94988584D01*
X183836789Y-95106333D01*
X183833896Y-95186072D01*
X183802675Y-95261033D01*
X183707733Y-95300345D01*
X183513677Y-95315502D01*
X183185117Y-95318000D01*
X182869366Y-95314478D01*
X182600505Y-95287531D01*
X182418890Y-95212830D01*
X182307414Y-95066062D01*
X182248969Y-94822912D01*
X182226448Y-94459067D01*
X182222742Y-93950211D01*
X182222742Y-93784941D01*
X182732441Y-93784941D01*
X182733082Y-93878488D01*
X182754827Y-94151065D01*
X182826159Y-94283227D01*
X182972272Y-94297306D01*
X183218361Y-94215631D01*
X183263477Y-94193583D01*
X183407888Y-94037584D01*
X183466299Y-93824699D01*
X183442273Y-93607521D01*
X183339369Y-93438646D01*
X183161149Y-93370666D01*
X183070881Y-93364690D01*
X182866814Y-93319274D01*
X182817694Y-93308365D01*
X182764161Y-93351624D01*
X182738829Y-93499791D01*
X182732441Y-93784941D01*
X182222742Y-93784941D01*
X182222742Y-92862666D01*
X182848410Y-92862666D01*
X182888983Y-92862836D01*
X183338760Y-92898972D01*
X183656288Y-93007978D01*
X183867147Y-93204084D01*
X183996915Y-93501517D01*
X184040562Y-93781696D01*
X184033731Y-93824699D01*
X183981307Y-94154728D01*
G37*
G36*
X142173407Y-89665534D02*
G01*
X142002858Y-89945515D01*
X141911802Y-90028521D01*
X141810980Y-90087165D01*
X141670581Y-90123827D01*
X141458027Y-90143647D01*
X141140739Y-90151768D01*
X140686135Y-90153333D01*
X139577926Y-90153333D01*
X139577926Y-89349000D01*
X140342475Y-89349000D01*
X140342493Y-89358311D01*
X140355064Y-89471501D01*
X140418115Y-89531997D01*
X140571442Y-89556239D01*
X140854840Y-89560666D01*
X140866797Y-89560656D01*
X141171156Y-89548002D01*
X141343520Y-89505665D01*
X141419392Y-89425121D01*
X141434425Y-89362740D01*
X141372392Y-89237260D01*
X141159106Y-89163481D01*
X140788461Y-89138629D01*
X140585324Y-89140760D01*
X140422081Y-89162959D01*
X140355294Y-89225691D01*
X140342475Y-89349000D01*
X139577926Y-89349000D01*
X139577926Y-89225983D01*
X139587169Y-88721967D01*
X139632453Y-88292069D01*
X139735149Y-87989389D01*
X139916519Y-87792051D01*
X140197823Y-87678180D01*
X140600323Y-87625899D01*
X141145279Y-87613333D01*
X142041471Y-87613333D01*
X142041471Y-87909666D01*
X142041471Y-88206000D01*
X141293913Y-88205999D01*
X140890249Y-88217656D01*
X140575354Y-88261726D01*
X140398050Y-88342734D01*
X140342475Y-88464998D01*
X140357827Y-88477248D01*
X140497764Y-88508742D01*
X140752334Y-88540372D01*
X141083080Y-88566848D01*
X141286857Y-88580525D01*
X141583933Y-88610618D01*
X141776017Y-88655161D01*
X141906189Y-88726630D01*
X142017528Y-88837504D01*
X142126563Y-89002147D01*
X142214896Y-89331946D01*
X142211066Y-89362740D01*
X142173407Y-89665534D01*
G37*
G36*
X180458748Y-89685841D02*
G01*
X180266735Y-89986153D01*
X180227048Y-90022488D01*
X180131302Y-90080631D01*
X179991688Y-90118647D01*
X179776706Y-90140677D01*
X179454859Y-90150859D01*
X178994649Y-90153333D01*
X177890301Y-90153333D01*
X177890301Y-89349000D01*
X178654849Y-89349000D01*
X178654852Y-89352784D01*
X178666524Y-89468950D01*
X178727806Y-89531111D01*
X178878781Y-89556079D01*
X179159535Y-89560666D01*
X179412222Y-89551262D01*
X179653608Y-89501119D01*
X179738297Y-89405192D01*
X179671159Y-89260624D01*
X179651566Y-89241185D01*
X179453054Y-89163935D01*
X179111672Y-89137333D01*
X178893384Y-89140424D01*
X178732854Y-89163709D01*
X178667348Y-89226745D01*
X178654849Y-89349000D01*
X177890301Y-89349000D01*
X177890301Y-89142054D01*
X177890832Y-88888143D01*
X177896910Y-88531403D01*
X177914544Y-88289114D01*
X177949568Y-88125702D01*
X178007817Y-88005596D01*
X178095126Y-87893221D01*
X178177041Y-87803517D01*
X178271493Y-87731823D01*
X178399672Y-87685708D01*
X178595611Y-87657831D01*
X178893342Y-87640845D01*
X179326898Y-87627409D01*
X180353846Y-87599151D01*
X180353846Y-87902575D01*
X180353846Y-88206000D01*
X179606287Y-88205999D01*
X179162988Y-88220305D01*
X178868503Y-88266758D01*
X178705216Y-88350566D01*
X178654849Y-88476933D01*
X178718795Y-88509637D01*
X178910676Y-88537100D01*
X179185786Y-88549445D01*
X179247279Y-88550281D01*
X179720572Y-88585076D01*
X180057830Y-88676298D01*
X180284126Y-88834484D01*
X180424530Y-89070175D01*
X180491639Y-89331431D01*
X180484794Y-89405192D01*
X180458748Y-89685841D01*
G37*
G36*
X191480785Y-89701010D02*
G01*
X191288784Y-89987733D01*
X191256010Y-90016280D01*
X191156489Y-90076801D01*
X191015412Y-90116574D01*
X190800706Y-90139791D01*
X190480297Y-90150646D01*
X190022109Y-90153333D01*
X188933779Y-90153333D01*
X188933779Y-89349000D01*
X189698328Y-89349000D01*
X189698328Y-89349755D01*
X189709529Y-89467549D01*
X189769872Y-89530624D01*
X189919595Y-89555991D01*
X190198938Y-89560666D01*
X190396950Y-89555683D01*
X190641851Y-89519054D01*
X190744473Y-89443983D01*
X190757228Y-89399670D01*
X190709318Y-89255252D01*
X190505141Y-89167144D01*
X190148562Y-89137333D01*
X189939918Y-89140191D01*
X189777500Y-89163105D01*
X189711071Y-89226078D01*
X189698328Y-89349000D01*
X188933779Y-89349000D01*
X188933779Y-89130820D01*
X188934971Y-88705296D01*
X188943114Y-88406678D01*
X188965054Y-88207928D01*
X189007634Y-88074038D01*
X189077699Y-87970004D01*
X189182094Y-87860820D01*
X189276085Y-87770450D01*
X189381292Y-87694470D01*
X189511432Y-87648050D01*
X189702747Y-87623908D01*
X189991478Y-87614763D01*
X190413867Y-87613333D01*
X191397324Y-87613333D01*
X191397324Y-87909666D01*
X191397324Y-88206000D01*
X190649766Y-88205999D01*
X190206467Y-88220305D01*
X189911981Y-88266758D01*
X189748694Y-88350566D01*
X189698328Y-88476933D01*
X189747039Y-88506379D01*
X189924346Y-88534206D01*
X190186789Y-88545138D01*
X190206617Y-88545185D01*
X190703767Y-88572422D01*
X191061551Y-88655620D01*
X191303064Y-88803542D01*
X191451402Y-89024951D01*
X191530163Y-89351527D01*
X191523361Y-89399670D01*
X191480785Y-89701010D01*
G37*
%TD*%
M02*
