%TF.GenerationSoftware,KiCad,Pcbnew,9.0.4*%
%TF.CreationDate,2025-10-04T22:47:02-03:00*%
%TF.ProjectId,mb,6d622e6b-6963-4616-945f-706362585858,rev?*%
%TF.SameCoordinates,Original*%
%TF.FileFunction,Legend,Top*%
%TF.FilePolarity,Positive*%
%FSLAX46Y46*%
G04 Gerber Fmt 4.6, Leading zero omitted, Abs format (unit mm)*
G04 Created by KiCad (PCBNEW 9.0.4) date 2025-10-04 22:47:02*
%MOMM*%
%LPD*%
G01*
G04 APERTURE LIST*
%ADD10C,0.100000*%
%ADD11C,0.150000*%
%ADD12C,0.120000*%
%ADD13C,0.127000*%
%ADD14C,0.200000*%
G04 APERTURE END LIST*
D10*
X112000000Y-110500000D02*
X126339999Y-110500000D01*
X126339999Y-124500000D01*
X112000000Y-124500000D01*
X112000000Y-110500000D01*
X128500000Y-111650000D02*
X190000000Y-111650000D01*
X190000000Y-145650000D01*
X128500000Y-145650000D01*
X128500000Y-111650000D01*
X110000000Y-117500000D02*
X112000000Y-117500000D01*
X194730000Y-72000000D02*
X208230000Y-72000000D01*
X214605000Y-57000000D02*
X227355000Y-57000000D01*
X227355000Y-76000000D01*
X214605000Y-76000000D01*
X214605000Y-57000000D01*
X212105000Y-57000000D02*
X214605000Y-57000000D01*
X214605000Y-95000000D01*
X212105000Y-95000000D01*
X212105000Y-57000000D01*
X110000000Y-114000000D02*
X112000000Y-114000000D01*
X205150000Y-60000000D02*
X205150000Y-57000000D01*
X226105000Y-76000000D02*
X229855000Y-76000000D01*
X110000000Y-128000000D02*
X112000000Y-128000000D01*
X112000000Y-124500000D02*
X126339999Y-124500000D01*
X126339999Y-138500000D01*
X112000000Y-138500000D01*
X112000000Y-124500000D01*
X227355000Y-69500000D02*
X229855000Y-69500000D01*
X212105000Y-60000000D02*
X214605000Y-60000000D01*
X240500000Y-109249000D02*
X244480000Y-109249000D01*
X244480000Y-116260000D01*
X240500000Y-116260000D01*
X240500000Y-109249000D01*
X214605000Y-76000000D02*
X227355000Y-76000000D01*
X227355000Y-95000000D01*
X214605000Y-95000000D01*
X214605000Y-76000000D01*
X194730000Y-63000000D02*
X208230000Y-63000000D01*
X227355000Y-85500000D02*
X229855000Y-85500000D01*
X110000000Y-121000000D02*
X112000000Y-121000000D01*
X202150000Y-60000000D02*
X202150000Y-57000000D01*
X110000000Y-124500000D02*
X112000000Y-124500000D01*
X112000000Y-138500000D01*
X110000000Y-138500000D01*
X110000000Y-124500000D01*
X198150000Y-60000000D02*
X198150000Y-57000000D01*
X227355000Y-91500000D02*
X229810000Y-91500000D01*
X212105000Y-69500000D02*
X214605000Y-69500000D01*
X194730000Y-57000000D02*
X208230000Y-57000000D01*
X208230000Y-95000000D01*
X194730000Y-95000000D01*
X194730000Y-57000000D01*
X194730000Y-66000000D02*
X208230000Y-66000000D01*
X212105000Y-88690000D02*
X214605000Y-88690000D01*
X212105000Y-63500000D02*
X214605000Y-63500000D01*
X193530000Y-103760000D02*
X212500000Y-103760000D01*
X212500000Y-121240000D01*
X193530000Y-121240000D01*
X193530000Y-103760000D01*
X212105000Y-66500000D02*
X214605000Y-66500000D01*
X209255000Y-57000000D02*
X212105000Y-57000000D01*
X212105000Y-95000000D01*
X209255000Y-95000000D01*
X209255000Y-57000000D01*
X227355000Y-60000000D02*
X229855000Y-60000000D01*
X212105000Y-91690000D02*
X214560000Y-91690000D01*
X229855000Y-76000000D02*
X232755000Y-76000000D01*
X227355000Y-66500000D02*
X229855000Y-66500000D01*
X194730000Y-60000000D02*
X208230000Y-60000000D01*
X227355000Y-63500000D02*
X229855000Y-63500000D01*
X227355000Y-57000000D02*
X229855000Y-57000000D01*
X229855000Y-95000000D01*
X227355000Y-95000000D01*
X227355000Y-57000000D01*
X110000000Y-135000000D02*
X112000000Y-135000000D01*
X214605000Y-76000000D02*
X212105000Y-76000000D01*
X227355000Y-82500000D02*
X229855000Y-82500000D01*
X227355000Y-88500000D02*
X229855000Y-88500000D01*
X110000000Y-110500000D02*
X112000000Y-110500000D01*
X112000000Y-124500000D01*
X110000000Y-124500000D01*
X110000000Y-110500000D01*
X212105000Y-85690000D02*
X214605000Y-85690000D01*
X227355000Y-79000000D02*
X229855000Y-79000000D01*
X229855000Y-57000000D02*
X232755000Y-57000000D01*
X232755000Y-95000000D01*
X229855000Y-95000000D01*
X229855000Y-57000000D01*
X227355000Y-72500000D02*
X229810000Y-72500000D01*
X212105000Y-72500000D02*
X214560000Y-72500000D01*
X212105000Y-79190000D02*
X214605000Y-79190000D01*
X212105000Y-76000000D02*
X209255000Y-76000000D01*
X212105000Y-82690000D02*
X214605000Y-82690000D01*
X110000000Y-131500000D02*
X112000000Y-131500000D01*
X194730000Y-69000000D02*
X208230000Y-69000000D01*
X199000000Y-128460000D02*
X233810000Y-128460000D01*
X233810000Y-145540000D01*
X199000000Y-145540000D01*
X199000000Y-128460000D01*
X214001895Y-85447142D02*
X213201895Y-85447142D01*
X213201895Y-85447142D02*
X213773323Y-85180476D01*
X213773323Y-85180476D02*
X213201895Y-84913809D01*
X213201895Y-84913809D02*
X214001895Y-84913809D01*
X214001895Y-84532856D02*
X213201895Y-84532856D01*
X213963800Y-84190000D02*
X214001895Y-84075714D01*
X214001895Y-84075714D02*
X214001895Y-83885238D01*
X214001895Y-83885238D02*
X213963800Y-83809047D01*
X213963800Y-83809047D02*
X213925704Y-83770952D01*
X213925704Y-83770952D02*
X213849514Y-83732857D01*
X213849514Y-83732857D02*
X213773323Y-83732857D01*
X213773323Y-83732857D02*
X213697133Y-83770952D01*
X213697133Y-83770952D02*
X213659038Y-83809047D01*
X213659038Y-83809047D02*
X213620942Y-83885238D01*
X213620942Y-83885238D02*
X213582847Y-84037619D01*
X213582847Y-84037619D02*
X213544752Y-84113809D01*
X213544752Y-84113809D02*
X213506657Y-84151904D01*
X213506657Y-84151904D02*
X213430466Y-84190000D01*
X213430466Y-84190000D02*
X213354276Y-84190000D01*
X213354276Y-84190000D02*
X213278085Y-84151904D01*
X213278085Y-84151904D02*
X213239990Y-84113809D01*
X213239990Y-84113809D02*
X213201895Y-84037619D01*
X213201895Y-84037619D02*
X213201895Y-83847142D01*
X213201895Y-83847142D02*
X213239990Y-83732857D01*
X213201895Y-83237618D02*
X213201895Y-83085237D01*
X213201895Y-83085237D02*
X213239990Y-83009047D01*
X213239990Y-83009047D02*
X213316180Y-82932856D01*
X213316180Y-82932856D02*
X213468561Y-82894761D01*
X213468561Y-82894761D02*
X213735228Y-82894761D01*
X213735228Y-82894761D02*
X213887609Y-82932856D01*
X213887609Y-82932856D02*
X213963800Y-83009047D01*
X213963800Y-83009047D02*
X214001895Y-83085237D01*
X214001895Y-83085237D02*
X214001895Y-83237618D01*
X214001895Y-83237618D02*
X213963800Y-83313809D01*
X213963800Y-83313809D02*
X213887609Y-83389999D01*
X213887609Y-83389999D02*
X213735228Y-83428095D01*
X213735228Y-83428095D02*
X213468561Y-83428095D01*
X213468561Y-83428095D02*
X213316180Y-83389999D01*
X213316180Y-83389999D02*
X213239990Y-83313809D01*
X213239990Y-83313809D02*
X213201895Y-83237618D01*
X110527514Y-126685713D02*
X110484657Y-126771428D01*
X110484657Y-126771428D02*
X110484657Y-126899999D01*
X110484657Y-126899999D02*
X110527514Y-127028570D01*
X110527514Y-127028570D02*
X110613228Y-127114285D01*
X110613228Y-127114285D02*
X110698942Y-127157142D01*
X110698942Y-127157142D02*
X110870371Y-127199999D01*
X110870371Y-127199999D02*
X110998942Y-127199999D01*
X110998942Y-127199999D02*
X111170371Y-127157142D01*
X111170371Y-127157142D02*
X111256085Y-127114285D01*
X111256085Y-127114285D02*
X111341800Y-127028570D01*
X111341800Y-127028570D02*
X111384657Y-126899999D01*
X111384657Y-126899999D02*
X111384657Y-126814285D01*
X111384657Y-126814285D02*
X111341800Y-126685713D01*
X111341800Y-126685713D02*
X111298942Y-126642856D01*
X111298942Y-126642856D02*
X110998942Y-126642856D01*
X110998942Y-126642856D02*
X110998942Y-126814285D01*
X111384657Y-126257142D02*
X110484657Y-126257142D01*
X110484657Y-126257142D02*
X111384657Y-125742856D01*
X111384657Y-125742856D02*
X110484657Y-125742856D01*
X111384657Y-125314285D02*
X110484657Y-125314285D01*
X110484657Y-125314285D02*
X110484657Y-125099999D01*
X110484657Y-125099999D02*
X110527514Y-124971428D01*
X110527514Y-124971428D02*
X110613228Y-124885713D01*
X110613228Y-124885713D02*
X110698942Y-124842856D01*
X110698942Y-124842856D02*
X110870371Y-124799999D01*
X110870371Y-124799999D02*
X110998942Y-124799999D01*
X110998942Y-124799999D02*
X111170371Y-124842856D01*
X111170371Y-124842856D02*
X111256085Y-124885713D01*
X111256085Y-124885713D02*
X111341800Y-124971428D01*
X111341800Y-124971428D02*
X111384657Y-125099999D01*
X111384657Y-125099999D02*
X111384657Y-125314285D01*
X204046895Y-59757142D02*
X203246895Y-59757142D01*
X203246895Y-59757142D02*
X203818323Y-59490476D01*
X203818323Y-59490476D02*
X203246895Y-59223809D01*
X203246895Y-59223809D02*
X204046895Y-59223809D01*
X204046895Y-58842856D02*
X203246895Y-58842856D01*
X204008800Y-58500000D02*
X204046895Y-58385714D01*
X204046895Y-58385714D02*
X204046895Y-58195238D01*
X204046895Y-58195238D02*
X204008800Y-58119047D01*
X204008800Y-58119047D02*
X203970704Y-58080952D01*
X203970704Y-58080952D02*
X203894514Y-58042857D01*
X203894514Y-58042857D02*
X203818323Y-58042857D01*
X203818323Y-58042857D02*
X203742133Y-58080952D01*
X203742133Y-58080952D02*
X203704038Y-58119047D01*
X203704038Y-58119047D02*
X203665942Y-58195238D01*
X203665942Y-58195238D02*
X203627847Y-58347619D01*
X203627847Y-58347619D02*
X203589752Y-58423809D01*
X203589752Y-58423809D02*
X203551657Y-58461904D01*
X203551657Y-58461904D02*
X203475466Y-58500000D01*
X203475466Y-58500000D02*
X203399276Y-58500000D01*
X203399276Y-58500000D02*
X203323085Y-58461904D01*
X203323085Y-58461904D02*
X203284990Y-58423809D01*
X203284990Y-58423809D02*
X203246895Y-58347619D01*
X203246895Y-58347619D02*
X203246895Y-58157142D01*
X203246895Y-58157142D02*
X203284990Y-58042857D01*
X203246895Y-57547618D02*
X203246895Y-57395237D01*
X203246895Y-57395237D02*
X203284990Y-57319047D01*
X203284990Y-57319047D02*
X203361180Y-57242856D01*
X203361180Y-57242856D02*
X203513561Y-57204761D01*
X203513561Y-57204761D02*
X203780228Y-57204761D01*
X203780228Y-57204761D02*
X203932609Y-57242856D01*
X203932609Y-57242856D02*
X204008800Y-57319047D01*
X204008800Y-57319047D02*
X204046895Y-57395237D01*
X204046895Y-57395237D02*
X204046895Y-57547618D01*
X204046895Y-57547618D02*
X204008800Y-57623809D01*
X204008800Y-57623809D02*
X203932609Y-57699999D01*
X203932609Y-57699999D02*
X203780228Y-57738095D01*
X203780228Y-57738095D02*
X203513561Y-57738095D01*
X203513561Y-57738095D02*
X203361180Y-57699999D01*
X203361180Y-57699999D02*
X203284990Y-57623809D01*
X203284990Y-57623809D02*
X203246895Y-57547618D01*
X229251895Y-62471428D02*
X228451895Y-62471428D01*
X228451895Y-62471428D02*
X228451895Y-62280952D01*
X228451895Y-62280952D02*
X228489990Y-62166666D01*
X228489990Y-62166666D02*
X228566180Y-62090476D01*
X228566180Y-62090476D02*
X228642371Y-62052381D01*
X228642371Y-62052381D02*
X228794752Y-62014285D01*
X228794752Y-62014285D02*
X228909038Y-62014285D01*
X228909038Y-62014285D02*
X229061419Y-62052381D01*
X229061419Y-62052381D02*
X229137609Y-62090476D01*
X229137609Y-62090476D02*
X229213800Y-62166666D01*
X229213800Y-62166666D02*
X229251895Y-62280952D01*
X229251895Y-62280952D02*
X229251895Y-62471428D01*
X228528085Y-61709524D02*
X228489990Y-61671428D01*
X228489990Y-61671428D02*
X228451895Y-61595238D01*
X228451895Y-61595238D02*
X228451895Y-61404762D01*
X228451895Y-61404762D02*
X228489990Y-61328571D01*
X228489990Y-61328571D02*
X228528085Y-61290476D01*
X228528085Y-61290476D02*
X228604276Y-61252381D01*
X228604276Y-61252381D02*
X228680466Y-61252381D01*
X228680466Y-61252381D02*
X228794752Y-61290476D01*
X228794752Y-61290476D02*
X229251895Y-61747619D01*
X229251895Y-61747619D02*
X229251895Y-61252381D01*
X228451895Y-60566666D02*
X228451895Y-60719047D01*
X228451895Y-60719047D02*
X228489990Y-60795238D01*
X228489990Y-60795238D02*
X228528085Y-60833333D01*
X228528085Y-60833333D02*
X228642371Y-60909523D01*
X228642371Y-60909523D02*
X228794752Y-60947619D01*
X228794752Y-60947619D02*
X229099514Y-60947619D01*
X229099514Y-60947619D02*
X229175704Y-60909523D01*
X229175704Y-60909523D02*
X229213800Y-60871428D01*
X229213800Y-60871428D02*
X229251895Y-60795238D01*
X229251895Y-60795238D02*
X229251895Y-60642857D01*
X229251895Y-60642857D02*
X229213800Y-60566666D01*
X229213800Y-60566666D02*
X229175704Y-60528571D01*
X229175704Y-60528571D02*
X229099514Y-60490476D01*
X229099514Y-60490476D02*
X228909038Y-60490476D01*
X228909038Y-60490476D02*
X228832847Y-60528571D01*
X228832847Y-60528571D02*
X228794752Y-60566666D01*
X228794752Y-60566666D02*
X228756657Y-60642857D01*
X228756657Y-60642857D02*
X228756657Y-60795238D01*
X228756657Y-60795238D02*
X228794752Y-60871428D01*
X228794752Y-60871428D02*
X228832847Y-60909523D01*
X228832847Y-60909523D02*
X228909038Y-60947619D01*
X218142524Y-131952381D02*
X219142524Y-131952381D01*
X219142524Y-131952381D02*
X219142524Y-132190476D01*
X219142524Y-132190476D02*
X219094905Y-132333333D01*
X219094905Y-132333333D02*
X218999667Y-132428571D01*
X218999667Y-132428571D02*
X218904429Y-132476190D01*
X218904429Y-132476190D02*
X218713953Y-132523809D01*
X218713953Y-132523809D02*
X218571096Y-132523809D01*
X218571096Y-132523809D02*
X218380620Y-132476190D01*
X218380620Y-132476190D02*
X218285382Y-132428571D01*
X218285382Y-132428571D02*
X218190144Y-132333333D01*
X218190144Y-132333333D02*
X218142524Y-132190476D01*
X218142524Y-132190476D02*
X218142524Y-131952381D01*
X218237763Y-133523809D02*
X218190144Y-133476190D01*
X218190144Y-133476190D02*
X218142524Y-133333333D01*
X218142524Y-133333333D02*
X218142524Y-133238095D01*
X218142524Y-133238095D02*
X218190144Y-133095238D01*
X218190144Y-133095238D02*
X218285382Y-133000000D01*
X218285382Y-133000000D02*
X218380620Y-132952381D01*
X218380620Y-132952381D02*
X218571096Y-132904762D01*
X218571096Y-132904762D02*
X218713953Y-132904762D01*
X218713953Y-132904762D02*
X218904429Y-132952381D01*
X218904429Y-132952381D02*
X218999667Y-133000000D01*
X218999667Y-133000000D02*
X219094905Y-133095238D01*
X219094905Y-133095238D02*
X219142524Y-133238095D01*
X219142524Y-133238095D02*
X219142524Y-133333333D01*
X219142524Y-133333333D02*
X219094905Y-133476190D01*
X219094905Y-133476190D02*
X219047286Y-133523809D01*
X218523477Y-133952381D02*
X218523477Y-134714286D01*
X218142524Y-135190476D02*
X219142524Y-135190476D01*
X219142524Y-135190476D02*
X219142524Y-135428571D01*
X219142524Y-135428571D02*
X219094905Y-135571428D01*
X219094905Y-135571428D02*
X218999667Y-135666666D01*
X218999667Y-135666666D02*
X218904429Y-135714285D01*
X218904429Y-135714285D02*
X218713953Y-135761904D01*
X218713953Y-135761904D02*
X218571096Y-135761904D01*
X218571096Y-135761904D02*
X218380620Y-135714285D01*
X218380620Y-135714285D02*
X218285382Y-135666666D01*
X218285382Y-135666666D02*
X218190144Y-135571428D01*
X218190144Y-135571428D02*
X218142524Y-135428571D01*
X218142524Y-135428571D02*
X218142524Y-135190476D01*
X218237763Y-136761904D02*
X218190144Y-136714285D01*
X218190144Y-136714285D02*
X218142524Y-136571428D01*
X218142524Y-136571428D02*
X218142524Y-136476190D01*
X218142524Y-136476190D02*
X218190144Y-136333333D01*
X218190144Y-136333333D02*
X218285382Y-136238095D01*
X218285382Y-136238095D02*
X218380620Y-136190476D01*
X218380620Y-136190476D02*
X218571096Y-136142857D01*
X218571096Y-136142857D02*
X218713953Y-136142857D01*
X218713953Y-136142857D02*
X218904429Y-136190476D01*
X218904429Y-136190476D02*
X218999667Y-136238095D01*
X218999667Y-136238095D02*
X219094905Y-136333333D01*
X219094905Y-136333333D02*
X219142524Y-136476190D01*
X219142524Y-136476190D02*
X219142524Y-136571428D01*
X219142524Y-136571428D02*
X219094905Y-136714285D01*
X219094905Y-136714285D02*
X219047286Y-136761904D01*
X218142524Y-138428571D02*
X218142524Y-137952381D01*
X218142524Y-137952381D02*
X219142524Y-137952381D01*
X218142524Y-138761905D02*
X218809191Y-138761905D01*
X219142524Y-138761905D02*
X219094905Y-138714286D01*
X219094905Y-138714286D02*
X219047286Y-138761905D01*
X219047286Y-138761905D02*
X219094905Y-138809524D01*
X219094905Y-138809524D02*
X219142524Y-138761905D01*
X219142524Y-138761905D02*
X219047286Y-138761905D01*
X218809191Y-139238095D02*
X218142524Y-139238095D01*
X218713953Y-139238095D02*
X218761572Y-139285714D01*
X218761572Y-139285714D02*
X218809191Y-139380952D01*
X218809191Y-139380952D02*
X218809191Y-139523809D01*
X218809191Y-139523809D02*
X218761572Y-139619047D01*
X218761572Y-139619047D02*
X218666334Y-139666666D01*
X218666334Y-139666666D02*
X218142524Y-139666666D01*
X218190144Y-140523809D02*
X218142524Y-140428571D01*
X218142524Y-140428571D02*
X218142524Y-140238095D01*
X218142524Y-140238095D02*
X218190144Y-140142857D01*
X218190144Y-140142857D02*
X218285382Y-140095238D01*
X218285382Y-140095238D02*
X218666334Y-140095238D01*
X218666334Y-140095238D02*
X218761572Y-140142857D01*
X218761572Y-140142857D02*
X218809191Y-140238095D01*
X218809191Y-140238095D02*
X218809191Y-140428571D01*
X218809191Y-140428571D02*
X218761572Y-140523809D01*
X218761572Y-140523809D02*
X218666334Y-140571428D01*
X218666334Y-140571428D02*
X218571096Y-140571428D01*
X218571096Y-140571428D02*
X218475858Y-140095238D01*
X218142524Y-141428571D02*
X218666334Y-141428571D01*
X218666334Y-141428571D02*
X218761572Y-141380952D01*
X218761572Y-141380952D02*
X218809191Y-141285714D01*
X218809191Y-141285714D02*
X218809191Y-141095238D01*
X218809191Y-141095238D02*
X218761572Y-141000000D01*
X218190144Y-141428571D02*
X218142524Y-141333333D01*
X218142524Y-141333333D02*
X218142524Y-141095238D01*
X218142524Y-141095238D02*
X218190144Y-141000000D01*
X218190144Y-141000000D02*
X218285382Y-140952381D01*
X218285382Y-140952381D02*
X218380620Y-140952381D01*
X218380620Y-140952381D02*
X218475858Y-141000000D01*
X218475858Y-141000000D02*
X218523477Y-141095238D01*
X218523477Y-141095238D02*
X218523477Y-141333333D01*
X218523477Y-141333333D02*
X218571096Y-141428571D01*
X218142524Y-141904762D02*
X218809191Y-141904762D01*
X218618715Y-141904762D02*
X218713953Y-141952381D01*
X218713953Y-141952381D02*
X218761572Y-142000000D01*
X218761572Y-142000000D02*
X218809191Y-142095238D01*
X218809191Y-142095238D02*
X218809191Y-142190476D01*
X216532580Y-135309523D02*
X216532580Y-134833333D01*
X216532580Y-134833333D02*
X217532580Y-134833333D01*
X216532580Y-135642857D02*
X217532580Y-135642857D01*
X217532580Y-135642857D02*
X216818295Y-135976190D01*
X216818295Y-135976190D02*
X217532580Y-136309523D01*
X217532580Y-136309523D02*
X216532580Y-136309523D01*
X217532580Y-136690476D02*
X217532580Y-137309523D01*
X217532580Y-137309523D02*
X217151628Y-136976190D01*
X217151628Y-136976190D02*
X217151628Y-137119047D01*
X217151628Y-137119047D02*
X217104009Y-137214285D01*
X217104009Y-137214285D02*
X217056390Y-137261904D01*
X217056390Y-137261904D02*
X216961152Y-137309523D01*
X216961152Y-137309523D02*
X216723057Y-137309523D01*
X216723057Y-137309523D02*
X216627819Y-137261904D01*
X216627819Y-137261904D02*
X216580200Y-137214285D01*
X216580200Y-137214285D02*
X216532580Y-137119047D01*
X216532580Y-137119047D02*
X216532580Y-136833333D01*
X216532580Y-136833333D02*
X216580200Y-136738095D01*
X216580200Y-136738095D02*
X216627819Y-136690476D01*
X216532580Y-138261904D02*
X216532580Y-137690476D01*
X216532580Y-137976190D02*
X217532580Y-137976190D01*
X217532580Y-137976190D02*
X217389723Y-137880952D01*
X217389723Y-137880952D02*
X217294485Y-137785714D01*
X217294485Y-137785714D02*
X217246866Y-137690476D01*
X217532580Y-138595238D02*
X217532580Y-139261904D01*
X217532580Y-139261904D02*
X216532580Y-138833333D01*
X229251895Y-81757142D02*
X228451895Y-81757142D01*
X228451895Y-81757142D02*
X229023323Y-81490476D01*
X229023323Y-81490476D02*
X228451895Y-81223809D01*
X228451895Y-81223809D02*
X229251895Y-81223809D01*
X228451895Y-80690475D02*
X228451895Y-80538094D01*
X228451895Y-80538094D02*
X228489990Y-80461904D01*
X228489990Y-80461904D02*
X228566180Y-80385713D01*
X228566180Y-80385713D02*
X228718561Y-80347618D01*
X228718561Y-80347618D02*
X228985228Y-80347618D01*
X228985228Y-80347618D02*
X229137609Y-80385713D01*
X229137609Y-80385713D02*
X229213800Y-80461904D01*
X229213800Y-80461904D02*
X229251895Y-80538094D01*
X229251895Y-80538094D02*
X229251895Y-80690475D01*
X229251895Y-80690475D02*
X229213800Y-80766666D01*
X229213800Y-80766666D02*
X229137609Y-80842856D01*
X229137609Y-80842856D02*
X228985228Y-80880952D01*
X228985228Y-80880952D02*
X228718561Y-80880952D01*
X228718561Y-80880952D02*
X228566180Y-80842856D01*
X228566180Y-80842856D02*
X228489990Y-80766666D01*
X228489990Y-80766666D02*
X228451895Y-80690475D01*
X229213800Y-80042857D02*
X229251895Y-79928571D01*
X229251895Y-79928571D02*
X229251895Y-79738095D01*
X229251895Y-79738095D02*
X229213800Y-79661904D01*
X229213800Y-79661904D02*
X229175704Y-79623809D01*
X229175704Y-79623809D02*
X229099514Y-79585714D01*
X229099514Y-79585714D02*
X229023323Y-79585714D01*
X229023323Y-79585714D02*
X228947133Y-79623809D01*
X228947133Y-79623809D02*
X228909038Y-79661904D01*
X228909038Y-79661904D02*
X228870942Y-79738095D01*
X228870942Y-79738095D02*
X228832847Y-79890476D01*
X228832847Y-79890476D02*
X228794752Y-79966666D01*
X228794752Y-79966666D02*
X228756657Y-80004761D01*
X228756657Y-80004761D02*
X228680466Y-80042857D01*
X228680466Y-80042857D02*
X228604276Y-80042857D01*
X228604276Y-80042857D02*
X228528085Y-80004761D01*
X228528085Y-80004761D02*
X228489990Y-79966666D01*
X228489990Y-79966666D02*
X228451895Y-79890476D01*
X228451895Y-79890476D02*
X228451895Y-79699999D01*
X228451895Y-79699999D02*
X228489990Y-79585714D01*
X229251895Y-79242856D02*
X228451895Y-79242856D01*
X229239657Y-72092857D02*
X228339657Y-72092857D01*
X228339657Y-72092857D02*
X228339657Y-71878571D01*
X228339657Y-71878571D02*
X228382514Y-71750000D01*
X228382514Y-71750000D02*
X228468228Y-71664285D01*
X228468228Y-71664285D02*
X228553942Y-71621428D01*
X228553942Y-71621428D02*
X228725371Y-71578571D01*
X228725371Y-71578571D02*
X228853942Y-71578571D01*
X228853942Y-71578571D02*
X229025371Y-71621428D01*
X229025371Y-71621428D02*
X229111085Y-71664285D01*
X229111085Y-71664285D02*
X229196800Y-71750000D01*
X229196800Y-71750000D02*
X229239657Y-71878571D01*
X229239657Y-71878571D02*
X229239657Y-72092857D01*
X229239657Y-70721428D02*
X229239657Y-71235714D01*
X229239657Y-70978571D02*
X228339657Y-70978571D01*
X228339657Y-70978571D02*
X228468228Y-71064285D01*
X228468228Y-71064285D02*
X228553942Y-71150000D01*
X228553942Y-71150000D02*
X228596800Y-71235714D01*
X228339657Y-69907142D02*
X228339657Y-70335714D01*
X228339657Y-70335714D02*
X228768228Y-70378571D01*
X228768228Y-70378571D02*
X228725371Y-70335714D01*
X228725371Y-70335714D02*
X228682514Y-70250000D01*
X228682514Y-70250000D02*
X228682514Y-70035714D01*
X228682514Y-70035714D02*
X228725371Y-69950000D01*
X228725371Y-69950000D02*
X228768228Y-69907142D01*
X228768228Y-69907142D02*
X228853942Y-69864285D01*
X228853942Y-69864285D02*
X229068228Y-69864285D01*
X229068228Y-69864285D02*
X229153942Y-69907142D01*
X229153942Y-69907142D02*
X229196800Y-69950000D01*
X229196800Y-69950000D02*
X229239657Y-70035714D01*
X229239657Y-70035714D02*
X229239657Y-70250000D01*
X229239657Y-70250000D02*
X229196800Y-70335714D01*
X229196800Y-70335714D02*
X229153942Y-70378571D01*
X229251895Y-85257142D02*
X228451895Y-85257142D01*
X228451895Y-85257142D02*
X229023323Y-84990476D01*
X229023323Y-84990476D02*
X228451895Y-84723809D01*
X228451895Y-84723809D02*
X229251895Y-84723809D01*
X229251895Y-84342856D02*
X228451895Y-84342856D01*
X229213800Y-84000000D02*
X229251895Y-83885714D01*
X229251895Y-83885714D02*
X229251895Y-83695238D01*
X229251895Y-83695238D02*
X229213800Y-83619047D01*
X229213800Y-83619047D02*
X229175704Y-83580952D01*
X229175704Y-83580952D02*
X229099514Y-83542857D01*
X229099514Y-83542857D02*
X229023323Y-83542857D01*
X229023323Y-83542857D02*
X228947133Y-83580952D01*
X228947133Y-83580952D02*
X228909038Y-83619047D01*
X228909038Y-83619047D02*
X228870942Y-83695238D01*
X228870942Y-83695238D02*
X228832847Y-83847619D01*
X228832847Y-83847619D02*
X228794752Y-83923809D01*
X228794752Y-83923809D02*
X228756657Y-83961904D01*
X228756657Y-83961904D02*
X228680466Y-84000000D01*
X228680466Y-84000000D02*
X228604276Y-84000000D01*
X228604276Y-84000000D02*
X228528085Y-83961904D01*
X228528085Y-83961904D02*
X228489990Y-83923809D01*
X228489990Y-83923809D02*
X228451895Y-83847619D01*
X228451895Y-83847619D02*
X228451895Y-83657142D01*
X228451895Y-83657142D02*
X228489990Y-83542857D01*
X228451895Y-83047618D02*
X228451895Y-82895237D01*
X228451895Y-82895237D02*
X228489990Y-82819047D01*
X228489990Y-82819047D02*
X228566180Y-82742856D01*
X228566180Y-82742856D02*
X228718561Y-82704761D01*
X228718561Y-82704761D02*
X228985228Y-82704761D01*
X228985228Y-82704761D02*
X229137609Y-82742856D01*
X229137609Y-82742856D02*
X229213800Y-82819047D01*
X229213800Y-82819047D02*
X229251895Y-82895237D01*
X229251895Y-82895237D02*
X229251895Y-83047618D01*
X229251895Y-83047618D02*
X229213800Y-83123809D01*
X229213800Y-83123809D02*
X229137609Y-83199999D01*
X229137609Y-83199999D02*
X228985228Y-83238095D01*
X228985228Y-83238095D02*
X228718561Y-83238095D01*
X228718561Y-83238095D02*
X228566180Y-83199999D01*
X228566180Y-83199999D02*
X228489990Y-83123809D01*
X228489990Y-83123809D02*
X228451895Y-83047618D01*
X200546895Y-59757142D02*
X199746895Y-59757142D01*
X199746895Y-59757142D02*
X200318323Y-59490476D01*
X200318323Y-59490476D02*
X199746895Y-59223809D01*
X199746895Y-59223809D02*
X200546895Y-59223809D01*
X199746895Y-58690475D02*
X199746895Y-58538094D01*
X199746895Y-58538094D02*
X199784990Y-58461904D01*
X199784990Y-58461904D02*
X199861180Y-58385713D01*
X199861180Y-58385713D02*
X200013561Y-58347618D01*
X200013561Y-58347618D02*
X200280228Y-58347618D01*
X200280228Y-58347618D02*
X200432609Y-58385713D01*
X200432609Y-58385713D02*
X200508800Y-58461904D01*
X200508800Y-58461904D02*
X200546895Y-58538094D01*
X200546895Y-58538094D02*
X200546895Y-58690475D01*
X200546895Y-58690475D02*
X200508800Y-58766666D01*
X200508800Y-58766666D02*
X200432609Y-58842856D01*
X200432609Y-58842856D02*
X200280228Y-58880952D01*
X200280228Y-58880952D02*
X200013561Y-58880952D01*
X200013561Y-58880952D02*
X199861180Y-58842856D01*
X199861180Y-58842856D02*
X199784990Y-58766666D01*
X199784990Y-58766666D02*
X199746895Y-58690475D01*
X200508800Y-58042857D02*
X200546895Y-57928571D01*
X200546895Y-57928571D02*
X200546895Y-57738095D01*
X200546895Y-57738095D02*
X200508800Y-57661904D01*
X200508800Y-57661904D02*
X200470704Y-57623809D01*
X200470704Y-57623809D02*
X200394514Y-57585714D01*
X200394514Y-57585714D02*
X200318323Y-57585714D01*
X200318323Y-57585714D02*
X200242133Y-57623809D01*
X200242133Y-57623809D02*
X200204038Y-57661904D01*
X200204038Y-57661904D02*
X200165942Y-57738095D01*
X200165942Y-57738095D02*
X200127847Y-57890476D01*
X200127847Y-57890476D02*
X200089752Y-57966666D01*
X200089752Y-57966666D02*
X200051657Y-58004761D01*
X200051657Y-58004761D02*
X199975466Y-58042857D01*
X199975466Y-58042857D02*
X199899276Y-58042857D01*
X199899276Y-58042857D02*
X199823085Y-58004761D01*
X199823085Y-58004761D02*
X199784990Y-57966666D01*
X199784990Y-57966666D02*
X199746895Y-57890476D01*
X199746895Y-57890476D02*
X199746895Y-57699999D01*
X199746895Y-57699999D02*
X199784990Y-57585714D01*
X200546895Y-57242856D02*
X199746895Y-57242856D01*
X110527514Y-112685713D02*
X110484657Y-112771428D01*
X110484657Y-112771428D02*
X110484657Y-112899999D01*
X110484657Y-112899999D02*
X110527514Y-113028570D01*
X110527514Y-113028570D02*
X110613228Y-113114285D01*
X110613228Y-113114285D02*
X110698942Y-113157142D01*
X110698942Y-113157142D02*
X110870371Y-113199999D01*
X110870371Y-113199999D02*
X110998942Y-113199999D01*
X110998942Y-113199999D02*
X111170371Y-113157142D01*
X111170371Y-113157142D02*
X111256085Y-113114285D01*
X111256085Y-113114285D02*
X111341800Y-113028570D01*
X111341800Y-113028570D02*
X111384657Y-112899999D01*
X111384657Y-112899999D02*
X111384657Y-112814285D01*
X111384657Y-112814285D02*
X111341800Y-112685713D01*
X111341800Y-112685713D02*
X111298942Y-112642856D01*
X111298942Y-112642856D02*
X110998942Y-112642856D01*
X110998942Y-112642856D02*
X110998942Y-112814285D01*
X111384657Y-112257142D02*
X110484657Y-112257142D01*
X110484657Y-112257142D02*
X111384657Y-111742856D01*
X111384657Y-111742856D02*
X110484657Y-111742856D01*
X111384657Y-111314285D02*
X110484657Y-111314285D01*
X110484657Y-111314285D02*
X110484657Y-111099999D01*
X110484657Y-111099999D02*
X110527514Y-110971428D01*
X110527514Y-110971428D02*
X110613228Y-110885713D01*
X110613228Y-110885713D02*
X110698942Y-110842856D01*
X110698942Y-110842856D02*
X110870371Y-110799999D01*
X110870371Y-110799999D02*
X110998942Y-110799999D01*
X110998942Y-110799999D02*
X111170371Y-110842856D01*
X111170371Y-110842856D02*
X111256085Y-110885713D01*
X111256085Y-110885713D02*
X111341800Y-110971428D01*
X111341800Y-110971428D02*
X111384657Y-111099999D01*
X111384657Y-111099999D02*
X111384657Y-111314285D01*
X229251895Y-65971428D02*
X228451895Y-65971428D01*
X228451895Y-65971428D02*
X228451895Y-65780952D01*
X228451895Y-65780952D02*
X228489990Y-65666666D01*
X228489990Y-65666666D02*
X228566180Y-65590476D01*
X228566180Y-65590476D02*
X228642371Y-65552381D01*
X228642371Y-65552381D02*
X228794752Y-65514285D01*
X228794752Y-65514285D02*
X228909038Y-65514285D01*
X228909038Y-65514285D02*
X229061419Y-65552381D01*
X229061419Y-65552381D02*
X229137609Y-65590476D01*
X229137609Y-65590476D02*
X229213800Y-65666666D01*
X229213800Y-65666666D02*
X229251895Y-65780952D01*
X229251895Y-65780952D02*
X229251895Y-65971428D01*
X228528085Y-65209524D02*
X228489990Y-65171428D01*
X228489990Y-65171428D02*
X228451895Y-65095238D01*
X228451895Y-65095238D02*
X228451895Y-64904762D01*
X228451895Y-64904762D02*
X228489990Y-64828571D01*
X228489990Y-64828571D02*
X228528085Y-64790476D01*
X228528085Y-64790476D02*
X228604276Y-64752381D01*
X228604276Y-64752381D02*
X228680466Y-64752381D01*
X228680466Y-64752381D02*
X228794752Y-64790476D01*
X228794752Y-64790476D02*
X229251895Y-65247619D01*
X229251895Y-65247619D02*
X229251895Y-64752381D01*
X228451895Y-64028571D02*
X228451895Y-64409523D01*
X228451895Y-64409523D02*
X228832847Y-64447619D01*
X228832847Y-64447619D02*
X228794752Y-64409523D01*
X228794752Y-64409523D02*
X228756657Y-64333333D01*
X228756657Y-64333333D02*
X228756657Y-64142857D01*
X228756657Y-64142857D02*
X228794752Y-64066666D01*
X228794752Y-64066666D02*
X228832847Y-64028571D01*
X228832847Y-64028571D02*
X228909038Y-63990476D01*
X228909038Y-63990476D02*
X229099514Y-63990476D01*
X229099514Y-63990476D02*
X229175704Y-64028571D01*
X229175704Y-64028571D02*
X229213800Y-64066666D01*
X229213800Y-64066666D02*
X229251895Y-64142857D01*
X229251895Y-64142857D02*
X229251895Y-64333333D01*
X229251895Y-64333333D02*
X229213800Y-64409523D01*
X229213800Y-64409523D02*
X229175704Y-64447619D01*
X111127514Y-119899999D02*
X111127514Y-119471428D01*
X111384657Y-119985713D02*
X110484657Y-119685713D01*
X110484657Y-119685713D02*
X111384657Y-119385713D01*
X111384657Y-119085713D02*
X110484657Y-119085713D01*
X111384657Y-118657142D02*
X110484657Y-118657142D01*
X110484657Y-118657142D02*
X111384657Y-118142856D01*
X111384657Y-118142856D02*
X110484657Y-118142856D01*
X110484657Y-122671428D02*
X110484657Y-123100000D01*
X110484657Y-123100000D02*
X110913228Y-123142857D01*
X110913228Y-123142857D02*
X110870371Y-123100000D01*
X110870371Y-123100000D02*
X110827514Y-123014286D01*
X110827514Y-123014286D02*
X110827514Y-122800000D01*
X110827514Y-122800000D02*
X110870371Y-122714286D01*
X110870371Y-122714286D02*
X110913228Y-122671428D01*
X110913228Y-122671428D02*
X110998942Y-122628571D01*
X110998942Y-122628571D02*
X111213228Y-122628571D01*
X111213228Y-122628571D02*
X111298942Y-122671428D01*
X111298942Y-122671428D02*
X111341800Y-122714286D01*
X111341800Y-122714286D02*
X111384657Y-122800000D01*
X111384657Y-122800000D02*
X111384657Y-123014286D01*
X111384657Y-123014286D02*
X111341800Y-123100000D01*
X111341800Y-123100000D02*
X111298942Y-123142857D01*
X110484657Y-122371428D02*
X111384657Y-122071428D01*
X111384657Y-122071428D02*
X110484657Y-121771428D01*
X229239657Y-59592857D02*
X228339657Y-59592857D01*
X228339657Y-59592857D02*
X228339657Y-59378571D01*
X228339657Y-59378571D02*
X228382514Y-59250000D01*
X228382514Y-59250000D02*
X228468228Y-59164285D01*
X228468228Y-59164285D02*
X228553942Y-59121428D01*
X228553942Y-59121428D02*
X228725371Y-59078571D01*
X228725371Y-59078571D02*
X228853942Y-59078571D01*
X228853942Y-59078571D02*
X229025371Y-59121428D01*
X229025371Y-59121428D02*
X229111085Y-59164285D01*
X229111085Y-59164285D02*
X229196800Y-59250000D01*
X229196800Y-59250000D02*
X229239657Y-59378571D01*
X229239657Y-59378571D02*
X229239657Y-59592857D01*
X228339657Y-58778571D02*
X228339657Y-58221428D01*
X228339657Y-58221428D02*
X228682514Y-58521428D01*
X228682514Y-58521428D02*
X228682514Y-58392857D01*
X228682514Y-58392857D02*
X228725371Y-58307143D01*
X228725371Y-58307143D02*
X228768228Y-58264285D01*
X228768228Y-58264285D02*
X228853942Y-58221428D01*
X228853942Y-58221428D02*
X229068228Y-58221428D01*
X229068228Y-58221428D02*
X229153942Y-58264285D01*
X229153942Y-58264285D02*
X229196800Y-58307143D01*
X229196800Y-58307143D02*
X229239657Y-58392857D01*
X229239657Y-58392857D02*
X229239657Y-58650000D01*
X229239657Y-58650000D02*
X229196800Y-58735714D01*
X229196800Y-58735714D02*
X229153942Y-58778571D01*
X228639657Y-57450000D02*
X229239657Y-57450000D01*
X228296800Y-57664285D02*
X228939657Y-57878571D01*
X228939657Y-57878571D02*
X228939657Y-57321428D01*
X228339657Y-78614285D02*
X228339657Y-78057142D01*
X228339657Y-78057142D02*
X228682514Y-78357142D01*
X228682514Y-78357142D02*
X228682514Y-78228571D01*
X228682514Y-78228571D02*
X228725371Y-78142857D01*
X228725371Y-78142857D02*
X228768228Y-78099999D01*
X228768228Y-78099999D02*
X228853942Y-78057142D01*
X228853942Y-78057142D02*
X229068228Y-78057142D01*
X229068228Y-78057142D02*
X229153942Y-78099999D01*
X229153942Y-78099999D02*
X229196800Y-78142857D01*
X229196800Y-78142857D02*
X229239657Y-78228571D01*
X229239657Y-78228571D02*
X229239657Y-78485714D01*
X229239657Y-78485714D02*
X229196800Y-78571428D01*
X229196800Y-78571428D02*
X229153942Y-78614285D01*
X228339657Y-77799999D02*
X229239657Y-77499999D01*
X229239657Y-77499999D02*
X228339657Y-77199999D01*
X228339657Y-76985713D02*
X228339657Y-76428570D01*
X228339657Y-76428570D02*
X228682514Y-76728570D01*
X228682514Y-76728570D02*
X228682514Y-76599999D01*
X228682514Y-76599999D02*
X228725371Y-76514285D01*
X228725371Y-76514285D02*
X228768228Y-76471427D01*
X228768228Y-76471427D02*
X228853942Y-76428570D01*
X228853942Y-76428570D02*
X229068228Y-76428570D01*
X229068228Y-76428570D02*
X229153942Y-76471427D01*
X229153942Y-76471427D02*
X229196800Y-76514285D01*
X229196800Y-76514285D02*
X229239657Y-76599999D01*
X229239657Y-76599999D02*
X229239657Y-76857142D01*
X229239657Y-76857142D02*
X229196800Y-76942856D01*
X229196800Y-76942856D02*
X229153942Y-76985713D01*
X214001895Y-81947142D02*
X213201895Y-81947142D01*
X213201895Y-81947142D02*
X213773323Y-81680476D01*
X213773323Y-81680476D02*
X213201895Y-81413809D01*
X213201895Y-81413809D02*
X214001895Y-81413809D01*
X213201895Y-80880475D02*
X213201895Y-80728094D01*
X213201895Y-80728094D02*
X213239990Y-80651904D01*
X213239990Y-80651904D02*
X213316180Y-80575713D01*
X213316180Y-80575713D02*
X213468561Y-80537618D01*
X213468561Y-80537618D02*
X213735228Y-80537618D01*
X213735228Y-80537618D02*
X213887609Y-80575713D01*
X213887609Y-80575713D02*
X213963800Y-80651904D01*
X213963800Y-80651904D02*
X214001895Y-80728094D01*
X214001895Y-80728094D02*
X214001895Y-80880475D01*
X214001895Y-80880475D02*
X213963800Y-80956666D01*
X213963800Y-80956666D02*
X213887609Y-81032856D01*
X213887609Y-81032856D02*
X213735228Y-81070952D01*
X213735228Y-81070952D02*
X213468561Y-81070952D01*
X213468561Y-81070952D02*
X213316180Y-81032856D01*
X213316180Y-81032856D02*
X213239990Y-80956666D01*
X213239990Y-80956666D02*
X213201895Y-80880475D01*
X213963800Y-80232857D02*
X214001895Y-80118571D01*
X214001895Y-80118571D02*
X214001895Y-79928095D01*
X214001895Y-79928095D02*
X213963800Y-79851904D01*
X213963800Y-79851904D02*
X213925704Y-79813809D01*
X213925704Y-79813809D02*
X213849514Y-79775714D01*
X213849514Y-79775714D02*
X213773323Y-79775714D01*
X213773323Y-79775714D02*
X213697133Y-79813809D01*
X213697133Y-79813809D02*
X213659038Y-79851904D01*
X213659038Y-79851904D02*
X213620942Y-79928095D01*
X213620942Y-79928095D02*
X213582847Y-80080476D01*
X213582847Y-80080476D02*
X213544752Y-80156666D01*
X213544752Y-80156666D02*
X213506657Y-80194761D01*
X213506657Y-80194761D02*
X213430466Y-80232857D01*
X213430466Y-80232857D02*
X213354276Y-80232857D01*
X213354276Y-80232857D02*
X213278085Y-80194761D01*
X213278085Y-80194761D02*
X213239990Y-80156666D01*
X213239990Y-80156666D02*
X213201895Y-80080476D01*
X213201895Y-80080476D02*
X213201895Y-79889999D01*
X213201895Y-79889999D02*
X213239990Y-79775714D01*
X214001895Y-79432856D02*
X213201895Y-79432856D01*
X229153942Y-90535713D02*
X229196800Y-90578570D01*
X229196800Y-90578570D02*
X229239657Y-90707142D01*
X229239657Y-90707142D02*
X229239657Y-90792856D01*
X229239657Y-90792856D02*
X229196800Y-90921427D01*
X229196800Y-90921427D02*
X229111085Y-91007142D01*
X229111085Y-91007142D02*
X229025371Y-91049999D01*
X229025371Y-91049999D02*
X228853942Y-91092856D01*
X228853942Y-91092856D02*
X228725371Y-91092856D01*
X228725371Y-91092856D02*
X228553942Y-91049999D01*
X228553942Y-91049999D02*
X228468228Y-91007142D01*
X228468228Y-91007142D02*
X228382514Y-90921427D01*
X228382514Y-90921427D02*
X228339657Y-90792856D01*
X228339657Y-90792856D02*
X228339657Y-90707142D01*
X228339657Y-90707142D02*
X228382514Y-90578570D01*
X228382514Y-90578570D02*
X228425371Y-90535713D01*
X229239657Y-89721427D02*
X229239657Y-90149999D01*
X229239657Y-90149999D02*
X228339657Y-90149999D01*
X229239657Y-89421428D02*
X228339657Y-89421428D01*
X229239657Y-88907142D02*
X228725371Y-89292856D01*
X228339657Y-88907142D02*
X228853942Y-89421428D01*
X148256265Y-81824800D02*
X148399122Y-81872419D01*
X148399122Y-81872419D02*
X148637217Y-81872419D01*
X148637217Y-81872419D02*
X148732455Y-81824800D01*
X148732455Y-81824800D02*
X148780074Y-81777180D01*
X148780074Y-81777180D02*
X148827693Y-81681942D01*
X148827693Y-81681942D02*
X148827693Y-81586704D01*
X148827693Y-81586704D02*
X148780074Y-81491466D01*
X148780074Y-81491466D02*
X148732455Y-81443847D01*
X148732455Y-81443847D02*
X148637217Y-81396228D01*
X148637217Y-81396228D02*
X148446741Y-81348609D01*
X148446741Y-81348609D02*
X148351503Y-81300990D01*
X148351503Y-81300990D02*
X148303884Y-81253371D01*
X148303884Y-81253371D02*
X148256265Y-81158133D01*
X148256265Y-81158133D02*
X148256265Y-81062895D01*
X148256265Y-81062895D02*
X148303884Y-80967657D01*
X148303884Y-80967657D02*
X148351503Y-80920038D01*
X148351503Y-80920038D02*
X148446741Y-80872419D01*
X148446741Y-80872419D02*
X148684836Y-80872419D01*
X148684836Y-80872419D02*
X148827693Y-80920038D01*
X149256265Y-81872419D02*
X149256265Y-81205752D01*
X149256265Y-80872419D02*
X149208646Y-80920038D01*
X149208646Y-80920038D02*
X149256265Y-80967657D01*
X149256265Y-80967657D02*
X149303884Y-80920038D01*
X149303884Y-80920038D02*
X149256265Y-80872419D01*
X149256265Y-80872419D02*
X149256265Y-80967657D01*
X149732455Y-81872419D02*
X149732455Y-81205752D01*
X149732455Y-81300990D02*
X149780074Y-81253371D01*
X149780074Y-81253371D02*
X149875312Y-81205752D01*
X149875312Y-81205752D02*
X150018169Y-81205752D01*
X150018169Y-81205752D02*
X150113407Y-81253371D01*
X150113407Y-81253371D02*
X150161026Y-81348609D01*
X150161026Y-81348609D02*
X150161026Y-81872419D01*
X150161026Y-81348609D02*
X150208645Y-81253371D01*
X150208645Y-81253371D02*
X150303883Y-81205752D01*
X150303883Y-81205752D02*
X150446740Y-81205752D01*
X150446740Y-81205752D02*
X150541979Y-81253371D01*
X150541979Y-81253371D02*
X150589598Y-81348609D01*
X150589598Y-81348609D02*
X150589598Y-81872419D01*
X151065788Y-81205752D02*
X151065788Y-82205752D01*
X151065788Y-81253371D02*
X151161026Y-81205752D01*
X151161026Y-81205752D02*
X151351502Y-81205752D01*
X151351502Y-81205752D02*
X151446740Y-81253371D01*
X151446740Y-81253371D02*
X151494359Y-81300990D01*
X151494359Y-81300990D02*
X151541978Y-81396228D01*
X151541978Y-81396228D02*
X151541978Y-81681942D01*
X151541978Y-81681942D02*
X151494359Y-81777180D01*
X151494359Y-81777180D02*
X151446740Y-81824800D01*
X151446740Y-81824800D02*
X151351502Y-81872419D01*
X151351502Y-81872419D02*
X151161026Y-81872419D01*
X151161026Y-81872419D02*
X151065788Y-81824800D01*
X152113407Y-81872419D02*
X152018169Y-81824800D01*
X152018169Y-81824800D02*
X151970550Y-81729561D01*
X151970550Y-81729561D02*
X151970550Y-80872419D01*
X152875312Y-81824800D02*
X152780074Y-81872419D01*
X152780074Y-81872419D02*
X152589598Y-81872419D01*
X152589598Y-81872419D02*
X152494360Y-81824800D01*
X152494360Y-81824800D02*
X152446741Y-81729561D01*
X152446741Y-81729561D02*
X152446741Y-81348609D01*
X152446741Y-81348609D02*
X152494360Y-81253371D01*
X152494360Y-81253371D02*
X152589598Y-81205752D01*
X152589598Y-81205752D02*
X152780074Y-81205752D01*
X152780074Y-81205752D02*
X152875312Y-81253371D01*
X152875312Y-81253371D02*
X152922931Y-81348609D01*
X152922931Y-81348609D02*
X152922931Y-81443847D01*
X152922931Y-81443847D02*
X152446741Y-81539085D01*
X153684836Y-81348609D02*
X153351503Y-81348609D01*
X153351503Y-81872419D02*
X153351503Y-80872419D01*
X153351503Y-80872419D02*
X153827693Y-80872419D01*
X154399122Y-80872419D02*
X154589598Y-80872419D01*
X154589598Y-80872419D02*
X154684836Y-80920038D01*
X154684836Y-80920038D02*
X154780074Y-81015276D01*
X154780074Y-81015276D02*
X154827693Y-81205752D01*
X154827693Y-81205752D02*
X154827693Y-81539085D01*
X154827693Y-81539085D02*
X154780074Y-81729561D01*
X154780074Y-81729561D02*
X154684836Y-81824800D01*
X154684836Y-81824800D02*
X154589598Y-81872419D01*
X154589598Y-81872419D02*
X154399122Y-81872419D01*
X154399122Y-81872419D02*
X154303884Y-81824800D01*
X154303884Y-81824800D02*
X154208646Y-81729561D01*
X154208646Y-81729561D02*
X154161027Y-81539085D01*
X154161027Y-81539085D02*
X154161027Y-81205752D01*
X154161027Y-81205752D02*
X154208646Y-81015276D01*
X154208646Y-81015276D02*
X154303884Y-80920038D01*
X154303884Y-80920038D02*
X154399122Y-80872419D01*
X155827693Y-81777180D02*
X155780074Y-81824800D01*
X155780074Y-81824800D02*
X155637217Y-81872419D01*
X155637217Y-81872419D02*
X155541979Y-81872419D01*
X155541979Y-81872419D02*
X155399122Y-81824800D01*
X155399122Y-81824800D02*
X155303884Y-81729561D01*
X155303884Y-81729561D02*
X155256265Y-81634323D01*
X155256265Y-81634323D02*
X155208646Y-81443847D01*
X155208646Y-81443847D02*
X155208646Y-81300990D01*
X155208646Y-81300990D02*
X155256265Y-81110514D01*
X155256265Y-81110514D02*
X155303884Y-81015276D01*
X155303884Y-81015276D02*
X155399122Y-80920038D01*
X155399122Y-80920038D02*
X155541979Y-80872419D01*
X155541979Y-80872419D02*
X155637217Y-80872419D01*
X155637217Y-80872419D02*
X155780074Y-80920038D01*
X155780074Y-80920038D02*
X155827693Y-80967657D01*
X156970551Y-81824800D02*
X157113408Y-81872419D01*
X157113408Y-81872419D02*
X157351503Y-81872419D01*
X157351503Y-81872419D02*
X157446741Y-81824800D01*
X157446741Y-81824800D02*
X157494360Y-81777180D01*
X157494360Y-81777180D02*
X157541979Y-81681942D01*
X157541979Y-81681942D02*
X157541979Y-81586704D01*
X157541979Y-81586704D02*
X157494360Y-81491466D01*
X157494360Y-81491466D02*
X157446741Y-81443847D01*
X157446741Y-81443847D02*
X157351503Y-81396228D01*
X157351503Y-81396228D02*
X157161027Y-81348609D01*
X157161027Y-81348609D02*
X157065789Y-81300990D01*
X157065789Y-81300990D02*
X157018170Y-81253371D01*
X157018170Y-81253371D02*
X156970551Y-81158133D01*
X156970551Y-81158133D02*
X156970551Y-81062895D01*
X156970551Y-81062895D02*
X157018170Y-80967657D01*
X157018170Y-80967657D02*
X157065789Y-80920038D01*
X157065789Y-80920038D02*
X157161027Y-80872419D01*
X157161027Y-80872419D02*
X157399122Y-80872419D01*
X157399122Y-80872419D02*
X157541979Y-80920038D01*
X157970551Y-81872419D02*
X157970551Y-80872419D01*
X158399122Y-81872419D02*
X158399122Y-81348609D01*
X158399122Y-81348609D02*
X158351503Y-81253371D01*
X158351503Y-81253371D02*
X158256265Y-81205752D01*
X158256265Y-81205752D02*
X158113408Y-81205752D01*
X158113408Y-81205752D02*
X158018170Y-81253371D01*
X158018170Y-81253371D02*
X157970551Y-81300990D01*
X158875313Y-81872419D02*
X158875313Y-81205752D01*
X158875313Y-80872419D02*
X158827694Y-80920038D01*
X158827694Y-80920038D02*
X158875313Y-80967657D01*
X158875313Y-80967657D02*
X158922932Y-80920038D01*
X158922932Y-80920038D02*
X158875313Y-80872419D01*
X158875313Y-80872419D02*
X158875313Y-80967657D01*
X159732455Y-81824800D02*
X159637217Y-81872419D01*
X159637217Y-81872419D02*
X159446741Y-81872419D01*
X159446741Y-81872419D02*
X159351503Y-81824800D01*
X159351503Y-81824800D02*
X159303884Y-81729561D01*
X159303884Y-81729561D02*
X159303884Y-81348609D01*
X159303884Y-81348609D02*
X159351503Y-81253371D01*
X159351503Y-81253371D02*
X159446741Y-81205752D01*
X159446741Y-81205752D02*
X159637217Y-81205752D01*
X159637217Y-81205752D02*
X159732455Y-81253371D01*
X159732455Y-81253371D02*
X159780074Y-81348609D01*
X159780074Y-81348609D02*
X159780074Y-81443847D01*
X159780074Y-81443847D02*
X159303884Y-81539085D01*
X160351503Y-81872419D02*
X160256265Y-81824800D01*
X160256265Y-81824800D02*
X160208646Y-81729561D01*
X160208646Y-81729561D02*
X160208646Y-80872419D01*
X161161027Y-81872419D02*
X161161027Y-80872419D01*
X161161027Y-81824800D02*
X161065789Y-81872419D01*
X161065789Y-81872419D02*
X160875313Y-81872419D01*
X160875313Y-81872419D02*
X160780075Y-81824800D01*
X160780075Y-81824800D02*
X160732456Y-81777180D01*
X160732456Y-81777180D02*
X160684837Y-81681942D01*
X160684837Y-81681942D02*
X160684837Y-81396228D01*
X160684837Y-81396228D02*
X160732456Y-81300990D01*
X160732456Y-81300990D02*
X160780075Y-81253371D01*
X160780075Y-81253371D02*
X160875313Y-81205752D01*
X160875313Y-81205752D02*
X161065789Y-81205752D01*
X161065789Y-81205752D02*
X161161027Y-81253371D01*
X111127514Y-116399999D02*
X111127514Y-115971428D01*
X111384657Y-116485713D02*
X110484657Y-116185713D01*
X110484657Y-116185713D02*
X111384657Y-115885713D01*
X111384657Y-115585713D02*
X110484657Y-115585713D01*
X111384657Y-115157142D02*
X110484657Y-115157142D01*
X110484657Y-115157142D02*
X111384657Y-114642856D01*
X111384657Y-114642856D02*
X110484657Y-114642856D01*
X228382514Y-93875713D02*
X228339657Y-93961428D01*
X228339657Y-93961428D02*
X228339657Y-94089999D01*
X228339657Y-94089999D02*
X228382514Y-94218570D01*
X228382514Y-94218570D02*
X228468228Y-94304285D01*
X228468228Y-94304285D02*
X228553942Y-94347142D01*
X228553942Y-94347142D02*
X228725371Y-94389999D01*
X228725371Y-94389999D02*
X228853942Y-94389999D01*
X228853942Y-94389999D02*
X229025371Y-94347142D01*
X229025371Y-94347142D02*
X229111085Y-94304285D01*
X229111085Y-94304285D02*
X229196800Y-94218570D01*
X229196800Y-94218570D02*
X229239657Y-94089999D01*
X229239657Y-94089999D02*
X229239657Y-94004285D01*
X229239657Y-94004285D02*
X229196800Y-93875713D01*
X229196800Y-93875713D02*
X229153942Y-93832856D01*
X229153942Y-93832856D02*
X228853942Y-93832856D01*
X228853942Y-93832856D02*
X228853942Y-94004285D01*
X229239657Y-93447142D02*
X228339657Y-93447142D01*
X228339657Y-93447142D02*
X229239657Y-92932856D01*
X229239657Y-92932856D02*
X228339657Y-92932856D01*
X229239657Y-92504285D02*
X228339657Y-92504285D01*
X228339657Y-92504285D02*
X228339657Y-92289999D01*
X228339657Y-92289999D02*
X228382514Y-92161428D01*
X228382514Y-92161428D02*
X228468228Y-92075713D01*
X228468228Y-92075713D02*
X228553942Y-92032856D01*
X228553942Y-92032856D02*
X228725371Y-91989999D01*
X228725371Y-91989999D02*
X228853942Y-91989999D01*
X228853942Y-91989999D02*
X229025371Y-92032856D01*
X229025371Y-92032856D02*
X229111085Y-92075713D01*
X229111085Y-92075713D02*
X229196800Y-92161428D01*
X229196800Y-92161428D02*
X229239657Y-92289999D01*
X229239657Y-92289999D02*
X229239657Y-92504285D01*
X213884657Y-71578571D02*
X213456085Y-71878571D01*
X213884657Y-72092857D02*
X212984657Y-72092857D01*
X212984657Y-72092857D02*
X212984657Y-71750000D01*
X212984657Y-71750000D02*
X213027514Y-71664285D01*
X213027514Y-71664285D02*
X213070371Y-71621428D01*
X213070371Y-71621428D02*
X213156085Y-71578571D01*
X213156085Y-71578571D02*
X213284657Y-71578571D01*
X213284657Y-71578571D02*
X213370371Y-71621428D01*
X213370371Y-71621428D02*
X213413228Y-71664285D01*
X213413228Y-71664285D02*
X213456085Y-71750000D01*
X213456085Y-71750000D02*
X213456085Y-72092857D01*
X212984657Y-71278571D02*
X213884657Y-70678571D01*
X212984657Y-70678571D02*
X213884657Y-71278571D01*
X212984657Y-70164285D02*
X212984657Y-70078571D01*
X212984657Y-70078571D02*
X213027514Y-69992857D01*
X213027514Y-69992857D02*
X213070371Y-69950000D01*
X213070371Y-69950000D02*
X213156085Y-69907142D01*
X213156085Y-69907142D02*
X213327514Y-69864285D01*
X213327514Y-69864285D02*
X213541800Y-69864285D01*
X213541800Y-69864285D02*
X213713228Y-69907142D01*
X213713228Y-69907142D02*
X213798942Y-69950000D01*
X213798942Y-69950000D02*
X213841800Y-69992857D01*
X213841800Y-69992857D02*
X213884657Y-70078571D01*
X213884657Y-70078571D02*
X213884657Y-70164285D01*
X213884657Y-70164285D02*
X213841800Y-70250000D01*
X213841800Y-70250000D02*
X213798942Y-70292857D01*
X213798942Y-70292857D02*
X213713228Y-70335714D01*
X213713228Y-70335714D02*
X213541800Y-70378571D01*
X213541800Y-70378571D02*
X213327514Y-70378571D01*
X213327514Y-70378571D02*
X213156085Y-70335714D01*
X213156085Y-70335714D02*
X213070371Y-70292857D01*
X213070371Y-70292857D02*
X213027514Y-70250000D01*
X213027514Y-70250000D02*
X212984657Y-70164285D01*
X213903942Y-87339999D02*
X213946800Y-87382856D01*
X213946800Y-87382856D02*
X213989657Y-87511428D01*
X213989657Y-87511428D02*
X213989657Y-87597142D01*
X213989657Y-87597142D02*
X213946800Y-87725713D01*
X213946800Y-87725713D02*
X213861085Y-87811428D01*
X213861085Y-87811428D02*
X213775371Y-87854285D01*
X213775371Y-87854285D02*
X213603942Y-87897142D01*
X213603942Y-87897142D02*
X213475371Y-87897142D01*
X213475371Y-87897142D02*
X213303942Y-87854285D01*
X213303942Y-87854285D02*
X213218228Y-87811428D01*
X213218228Y-87811428D02*
X213132514Y-87725713D01*
X213132514Y-87725713D02*
X213089657Y-87597142D01*
X213089657Y-87597142D02*
X213089657Y-87511428D01*
X213089657Y-87511428D02*
X213132514Y-87382856D01*
X213132514Y-87382856D02*
X213175371Y-87339999D01*
X213946800Y-86997142D02*
X213989657Y-86868571D01*
X213989657Y-86868571D02*
X213989657Y-86654285D01*
X213989657Y-86654285D02*
X213946800Y-86568571D01*
X213946800Y-86568571D02*
X213903942Y-86525713D01*
X213903942Y-86525713D02*
X213818228Y-86482856D01*
X213818228Y-86482856D02*
X213732514Y-86482856D01*
X213732514Y-86482856D02*
X213646800Y-86525713D01*
X213646800Y-86525713D02*
X213603942Y-86568571D01*
X213603942Y-86568571D02*
X213561085Y-86654285D01*
X213561085Y-86654285D02*
X213518228Y-86825713D01*
X213518228Y-86825713D02*
X213475371Y-86911428D01*
X213475371Y-86911428D02*
X213432514Y-86954285D01*
X213432514Y-86954285D02*
X213346800Y-86997142D01*
X213346800Y-86997142D02*
X213261085Y-86997142D01*
X213261085Y-86997142D02*
X213175371Y-86954285D01*
X213175371Y-86954285D02*
X213132514Y-86911428D01*
X213132514Y-86911428D02*
X213089657Y-86825713D01*
X213089657Y-86825713D02*
X213089657Y-86611428D01*
X213089657Y-86611428D02*
X213132514Y-86482856D01*
X213201895Y-65990476D02*
X213201895Y-65533333D01*
X214001895Y-65761905D02*
X213201895Y-65761905D01*
X213201895Y-65342857D02*
X214001895Y-64809523D01*
X213201895Y-64809523D02*
X214001895Y-65342857D01*
X213278085Y-64542857D02*
X213239990Y-64504761D01*
X213239990Y-64504761D02*
X213201895Y-64428571D01*
X213201895Y-64428571D02*
X213201895Y-64238095D01*
X213201895Y-64238095D02*
X213239990Y-64161904D01*
X213239990Y-64161904D02*
X213278085Y-64123809D01*
X213278085Y-64123809D02*
X213354276Y-64085714D01*
X213354276Y-64085714D02*
X213430466Y-64085714D01*
X213430466Y-64085714D02*
X213544752Y-64123809D01*
X213544752Y-64123809D02*
X214001895Y-64580952D01*
X214001895Y-64580952D02*
X214001895Y-64085714D01*
X194078609Y-83619048D02*
X194078609Y-83285715D01*
X194602419Y-83142858D02*
X194602419Y-83619048D01*
X194602419Y-83619048D02*
X193602419Y-83619048D01*
X193602419Y-83619048D02*
X193602419Y-83142858D01*
X194602419Y-82809524D02*
X193935752Y-82285715D01*
X193935752Y-82809524D02*
X194602419Y-82285715D01*
X193935752Y-81904762D02*
X194935752Y-81904762D01*
X193983371Y-81904762D02*
X193935752Y-81809524D01*
X193935752Y-81809524D02*
X193935752Y-81619048D01*
X193935752Y-81619048D02*
X193983371Y-81523810D01*
X193983371Y-81523810D02*
X194030990Y-81476191D01*
X194030990Y-81476191D02*
X194126228Y-81428572D01*
X194126228Y-81428572D02*
X194411942Y-81428572D01*
X194411942Y-81428572D02*
X194507180Y-81476191D01*
X194507180Y-81476191D02*
X194554800Y-81523810D01*
X194554800Y-81523810D02*
X194602419Y-81619048D01*
X194602419Y-81619048D02*
X194602419Y-81809524D01*
X194602419Y-81809524D02*
X194554800Y-81904762D01*
X194602419Y-80571429D02*
X194078609Y-80571429D01*
X194078609Y-80571429D02*
X193983371Y-80619048D01*
X193983371Y-80619048D02*
X193935752Y-80714286D01*
X193935752Y-80714286D02*
X193935752Y-80904762D01*
X193935752Y-80904762D02*
X193983371Y-81000000D01*
X194554800Y-80571429D02*
X194602419Y-80666667D01*
X194602419Y-80666667D02*
X194602419Y-80904762D01*
X194602419Y-80904762D02*
X194554800Y-81000000D01*
X194554800Y-81000000D02*
X194459561Y-81047619D01*
X194459561Y-81047619D02*
X194364323Y-81047619D01*
X194364323Y-81047619D02*
X194269085Y-81000000D01*
X194269085Y-81000000D02*
X194221466Y-80904762D01*
X194221466Y-80904762D02*
X194221466Y-80666667D01*
X194221466Y-80666667D02*
X194173847Y-80571429D01*
X193935752Y-80095238D02*
X194602419Y-80095238D01*
X194030990Y-80095238D02*
X193983371Y-80047619D01*
X193983371Y-80047619D02*
X193935752Y-79952381D01*
X193935752Y-79952381D02*
X193935752Y-79809524D01*
X193935752Y-79809524D02*
X193983371Y-79714286D01*
X193983371Y-79714286D02*
X194078609Y-79666667D01*
X194078609Y-79666667D02*
X194602419Y-79666667D01*
X194554800Y-79238095D02*
X194602419Y-79142857D01*
X194602419Y-79142857D02*
X194602419Y-78952381D01*
X194602419Y-78952381D02*
X194554800Y-78857143D01*
X194554800Y-78857143D02*
X194459561Y-78809524D01*
X194459561Y-78809524D02*
X194411942Y-78809524D01*
X194411942Y-78809524D02*
X194316704Y-78857143D01*
X194316704Y-78857143D02*
X194269085Y-78952381D01*
X194269085Y-78952381D02*
X194269085Y-79095238D01*
X194269085Y-79095238D02*
X194221466Y-79190476D01*
X194221466Y-79190476D02*
X194126228Y-79238095D01*
X194126228Y-79238095D02*
X194078609Y-79238095D01*
X194078609Y-79238095D02*
X193983371Y-79190476D01*
X193983371Y-79190476D02*
X193935752Y-79095238D01*
X193935752Y-79095238D02*
X193935752Y-78952381D01*
X193935752Y-78952381D02*
X193983371Y-78857143D01*
X194602419Y-78238095D02*
X194554800Y-78333333D01*
X194554800Y-78333333D02*
X194507180Y-78380952D01*
X194507180Y-78380952D02*
X194411942Y-78428571D01*
X194411942Y-78428571D02*
X194126228Y-78428571D01*
X194126228Y-78428571D02*
X194030990Y-78380952D01*
X194030990Y-78380952D02*
X193983371Y-78333333D01*
X193983371Y-78333333D02*
X193935752Y-78238095D01*
X193935752Y-78238095D02*
X193935752Y-78095238D01*
X193935752Y-78095238D02*
X193983371Y-78000000D01*
X193983371Y-78000000D02*
X194030990Y-77952381D01*
X194030990Y-77952381D02*
X194126228Y-77904762D01*
X194126228Y-77904762D02*
X194411942Y-77904762D01*
X194411942Y-77904762D02*
X194507180Y-77952381D01*
X194507180Y-77952381D02*
X194554800Y-78000000D01*
X194554800Y-78000000D02*
X194602419Y-78095238D01*
X194602419Y-78095238D02*
X194602419Y-78238095D01*
X193697657Y-78380952D02*
X193650038Y-78333333D01*
X193650038Y-78333333D02*
X193602419Y-78238095D01*
X193602419Y-78238095D02*
X193697657Y-78047619D01*
X193697657Y-78047619D02*
X193650038Y-77952381D01*
X193650038Y-77952381D02*
X193602419Y-77904762D01*
X194554800Y-77095238D02*
X194602419Y-77190476D01*
X194602419Y-77190476D02*
X194602419Y-77380952D01*
X194602419Y-77380952D02*
X194554800Y-77476190D01*
X194554800Y-77476190D02*
X194459561Y-77523809D01*
X194459561Y-77523809D02*
X194078609Y-77523809D01*
X194078609Y-77523809D02*
X193983371Y-77476190D01*
X193983371Y-77476190D02*
X193935752Y-77380952D01*
X193935752Y-77380952D02*
X193935752Y-77190476D01*
X193935752Y-77190476D02*
X193983371Y-77095238D01*
X193983371Y-77095238D02*
X194078609Y-77047619D01*
X194078609Y-77047619D02*
X194173847Y-77047619D01*
X194173847Y-77047619D02*
X194269085Y-77523809D01*
X194554800Y-76666666D02*
X194602419Y-76571428D01*
X194602419Y-76571428D02*
X194602419Y-76380952D01*
X194602419Y-76380952D02*
X194554800Y-76285714D01*
X194554800Y-76285714D02*
X194459561Y-76238095D01*
X194459561Y-76238095D02*
X194411942Y-76238095D01*
X194411942Y-76238095D02*
X194316704Y-76285714D01*
X194316704Y-76285714D02*
X194269085Y-76380952D01*
X194269085Y-76380952D02*
X194269085Y-76523809D01*
X194269085Y-76523809D02*
X194221466Y-76619047D01*
X194221466Y-76619047D02*
X194126228Y-76666666D01*
X194126228Y-76666666D02*
X194078609Y-76666666D01*
X194078609Y-76666666D02*
X193983371Y-76619047D01*
X193983371Y-76619047D02*
X193935752Y-76523809D01*
X193935752Y-76523809D02*
X193935752Y-76380952D01*
X193935752Y-76380952D02*
X193983371Y-76285714D01*
X193554800Y-75095238D02*
X194840514Y-75952380D01*
X194602419Y-73999999D02*
X193602419Y-73999999D01*
X193602419Y-73999999D02*
X194316704Y-73666666D01*
X194316704Y-73666666D02*
X193602419Y-73333333D01*
X193602419Y-73333333D02*
X194602419Y-73333333D01*
X194602419Y-72714285D02*
X194554800Y-72809523D01*
X194554800Y-72809523D02*
X194507180Y-72857142D01*
X194507180Y-72857142D02*
X194411942Y-72904761D01*
X194411942Y-72904761D02*
X194126228Y-72904761D01*
X194126228Y-72904761D02*
X194030990Y-72857142D01*
X194030990Y-72857142D02*
X193983371Y-72809523D01*
X193983371Y-72809523D02*
X193935752Y-72714285D01*
X193935752Y-72714285D02*
X193935752Y-72571428D01*
X193935752Y-72571428D02*
X193983371Y-72476190D01*
X193983371Y-72476190D02*
X194030990Y-72428571D01*
X194030990Y-72428571D02*
X194126228Y-72380952D01*
X194126228Y-72380952D02*
X194411942Y-72380952D01*
X194411942Y-72380952D02*
X194507180Y-72428571D01*
X194507180Y-72428571D02*
X194554800Y-72476190D01*
X194554800Y-72476190D02*
X194602419Y-72571428D01*
X194602419Y-72571428D02*
X194602419Y-72714285D01*
X193554800Y-72523809D02*
X193697657Y-72666666D01*
X194602419Y-71523809D02*
X193602419Y-71523809D01*
X194554800Y-71523809D02*
X194602419Y-71619047D01*
X194602419Y-71619047D02*
X194602419Y-71809523D01*
X194602419Y-71809523D02*
X194554800Y-71904761D01*
X194554800Y-71904761D02*
X194507180Y-71952380D01*
X194507180Y-71952380D02*
X194411942Y-71999999D01*
X194411942Y-71999999D02*
X194126228Y-71999999D01*
X194126228Y-71999999D02*
X194030990Y-71952380D01*
X194030990Y-71952380D02*
X193983371Y-71904761D01*
X193983371Y-71904761D02*
X193935752Y-71809523D01*
X193935752Y-71809523D02*
X193935752Y-71619047D01*
X193935752Y-71619047D02*
X193983371Y-71523809D01*
X193935752Y-70619047D02*
X194602419Y-70619047D01*
X193935752Y-71047618D02*
X194459561Y-71047618D01*
X194459561Y-71047618D02*
X194554800Y-70999999D01*
X194554800Y-70999999D02*
X194602419Y-70904761D01*
X194602419Y-70904761D02*
X194602419Y-70761904D01*
X194602419Y-70761904D02*
X194554800Y-70666666D01*
X194554800Y-70666666D02*
X194507180Y-70619047D01*
X194602419Y-69999999D02*
X194554800Y-70095237D01*
X194554800Y-70095237D02*
X194459561Y-70142856D01*
X194459561Y-70142856D02*
X193602419Y-70142856D01*
X194602419Y-69476189D02*
X194554800Y-69571427D01*
X194554800Y-69571427D02*
X194507180Y-69619046D01*
X194507180Y-69619046D02*
X194411942Y-69666665D01*
X194411942Y-69666665D02*
X194126228Y-69666665D01*
X194126228Y-69666665D02*
X194030990Y-69619046D01*
X194030990Y-69619046D02*
X193983371Y-69571427D01*
X193983371Y-69571427D02*
X193935752Y-69476189D01*
X193935752Y-69476189D02*
X193935752Y-69333332D01*
X193935752Y-69333332D02*
X193983371Y-69238094D01*
X193983371Y-69238094D02*
X194030990Y-69190475D01*
X194030990Y-69190475D02*
X194126228Y-69142856D01*
X194126228Y-69142856D02*
X194411942Y-69142856D01*
X194411942Y-69142856D02*
X194507180Y-69190475D01*
X194507180Y-69190475D02*
X194554800Y-69238094D01*
X194554800Y-69238094D02*
X194602419Y-69333332D01*
X194602419Y-69333332D02*
X194602419Y-69476189D01*
X194554800Y-68761903D02*
X194602419Y-68666665D01*
X194602419Y-68666665D02*
X194602419Y-68476189D01*
X194602419Y-68476189D02*
X194554800Y-68380951D01*
X194554800Y-68380951D02*
X194459561Y-68333332D01*
X194459561Y-68333332D02*
X194411942Y-68333332D01*
X194411942Y-68333332D02*
X194316704Y-68380951D01*
X194316704Y-68380951D02*
X194269085Y-68476189D01*
X194269085Y-68476189D02*
X194269085Y-68619046D01*
X194269085Y-68619046D02*
X194221466Y-68714284D01*
X194221466Y-68714284D02*
X194126228Y-68761903D01*
X194126228Y-68761903D02*
X194078609Y-68761903D01*
X194078609Y-68761903D02*
X193983371Y-68714284D01*
X193983371Y-68714284D02*
X193935752Y-68619046D01*
X193935752Y-68619046D02*
X193935752Y-68476189D01*
X193935752Y-68476189D02*
X193983371Y-68380951D01*
X213132514Y-93875713D02*
X213089657Y-93961428D01*
X213089657Y-93961428D02*
X213089657Y-94089999D01*
X213089657Y-94089999D02*
X213132514Y-94218570D01*
X213132514Y-94218570D02*
X213218228Y-94304285D01*
X213218228Y-94304285D02*
X213303942Y-94347142D01*
X213303942Y-94347142D02*
X213475371Y-94389999D01*
X213475371Y-94389999D02*
X213603942Y-94389999D01*
X213603942Y-94389999D02*
X213775371Y-94347142D01*
X213775371Y-94347142D02*
X213861085Y-94304285D01*
X213861085Y-94304285D02*
X213946800Y-94218570D01*
X213946800Y-94218570D02*
X213989657Y-94089999D01*
X213989657Y-94089999D02*
X213989657Y-94004285D01*
X213989657Y-94004285D02*
X213946800Y-93875713D01*
X213946800Y-93875713D02*
X213903942Y-93832856D01*
X213903942Y-93832856D02*
X213603942Y-93832856D01*
X213603942Y-93832856D02*
X213603942Y-94004285D01*
X213989657Y-93447142D02*
X213089657Y-93447142D01*
X213089657Y-93447142D02*
X213989657Y-92932856D01*
X213989657Y-92932856D02*
X213089657Y-92932856D01*
X213989657Y-92504285D02*
X213089657Y-92504285D01*
X213089657Y-92504285D02*
X213089657Y-92289999D01*
X213089657Y-92289999D02*
X213132514Y-92161428D01*
X213132514Y-92161428D02*
X213218228Y-92075713D01*
X213218228Y-92075713D02*
X213303942Y-92032856D01*
X213303942Y-92032856D02*
X213475371Y-91989999D01*
X213475371Y-91989999D02*
X213603942Y-91989999D01*
X213603942Y-91989999D02*
X213775371Y-92032856D01*
X213775371Y-92032856D02*
X213861085Y-92075713D01*
X213861085Y-92075713D02*
X213946800Y-92161428D01*
X213946800Y-92161428D02*
X213989657Y-92289999D01*
X213989657Y-92289999D02*
X213989657Y-92504285D01*
X201177514Y-71185713D02*
X201134657Y-71271428D01*
X201134657Y-71271428D02*
X201134657Y-71399999D01*
X201134657Y-71399999D02*
X201177514Y-71528570D01*
X201177514Y-71528570D02*
X201263228Y-71614285D01*
X201263228Y-71614285D02*
X201348942Y-71657142D01*
X201348942Y-71657142D02*
X201520371Y-71699999D01*
X201520371Y-71699999D02*
X201648942Y-71699999D01*
X201648942Y-71699999D02*
X201820371Y-71657142D01*
X201820371Y-71657142D02*
X201906085Y-71614285D01*
X201906085Y-71614285D02*
X201991800Y-71528570D01*
X201991800Y-71528570D02*
X202034657Y-71399999D01*
X202034657Y-71399999D02*
X202034657Y-71314285D01*
X202034657Y-71314285D02*
X201991800Y-71185713D01*
X201991800Y-71185713D02*
X201948942Y-71142856D01*
X201948942Y-71142856D02*
X201648942Y-71142856D01*
X201648942Y-71142856D02*
X201648942Y-71314285D01*
X202034657Y-70757142D02*
X201134657Y-70757142D01*
X201134657Y-70757142D02*
X202034657Y-70242856D01*
X202034657Y-70242856D02*
X201134657Y-70242856D01*
X202034657Y-69814285D02*
X201134657Y-69814285D01*
X201134657Y-69814285D02*
X201134657Y-69599999D01*
X201134657Y-69599999D02*
X201177514Y-69471428D01*
X201177514Y-69471428D02*
X201263228Y-69385713D01*
X201263228Y-69385713D02*
X201348942Y-69342856D01*
X201348942Y-69342856D02*
X201520371Y-69299999D01*
X201520371Y-69299999D02*
X201648942Y-69299999D01*
X201648942Y-69299999D02*
X201820371Y-69342856D01*
X201820371Y-69342856D02*
X201906085Y-69385713D01*
X201906085Y-69385713D02*
X201991800Y-69471428D01*
X201991800Y-69471428D02*
X202034657Y-69599999D01*
X202034657Y-69599999D02*
X202034657Y-69814285D01*
X112214285Y-109872419D02*
X112214285Y-108872419D01*
X112214285Y-108872419D02*
X112595237Y-108872419D01*
X112595237Y-108872419D02*
X112690475Y-108920038D01*
X112690475Y-108920038D02*
X112738094Y-108967657D01*
X112738094Y-108967657D02*
X112785713Y-109062895D01*
X112785713Y-109062895D02*
X112785713Y-109205752D01*
X112785713Y-109205752D02*
X112738094Y-109300990D01*
X112738094Y-109300990D02*
X112690475Y-109348609D01*
X112690475Y-109348609D02*
X112595237Y-109396228D01*
X112595237Y-109396228D02*
X112214285Y-109396228D01*
X113357142Y-109872419D02*
X113261904Y-109824800D01*
X113261904Y-109824800D02*
X113214285Y-109777180D01*
X113214285Y-109777180D02*
X113166666Y-109681942D01*
X113166666Y-109681942D02*
X113166666Y-109396228D01*
X113166666Y-109396228D02*
X113214285Y-109300990D01*
X113214285Y-109300990D02*
X113261904Y-109253371D01*
X113261904Y-109253371D02*
X113357142Y-109205752D01*
X113357142Y-109205752D02*
X113499999Y-109205752D01*
X113499999Y-109205752D02*
X113595237Y-109253371D01*
X113595237Y-109253371D02*
X113642856Y-109300990D01*
X113642856Y-109300990D02*
X113690475Y-109396228D01*
X113690475Y-109396228D02*
X113690475Y-109681942D01*
X113690475Y-109681942D02*
X113642856Y-109777180D01*
X113642856Y-109777180D02*
X113595237Y-109824800D01*
X113595237Y-109824800D02*
X113499999Y-109872419D01*
X113499999Y-109872419D02*
X113357142Y-109872419D01*
X114119047Y-109205752D02*
X114119047Y-109872419D01*
X114119047Y-109300990D02*
X114166666Y-109253371D01*
X114166666Y-109253371D02*
X114261904Y-109205752D01*
X114261904Y-109205752D02*
X114404761Y-109205752D01*
X114404761Y-109205752D02*
X114499999Y-109253371D01*
X114499999Y-109253371D02*
X114547618Y-109348609D01*
X114547618Y-109348609D02*
X114547618Y-109872419D01*
X114880952Y-109205752D02*
X115261904Y-109205752D01*
X115023809Y-108872419D02*
X115023809Y-109729561D01*
X115023809Y-109729561D02*
X115071428Y-109824800D01*
X115071428Y-109824800D02*
X115166666Y-109872419D01*
X115166666Y-109872419D02*
X115261904Y-109872419D01*
X115976190Y-109824800D02*
X115880952Y-109872419D01*
X115880952Y-109872419D02*
X115690476Y-109872419D01*
X115690476Y-109872419D02*
X115595238Y-109824800D01*
X115595238Y-109824800D02*
X115547619Y-109729561D01*
X115547619Y-109729561D02*
X115547619Y-109348609D01*
X115547619Y-109348609D02*
X115595238Y-109253371D01*
X115595238Y-109253371D02*
X115690476Y-109205752D01*
X115690476Y-109205752D02*
X115880952Y-109205752D01*
X115880952Y-109205752D02*
X115976190Y-109253371D01*
X115976190Y-109253371D02*
X116023809Y-109348609D01*
X116023809Y-109348609D02*
X116023809Y-109443847D01*
X116023809Y-109443847D02*
X115547619Y-109539085D01*
X116404762Y-109824800D02*
X116500000Y-109872419D01*
X116500000Y-109872419D02*
X116690476Y-109872419D01*
X116690476Y-109872419D02*
X116785714Y-109824800D01*
X116785714Y-109824800D02*
X116833333Y-109729561D01*
X116833333Y-109729561D02*
X116833333Y-109681942D01*
X116833333Y-109681942D02*
X116785714Y-109586704D01*
X116785714Y-109586704D02*
X116690476Y-109539085D01*
X116690476Y-109539085D02*
X116547619Y-109539085D01*
X116547619Y-109539085D02*
X116452381Y-109491466D01*
X116452381Y-109491466D02*
X116404762Y-109396228D01*
X116404762Y-109396228D02*
X116404762Y-109348609D01*
X116404762Y-109348609D02*
X116452381Y-109253371D01*
X116452381Y-109253371D02*
X116547619Y-109205752D01*
X116547619Y-109205752D02*
X116690476Y-109205752D01*
X116690476Y-109205752D02*
X116785714Y-109253371D01*
X110484657Y-136671428D02*
X110484657Y-137100000D01*
X110484657Y-137100000D02*
X110913228Y-137142857D01*
X110913228Y-137142857D02*
X110870371Y-137100000D01*
X110870371Y-137100000D02*
X110827514Y-137014286D01*
X110827514Y-137014286D02*
X110827514Y-136800000D01*
X110827514Y-136800000D02*
X110870371Y-136714286D01*
X110870371Y-136714286D02*
X110913228Y-136671428D01*
X110913228Y-136671428D02*
X110998942Y-136628571D01*
X110998942Y-136628571D02*
X111213228Y-136628571D01*
X111213228Y-136628571D02*
X111298942Y-136671428D01*
X111298942Y-136671428D02*
X111341800Y-136714286D01*
X111341800Y-136714286D02*
X111384657Y-136800000D01*
X111384657Y-136800000D02*
X111384657Y-137014286D01*
X111384657Y-137014286D02*
X111341800Y-137100000D01*
X111341800Y-137100000D02*
X111298942Y-137142857D01*
X110484657Y-136371428D02*
X111384657Y-136071428D01*
X111384657Y-136071428D02*
X110484657Y-135771428D01*
X229153942Y-87149999D02*
X229196800Y-87192856D01*
X229196800Y-87192856D02*
X229239657Y-87321428D01*
X229239657Y-87321428D02*
X229239657Y-87407142D01*
X229239657Y-87407142D02*
X229196800Y-87535713D01*
X229196800Y-87535713D02*
X229111085Y-87621428D01*
X229111085Y-87621428D02*
X229025371Y-87664285D01*
X229025371Y-87664285D02*
X228853942Y-87707142D01*
X228853942Y-87707142D02*
X228725371Y-87707142D01*
X228725371Y-87707142D02*
X228553942Y-87664285D01*
X228553942Y-87664285D02*
X228468228Y-87621428D01*
X228468228Y-87621428D02*
X228382514Y-87535713D01*
X228382514Y-87535713D02*
X228339657Y-87407142D01*
X228339657Y-87407142D02*
X228339657Y-87321428D01*
X228339657Y-87321428D02*
X228382514Y-87192856D01*
X228382514Y-87192856D02*
X228425371Y-87149999D01*
X229196800Y-86807142D02*
X229239657Y-86678571D01*
X229239657Y-86678571D02*
X229239657Y-86464285D01*
X229239657Y-86464285D02*
X229196800Y-86378571D01*
X229196800Y-86378571D02*
X229153942Y-86335713D01*
X229153942Y-86335713D02*
X229068228Y-86292856D01*
X229068228Y-86292856D02*
X228982514Y-86292856D01*
X228982514Y-86292856D02*
X228896800Y-86335713D01*
X228896800Y-86335713D02*
X228853942Y-86378571D01*
X228853942Y-86378571D02*
X228811085Y-86464285D01*
X228811085Y-86464285D02*
X228768228Y-86635713D01*
X228768228Y-86635713D02*
X228725371Y-86721428D01*
X228725371Y-86721428D02*
X228682514Y-86764285D01*
X228682514Y-86764285D02*
X228596800Y-86807142D01*
X228596800Y-86807142D02*
X228511085Y-86807142D01*
X228511085Y-86807142D02*
X228425371Y-86764285D01*
X228425371Y-86764285D02*
X228382514Y-86721428D01*
X228382514Y-86721428D02*
X228339657Y-86635713D01*
X228339657Y-86635713D02*
X228339657Y-86421428D01*
X228339657Y-86421428D02*
X228382514Y-86292856D01*
X229239657Y-69092857D02*
X228339657Y-69092857D01*
X228339657Y-69092857D02*
X228339657Y-68878571D01*
X228339657Y-68878571D02*
X228382514Y-68750000D01*
X228382514Y-68750000D02*
X228468228Y-68664285D01*
X228468228Y-68664285D02*
X228553942Y-68621428D01*
X228553942Y-68621428D02*
X228725371Y-68578571D01*
X228725371Y-68578571D02*
X228853942Y-68578571D01*
X228853942Y-68578571D02*
X229025371Y-68621428D01*
X229025371Y-68621428D02*
X229111085Y-68664285D01*
X229111085Y-68664285D02*
X229196800Y-68750000D01*
X229196800Y-68750000D02*
X229239657Y-68878571D01*
X229239657Y-68878571D02*
X229239657Y-69092857D01*
X228425371Y-68235714D02*
X228382514Y-68192857D01*
X228382514Y-68192857D02*
X228339657Y-68107143D01*
X228339657Y-68107143D02*
X228339657Y-67892857D01*
X228339657Y-67892857D02*
X228382514Y-67807143D01*
X228382514Y-67807143D02*
X228425371Y-67764285D01*
X228425371Y-67764285D02*
X228511085Y-67721428D01*
X228511085Y-67721428D02*
X228596800Y-67721428D01*
X228596800Y-67721428D02*
X228725371Y-67764285D01*
X228725371Y-67764285D02*
X229239657Y-68278571D01*
X229239657Y-68278571D02*
X229239657Y-67721428D01*
X228425371Y-67378571D02*
X228382514Y-67335714D01*
X228382514Y-67335714D02*
X228339657Y-67250000D01*
X228339657Y-67250000D02*
X228339657Y-67035714D01*
X228339657Y-67035714D02*
X228382514Y-66950000D01*
X228382514Y-66950000D02*
X228425371Y-66907142D01*
X228425371Y-66907142D02*
X228511085Y-66864285D01*
X228511085Y-66864285D02*
X228596800Y-66864285D01*
X228596800Y-66864285D02*
X228725371Y-66907142D01*
X228725371Y-66907142D02*
X229239657Y-67421428D01*
X229239657Y-67421428D02*
X229239657Y-66864285D01*
X201520371Y-64971428D02*
X201477514Y-65057143D01*
X201477514Y-65057143D02*
X201434657Y-65100000D01*
X201434657Y-65100000D02*
X201348942Y-65142857D01*
X201348942Y-65142857D02*
X201306085Y-65142857D01*
X201306085Y-65142857D02*
X201220371Y-65100000D01*
X201220371Y-65100000D02*
X201177514Y-65057143D01*
X201177514Y-65057143D02*
X201134657Y-64971428D01*
X201134657Y-64971428D02*
X201134657Y-64800000D01*
X201134657Y-64800000D02*
X201177514Y-64714286D01*
X201177514Y-64714286D02*
X201220371Y-64671428D01*
X201220371Y-64671428D02*
X201306085Y-64628571D01*
X201306085Y-64628571D02*
X201348942Y-64628571D01*
X201348942Y-64628571D02*
X201434657Y-64671428D01*
X201434657Y-64671428D02*
X201477514Y-64714286D01*
X201477514Y-64714286D02*
X201520371Y-64800000D01*
X201520371Y-64800000D02*
X201520371Y-64971428D01*
X201520371Y-64971428D02*
X201563228Y-65057143D01*
X201563228Y-65057143D02*
X201606085Y-65100000D01*
X201606085Y-65100000D02*
X201691800Y-65142857D01*
X201691800Y-65142857D02*
X201863228Y-65142857D01*
X201863228Y-65142857D02*
X201948942Y-65100000D01*
X201948942Y-65100000D02*
X201991800Y-65057143D01*
X201991800Y-65057143D02*
X202034657Y-64971428D01*
X202034657Y-64971428D02*
X202034657Y-64800000D01*
X202034657Y-64800000D02*
X201991800Y-64714286D01*
X201991800Y-64714286D02*
X201948942Y-64671428D01*
X201948942Y-64671428D02*
X201863228Y-64628571D01*
X201863228Y-64628571D02*
X201691800Y-64628571D01*
X201691800Y-64628571D02*
X201606085Y-64671428D01*
X201606085Y-64671428D02*
X201563228Y-64714286D01*
X201563228Y-64714286D02*
X201520371Y-64800000D01*
X201134657Y-64371428D02*
X202034657Y-64071428D01*
X202034657Y-64071428D02*
X201134657Y-63771428D01*
X213989657Y-75092857D02*
X213089657Y-75092857D01*
X213089657Y-75092857D02*
X213089657Y-74878571D01*
X213089657Y-74878571D02*
X213132514Y-74750000D01*
X213132514Y-74750000D02*
X213218228Y-74664285D01*
X213218228Y-74664285D02*
X213303942Y-74621428D01*
X213303942Y-74621428D02*
X213475371Y-74578571D01*
X213475371Y-74578571D02*
X213603942Y-74578571D01*
X213603942Y-74578571D02*
X213775371Y-74621428D01*
X213775371Y-74621428D02*
X213861085Y-74664285D01*
X213861085Y-74664285D02*
X213946800Y-74750000D01*
X213946800Y-74750000D02*
X213989657Y-74878571D01*
X213989657Y-74878571D02*
X213989657Y-75092857D01*
X213089657Y-74278571D02*
X213089657Y-73721428D01*
X213089657Y-73721428D02*
X213432514Y-74021428D01*
X213432514Y-74021428D02*
X213432514Y-73892857D01*
X213432514Y-73892857D02*
X213475371Y-73807143D01*
X213475371Y-73807143D02*
X213518228Y-73764285D01*
X213518228Y-73764285D02*
X213603942Y-73721428D01*
X213603942Y-73721428D02*
X213818228Y-73721428D01*
X213818228Y-73721428D02*
X213903942Y-73764285D01*
X213903942Y-73764285D02*
X213946800Y-73807143D01*
X213946800Y-73807143D02*
X213989657Y-73892857D01*
X213989657Y-73892857D02*
X213989657Y-74150000D01*
X213989657Y-74150000D02*
X213946800Y-74235714D01*
X213946800Y-74235714D02*
X213903942Y-74278571D01*
X213089657Y-72907142D02*
X213089657Y-73335714D01*
X213089657Y-73335714D02*
X213518228Y-73378571D01*
X213518228Y-73378571D02*
X213475371Y-73335714D01*
X213475371Y-73335714D02*
X213432514Y-73250000D01*
X213432514Y-73250000D02*
X213432514Y-73035714D01*
X213432514Y-73035714D02*
X213475371Y-72950000D01*
X213475371Y-72950000D02*
X213518228Y-72907142D01*
X213518228Y-72907142D02*
X213603942Y-72864285D01*
X213603942Y-72864285D02*
X213818228Y-72864285D01*
X213818228Y-72864285D02*
X213903942Y-72907142D01*
X213903942Y-72907142D02*
X213946800Y-72950000D01*
X213946800Y-72950000D02*
X213989657Y-73035714D01*
X213989657Y-73035714D02*
X213989657Y-73250000D01*
X213989657Y-73250000D02*
X213946800Y-73335714D01*
X213946800Y-73335714D02*
X213903942Y-73378571D01*
X229239657Y-74664285D02*
X228339657Y-74664285D01*
X228339657Y-74664285D02*
X228339657Y-74449999D01*
X228339657Y-74449999D02*
X228382514Y-74321428D01*
X228382514Y-74321428D02*
X228468228Y-74235713D01*
X228468228Y-74235713D02*
X228553942Y-74192856D01*
X228553942Y-74192856D02*
X228725371Y-74149999D01*
X228725371Y-74149999D02*
X228853942Y-74149999D01*
X228853942Y-74149999D02*
X229025371Y-74192856D01*
X229025371Y-74192856D02*
X229111085Y-74235713D01*
X229111085Y-74235713D02*
X229196800Y-74321428D01*
X229196800Y-74321428D02*
X229239657Y-74449999D01*
X229239657Y-74449999D02*
X229239657Y-74664285D01*
X228425371Y-73807142D02*
X228382514Y-73764285D01*
X228382514Y-73764285D02*
X228339657Y-73678571D01*
X228339657Y-73678571D02*
X228339657Y-73464285D01*
X228339657Y-73464285D02*
X228382514Y-73378571D01*
X228382514Y-73378571D02*
X228425371Y-73335713D01*
X228425371Y-73335713D02*
X228511085Y-73292856D01*
X228511085Y-73292856D02*
X228596800Y-73292856D01*
X228596800Y-73292856D02*
X228725371Y-73335713D01*
X228725371Y-73335713D02*
X229239657Y-73849999D01*
X229239657Y-73849999D02*
X229239657Y-73292856D01*
X201134657Y-68614285D02*
X201134657Y-68057142D01*
X201134657Y-68057142D02*
X201477514Y-68357142D01*
X201477514Y-68357142D02*
X201477514Y-68228571D01*
X201477514Y-68228571D02*
X201520371Y-68142857D01*
X201520371Y-68142857D02*
X201563228Y-68099999D01*
X201563228Y-68099999D02*
X201648942Y-68057142D01*
X201648942Y-68057142D02*
X201863228Y-68057142D01*
X201863228Y-68057142D02*
X201948942Y-68099999D01*
X201948942Y-68099999D02*
X201991800Y-68142857D01*
X201991800Y-68142857D02*
X202034657Y-68228571D01*
X202034657Y-68228571D02*
X202034657Y-68485714D01*
X202034657Y-68485714D02*
X201991800Y-68571428D01*
X201991800Y-68571428D02*
X201948942Y-68614285D01*
X201134657Y-67799999D02*
X202034657Y-67499999D01*
X202034657Y-67499999D02*
X201134657Y-67199999D01*
X201134657Y-66985713D02*
X201134657Y-66428570D01*
X201134657Y-66428570D02*
X201477514Y-66728570D01*
X201477514Y-66728570D02*
X201477514Y-66599999D01*
X201477514Y-66599999D02*
X201520371Y-66514285D01*
X201520371Y-66514285D02*
X201563228Y-66471427D01*
X201563228Y-66471427D02*
X201648942Y-66428570D01*
X201648942Y-66428570D02*
X201863228Y-66428570D01*
X201863228Y-66428570D02*
X201948942Y-66471427D01*
X201948942Y-66471427D02*
X201991800Y-66514285D01*
X201991800Y-66514285D02*
X202034657Y-66599999D01*
X202034657Y-66599999D02*
X202034657Y-66857142D01*
X202034657Y-66857142D02*
X201991800Y-66942856D01*
X201991800Y-66942856D02*
X201948942Y-66985713D01*
X111127514Y-130399999D02*
X111127514Y-129971428D01*
X111384657Y-130485713D02*
X110484657Y-130185713D01*
X110484657Y-130185713D02*
X111384657Y-129885713D01*
X111384657Y-129585713D02*
X110484657Y-129585713D01*
X111384657Y-129157142D02*
X110484657Y-129157142D01*
X110484657Y-129157142D02*
X111384657Y-128642856D01*
X111384657Y-128642856D02*
X110484657Y-128642856D01*
X159756265Y-129736704D02*
X160232455Y-129736704D01*
X159661027Y-130022419D02*
X159994360Y-129022419D01*
X159994360Y-129022419D02*
X160327693Y-130022419D01*
X160661027Y-130022419D02*
X160661027Y-129022419D01*
X160661027Y-129022419D02*
X160899122Y-129022419D01*
X160899122Y-129022419D02*
X161041979Y-129070038D01*
X161041979Y-129070038D02*
X161137217Y-129165276D01*
X161137217Y-129165276D02*
X161184836Y-129260514D01*
X161184836Y-129260514D02*
X161232455Y-129450990D01*
X161232455Y-129450990D02*
X161232455Y-129593847D01*
X161232455Y-129593847D02*
X161184836Y-129784323D01*
X161184836Y-129784323D02*
X161137217Y-129879561D01*
X161137217Y-129879561D02*
X161041979Y-129974800D01*
X161041979Y-129974800D02*
X160899122Y-130022419D01*
X160899122Y-130022419D02*
X160661027Y-130022419D01*
X161613408Y-129974800D02*
X161756265Y-130022419D01*
X161756265Y-130022419D02*
X161994360Y-130022419D01*
X161994360Y-130022419D02*
X162089598Y-129974800D01*
X162089598Y-129974800D02*
X162137217Y-129927180D01*
X162137217Y-129927180D02*
X162184836Y-129831942D01*
X162184836Y-129831942D02*
X162184836Y-129736704D01*
X162184836Y-129736704D02*
X162137217Y-129641466D01*
X162137217Y-129641466D02*
X162089598Y-129593847D01*
X162089598Y-129593847D02*
X161994360Y-129546228D01*
X161994360Y-129546228D02*
X161803884Y-129498609D01*
X161803884Y-129498609D02*
X161708646Y-129450990D01*
X161708646Y-129450990D02*
X161661027Y-129403371D01*
X161661027Y-129403371D02*
X161613408Y-129308133D01*
X161613408Y-129308133D02*
X161613408Y-129212895D01*
X161613408Y-129212895D02*
X161661027Y-129117657D01*
X161661027Y-129117657D02*
X161708646Y-129070038D01*
X161708646Y-129070038D02*
X161803884Y-129022419D01*
X161803884Y-129022419D02*
X162041979Y-129022419D01*
X162041979Y-129022419D02*
X162184836Y-129070038D01*
X163137217Y-130022419D02*
X162565789Y-130022419D01*
X162851503Y-130022419D02*
X162851503Y-129022419D01*
X162851503Y-129022419D02*
X162756265Y-129165276D01*
X162756265Y-129165276D02*
X162661027Y-129260514D01*
X162661027Y-129260514D02*
X162565789Y-129308133D01*
X163518170Y-129117657D02*
X163565789Y-129070038D01*
X163565789Y-129070038D02*
X163661027Y-129022419D01*
X163661027Y-129022419D02*
X163899122Y-129022419D01*
X163899122Y-129022419D02*
X163994360Y-129070038D01*
X163994360Y-129070038D02*
X164041979Y-129117657D01*
X164041979Y-129117657D02*
X164089598Y-129212895D01*
X164089598Y-129212895D02*
X164089598Y-129308133D01*
X164089598Y-129308133D02*
X164041979Y-129450990D01*
X164041979Y-129450990D02*
X163470551Y-130022419D01*
X163470551Y-130022419D02*
X164089598Y-130022419D01*
X164994360Y-129022419D02*
X164518170Y-129022419D01*
X164518170Y-129022419D02*
X164470551Y-129498609D01*
X164470551Y-129498609D02*
X164518170Y-129450990D01*
X164518170Y-129450990D02*
X164613408Y-129403371D01*
X164613408Y-129403371D02*
X164851503Y-129403371D01*
X164851503Y-129403371D02*
X164946741Y-129450990D01*
X164946741Y-129450990D02*
X164994360Y-129498609D01*
X164994360Y-129498609D02*
X165041979Y-129593847D01*
X165041979Y-129593847D02*
X165041979Y-129831942D01*
X165041979Y-129831942D02*
X164994360Y-129927180D01*
X164994360Y-129927180D02*
X164946741Y-129974800D01*
X164946741Y-129974800D02*
X164851503Y-130022419D01*
X164851503Y-130022419D02*
X164613408Y-130022419D01*
X164613408Y-130022419D02*
X164518170Y-129974800D01*
X164518170Y-129974800D02*
X164470551Y-129927180D01*
X165899122Y-129022419D02*
X165708646Y-129022419D01*
X165708646Y-129022419D02*
X165613408Y-129070038D01*
X165613408Y-129070038D02*
X165565789Y-129117657D01*
X165565789Y-129117657D02*
X165470551Y-129260514D01*
X165470551Y-129260514D02*
X165422932Y-129450990D01*
X165422932Y-129450990D02*
X165422932Y-129831942D01*
X165422932Y-129831942D02*
X165470551Y-129927180D01*
X165470551Y-129927180D02*
X165518170Y-129974800D01*
X165518170Y-129974800D02*
X165613408Y-130022419D01*
X165613408Y-130022419D02*
X165803884Y-130022419D01*
X165803884Y-130022419D02*
X165899122Y-129974800D01*
X165899122Y-129974800D02*
X165946741Y-129927180D01*
X165946741Y-129927180D02*
X165994360Y-129831942D01*
X165994360Y-129831942D02*
X165994360Y-129593847D01*
X165994360Y-129593847D02*
X165946741Y-129498609D01*
X165946741Y-129498609D02*
X165899122Y-129450990D01*
X165899122Y-129450990D02*
X165803884Y-129403371D01*
X165803884Y-129403371D02*
X165613408Y-129403371D01*
X165613408Y-129403371D02*
X165518170Y-129450990D01*
X165518170Y-129450990D02*
X165470551Y-129498609D01*
X165470551Y-129498609D02*
X165422932Y-129593847D01*
X196948942Y-59035713D02*
X196991800Y-59078570D01*
X196991800Y-59078570D02*
X197034657Y-59207142D01*
X197034657Y-59207142D02*
X197034657Y-59292856D01*
X197034657Y-59292856D02*
X196991800Y-59421427D01*
X196991800Y-59421427D02*
X196906085Y-59507142D01*
X196906085Y-59507142D02*
X196820371Y-59549999D01*
X196820371Y-59549999D02*
X196648942Y-59592856D01*
X196648942Y-59592856D02*
X196520371Y-59592856D01*
X196520371Y-59592856D02*
X196348942Y-59549999D01*
X196348942Y-59549999D02*
X196263228Y-59507142D01*
X196263228Y-59507142D02*
X196177514Y-59421427D01*
X196177514Y-59421427D02*
X196134657Y-59292856D01*
X196134657Y-59292856D02*
X196134657Y-59207142D01*
X196134657Y-59207142D02*
X196177514Y-59078570D01*
X196177514Y-59078570D02*
X196220371Y-59035713D01*
X197034657Y-58221427D02*
X197034657Y-58649999D01*
X197034657Y-58649999D02*
X196134657Y-58649999D01*
X197034657Y-57921428D02*
X196134657Y-57921428D01*
X197034657Y-57407142D02*
X196520371Y-57792856D01*
X196134657Y-57407142D02*
X196648942Y-57921428D01*
X212984657Y-69114285D02*
X212984657Y-68600000D01*
X213884657Y-68857142D02*
X212984657Y-68857142D01*
X212984657Y-68385714D02*
X213884657Y-67785714D01*
X212984657Y-67785714D02*
X213884657Y-68385714D01*
X212984657Y-67271428D02*
X212984657Y-67185714D01*
X212984657Y-67185714D02*
X213027514Y-67100000D01*
X213027514Y-67100000D02*
X213070371Y-67057143D01*
X213070371Y-67057143D02*
X213156085Y-67014285D01*
X213156085Y-67014285D02*
X213327514Y-66971428D01*
X213327514Y-66971428D02*
X213541800Y-66971428D01*
X213541800Y-66971428D02*
X213713228Y-67014285D01*
X213713228Y-67014285D02*
X213798942Y-67057143D01*
X213798942Y-67057143D02*
X213841800Y-67100000D01*
X213841800Y-67100000D02*
X213884657Y-67185714D01*
X213884657Y-67185714D02*
X213884657Y-67271428D01*
X213884657Y-67271428D02*
X213841800Y-67357143D01*
X213841800Y-67357143D02*
X213798942Y-67400000D01*
X213798942Y-67400000D02*
X213713228Y-67442857D01*
X213713228Y-67442857D02*
X213541800Y-67485714D01*
X213541800Y-67485714D02*
X213327514Y-67485714D01*
X213327514Y-67485714D02*
X213156085Y-67442857D01*
X213156085Y-67442857D02*
X213070371Y-67400000D01*
X213070371Y-67400000D02*
X213027514Y-67357143D01*
X213027514Y-67357143D02*
X212984657Y-67271428D01*
X214001895Y-62014285D02*
X213620942Y-62280952D01*
X214001895Y-62471428D02*
X213201895Y-62471428D01*
X213201895Y-62471428D02*
X213201895Y-62166666D01*
X213201895Y-62166666D02*
X213239990Y-62090476D01*
X213239990Y-62090476D02*
X213278085Y-62052381D01*
X213278085Y-62052381D02*
X213354276Y-62014285D01*
X213354276Y-62014285D02*
X213468561Y-62014285D01*
X213468561Y-62014285D02*
X213544752Y-62052381D01*
X213544752Y-62052381D02*
X213582847Y-62090476D01*
X213582847Y-62090476D02*
X213620942Y-62166666D01*
X213620942Y-62166666D02*
X213620942Y-62471428D01*
X213201895Y-61747619D02*
X214001895Y-61214285D01*
X213201895Y-61214285D02*
X214001895Y-61747619D01*
X213278085Y-60947619D02*
X213239990Y-60909523D01*
X213239990Y-60909523D02*
X213201895Y-60833333D01*
X213201895Y-60833333D02*
X213201895Y-60642857D01*
X213201895Y-60642857D02*
X213239990Y-60566666D01*
X213239990Y-60566666D02*
X213278085Y-60528571D01*
X213278085Y-60528571D02*
X213354276Y-60490476D01*
X213354276Y-60490476D02*
X213430466Y-60490476D01*
X213430466Y-60490476D02*
X213544752Y-60528571D01*
X213544752Y-60528571D02*
X214001895Y-60985714D01*
X214001895Y-60985714D02*
X214001895Y-60490476D01*
X220651390Y-106063884D02*
X220651390Y-106397217D01*
X220127580Y-106540074D02*
X220127580Y-106063884D01*
X220127580Y-106063884D02*
X221127580Y-106063884D01*
X221127580Y-106063884D02*
X221127580Y-106540074D01*
X220175200Y-106921027D02*
X220127580Y-107063884D01*
X220127580Y-107063884D02*
X220127580Y-107301979D01*
X220127580Y-107301979D02*
X220175200Y-107397217D01*
X220175200Y-107397217D02*
X220222819Y-107444836D01*
X220222819Y-107444836D02*
X220318057Y-107492455D01*
X220318057Y-107492455D02*
X220413295Y-107492455D01*
X220413295Y-107492455D02*
X220508533Y-107444836D01*
X220508533Y-107444836D02*
X220556152Y-107397217D01*
X220556152Y-107397217D02*
X220603771Y-107301979D01*
X220603771Y-107301979D02*
X220651390Y-107111503D01*
X220651390Y-107111503D02*
X220699009Y-107016265D01*
X220699009Y-107016265D02*
X220746628Y-106968646D01*
X220746628Y-106968646D02*
X220841866Y-106921027D01*
X220841866Y-106921027D02*
X220937104Y-106921027D01*
X220937104Y-106921027D02*
X221032342Y-106968646D01*
X221032342Y-106968646D02*
X221079961Y-107016265D01*
X221079961Y-107016265D02*
X221127580Y-107111503D01*
X221127580Y-107111503D02*
X221127580Y-107349598D01*
X221127580Y-107349598D02*
X221079961Y-107492455D01*
X220127580Y-107921027D02*
X221127580Y-107921027D01*
X221127580Y-107921027D02*
X221127580Y-108301979D01*
X221127580Y-108301979D02*
X221079961Y-108397217D01*
X221079961Y-108397217D02*
X221032342Y-108444836D01*
X221032342Y-108444836D02*
X220937104Y-108492455D01*
X220937104Y-108492455D02*
X220794247Y-108492455D01*
X220794247Y-108492455D02*
X220699009Y-108444836D01*
X220699009Y-108444836D02*
X220651390Y-108397217D01*
X220651390Y-108397217D02*
X220603771Y-108301979D01*
X220603771Y-108301979D02*
X220603771Y-107921027D01*
X221127580Y-108825789D02*
X221127580Y-109444836D01*
X221127580Y-109444836D02*
X220746628Y-109111503D01*
X220746628Y-109111503D02*
X220746628Y-109254360D01*
X220746628Y-109254360D02*
X220699009Y-109349598D01*
X220699009Y-109349598D02*
X220651390Y-109397217D01*
X220651390Y-109397217D02*
X220556152Y-109444836D01*
X220556152Y-109444836D02*
X220318057Y-109444836D01*
X220318057Y-109444836D02*
X220222819Y-109397217D01*
X220222819Y-109397217D02*
X220175200Y-109349598D01*
X220175200Y-109349598D02*
X220127580Y-109254360D01*
X220127580Y-109254360D02*
X220127580Y-108968646D01*
X220127580Y-108968646D02*
X220175200Y-108873408D01*
X220175200Y-108873408D02*
X220222819Y-108825789D01*
X221032342Y-109825789D02*
X221079961Y-109873408D01*
X221079961Y-109873408D02*
X221127580Y-109968646D01*
X221127580Y-109968646D02*
X221127580Y-110206741D01*
X221127580Y-110206741D02*
X221079961Y-110301979D01*
X221079961Y-110301979D02*
X221032342Y-110349598D01*
X221032342Y-110349598D02*
X220937104Y-110397217D01*
X220937104Y-110397217D02*
X220841866Y-110397217D01*
X220841866Y-110397217D02*
X220699009Y-110349598D01*
X220699009Y-110349598D02*
X220127580Y-109778170D01*
X220127580Y-109778170D02*
X220127580Y-110397217D01*
X220127580Y-111587694D02*
X221127580Y-111587694D01*
X221127580Y-111587694D02*
X221127580Y-111825789D01*
X221127580Y-111825789D02*
X221079961Y-111968646D01*
X221079961Y-111968646D02*
X220984723Y-112063884D01*
X220984723Y-112063884D02*
X220889485Y-112111503D01*
X220889485Y-112111503D02*
X220699009Y-112159122D01*
X220699009Y-112159122D02*
X220556152Y-112159122D01*
X220556152Y-112159122D02*
X220365676Y-112111503D01*
X220365676Y-112111503D02*
X220270438Y-112063884D01*
X220270438Y-112063884D02*
X220175200Y-111968646D01*
X220175200Y-111968646D02*
X220127580Y-111825789D01*
X220127580Y-111825789D02*
X220127580Y-111587694D01*
X220175200Y-112968646D02*
X220127580Y-112873408D01*
X220127580Y-112873408D02*
X220127580Y-112682932D01*
X220127580Y-112682932D02*
X220175200Y-112587694D01*
X220175200Y-112587694D02*
X220270438Y-112540075D01*
X220270438Y-112540075D02*
X220651390Y-112540075D01*
X220651390Y-112540075D02*
X220746628Y-112587694D01*
X220746628Y-112587694D02*
X220794247Y-112682932D01*
X220794247Y-112682932D02*
X220794247Y-112873408D01*
X220794247Y-112873408D02*
X220746628Y-112968646D01*
X220746628Y-112968646D02*
X220651390Y-113016265D01*
X220651390Y-113016265D02*
X220556152Y-113016265D01*
X220556152Y-113016265D02*
X220460914Y-112540075D01*
X220794247Y-113349599D02*
X220127580Y-113587694D01*
X220127580Y-113587694D02*
X220794247Y-113825789D01*
X220127580Y-114206742D02*
X221127580Y-114206742D01*
X220127580Y-114778170D02*
X220699009Y-114349599D01*
X221127580Y-114778170D02*
X220556152Y-114206742D01*
X220127580Y-115206742D02*
X220794247Y-115206742D01*
X221127580Y-115206742D02*
X221079961Y-115159123D01*
X221079961Y-115159123D02*
X221032342Y-115206742D01*
X221032342Y-115206742D02*
X221079961Y-115254361D01*
X221079961Y-115254361D02*
X221127580Y-115206742D01*
X221127580Y-115206742D02*
X221032342Y-115206742D01*
X220794247Y-115540075D02*
X220794247Y-115921027D01*
X221127580Y-115682932D02*
X220270438Y-115682932D01*
X220270438Y-115682932D02*
X220175200Y-115730551D01*
X220175200Y-115730551D02*
X220127580Y-115825789D01*
X220127580Y-115825789D02*
X220127580Y-115921027D01*
X221127580Y-116873409D02*
X220127580Y-117206742D01*
X220127580Y-117206742D02*
X221127580Y-117540075D01*
X220127580Y-118397218D02*
X220127580Y-117825790D01*
X220127580Y-118111504D02*
X221127580Y-118111504D01*
X221127580Y-118111504D02*
X220984723Y-118016266D01*
X220984723Y-118016266D02*
X220889485Y-117921028D01*
X220889485Y-117921028D02*
X220841866Y-117825790D01*
X220222819Y-118825790D02*
X220175200Y-118873409D01*
X220175200Y-118873409D02*
X220127580Y-118825790D01*
X220127580Y-118825790D02*
X220175200Y-118778171D01*
X220175200Y-118778171D02*
X220222819Y-118825790D01*
X220222819Y-118825790D02*
X220127580Y-118825790D01*
X221127580Y-119492456D02*
X221127580Y-119587694D01*
X221127580Y-119587694D02*
X221079961Y-119682932D01*
X221079961Y-119682932D02*
X221032342Y-119730551D01*
X221032342Y-119730551D02*
X220937104Y-119778170D01*
X220937104Y-119778170D02*
X220746628Y-119825789D01*
X220746628Y-119825789D02*
X220508533Y-119825789D01*
X220508533Y-119825789D02*
X220318057Y-119778170D01*
X220318057Y-119778170D02*
X220222819Y-119730551D01*
X220222819Y-119730551D02*
X220175200Y-119682932D01*
X220175200Y-119682932D02*
X220127580Y-119587694D01*
X220127580Y-119587694D02*
X220127580Y-119492456D01*
X220127580Y-119492456D02*
X220175200Y-119397218D01*
X220175200Y-119397218D02*
X220222819Y-119349599D01*
X220222819Y-119349599D02*
X220318057Y-119301980D01*
X220318057Y-119301980D02*
X220508533Y-119254361D01*
X220508533Y-119254361D02*
X220746628Y-119254361D01*
X220746628Y-119254361D02*
X220937104Y-119301980D01*
X220937104Y-119301980D02*
X221032342Y-119349599D01*
X221032342Y-119349599D02*
X221079961Y-119397218D01*
X221079961Y-119397218D02*
X221127580Y-119492456D01*
X213089657Y-78804285D02*
X213089657Y-78247142D01*
X213089657Y-78247142D02*
X213432514Y-78547142D01*
X213432514Y-78547142D02*
X213432514Y-78418571D01*
X213432514Y-78418571D02*
X213475371Y-78332857D01*
X213475371Y-78332857D02*
X213518228Y-78289999D01*
X213518228Y-78289999D02*
X213603942Y-78247142D01*
X213603942Y-78247142D02*
X213818228Y-78247142D01*
X213818228Y-78247142D02*
X213903942Y-78289999D01*
X213903942Y-78289999D02*
X213946800Y-78332857D01*
X213946800Y-78332857D02*
X213989657Y-78418571D01*
X213989657Y-78418571D02*
X213989657Y-78675714D01*
X213989657Y-78675714D02*
X213946800Y-78761428D01*
X213946800Y-78761428D02*
X213903942Y-78804285D01*
X213089657Y-77989999D02*
X213989657Y-77689999D01*
X213989657Y-77689999D02*
X213089657Y-77389999D01*
X213089657Y-77175713D02*
X213089657Y-76618570D01*
X213089657Y-76618570D02*
X213432514Y-76918570D01*
X213432514Y-76918570D02*
X213432514Y-76789999D01*
X213432514Y-76789999D02*
X213475371Y-76704285D01*
X213475371Y-76704285D02*
X213518228Y-76661427D01*
X213518228Y-76661427D02*
X213603942Y-76618570D01*
X213603942Y-76618570D02*
X213818228Y-76618570D01*
X213818228Y-76618570D02*
X213903942Y-76661427D01*
X213903942Y-76661427D02*
X213946800Y-76704285D01*
X213946800Y-76704285D02*
X213989657Y-76789999D01*
X213989657Y-76789999D02*
X213989657Y-77047142D01*
X213989657Y-77047142D02*
X213946800Y-77132856D01*
X213946800Y-77132856D02*
X213903942Y-77175713D01*
X213903942Y-90725713D02*
X213946800Y-90768570D01*
X213946800Y-90768570D02*
X213989657Y-90897142D01*
X213989657Y-90897142D02*
X213989657Y-90982856D01*
X213989657Y-90982856D02*
X213946800Y-91111427D01*
X213946800Y-91111427D02*
X213861085Y-91197142D01*
X213861085Y-91197142D02*
X213775371Y-91239999D01*
X213775371Y-91239999D02*
X213603942Y-91282856D01*
X213603942Y-91282856D02*
X213475371Y-91282856D01*
X213475371Y-91282856D02*
X213303942Y-91239999D01*
X213303942Y-91239999D02*
X213218228Y-91197142D01*
X213218228Y-91197142D02*
X213132514Y-91111427D01*
X213132514Y-91111427D02*
X213089657Y-90982856D01*
X213089657Y-90982856D02*
X213089657Y-90897142D01*
X213089657Y-90897142D02*
X213132514Y-90768570D01*
X213132514Y-90768570D02*
X213175371Y-90725713D01*
X213989657Y-89911427D02*
X213989657Y-90339999D01*
X213989657Y-90339999D02*
X213089657Y-90339999D01*
X213989657Y-89611428D02*
X213089657Y-89611428D01*
X213989657Y-89097142D02*
X213475371Y-89482856D01*
X213089657Y-89097142D02*
X213603942Y-89611428D01*
X111127514Y-133899999D02*
X111127514Y-133471428D01*
X111384657Y-133985713D02*
X110484657Y-133685713D01*
X110484657Y-133685713D02*
X111384657Y-133385713D01*
X111384657Y-133085713D02*
X110484657Y-133085713D01*
X111384657Y-132657142D02*
X110484657Y-132657142D01*
X110484657Y-132657142D02*
X111384657Y-132142856D01*
X111384657Y-132142856D02*
X110484657Y-132142856D01*
X201134657Y-61671428D02*
X201134657Y-62100000D01*
X201134657Y-62100000D02*
X201563228Y-62142857D01*
X201563228Y-62142857D02*
X201520371Y-62100000D01*
X201520371Y-62100000D02*
X201477514Y-62014286D01*
X201477514Y-62014286D02*
X201477514Y-61800000D01*
X201477514Y-61800000D02*
X201520371Y-61714286D01*
X201520371Y-61714286D02*
X201563228Y-61671428D01*
X201563228Y-61671428D02*
X201648942Y-61628571D01*
X201648942Y-61628571D02*
X201863228Y-61628571D01*
X201863228Y-61628571D02*
X201948942Y-61671428D01*
X201948942Y-61671428D02*
X201991800Y-61714286D01*
X201991800Y-61714286D02*
X202034657Y-61800000D01*
X202034657Y-61800000D02*
X202034657Y-62014286D01*
X202034657Y-62014286D02*
X201991800Y-62100000D01*
X201991800Y-62100000D02*
X201948942Y-62142857D01*
X201134657Y-61371428D02*
X202034657Y-61071428D01*
X202034657Y-61071428D02*
X201134657Y-60771428D01*
D11*
X122666666Y-122954819D02*
X122666666Y-123669104D01*
X122666666Y-123669104D02*
X122619047Y-123811961D01*
X122619047Y-123811961D02*
X122523809Y-123907200D01*
X122523809Y-123907200D02*
X122380952Y-123954819D01*
X122380952Y-123954819D02*
X122285714Y-123954819D01*
X123285714Y-123383390D02*
X123190476Y-123335771D01*
X123190476Y-123335771D02*
X123142857Y-123288152D01*
X123142857Y-123288152D02*
X123095238Y-123192914D01*
X123095238Y-123192914D02*
X123095238Y-123145295D01*
X123095238Y-123145295D02*
X123142857Y-123050057D01*
X123142857Y-123050057D02*
X123190476Y-123002438D01*
X123190476Y-123002438D02*
X123285714Y-122954819D01*
X123285714Y-122954819D02*
X123476190Y-122954819D01*
X123476190Y-122954819D02*
X123571428Y-123002438D01*
X123571428Y-123002438D02*
X123619047Y-123050057D01*
X123619047Y-123050057D02*
X123666666Y-123145295D01*
X123666666Y-123145295D02*
X123666666Y-123192914D01*
X123666666Y-123192914D02*
X123619047Y-123288152D01*
X123619047Y-123288152D02*
X123571428Y-123335771D01*
X123571428Y-123335771D02*
X123476190Y-123383390D01*
X123476190Y-123383390D02*
X123285714Y-123383390D01*
X123285714Y-123383390D02*
X123190476Y-123431009D01*
X123190476Y-123431009D02*
X123142857Y-123478628D01*
X123142857Y-123478628D02*
X123095238Y-123573866D01*
X123095238Y-123573866D02*
X123095238Y-123764342D01*
X123095238Y-123764342D02*
X123142857Y-123859580D01*
X123142857Y-123859580D02*
X123190476Y-123907200D01*
X123190476Y-123907200D02*
X123285714Y-123954819D01*
X123285714Y-123954819D02*
X123476190Y-123954819D01*
X123476190Y-123954819D02*
X123571428Y-123907200D01*
X123571428Y-123907200D02*
X123619047Y-123859580D01*
X123619047Y-123859580D02*
X123666666Y-123764342D01*
X123666666Y-123764342D02*
X123666666Y-123573866D01*
X123666666Y-123573866D02*
X123619047Y-123478628D01*
X123619047Y-123478628D02*
X123571428Y-123431009D01*
X123571428Y-123431009D02*
X123476190Y-123383390D01*
X115553333Y-137724819D02*
X115553333Y-138439104D01*
X115553333Y-138439104D02*
X115505714Y-138581961D01*
X115505714Y-138581961D02*
X115410476Y-138677200D01*
X115410476Y-138677200D02*
X115267619Y-138724819D01*
X115267619Y-138724819D02*
X115172381Y-138724819D01*
X116505714Y-137724819D02*
X116029524Y-137724819D01*
X116029524Y-137724819D02*
X115981905Y-138201009D01*
X115981905Y-138201009D02*
X116029524Y-138153390D01*
X116029524Y-138153390D02*
X116124762Y-138105771D01*
X116124762Y-138105771D02*
X116362857Y-138105771D01*
X116362857Y-138105771D02*
X116458095Y-138153390D01*
X116458095Y-138153390D02*
X116505714Y-138201009D01*
X116505714Y-138201009D02*
X116553333Y-138296247D01*
X116553333Y-138296247D02*
X116553333Y-138534342D01*
X116553333Y-138534342D02*
X116505714Y-138629580D01*
X116505714Y-138629580D02*
X116458095Y-138677200D01*
X116458095Y-138677200D02*
X116362857Y-138724819D01*
X116362857Y-138724819D02*
X116124762Y-138724819D01*
X116124762Y-138724819D02*
X116029524Y-138677200D01*
X116029524Y-138677200D02*
X115981905Y-138629580D01*
X187626666Y-139374819D02*
X187626666Y-140089104D01*
X187626666Y-140089104D02*
X187579047Y-140231961D01*
X187579047Y-140231961D02*
X187483809Y-140327200D01*
X187483809Y-140327200D02*
X187340952Y-140374819D01*
X187340952Y-140374819D02*
X187245714Y-140374819D01*
X188531428Y-139708152D02*
X188531428Y-140374819D01*
X188293333Y-139327200D02*
X188055238Y-140041485D01*
X188055238Y-140041485D02*
X188674285Y-140041485D01*
X115553333Y-122994819D02*
X115553333Y-123709104D01*
X115553333Y-123709104D02*
X115505714Y-123851961D01*
X115505714Y-123851961D02*
X115410476Y-123947200D01*
X115410476Y-123947200D02*
X115267619Y-123994819D01*
X115267619Y-123994819D02*
X115172381Y-123994819D01*
X115934286Y-122994819D02*
X116600952Y-122994819D01*
X116600952Y-122994819D02*
X116172381Y-123994819D01*
X223945476Y-74184819D02*
X223945476Y-74899104D01*
X223945476Y-74899104D02*
X223897857Y-75041961D01*
X223897857Y-75041961D02*
X223802619Y-75137200D01*
X223802619Y-75137200D02*
X223659762Y-75184819D01*
X223659762Y-75184819D02*
X223564524Y-75184819D01*
X224945476Y-75184819D02*
X224374048Y-75184819D01*
X224659762Y-75184819D02*
X224659762Y-74184819D01*
X224659762Y-74184819D02*
X224564524Y-74327676D01*
X224564524Y-74327676D02*
X224469286Y-74422914D01*
X224469286Y-74422914D02*
X224374048Y-74470533D01*
X225802619Y-74184819D02*
X225612143Y-74184819D01*
X225612143Y-74184819D02*
X225516905Y-74232438D01*
X225516905Y-74232438D02*
X225469286Y-74280057D01*
X225469286Y-74280057D02*
X225374048Y-74422914D01*
X225374048Y-74422914D02*
X225326429Y-74613390D01*
X225326429Y-74613390D02*
X225326429Y-74994342D01*
X225326429Y-74994342D02*
X225374048Y-75089580D01*
X225374048Y-75089580D02*
X225421667Y-75137200D01*
X225421667Y-75137200D02*
X225516905Y-75184819D01*
X225516905Y-75184819D02*
X225707381Y-75184819D01*
X225707381Y-75184819D02*
X225802619Y-75137200D01*
X225802619Y-75137200D02*
X225850238Y-75089580D01*
X225850238Y-75089580D02*
X225897857Y-74994342D01*
X225897857Y-74994342D02*
X225897857Y-74756247D01*
X225897857Y-74756247D02*
X225850238Y-74661009D01*
X225850238Y-74661009D02*
X225802619Y-74613390D01*
X225802619Y-74613390D02*
X225707381Y-74565771D01*
X225707381Y-74565771D02*
X225516905Y-74565771D01*
X225516905Y-74565771D02*
X225421667Y-74613390D01*
X225421667Y-74613390D02*
X225374048Y-74661009D01*
X225374048Y-74661009D02*
X225326429Y-74756247D01*
X231186009Y-68356666D02*
X231186009Y-68023333D01*
X231709819Y-67880476D02*
X231709819Y-68356666D01*
X231709819Y-68356666D02*
X230709819Y-68356666D01*
X230709819Y-68356666D02*
X230709819Y-67880476D01*
X230709819Y-67547142D02*
X231709819Y-66880476D01*
X230709819Y-66880476D02*
X231709819Y-67547142D01*
X231709819Y-66499523D02*
X230709819Y-66499523D01*
X230709819Y-66499523D02*
X230709819Y-66118571D01*
X230709819Y-66118571D02*
X230757438Y-66023333D01*
X230757438Y-66023333D02*
X230805057Y-65975714D01*
X230805057Y-65975714D02*
X230900295Y-65928095D01*
X230900295Y-65928095D02*
X231043152Y-65928095D01*
X231043152Y-65928095D02*
X231138390Y-65975714D01*
X231138390Y-65975714D02*
X231186009Y-66023333D01*
X231186009Y-66023333D02*
X231233628Y-66118571D01*
X231233628Y-66118571D02*
X231233628Y-66499523D01*
X230709819Y-65309047D02*
X230709819Y-65213809D01*
X230709819Y-65213809D02*
X230757438Y-65118571D01*
X230757438Y-65118571D02*
X230805057Y-65070952D01*
X230805057Y-65070952D02*
X230900295Y-65023333D01*
X230900295Y-65023333D02*
X231090771Y-64975714D01*
X231090771Y-64975714D02*
X231328866Y-64975714D01*
X231328866Y-64975714D02*
X231519342Y-65023333D01*
X231519342Y-65023333D02*
X231614580Y-65070952D01*
X231614580Y-65070952D02*
X231662200Y-65118571D01*
X231662200Y-65118571D02*
X231709819Y-65213809D01*
X231709819Y-65213809D02*
X231709819Y-65309047D01*
X231709819Y-65309047D02*
X231662200Y-65404285D01*
X231662200Y-65404285D02*
X231614580Y-65451904D01*
X231614580Y-65451904D02*
X231519342Y-65499523D01*
X231519342Y-65499523D02*
X231328866Y-65547142D01*
X231328866Y-65547142D02*
X231090771Y-65547142D01*
X231090771Y-65547142D02*
X230900295Y-65499523D01*
X230900295Y-65499523D02*
X230805057Y-65451904D01*
X230805057Y-65451904D02*
X230757438Y-65404285D01*
X230757438Y-65404285D02*
X230709819Y-65309047D01*
X237954819Y-104476404D02*
X238764342Y-104476404D01*
X238764342Y-104476404D02*
X238859580Y-104428785D01*
X238859580Y-104428785D02*
X238907200Y-104381166D01*
X238907200Y-104381166D02*
X238954819Y-104285928D01*
X238954819Y-104285928D02*
X238954819Y-104095452D01*
X238954819Y-104095452D02*
X238907200Y-104000214D01*
X238907200Y-104000214D02*
X238859580Y-103952595D01*
X238859580Y-103952595D02*
X238764342Y-103904976D01*
X238764342Y-103904976D02*
X237954819Y-103904976D01*
X238954819Y-102904976D02*
X238954819Y-103476404D01*
X238954819Y-103190690D02*
X237954819Y-103190690D01*
X237954819Y-103190690D02*
X238097676Y-103285928D01*
X238097676Y-103285928D02*
X238192914Y-103381166D01*
X238192914Y-103381166D02*
X238240533Y-103476404D01*
X122666666Y-137724819D02*
X122666666Y-138439104D01*
X122666666Y-138439104D02*
X122619047Y-138581961D01*
X122619047Y-138581961D02*
X122523809Y-138677200D01*
X122523809Y-138677200D02*
X122380952Y-138724819D01*
X122380952Y-138724819D02*
X122285714Y-138724819D01*
X123571428Y-137724819D02*
X123380952Y-137724819D01*
X123380952Y-137724819D02*
X123285714Y-137772438D01*
X123285714Y-137772438D02*
X123238095Y-137820057D01*
X123238095Y-137820057D02*
X123142857Y-137962914D01*
X123142857Y-137962914D02*
X123095238Y-138153390D01*
X123095238Y-138153390D02*
X123095238Y-138534342D01*
X123095238Y-138534342D02*
X123142857Y-138629580D01*
X123142857Y-138629580D02*
X123190476Y-138677200D01*
X123190476Y-138677200D02*
X123285714Y-138724819D01*
X123285714Y-138724819D02*
X123476190Y-138724819D01*
X123476190Y-138724819D02*
X123571428Y-138677200D01*
X123571428Y-138677200D02*
X123619047Y-138629580D01*
X123619047Y-138629580D02*
X123666666Y-138534342D01*
X123666666Y-138534342D02*
X123666666Y-138296247D01*
X123666666Y-138296247D02*
X123619047Y-138201009D01*
X123619047Y-138201009D02*
X123571428Y-138153390D01*
X123571428Y-138153390D02*
X123476190Y-138105771D01*
X123476190Y-138105771D02*
X123285714Y-138105771D01*
X123285714Y-138105771D02*
X123190476Y-138153390D01*
X123190476Y-138153390D02*
X123142857Y-138201009D01*
X123142857Y-138201009D02*
X123095238Y-138296247D01*
X195494819Y-88809523D02*
X196209104Y-88809523D01*
X196209104Y-88809523D02*
X196351961Y-88857142D01*
X196351961Y-88857142D02*
X196447200Y-88952380D01*
X196447200Y-88952380D02*
X196494819Y-89095237D01*
X196494819Y-89095237D02*
X196494819Y-89190475D01*
X196494819Y-87809523D02*
X196494819Y-88380951D01*
X196494819Y-88095237D02*
X195494819Y-88095237D01*
X195494819Y-88095237D02*
X195637676Y-88190475D01*
X195637676Y-88190475D02*
X195732914Y-88285713D01*
X195732914Y-88285713D02*
X195780533Y-88380951D01*
X195494819Y-87476189D02*
X195494819Y-86857142D01*
X195494819Y-86857142D02*
X195875771Y-87190475D01*
X195875771Y-87190475D02*
X195875771Y-87047618D01*
X195875771Y-87047618D02*
X195923390Y-86952380D01*
X195923390Y-86952380D02*
X195971009Y-86904761D01*
X195971009Y-86904761D02*
X196066247Y-86857142D01*
X196066247Y-86857142D02*
X196304342Y-86857142D01*
X196304342Y-86857142D02*
X196399580Y-86904761D01*
X196399580Y-86904761D02*
X196447200Y-86952380D01*
X196447200Y-86952380D02*
X196494819Y-87047618D01*
X196494819Y-87047618D02*
X196494819Y-87333332D01*
X196494819Y-87333332D02*
X196447200Y-87428570D01*
X196447200Y-87428570D02*
X196399580Y-87476189D01*
X151390714Y-64169104D02*
X151866904Y-64169104D01*
X151295476Y-64454819D02*
X151628809Y-63454819D01*
X151628809Y-63454819D02*
X151962142Y-64454819D01*
X152819285Y-64454819D02*
X152247857Y-64454819D01*
X152533571Y-64454819D02*
X152533571Y-63454819D01*
X152533571Y-63454819D02*
X152438333Y-63597676D01*
X152438333Y-63597676D02*
X152343095Y-63692914D01*
X152343095Y-63692914D02*
X152247857Y-63740533D01*
X224666666Y-76574819D02*
X224666666Y-77289104D01*
X224666666Y-77289104D02*
X224619047Y-77431961D01*
X224619047Y-77431961D02*
X224523809Y-77527200D01*
X224523809Y-77527200D02*
X224380952Y-77574819D01*
X224380952Y-77574819D02*
X224285714Y-77574819D01*
X225095238Y-76670057D02*
X225142857Y-76622438D01*
X225142857Y-76622438D02*
X225238095Y-76574819D01*
X225238095Y-76574819D02*
X225476190Y-76574819D01*
X225476190Y-76574819D02*
X225571428Y-76622438D01*
X225571428Y-76622438D02*
X225619047Y-76670057D01*
X225619047Y-76670057D02*
X225666666Y-76765295D01*
X225666666Y-76765295D02*
X225666666Y-76860533D01*
X225666666Y-76860533D02*
X225619047Y-77003390D01*
X225619047Y-77003390D02*
X225047619Y-77574819D01*
X225047619Y-77574819D02*
X225666666Y-77574819D01*
X231669104Y-88897618D02*
X231669104Y-88421428D01*
X231954819Y-88992856D02*
X230954819Y-88659523D01*
X230954819Y-88659523D02*
X231954819Y-88326190D01*
X231954819Y-87992856D02*
X230954819Y-87992856D01*
X230954819Y-87992856D02*
X230954819Y-87754761D01*
X230954819Y-87754761D02*
X231002438Y-87611904D01*
X231002438Y-87611904D02*
X231097676Y-87516666D01*
X231097676Y-87516666D02*
X231192914Y-87469047D01*
X231192914Y-87469047D02*
X231383390Y-87421428D01*
X231383390Y-87421428D02*
X231526247Y-87421428D01*
X231526247Y-87421428D02*
X231716723Y-87469047D01*
X231716723Y-87469047D02*
X231811961Y-87516666D01*
X231811961Y-87516666D02*
X231907200Y-87611904D01*
X231907200Y-87611904D02*
X231954819Y-87754761D01*
X231954819Y-87754761D02*
X231954819Y-87992856D01*
X230954819Y-87088094D02*
X231954819Y-86421428D01*
X230954819Y-86421428D02*
X231954819Y-87088094D01*
X231954819Y-85564285D02*
X231954819Y-86040475D01*
X231954819Y-86040475D02*
X230954819Y-86040475D01*
X230954819Y-85326189D02*
X230954819Y-84707142D01*
X230954819Y-84707142D02*
X231335771Y-85040475D01*
X231335771Y-85040475D02*
X231335771Y-84897618D01*
X231335771Y-84897618D02*
X231383390Y-84802380D01*
X231383390Y-84802380D02*
X231431009Y-84754761D01*
X231431009Y-84754761D02*
X231526247Y-84707142D01*
X231526247Y-84707142D02*
X231764342Y-84707142D01*
X231764342Y-84707142D02*
X231859580Y-84754761D01*
X231859580Y-84754761D02*
X231907200Y-84802380D01*
X231907200Y-84802380D02*
X231954819Y-84897618D01*
X231954819Y-84897618D02*
X231954819Y-85183332D01*
X231954819Y-85183332D02*
X231907200Y-85278570D01*
X231907200Y-85278570D02*
X231859580Y-85326189D01*
X231288152Y-83849999D02*
X231954819Y-83849999D01*
X230907200Y-84088094D02*
X231621485Y-84326189D01*
X231621485Y-84326189D02*
X231621485Y-83707142D01*
X230954819Y-82849999D02*
X230954819Y-83326189D01*
X230954819Y-83326189D02*
X231431009Y-83373808D01*
X231431009Y-83373808D02*
X231383390Y-83326189D01*
X231383390Y-83326189D02*
X231335771Y-83230951D01*
X231335771Y-83230951D02*
X231335771Y-82992856D01*
X231335771Y-82992856D02*
X231383390Y-82897618D01*
X231383390Y-82897618D02*
X231431009Y-82849999D01*
X231431009Y-82849999D02*
X231526247Y-82802380D01*
X231526247Y-82802380D02*
X231764342Y-82802380D01*
X231764342Y-82802380D02*
X231859580Y-82849999D01*
X231859580Y-82849999D02*
X231907200Y-82897618D01*
X231907200Y-82897618D02*
X231954819Y-82992856D01*
X231954819Y-82992856D02*
X231954819Y-83230951D01*
X231954819Y-83230951D02*
X231907200Y-83326189D01*
X231907200Y-83326189D02*
X231859580Y-83373808D01*
X131356666Y-139374819D02*
X131356666Y-140089104D01*
X131356666Y-140089104D02*
X131309047Y-140231961D01*
X131309047Y-140231961D02*
X131213809Y-140327200D01*
X131213809Y-140327200D02*
X131070952Y-140374819D01*
X131070952Y-140374819D02*
X130975714Y-140374819D01*
X131737619Y-139374819D02*
X132356666Y-139374819D01*
X132356666Y-139374819D02*
X132023333Y-139755771D01*
X132023333Y-139755771D02*
X132166190Y-139755771D01*
X132166190Y-139755771D02*
X132261428Y-139803390D01*
X132261428Y-139803390D02*
X132309047Y-139851009D01*
X132309047Y-139851009D02*
X132356666Y-139946247D01*
X132356666Y-139946247D02*
X132356666Y-140184342D01*
X132356666Y-140184342D02*
X132309047Y-140279580D01*
X132309047Y-140279580D02*
X132261428Y-140327200D01*
X132261428Y-140327200D02*
X132166190Y-140374819D01*
X132166190Y-140374819D02*
X131880476Y-140374819D01*
X131880476Y-140374819D02*
X131785238Y-140327200D01*
X131785238Y-140327200D02*
X131737619Y-140279580D01*
X195454819Y-79809523D02*
X196169104Y-79809523D01*
X196169104Y-79809523D02*
X196311961Y-79857142D01*
X196311961Y-79857142D02*
X196407200Y-79952380D01*
X196407200Y-79952380D02*
X196454819Y-80095237D01*
X196454819Y-80095237D02*
X196454819Y-80190475D01*
X196454819Y-78809523D02*
X196454819Y-79380951D01*
X196454819Y-79095237D02*
X195454819Y-79095237D01*
X195454819Y-79095237D02*
X195597676Y-79190475D01*
X195597676Y-79190475D02*
X195692914Y-79285713D01*
X195692914Y-79285713D02*
X195740533Y-79380951D01*
X195550057Y-78428570D02*
X195502438Y-78380951D01*
X195502438Y-78380951D02*
X195454819Y-78285713D01*
X195454819Y-78285713D02*
X195454819Y-78047618D01*
X195454819Y-78047618D02*
X195502438Y-77952380D01*
X195502438Y-77952380D02*
X195550057Y-77904761D01*
X195550057Y-77904761D02*
X195645295Y-77857142D01*
X195645295Y-77857142D02*
X195740533Y-77857142D01*
X195740533Y-77857142D02*
X195883390Y-77904761D01*
X195883390Y-77904761D02*
X196454819Y-78476189D01*
X196454819Y-78476189D02*
X196454819Y-77857142D01*
X216945476Y-74184819D02*
X216945476Y-74899104D01*
X216945476Y-74899104D02*
X216897857Y-75041961D01*
X216897857Y-75041961D02*
X216802619Y-75137200D01*
X216802619Y-75137200D02*
X216659762Y-75184819D01*
X216659762Y-75184819D02*
X216564524Y-75184819D01*
X217945476Y-75184819D02*
X217374048Y-75184819D01*
X217659762Y-75184819D02*
X217659762Y-74184819D01*
X217659762Y-74184819D02*
X217564524Y-74327676D01*
X217564524Y-74327676D02*
X217469286Y-74422914D01*
X217469286Y-74422914D02*
X217374048Y-74470533D01*
X218278810Y-74184819D02*
X218945476Y-74184819D01*
X218945476Y-74184819D02*
X218516905Y-75184819D01*
X210686009Y-68166666D02*
X210686009Y-67833333D01*
X211209819Y-67690476D02*
X211209819Y-68166666D01*
X211209819Y-68166666D02*
X210209819Y-68166666D01*
X210209819Y-68166666D02*
X210209819Y-67690476D01*
X210209819Y-67357142D02*
X211209819Y-66690476D01*
X210209819Y-66690476D02*
X211209819Y-67357142D01*
X211209819Y-66309523D02*
X210209819Y-66309523D01*
X210209819Y-66309523D02*
X210209819Y-65928571D01*
X210209819Y-65928571D02*
X210257438Y-65833333D01*
X210257438Y-65833333D02*
X210305057Y-65785714D01*
X210305057Y-65785714D02*
X210400295Y-65738095D01*
X210400295Y-65738095D02*
X210543152Y-65738095D01*
X210543152Y-65738095D02*
X210638390Y-65785714D01*
X210638390Y-65785714D02*
X210686009Y-65833333D01*
X210686009Y-65833333D02*
X210733628Y-65928571D01*
X210733628Y-65928571D02*
X210733628Y-66309523D01*
X211209819Y-64785714D02*
X211209819Y-65357142D01*
X211209819Y-65071428D02*
X210209819Y-65071428D01*
X210209819Y-65071428D02*
X210352676Y-65166666D01*
X210352676Y-65166666D02*
X210447914Y-65261904D01*
X210447914Y-65261904D02*
X210495533Y-65357142D01*
X195494819Y-84309523D02*
X196209104Y-84309523D01*
X196209104Y-84309523D02*
X196351961Y-84357142D01*
X196351961Y-84357142D02*
X196447200Y-84452380D01*
X196447200Y-84452380D02*
X196494819Y-84595237D01*
X196494819Y-84595237D02*
X196494819Y-84690475D01*
X196494819Y-83309523D02*
X196494819Y-83880951D01*
X196494819Y-83595237D02*
X195494819Y-83595237D01*
X195494819Y-83595237D02*
X195637676Y-83690475D01*
X195637676Y-83690475D02*
X195732914Y-83785713D01*
X195732914Y-83785713D02*
X195780533Y-83880951D01*
X195828152Y-82452380D02*
X196494819Y-82452380D01*
X195447200Y-82690475D02*
X196161485Y-82928570D01*
X196161485Y-82928570D02*
X196161485Y-82309523D01*
X217706666Y-76574819D02*
X217706666Y-77289104D01*
X217706666Y-77289104D02*
X217659047Y-77431961D01*
X217659047Y-77431961D02*
X217563809Y-77527200D01*
X217563809Y-77527200D02*
X217420952Y-77574819D01*
X217420952Y-77574819D02*
X217325714Y-77574819D01*
X218706666Y-77574819D02*
X218135238Y-77574819D01*
X218420952Y-77574819D02*
X218420952Y-76574819D01*
X218420952Y-76574819D02*
X218325714Y-76717676D01*
X218325714Y-76717676D02*
X218230476Y-76812914D01*
X218230476Y-76812914D02*
X218135238Y-76860533D01*
X211669104Y-87509047D02*
X211669104Y-87032857D01*
X211954819Y-87604285D02*
X210954819Y-87270952D01*
X210954819Y-87270952D02*
X211954819Y-86937619D01*
X211907200Y-86651904D02*
X211954819Y-86509047D01*
X211954819Y-86509047D02*
X211954819Y-86270952D01*
X211954819Y-86270952D02*
X211907200Y-86175714D01*
X211907200Y-86175714D02*
X211859580Y-86128095D01*
X211859580Y-86128095D02*
X211764342Y-86080476D01*
X211764342Y-86080476D02*
X211669104Y-86080476D01*
X211669104Y-86080476D02*
X211573866Y-86128095D01*
X211573866Y-86128095D02*
X211526247Y-86175714D01*
X211526247Y-86175714D02*
X211478628Y-86270952D01*
X211478628Y-86270952D02*
X211431009Y-86461428D01*
X211431009Y-86461428D02*
X211383390Y-86556666D01*
X211383390Y-86556666D02*
X211335771Y-86604285D01*
X211335771Y-86604285D02*
X211240533Y-86651904D01*
X211240533Y-86651904D02*
X211145295Y-86651904D01*
X211145295Y-86651904D02*
X211050057Y-86604285D01*
X211050057Y-86604285D02*
X211002438Y-86556666D01*
X211002438Y-86556666D02*
X210954819Y-86461428D01*
X210954819Y-86461428D02*
X210954819Y-86223333D01*
X210954819Y-86223333D02*
X211002438Y-86080476D01*
X210954819Y-85175714D02*
X210954819Y-85651904D01*
X210954819Y-85651904D02*
X211431009Y-85699523D01*
X211431009Y-85699523D02*
X211383390Y-85651904D01*
X211383390Y-85651904D02*
X211335771Y-85556666D01*
X211335771Y-85556666D02*
X211335771Y-85318571D01*
X211335771Y-85318571D02*
X211383390Y-85223333D01*
X211383390Y-85223333D02*
X211431009Y-85175714D01*
X211431009Y-85175714D02*
X211526247Y-85128095D01*
X211526247Y-85128095D02*
X211764342Y-85128095D01*
X211764342Y-85128095D02*
X211859580Y-85175714D01*
X211859580Y-85175714D02*
X211907200Y-85223333D01*
X211907200Y-85223333D02*
X211954819Y-85318571D01*
X211954819Y-85318571D02*
X211954819Y-85556666D01*
X211954819Y-85556666D02*
X211907200Y-85651904D01*
X211907200Y-85651904D02*
X211859580Y-85699523D01*
X210954819Y-84509047D02*
X210954819Y-84413809D01*
X210954819Y-84413809D02*
X211002438Y-84318571D01*
X211002438Y-84318571D02*
X211050057Y-84270952D01*
X211050057Y-84270952D02*
X211145295Y-84223333D01*
X211145295Y-84223333D02*
X211335771Y-84175714D01*
X211335771Y-84175714D02*
X211573866Y-84175714D01*
X211573866Y-84175714D02*
X211764342Y-84223333D01*
X211764342Y-84223333D02*
X211859580Y-84270952D01*
X211859580Y-84270952D02*
X211907200Y-84318571D01*
X211907200Y-84318571D02*
X211954819Y-84413809D01*
X211954819Y-84413809D02*
X211954819Y-84509047D01*
X211954819Y-84509047D02*
X211907200Y-84604285D01*
X211907200Y-84604285D02*
X211859580Y-84651904D01*
X211859580Y-84651904D02*
X211764342Y-84699523D01*
X211764342Y-84699523D02*
X211573866Y-84747142D01*
X211573866Y-84747142D02*
X211335771Y-84747142D01*
X211335771Y-84747142D02*
X211145295Y-84699523D01*
X211145295Y-84699523D02*
X211050057Y-84651904D01*
X211050057Y-84651904D02*
X211002438Y-84604285D01*
X211002438Y-84604285D02*
X210954819Y-84509047D01*
X211288152Y-83318571D02*
X211954819Y-83318571D01*
X210907200Y-83556666D02*
X211621485Y-83794761D01*
X211621485Y-83794761D02*
X211621485Y-83175714D01*
X210954819Y-82889999D02*
X210954819Y-82223333D01*
X210954819Y-82223333D02*
X211954819Y-82651904D01*
X195454819Y-93309523D02*
X196169104Y-93309523D01*
X196169104Y-93309523D02*
X196311961Y-93357142D01*
X196311961Y-93357142D02*
X196407200Y-93452380D01*
X196407200Y-93452380D02*
X196454819Y-93595237D01*
X196454819Y-93595237D02*
X196454819Y-93690475D01*
X196454819Y-92309523D02*
X196454819Y-92880951D01*
X196454819Y-92595237D02*
X195454819Y-92595237D01*
X195454819Y-92595237D02*
X195597676Y-92690475D01*
X195597676Y-92690475D02*
X195692914Y-92785713D01*
X195692914Y-92785713D02*
X195740533Y-92880951D01*
X196454819Y-91357142D02*
X196454819Y-91928570D01*
X196454819Y-91642856D02*
X195454819Y-91642856D01*
X195454819Y-91642856D02*
X195597676Y-91738094D01*
X195597676Y-91738094D02*
X195692914Y-91833332D01*
X195692914Y-91833332D02*
X195740533Y-91928570D01*
X207534819Y-141269523D02*
X208249104Y-141269523D01*
X208249104Y-141269523D02*
X208391961Y-141317142D01*
X208391961Y-141317142D02*
X208487200Y-141412380D01*
X208487200Y-141412380D02*
X208534819Y-141555237D01*
X208534819Y-141555237D02*
X208534819Y-141650475D01*
X208534819Y-140269523D02*
X208534819Y-140840951D01*
X208534819Y-140555237D02*
X207534819Y-140555237D01*
X207534819Y-140555237D02*
X207677676Y-140650475D01*
X207677676Y-140650475D02*
X207772914Y-140745713D01*
X207772914Y-140745713D02*
X207820533Y-140840951D01*
X207534819Y-139650475D02*
X207534819Y-139555237D01*
X207534819Y-139555237D02*
X207582438Y-139459999D01*
X207582438Y-139459999D02*
X207630057Y-139412380D01*
X207630057Y-139412380D02*
X207725295Y-139364761D01*
X207725295Y-139364761D02*
X207915771Y-139317142D01*
X207915771Y-139317142D02*
X208153866Y-139317142D01*
X208153866Y-139317142D02*
X208344342Y-139364761D01*
X208344342Y-139364761D02*
X208439580Y-139412380D01*
X208439580Y-139412380D02*
X208487200Y-139459999D01*
X208487200Y-139459999D02*
X208534819Y-139555237D01*
X208534819Y-139555237D02*
X208534819Y-139650475D01*
X208534819Y-139650475D02*
X208487200Y-139745713D01*
X208487200Y-139745713D02*
X208439580Y-139793332D01*
X208439580Y-139793332D02*
X208344342Y-139840951D01*
X208344342Y-139840951D02*
X208153866Y-139888570D01*
X208153866Y-139888570D02*
X207915771Y-139888570D01*
X207915771Y-139888570D02*
X207725295Y-139840951D01*
X207725295Y-139840951D02*
X207630057Y-139793332D01*
X207630057Y-139793332D02*
X207582438Y-139745713D01*
X207582438Y-139745713D02*
X207534819Y-139650475D01*
X195414819Y-75309523D02*
X196129104Y-75309523D01*
X196129104Y-75309523D02*
X196271961Y-75357142D01*
X196271961Y-75357142D02*
X196367200Y-75452380D01*
X196367200Y-75452380D02*
X196414819Y-75595237D01*
X196414819Y-75595237D02*
X196414819Y-75690475D01*
X196414819Y-74309523D02*
X196414819Y-74880951D01*
X196414819Y-74595237D02*
X195414819Y-74595237D01*
X195414819Y-74595237D02*
X195557676Y-74690475D01*
X195557676Y-74690475D02*
X195652914Y-74785713D01*
X195652914Y-74785713D02*
X195700533Y-74880951D01*
X195414819Y-73404761D02*
X195414819Y-73880951D01*
X195414819Y-73880951D02*
X195891009Y-73928570D01*
X195891009Y-73928570D02*
X195843390Y-73880951D01*
X195843390Y-73880951D02*
X195795771Y-73785713D01*
X195795771Y-73785713D02*
X195795771Y-73547618D01*
X195795771Y-73547618D02*
X195843390Y-73452380D01*
X195843390Y-73452380D02*
X195891009Y-73404761D01*
X195891009Y-73404761D02*
X195986247Y-73357142D01*
X195986247Y-73357142D02*
X196224342Y-73357142D01*
X196224342Y-73357142D02*
X196319580Y-73404761D01*
X196319580Y-73404761D02*
X196367200Y-73452380D01*
X196367200Y-73452380D02*
X196414819Y-73547618D01*
X196414819Y-73547618D02*
X196414819Y-73785713D01*
X196414819Y-73785713D02*
X196367200Y-73880951D01*
X196367200Y-73880951D02*
X196319580Y-73928570D01*
X224454819Y-140793333D02*
X225169104Y-140793333D01*
X225169104Y-140793333D02*
X225311961Y-140840952D01*
X225311961Y-140840952D02*
X225407200Y-140936190D01*
X225407200Y-140936190D02*
X225454819Y-141079047D01*
X225454819Y-141079047D02*
X225454819Y-141174285D01*
X225454819Y-140269523D02*
X225454819Y-140079047D01*
X225454819Y-140079047D02*
X225407200Y-139983809D01*
X225407200Y-139983809D02*
X225359580Y-139936190D01*
X225359580Y-139936190D02*
X225216723Y-139840952D01*
X225216723Y-139840952D02*
X225026247Y-139793333D01*
X225026247Y-139793333D02*
X224645295Y-139793333D01*
X224645295Y-139793333D02*
X224550057Y-139840952D01*
X224550057Y-139840952D02*
X224502438Y-139888571D01*
X224502438Y-139888571D02*
X224454819Y-139983809D01*
X224454819Y-139983809D02*
X224454819Y-140174285D01*
X224454819Y-140174285D02*
X224502438Y-140269523D01*
X224502438Y-140269523D02*
X224550057Y-140317142D01*
X224550057Y-140317142D02*
X224645295Y-140364761D01*
X224645295Y-140364761D02*
X224883390Y-140364761D01*
X224883390Y-140364761D02*
X224978628Y-140317142D01*
X224978628Y-140317142D02*
X225026247Y-140269523D01*
X225026247Y-140269523D02*
X225073866Y-140174285D01*
X225073866Y-140174285D02*
X225073866Y-139983809D01*
X225073866Y-139983809D02*
X225026247Y-139888571D01*
X225026247Y-139888571D02*
X224978628Y-139840952D01*
X224978628Y-139840952D02*
X224883390Y-139793333D01*
D12*
%TO.C,J8*%
X121620000Y-119770000D02*
X121620000Y-112040000D01*
X124380000Y-112040000D02*
X121620000Y-112040000D01*
X124380000Y-119770000D02*
X121620000Y-119770000D01*
X124380000Y-119770000D02*
X124380000Y-112040000D01*
X124380000Y-121040000D02*
X124380000Y-122420000D01*
X124380000Y-122420000D02*
X123000000Y-122420000D01*
%TO.C,J5*%
X114506667Y-134540000D02*
X114506667Y-126810000D01*
X117266667Y-126810000D02*
X114506667Y-126810000D01*
X117266667Y-134540000D02*
X114506667Y-134540000D01*
X117266667Y-134540000D02*
X117266667Y-126810000D01*
X117266667Y-135810000D02*
X117266667Y-137190000D01*
X117266667Y-137190000D02*
X115886667Y-137190000D01*
%TO.C,J4*%
X186580000Y-136270000D02*
X186580000Y-118380000D01*
X189340000Y-118380000D02*
X186580000Y-118380000D01*
X189340000Y-136270000D02*
X186580000Y-136270000D01*
X189340000Y-136270000D02*
X189340000Y-118380000D01*
X189340000Y-137540000D02*
X189340000Y-138920000D01*
X189340000Y-138920000D02*
X187960000Y-138920000D01*
%TO.C,J7*%
X114506667Y-119810000D02*
X114506667Y-112080000D01*
X117266667Y-112080000D02*
X114506667Y-112080000D01*
X117266667Y-119810000D02*
X114506667Y-119810000D01*
X117266667Y-119810000D02*
X117266667Y-112080000D01*
X117266667Y-121080000D02*
X117266667Y-122460000D01*
X117266667Y-122460000D02*
X115886667Y-122460000D01*
%TO.C,J16*%
X223375000Y-71080000D02*
X223375000Y-58270000D01*
X226135000Y-58270000D02*
X223375000Y-58270000D01*
X226135000Y-71080000D02*
X223375000Y-71080000D01*
X226135000Y-71080000D02*
X226135000Y-58270000D01*
X226135000Y-72350000D02*
X226135000Y-73730000D01*
X226135000Y-73730000D02*
X224755000Y-73730000D01*
D13*
%TO.C,U1*%
X193530000Y-98180000D02*
X193530000Y-103550000D01*
X193530000Y-98180000D02*
X244480000Y-98180000D01*
X193530000Y-98180000D02*
X244480000Y-98180000D01*
X193530000Y-103550000D02*
X193530000Y-121240000D01*
X193530000Y-121240000D02*
X193530000Y-126690000D01*
X193530000Y-126690000D02*
X193530000Y-98180000D01*
X244480000Y-98180000D02*
X244480000Y-109249000D01*
X244480000Y-98180000D02*
X244480000Y-126690000D01*
X244480000Y-109249000D02*
X244480000Y-115960000D01*
X244480000Y-115960000D02*
X244480000Y-126690000D01*
X244480000Y-126690000D02*
X193530000Y-126690000D01*
X244480000Y-126690000D02*
X193530000Y-126690000D01*
D14*
X234620000Y-97610000D02*
G75*
G02*
X234420000Y-97610000I-100000J0D01*
G01*
X234420000Y-97610000D02*
G75*
G02*
X234620000Y-97610000I100000J0D01*
G01*
D12*
%TO.C,J6*%
X121620000Y-134540000D02*
X121620000Y-126810000D01*
X124380000Y-126810000D02*
X121620000Y-126810000D01*
X124380000Y-134540000D02*
X121620000Y-134540000D01*
X124380000Y-134540000D02*
X124380000Y-126810000D01*
X124380000Y-135810000D02*
X124380000Y-137190000D01*
X124380000Y-137190000D02*
X123000000Y-137190000D01*
%TO.C,J13*%
X197040000Y-89380000D02*
X197040000Y-88000000D01*
X198420000Y-89380000D02*
X197040000Y-89380000D01*
X199690000Y-86620000D02*
X207420000Y-86620000D01*
X199690000Y-89380000D02*
X199690000Y-86620000D01*
X199690000Y-89380000D02*
X207420000Y-89380000D01*
X207420000Y-89380000D02*
X207420000Y-86620000D01*
%TO.C,A1*%
X119780000Y-56195000D02*
X184430000Y-56195000D01*
X119780000Y-65725000D02*
X119780000Y-56195000D01*
X119780000Y-77405000D02*
X119780000Y-65725000D01*
X119780000Y-97475000D02*
X119780000Y-77405000D01*
X119780000Y-106695000D02*
X119780000Y-97475000D01*
X119780000Y-109795000D02*
X119780000Y-106615000D01*
X184430000Y-56195000D02*
X186080000Y-57845000D01*
X186080000Y-57845000D02*
X186080000Y-69275000D01*
X186080000Y-69275000D02*
X188620000Y-71815000D01*
X186080000Y-107125000D02*
X186080000Y-109795000D01*
X186080000Y-109795000D02*
X119780000Y-109795000D01*
X188620000Y-71815000D02*
X188620000Y-104585000D01*
X188620000Y-104585000D02*
X186080000Y-107125000D01*
%TO.C,J2*%
X223620000Y-78120000D02*
X225000000Y-78120000D01*
X223620000Y-79500000D02*
X223620000Y-78120000D01*
X223620000Y-80770000D02*
X223620000Y-93580000D01*
X223620000Y-80770000D02*
X226380000Y-80770000D01*
X223620000Y-93580000D02*
X226380000Y-93580000D01*
X226380000Y-80770000D02*
X226380000Y-93580000D01*
%TO.C,J3*%
X129040000Y-138920000D02*
X129040000Y-118380000D01*
X131690000Y-136270000D02*
X131690000Y-138920000D01*
X131690000Y-138920000D02*
X129040000Y-138920000D01*
X134340000Y-118380000D02*
X129040000Y-118380000D01*
X134340000Y-136270000D02*
X131690000Y-136270000D01*
X134340000Y-136270000D02*
X134340000Y-118380000D01*
X134340000Y-137540000D02*
X134340000Y-138920000D01*
X134340000Y-138920000D02*
X132960000Y-138920000D01*
%TO.C,J12*%
X197000000Y-80380000D02*
X197000000Y-79000000D01*
X198380000Y-80380000D02*
X197000000Y-80380000D01*
X199650000Y-77620000D02*
X207380000Y-77620000D01*
X199650000Y-80380000D02*
X199650000Y-77620000D01*
X199650000Y-80380000D02*
X207380000Y-80380000D01*
X207380000Y-80380000D02*
X207380000Y-77620000D01*
%TO.C,J17*%
X216375000Y-71080000D02*
X216375000Y-58270000D01*
X219135000Y-58270000D02*
X216375000Y-58270000D01*
X219135000Y-71080000D02*
X216375000Y-71080000D01*
X219135000Y-71080000D02*
X219135000Y-58270000D01*
X219135000Y-72350000D02*
X219135000Y-73730000D01*
X219135000Y-73730000D02*
X217755000Y-73730000D01*
%TO.C,J14*%
X197040000Y-84880000D02*
X197040000Y-83500000D01*
X198420000Y-84880000D02*
X197040000Y-84880000D01*
X199690000Y-82120000D02*
X207420000Y-82120000D01*
X199690000Y-84880000D02*
X199690000Y-82120000D01*
X199690000Y-84880000D02*
X207420000Y-84880000D01*
X207420000Y-84880000D02*
X207420000Y-82120000D01*
%TO.C,J1*%
X216660000Y-78120000D02*
X218040000Y-78120000D01*
X216660000Y-79500000D02*
X216660000Y-78120000D01*
X216660000Y-80770000D02*
X216660000Y-93580000D01*
X216660000Y-80770000D02*
X219420000Y-80770000D01*
X216660000Y-93580000D02*
X219420000Y-93580000D01*
X219420000Y-80770000D02*
X219420000Y-93580000D01*
%TO.C,J11*%
X197000000Y-93880000D02*
X197000000Y-92500000D01*
X198380000Y-93880000D02*
X197000000Y-93880000D01*
X199650000Y-91120000D02*
X207380000Y-91120000D01*
X199650000Y-93880000D02*
X199650000Y-91120000D01*
X199650000Y-93880000D02*
X207380000Y-93880000D01*
X207380000Y-93880000D02*
X207380000Y-91120000D01*
%TO.C,J10*%
X199190000Y-135380000D02*
X199190000Y-145540000D01*
X199190000Y-145540000D02*
X206810000Y-145540000D01*
X200460000Y-145540000D02*
X200460000Y-135380000D01*
X206810000Y-135380000D02*
X199190000Y-135380000D01*
X206810000Y-145540000D02*
X206810000Y-135380000D01*
%TO.C,J15*%
X196960000Y-75880000D02*
X196960000Y-74500000D01*
X198340000Y-75880000D02*
X196960000Y-75880000D01*
X199610000Y-73120000D02*
X207340000Y-73120000D01*
X199610000Y-75880000D02*
X199610000Y-73120000D01*
X199610000Y-75880000D02*
X207340000Y-75880000D01*
X207340000Y-75880000D02*
X207340000Y-73120000D01*
%TO.C,J9*%
X226190000Y-135380000D02*
X226190000Y-145540000D01*
X226190000Y-145540000D02*
X233810000Y-145540000D01*
X227460000Y-145540000D02*
X227460000Y-135380000D01*
X233810000Y-135380000D02*
X226190000Y-135380000D01*
X233810000Y-145540000D02*
X233810000Y-135380000D01*
%TD*%
M02*
