%TF.GenerationSoftware,KiCad,Pcbnew,9.0.4*%
%TF.CreationDate,2025-10-04T22:47:02-03:00*%
%TF.ProjectId,mb,6d622e6b-6963-4616-945f-706362585858,rev?*%
%TF.SameCoordinates,Original*%
%TF.FileFunction,Soldermask,Top*%
%TF.FilePolarity,Negative*%
%FSLAX46Y46*%
G04 Gerber Fmt 4.6, Leading zero omitted, Abs format (unit mm)*
G04 Created by KiCad (PCBNEW 9.0.4) date 2025-10-04 22:47:02*
%MOMM*%
%LPD*%
G01*
G04 APERTURE LIST*
G04 Aperture macros list*
%AMRoundRect*
0 Rectangle with rounded corners*
0 $1 Rounding radius*
0 $2 $3 $4 $5 $6 $7 $8 $9 X,Y pos of 4 corners*
0 Add a 4 corners polygon primitive as box body*
4,1,4,$2,$3,$4,$5,$6,$7,$8,$9,$2,$3,0*
0 Add four circle primitives for the rounded corners*
1,1,$1+$1,$2,$3*
1,1,$1+$1,$4,$5*
1,1,$1+$1,$6,$7*
1,1,$1+$1,$8,$9*
0 Add four rect primitives between the rounded corners*
20,1,$1+$1,$2,$3,$4,$5,0*
20,1,$1+$1,$4,$5,$6,$7,0*
20,1,$1+$1,$6,$7,$8,$9,0*
20,1,$1+$1,$8,$9,$2,$3,0*%
G04 Aperture macros list end*
%ADD10C,4.000000*%
%ADD11R,1.700000X1.700000*%
%ADD12C,1.700000*%
%ADD13RoundRect,0.102000X-1.000000X1.000000X-1.000000X-1.000000X1.000000X-1.000000X1.000000X1.000000X0*%
%ADD14C,2.204000*%
%ADD15R,1.600000X1.600000*%
%ADD16O,1.600000X1.600000*%
%ADD17R,3.000000X3.000000*%
%ADD18C,3.000000*%
G04 APERTURE END LIST*
D10*
%TO.C,H1*%
X239500000Y-142000000D03*
%TD*%
D11*
%TO.C,J8*%
X123000000Y-121040000D03*
D12*
X123000000Y-118500000D03*
X123000000Y-115960000D03*
X123000000Y-113420000D03*
%TD*%
D11*
%TO.C,J5*%
X115886667Y-135810000D03*
D12*
X115886667Y-133270000D03*
X115886667Y-130730000D03*
X115886667Y-128190000D03*
%TD*%
D11*
%TO.C,J4*%
X187960000Y-137540000D03*
D12*
X187960000Y-135000000D03*
X187960000Y-132460000D03*
X187960000Y-129920000D03*
X187960000Y-127380000D03*
X187960000Y-124840000D03*
X187960000Y-122300000D03*
X187960000Y-119760000D03*
%TD*%
D11*
%TO.C,J7*%
X115886667Y-121080000D03*
D12*
X115886667Y-118540000D03*
X115886667Y-116000000D03*
X115886667Y-113460000D03*
%TD*%
D11*
%TO.C,J16*%
X224755000Y-72350000D03*
D12*
X224755000Y-69810000D03*
X224755000Y-67270000D03*
X224755000Y-64730000D03*
X224755000Y-62190000D03*
X224755000Y-59650000D03*
%TD*%
D13*
%TO.C,U1*%
X234520000Y-99760000D03*
D14*
X231980000Y-99760000D03*
X229440000Y-99760000D03*
X226900000Y-99760000D03*
X224360000Y-99760000D03*
X221820000Y-99760000D03*
X219280000Y-99760000D03*
X216740000Y-99760000D03*
X214200000Y-99760000D03*
X211660000Y-99760000D03*
X209120000Y-99760000D03*
X206580000Y-99760000D03*
X204040000Y-99760000D03*
X201500000Y-99760000D03*
X198960000Y-99760000D03*
X198960000Y-125160000D03*
X201500000Y-125160000D03*
X204040000Y-125160000D03*
X206580000Y-125160000D03*
X209120000Y-125160000D03*
X211660000Y-125160000D03*
X214200000Y-125160000D03*
X216740000Y-125160000D03*
X219280000Y-125160000D03*
X221820000Y-125160000D03*
X224360000Y-125160000D03*
X226900000Y-125160000D03*
X229440000Y-125160000D03*
X231980000Y-125160000D03*
X234520000Y-125160000D03*
%TD*%
D11*
%TO.C,J6*%
X123000000Y-135810000D03*
D12*
X123000000Y-133270000D03*
X123000000Y-130730000D03*
X123000000Y-128190000D03*
%TD*%
D11*
%TO.C,J13*%
X198420000Y-88000000D03*
D12*
X200960000Y-88000000D03*
X203500000Y-88000000D03*
X206040000Y-88000000D03*
%TD*%
D15*
%TO.C,A1*%
X147850000Y-107125000D03*
D16*
X150390000Y-107125000D03*
X152930000Y-107125000D03*
X155470000Y-107125000D03*
X158010000Y-107125000D03*
X160550000Y-107125000D03*
X163090000Y-107125000D03*
X165630000Y-107125000D03*
X170710000Y-107125000D03*
X173250000Y-107125000D03*
X175790000Y-107125000D03*
X178330000Y-107125000D03*
X180870000Y-107125000D03*
X183410000Y-107125000D03*
X183410000Y-58865000D03*
X180870000Y-58865000D03*
X178330000Y-58865000D03*
X175790000Y-58865000D03*
X173250000Y-58865000D03*
X170710000Y-58865000D03*
X168170000Y-58865000D03*
X165630000Y-58865000D03*
X161570000Y-58865000D03*
X159030000Y-58865000D03*
X156490000Y-58865000D03*
X153950000Y-58865000D03*
X151410000Y-58865000D03*
X148870000Y-58865000D03*
X146330000Y-58865000D03*
X143790000Y-58865000D03*
X141250000Y-58865000D03*
X138710000Y-58865000D03*
%TD*%
D11*
%TO.C,J2*%
X225000000Y-79500000D03*
D12*
X225000000Y-82040000D03*
X225000000Y-84580000D03*
X225000000Y-87120000D03*
X225000000Y-89660000D03*
X225000000Y-92200000D03*
%TD*%
D11*
%TO.C,J3*%
X132960000Y-137540000D03*
D12*
X130420000Y-137540000D03*
X132960000Y-135000000D03*
X130420000Y-135000000D03*
X132960000Y-132460000D03*
X130420000Y-132460000D03*
X132960000Y-129920000D03*
X130420000Y-129920000D03*
X132960000Y-127380000D03*
X130420000Y-127380000D03*
X132960000Y-124840000D03*
X130420000Y-124840000D03*
X132960000Y-122300000D03*
X130420000Y-122300000D03*
X132960000Y-119760000D03*
X130420000Y-119760000D03*
%TD*%
D11*
%TO.C,J12*%
X198380000Y-79000000D03*
D12*
X200920000Y-79000000D03*
X203460000Y-79000000D03*
X206000000Y-79000000D03*
%TD*%
D11*
%TO.C,J17*%
X217755000Y-72350000D03*
D12*
X217755000Y-69810000D03*
X217755000Y-67270000D03*
X217755000Y-64730000D03*
X217755000Y-62190000D03*
X217755000Y-59650000D03*
%TD*%
D10*
%TO.C,H3*%
X113000000Y-60000000D03*
%TD*%
%TO.C,H4*%
X239500000Y-60000000D03*
%TD*%
D11*
%TO.C,J14*%
X198420000Y-83500000D03*
D12*
X200960000Y-83500000D03*
X203500000Y-83500000D03*
X206040000Y-83500000D03*
%TD*%
D11*
%TO.C,J1*%
X218040000Y-79500000D03*
D12*
X218040000Y-82040000D03*
X218040000Y-84580000D03*
X218040000Y-87120000D03*
X218040000Y-89660000D03*
X218040000Y-92200000D03*
%TD*%
D11*
%TO.C,J11*%
X198380000Y-92500000D03*
D12*
X200920000Y-92500000D03*
X203460000Y-92500000D03*
X206000000Y-92500000D03*
%TD*%
D17*
%TO.C,J10*%
X203000000Y-137920000D03*
D18*
X203000000Y-143000000D03*
%TD*%
D11*
%TO.C,J15*%
X198340000Y-74500000D03*
D12*
X200880000Y-74500000D03*
X203420000Y-74500000D03*
X205960000Y-74500000D03*
%TD*%
D10*
%TO.C,H2*%
X113000000Y-142000000D03*
%TD*%
D17*
%TO.C,J9*%
X230000000Y-137920000D03*
D18*
X230000000Y-143000000D03*
%TD*%
M02*
