M48
; DRILL file {KiCad 9.0.4} date 2025-10-04T22:47:16-0300
; FORMAT={-:-/ absolute / metric / decimal}
; #@! TF.CreationDate,2025-10-04T22:47:16-03:00
; #@! TF.GenerationSoftware,Kicad,Pcbnew,9.0.4
; #@! TF.FileFunction,Plated,1,2,PTH
FMAT,2
METRIC
; #@! TA.AperFunction,Plated,PTH,ViaDrill
T1C0.300
; #@! TA.AperFunction,Plated,PTH,ComponentDrill
T2C1.000
; #@! TA.AperFunction,Plated,PTH,ComponentDrill
T3C1.020
; #@! TA.AperFunction,Plated,PTH,ComponentDrill
T4C1.520
%
G90
G05
T1
X114.0Y-93.0
X114.0Y-103.5
X114.5Y-70.5
X118.5Y-118.0
X119.5Y-126.0
X122.0Y-144.5
X126.0Y-121.0
X126.0Y-132.0
X126.5Y-136.0
X133.0Y-70.5
X133.0Y-86.0
X133.5Y-102.5
X150.5Y-55.5
X154.0Y-146.0
X157.0Y-70.163
X158.0Y-86.5
X182.0Y-70.5
X184.5Y-103.0
X187.5Y-146.0
X191.0Y-65.5
X209.5Y-77.0
X209.5Y-80.5
X210.0Y-81.5
X210.5Y-61.0
X210.5Y-71.5
X211.0Y-81.5
X214.5Y-82.0
X215.0Y-64.0
X216.0Y-106.0
X216.0Y-115.0
X216.0Y-122.5
X216.5Y-95.5
X222.0Y-58.0
X226.0Y-95.5
X227.0Y-106.0
X231.5Y-81.0
X231.5Y-92.5
X232.0Y-56.0
X232.0Y-70.0
X232.0Y-115.5
X240.0Y-77.0
X240.5Y-122.5
X240.5Y-135.0
X242.5Y-66.0
T2
X115.887Y-113.46
X115.887Y-116.0
X115.887Y-118.54
X115.887Y-121.08
X115.887Y-128.19
X115.887Y-130.73
X115.887Y-133.27
X115.887Y-135.81
X123.0Y-113.42
X123.0Y-115.96
X123.0Y-118.5
X123.0Y-121.04
X123.0Y-128.19
X123.0Y-130.73
X123.0Y-133.27
X123.0Y-135.81
X130.42Y-119.76
X130.42Y-122.3
X130.42Y-124.84
X130.42Y-127.38
X130.42Y-129.92
X130.42Y-132.46
X130.42Y-135.0
X130.42Y-137.54
X132.96Y-119.76
X132.96Y-122.3
X132.96Y-124.84
X132.96Y-127.38
X132.96Y-129.92
X132.96Y-132.46
X132.96Y-135.0
X132.96Y-137.54
X138.71Y-58.865
X141.25Y-58.865
X143.79Y-58.865
X146.33Y-58.865
X147.85Y-107.125
X148.87Y-58.865
X150.39Y-107.125
X151.41Y-58.865
X152.93Y-107.125
X153.95Y-58.865
X155.47Y-107.125
X156.49Y-58.865
X158.01Y-107.125
X159.03Y-58.865
X160.55Y-107.125
X161.57Y-58.865
X163.09Y-107.125
X165.63Y-58.865
X165.63Y-107.125
X168.17Y-58.865
X170.71Y-58.865
X170.71Y-107.125
X173.25Y-58.865
X173.25Y-107.125
X175.79Y-58.865
X175.79Y-107.125
X178.33Y-58.865
X178.33Y-107.125
X180.87Y-58.865
X180.87Y-107.125
X183.41Y-58.865
X183.41Y-107.125
X187.96Y-119.76
X187.96Y-122.3
X187.96Y-124.84
X187.96Y-127.38
X187.96Y-129.92
X187.96Y-132.46
X187.96Y-135.0
X187.96Y-137.54
X198.34Y-74.5
X198.38Y-79.0
X198.38Y-92.5
X198.42Y-83.5
X198.42Y-88.0
X200.88Y-74.5
X200.92Y-79.0
X200.92Y-92.5
X200.96Y-83.5
X200.96Y-88.0
X203.42Y-74.5
X203.46Y-79.0
X203.46Y-92.5
X203.5Y-83.5
X203.5Y-88.0
X205.96Y-74.5
X206.0Y-79.0
X206.0Y-92.5
X206.04Y-83.5
X206.04Y-88.0
X217.755Y-59.65
X217.755Y-62.19
X217.755Y-64.73
X217.755Y-67.27
X217.755Y-69.81
X217.755Y-72.35
X218.04Y-79.5
X218.04Y-82.04
X218.04Y-84.58
X218.04Y-87.12
X218.04Y-89.66
X218.04Y-92.2
X224.755Y-59.65
X224.755Y-62.19
X224.755Y-64.73
X224.755Y-67.27
X224.755Y-69.81
X224.755Y-72.35
X225.0Y-79.5
X225.0Y-82.04
X225.0Y-84.58
X225.0Y-87.12
X225.0Y-89.66
X225.0Y-92.2
T3
X198.96Y-99.76
X198.96Y-125.16
X201.5Y-99.76
X201.5Y-125.16
X204.04Y-99.76
X204.04Y-125.16
X206.58Y-99.76
X206.58Y-125.16
X209.12Y-99.76
X209.12Y-125.16
X211.66Y-99.76
X211.66Y-125.16
X214.2Y-99.76
X214.2Y-125.16
X216.74Y-99.76
X216.74Y-125.16
X219.28Y-99.76
X219.28Y-125.16
X221.82Y-99.76
X221.82Y-125.16
X224.36Y-99.76
X224.36Y-125.16
X226.9Y-99.76
X226.9Y-125.16
X229.44Y-99.76
X229.44Y-125.16
X231.98Y-99.76
X231.98Y-125.16
X234.52Y-99.76
X234.52Y-125.16
T4
X203.0Y-137.92
X203.0Y-143.0
X230.0Y-137.92
X230.0Y-143.0
M30
