%TF.GenerationSoftware,KiCad,Pcbnew,9.0.4*%
%TF.CreationDate,2025-10-04T22:45:10-03:00*%
%TF.ProjectId,encoder_magnetico,656e636f-6465-4725-9f6d-61676e657469,rev?*%
%TF.SameCoordinates,Original*%
%TF.FileFunction,Legend,Bot*%
%TF.FilePolarity,Positive*%
%FSLAX46Y46*%
G04 Gerber Fmt 4.6, Leading zero omitted, Abs format (unit mm)*
G04 Created by KiCad (PCBNEW 9.0.4) date 2025-10-04 22:45:10*
%MOMM*%
%LPD*%
G01*
G04 APERTURE LIST*
%ADD10C,0.125000*%
%ADD11C,0.150000*%
%ADD12C,0.000000*%
G04 APERTURE END LIST*
D10*
X55115144Y-56367449D02*
X54948478Y-56867449D01*
X54948478Y-56867449D02*
X54781811Y-56367449D01*
X54519907Y-56367449D02*
X54472288Y-56367449D01*
X54472288Y-56367449D02*
X54424669Y-56391259D01*
X54424669Y-56391259D02*
X54400859Y-56415068D01*
X54400859Y-56415068D02*
X54377050Y-56462687D01*
X54377050Y-56462687D02*
X54353240Y-56557925D01*
X54353240Y-56557925D02*
X54353240Y-56676973D01*
X54353240Y-56676973D02*
X54377050Y-56772211D01*
X54377050Y-56772211D02*
X54400859Y-56819830D01*
X54400859Y-56819830D02*
X54424669Y-56843640D01*
X54424669Y-56843640D02*
X54472288Y-56867449D01*
X54472288Y-56867449D02*
X54519907Y-56867449D01*
X54519907Y-56867449D02*
X54567526Y-56843640D01*
X54567526Y-56843640D02*
X54591335Y-56819830D01*
X54591335Y-56819830D02*
X54615145Y-56772211D01*
X54615145Y-56772211D02*
X54638954Y-56676973D01*
X54638954Y-56676973D02*
X54638954Y-56557925D01*
X54638954Y-56557925D02*
X54615145Y-56462687D01*
X54615145Y-56462687D02*
X54591335Y-56415068D01*
X54591335Y-56415068D02*
X54567526Y-56391259D01*
X54567526Y-56391259D02*
X54519907Y-56367449D01*
X54138955Y-56819830D02*
X54115145Y-56843640D01*
X54115145Y-56843640D02*
X54138955Y-56867449D01*
X54138955Y-56867449D02*
X54162764Y-56843640D01*
X54162764Y-56843640D02*
X54138955Y-56819830D01*
X54138955Y-56819830D02*
X54138955Y-56867449D01*
X53805622Y-56367449D02*
X53758003Y-56367449D01*
X53758003Y-56367449D02*
X53710384Y-56391259D01*
X53710384Y-56391259D02*
X53686574Y-56415068D01*
X53686574Y-56415068D02*
X53662765Y-56462687D01*
X53662765Y-56462687D02*
X53638955Y-56557925D01*
X53638955Y-56557925D02*
X53638955Y-56676973D01*
X53638955Y-56676973D02*
X53662765Y-56772211D01*
X53662765Y-56772211D02*
X53686574Y-56819830D01*
X53686574Y-56819830D02*
X53710384Y-56843640D01*
X53710384Y-56843640D02*
X53758003Y-56867449D01*
X53758003Y-56867449D02*
X53805622Y-56867449D01*
X53805622Y-56867449D02*
X53853241Y-56843640D01*
X53853241Y-56843640D02*
X53877050Y-56819830D01*
X53877050Y-56819830D02*
X53900860Y-56772211D01*
X53900860Y-56772211D02*
X53924669Y-56676973D01*
X53924669Y-56676973D02*
X53924669Y-56557925D01*
X53924669Y-56557925D02*
X53900860Y-56462687D01*
X53900860Y-56462687D02*
X53877050Y-56415068D01*
X53877050Y-56415068D02*
X53853241Y-56391259D01*
X53853241Y-56391259D02*
X53805622Y-56367449D01*
X53067527Y-56724592D02*
X52829432Y-56724592D01*
X53115146Y-56867449D02*
X52948480Y-56367449D01*
X52948480Y-56367449D02*
X52781813Y-56867449D01*
X52638956Y-56843640D02*
X52567528Y-56867449D01*
X52567528Y-56867449D02*
X52448480Y-56867449D01*
X52448480Y-56867449D02*
X52400861Y-56843640D01*
X52400861Y-56843640D02*
X52377052Y-56819830D01*
X52377052Y-56819830D02*
X52353242Y-56772211D01*
X52353242Y-56772211D02*
X52353242Y-56724592D01*
X52353242Y-56724592D02*
X52377052Y-56676973D01*
X52377052Y-56676973D02*
X52400861Y-56653163D01*
X52400861Y-56653163D02*
X52448480Y-56629354D01*
X52448480Y-56629354D02*
X52543718Y-56605544D01*
X52543718Y-56605544D02*
X52591337Y-56581735D01*
X52591337Y-56581735D02*
X52615147Y-56557925D01*
X52615147Y-56557925D02*
X52638956Y-56510306D01*
X52638956Y-56510306D02*
X52638956Y-56462687D01*
X52638956Y-56462687D02*
X52615147Y-56415068D01*
X52615147Y-56415068D02*
X52591337Y-56391259D01*
X52591337Y-56391259D02*
X52543718Y-56367449D01*
X52543718Y-56367449D02*
X52424671Y-56367449D01*
X52424671Y-56367449D02*
X52353242Y-56391259D01*
X51900862Y-56367449D02*
X52138957Y-56367449D01*
X52138957Y-56367449D02*
X52162766Y-56605544D01*
X52162766Y-56605544D02*
X52138957Y-56581735D01*
X52138957Y-56581735D02*
X52091338Y-56557925D01*
X52091338Y-56557925D02*
X51972290Y-56557925D01*
X51972290Y-56557925D02*
X51924671Y-56581735D01*
X51924671Y-56581735D02*
X51900862Y-56605544D01*
X51900862Y-56605544D02*
X51877052Y-56653163D01*
X51877052Y-56653163D02*
X51877052Y-56772211D01*
X51877052Y-56772211D02*
X51900862Y-56819830D01*
X51900862Y-56819830D02*
X51924671Y-56843640D01*
X51924671Y-56843640D02*
X51972290Y-56867449D01*
X51972290Y-56867449D02*
X52091338Y-56867449D01*
X52091338Y-56867449D02*
X52138957Y-56843640D01*
X52138957Y-56843640D02*
X52162766Y-56819830D01*
X51567529Y-56367449D02*
X51519910Y-56367449D01*
X51519910Y-56367449D02*
X51472291Y-56391259D01*
X51472291Y-56391259D02*
X51448481Y-56415068D01*
X51448481Y-56415068D02*
X51424672Y-56462687D01*
X51424672Y-56462687D02*
X51400862Y-56557925D01*
X51400862Y-56557925D02*
X51400862Y-56676973D01*
X51400862Y-56676973D02*
X51424672Y-56772211D01*
X51424672Y-56772211D02*
X51448481Y-56819830D01*
X51448481Y-56819830D02*
X51472291Y-56843640D01*
X51472291Y-56843640D02*
X51519910Y-56867449D01*
X51519910Y-56867449D02*
X51567529Y-56867449D01*
X51567529Y-56867449D02*
X51615148Y-56843640D01*
X51615148Y-56843640D02*
X51638957Y-56819830D01*
X51638957Y-56819830D02*
X51662767Y-56772211D01*
X51662767Y-56772211D02*
X51686576Y-56676973D01*
X51686576Y-56676973D02*
X51686576Y-56557925D01*
X51686576Y-56557925D02*
X51662767Y-56462687D01*
X51662767Y-56462687D02*
X51638957Y-56415068D01*
X51638957Y-56415068D02*
X51615148Y-56391259D01*
X51615148Y-56391259D02*
X51567529Y-56367449D01*
X50972291Y-56534116D02*
X50972291Y-56867449D01*
X51091339Y-56343640D02*
X51210386Y-56700782D01*
X51210386Y-56700782D02*
X50900863Y-56700782D01*
X50758006Y-56367449D02*
X50424673Y-56367449D01*
X50424673Y-56367449D02*
X50638958Y-56867449D01*
X50234197Y-56867449D02*
X50234197Y-56367449D01*
X50234197Y-56367449D02*
X50043721Y-56367449D01*
X50043721Y-56367449D02*
X49996102Y-56391259D01*
X49996102Y-56391259D02*
X49972292Y-56415068D01*
X49972292Y-56415068D02*
X49948483Y-56462687D01*
X49948483Y-56462687D02*
X49948483Y-56534116D01*
X49948483Y-56534116D02*
X49972292Y-56581735D01*
X49972292Y-56581735D02*
X49996102Y-56605544D01*
X49996102Y-56605544D02*
X50043721Y-56629354D01*
X50043721Y-56629354D02*
X50234197Y-56629354D01*
X49377054Y-56415068D02*
X49353245Y-56391259D01*
X49353245Y-56391259D02*
X49305626Y-56367449D01*
X49305626Y-56367449D02*
X49186578Y-56367449D01*
X49186578Y-56367449D02*
X49138959Y-56391259D01*
X49138959Y-56391259D02*
X49115150Y-56415068D01*
X49115150Y-56415068D02*
X49091340Y-56462687D01*
X49091340Y-56462687D02*
X49091340Y-56510306D01*
X49091340Y-56510306D02*
X49115150Y-56581735D01*
X49115150Y-56581735D02*
X49400864Y-56867449D01*
X49400864Y-56867449D02*
X49091340Y-56867449D01*
X48781817Y-56367449D02*
X48734198Y-56367449D01*
X48734198Y-56367449D02*
X48686579Y-56391259D01*
X48686579Y-56391259D02*
X48662769Y-56415068D01*
X48662769Y-56415068D02*
X48638960Y-56462687D01*
X48638960Y-56462687D02*
X48615150Y-56557925D01*
X48615150Y-56557925D02*
X48615150Y-56676973D01*
X48615150Y-56676973D02*
X48638960Y-56772211D01*
X48638960Y-56772211D02*
X48662769Y-56819830D01*
X48662769Y-56819830D02*
X48686579Y-56843640D01*
X48686579Y-56843640D02*
X48734198Y-56867449D01*
X48734198Y-56867449D02*
X48781817Y-56867449D01*
X48781817Y-56867449D02*
X48829436Y-56843640D01*
X48829436Y-56843640D02*
X48853245Y-56819830D01*
X48853245Y-56819830D02*
X48877055Y-56772211D01*
X48877055Y-56772211D02*
X48900864Y-56676973D01*
X48900864Y-56676973D02*
X48900864Y-56557925D01*
X48900864Y-56557925D02*
X48877055Y-56462687D01*
X48877055Y-56462687D02*
X48853245Y-56415068D01*
X48853245Y-56415068D02*
X48829436Y-56391259D01*
X48829436Y-56391259D02*
X48781817Y-56367449D01*
X48424674Y-56415068D02*
X48400865Y-56391259D01*
X48400865Y-56391259D02*
X48353246Y-56367449D01*
X48353246Y-56367449D02*
X48234198Y-56367449D01*
X48234198Y-56367449D02*
X48186579Y-56391259D01*
X48186579Y-56391259D02*
X48162770Y-56415068D01*
X48162770Y-56415068D02*
X48138960Y-56462687D01*
X48138960Y-56462687D02*
X48138960Y-56510306D01*
X48138960Y-56510306D02*
X48162770Y-56581735D01*
X48162770Y-56581735D02*
X48448484Y-56867449D01*
X48448484Y-56867449D02*
X48138960Y-56867449D01*
X47686580Y-56367449D02*
X47924675Y-56367449D01*
X47924675Y-56367449D02*
X47948484Y-56605544D01*
X47948484Y-56605544D02*
X47924675Y-56581735D01*
X47924675Y-56581735D02*
X47877056Y-56557925D01*
X47877056Y-56557925D02*
X47758008Y-56557925D01*
X47758008Y-56557925D02*
X47710389Y-56581735D01*
X47710389Y-56581735D02*
X47686580Y-56605544D01*
X47686580Y-56605544D02*
X47662770Y-56653163D01*
X47662770Y-56653163D02*
X47662770Y-56772211D01*
X47662770Y-56772211D02*
X47686580Y-56819830D01*
X47686580Y-56819830D02*
X47710389Y-56843640D01*
X47710389Y-56843640D02*
X47758008Y-56867449D01*
X47758008Y-56867449D02*
X47877056Y-56867449D01*
X47877056Y-56867449D02*
X47924675Y-56843640D01*
X47924675Y-56843640D02*
X47948484Y-56819830D01*
X47448485Y-56819830D02*
X47424675Y-56843640D01*
X47424675Y-56843640D02*
X47448485Y-56867449D01*
X47448485Y-56867449D02*
X47472294Y-56843640D01*
X47472294Y-56843640D02*
X47448485Y-56819830D01*
X47448485Y-56819830D02*
X47448485Y-56867449D01*
X47234199Y-56415068D02*
X47210390Y-56391259D01*
X47210390Y-56391259D02*
X47162771Y-56367449D01*
X47162771Y-56367449D02*
X47043723Y-56367449D01*
X47043723Y-56367449D02*
X46996104Y-56391259D01*
X46996104Y-56391259D02*
X46972295Y-56415068D01*
X46972295Y-56415068D02*
X46948485Y-56462687D01*
X46948485Y-56462687D02*
X46948485Y-56510306D01*
X46948485Y-56510306D02*
X46972295Y-56581735D01*
X46972295Y-56581735D02*
X47258009Y-56867449D01*
X47258009Y-56867449D02*
X46948485Y-56867449D01*
X55043716Y-57410516D02*
X54877049Y-57410516D01*
X54805621Y-57672421D02*
X55043716Y-57672421D01*
X55043716Y-57672421D02*
X55043716Y-57172421D01*
X55043716Y-57172421D02*
X54805621Y-57172421D01*
X54591335Y-57339088D02*
X54591335Y-57672421D01*
X54591335Y-57386707D02*
X54567525Y-57362897D01*
X54567525Y-57362897D02*
X54519906Y-57339088D01*
X54519906Y-57339088D02*
X54448478Y-57339088D01*
X54448478Y-57339088D02*
X54400859Y-57362897D01*
X54400859Y-57362897D02*
X54377049Y-57410516D01*
X54377049Y-57410516D02*
X54377049Y-57672421D01*
X53924668Y-57648612D02*
X53972287Y-57672421D01*
X53972287Y-57672421D02*
X54067525Y-57672421D01*
X54067525Y-57672421D02*
X54115144Y-57648612D01*
X54115144Y-57648612D02*
X54138954Y-57624802D01*
X54138954Y-57624802D02*
X54162763Y-57577183D01*
X54162763Y-57577183D02*
X54162763Y-57434326D01*
X54162763Y-57434326D02*
X54138954Y-57386707D01*
X54138954Y-57386707D02*
X54115144Y-57362897D01*
X54115144Y-57362897D02*
X54067525Y-57339088D01*
X54067525Y-57339088D02*
X53972287Y-57339088D01*
X53972287Y-57339088D02*
X53924668Y-57362897D01*
X53638954Y-57672421D02*
X53686573Y-57648612D01*
X53686573Y-57648612D02*
X53710383Y-57624802D01*
X53710383Y-57624802D02*
X53734192Y-57577183D01*
X53734192Y-57577183D02*
X53734192Y-57434326D01*
X53734192Y-57434326D02*
X53710383Y-57386707D01*
X53710383Y-57386707D02*
X53686573Y-57362897D01*
X53686573Y-57362897D02*
X53638954Y-57339088D01*
X53638954Y-57339088D02*
X53567526Y-57339088D01*
X53567526Y-57339088D02*
X53519907Y-57362897D01*
X53519907Y-57362897D02*
X53496097Y-57386707D01*
X53496097Y-57386707D02*
X53472288Y-57434326D01*
X53472288Y-57434326D02*
X53472288Y-57577183D01*
X53472288Y-57577183D02*
X53496097Y-57624802D01*
X53496097Y-57624802D02*
X53519907Y-57648612D01*
X53519907Y-57648612D02*
X53567526Y-57672421D01*
X53567526Y-57672421D02*
X53638954Y-57672421D01*
X53043716Y-57672421D02*
X53043716Y-57172421D01*
X53043716Y-57648612D02*
X53091335Y-57672421D01*
X53091335Y-57672421D02*
X53186573Y-57672421D01*
X53186573Y-57672421D02*
X53234192Y-57648612D01*
X53234192Y-57648612D02*
X53258002Y-57624802D01*
X53258002Y-57624802D02*
X53281811Y-57577183D01*
X53281811Y-57577183D02*
X53281811Y-57434326D01*
X53281811Y-57434326D02*
X53258002Y-57386707D01*
X53258002Y-57386707D02*
X53234192Y-57362897D01*
X53234192Y-57362897D02*
X53186573Y-57339088D01*
X53186573Y-57339088D02*
X53091335Y-57339088D01*
X53091335Y-57339088D02*
X53043716Y-57362897D01*
X52615145Y-57648612D02*
X52662764Y-57672421D01*
X52662764Y-57672421D02*
X52758002Y-57672421D01*
X52758002Y-57672421D02*
X52805621Y-57648612D01*
X52805621Y-57648612D02*
X52829430Y-57600992D01*
X52829430Y-57600992D02*
X52829430Y-57410516D01*
X52829430Y-57410516D02*
X52805621Y-57362897D01*
X52805621Y-57362897D02*
X52758002Y-57339088D01*
X52758002Y-57339088D02*
X52662764Y-57339088D01*
X52662764Y-57339088D02*
X52615145Y-57362897D01*
X52615145Y-57362897D02*
X52591335Y-57410516D01*
X52591335Y-57410516D02*
X52591335Y-57458135D01*
X52591335Y-57458135D02*
X52829430Y-57505754D01*
X52377050Y-57672421D02*
X52377050Y-57339088D01*
X52377050Y-57434326D02*
X52353240Y-57386707D01*
X52353240Y-57386707D02*
X52329431Y-57362897D01*
X52329431Y-57362897D02*
X52281812Y-57339088D01*
X52281812Y-57339088D02*
X52234193Y-57339088D01*
X51472288Y-57672421D02*
X51472288Y-57172421D01*
X51472288Y-57648612D02*
X51519907Y-57672421D01*
X51519907Y-57672421D02*
X51615145Y-57672421D01*
X51615145Y-57672421D02*
X51662764Y-57648612D01*
X51662764Y-57648612D02*
X51686574Y-57624802D01*
X51686574Y-57624802D02*
X51710383Y-57577183D01*
X51710383Y-57577183D02*
X51710383Y-57434326D01*
X51710383Y-57434326D02*
X51686574Y-57386707D01*
X51686574Y-57386707D02*
X51662764Y-57362897D01*
X51662764Y-57362897D02*
X51615145Y-57339088D01*
X51615145Y-57339088D02*
X51519907Y-57339088D01*
X51519907Y-57339088D02*
X51472288Y-57362897D01*
X51234193Y-57672421D02*
X51234193Y-57339088D01*
X51234193Y-57172421D02*
X51258002Y-57196231D01*
X51258002Y-57196231D02*
X51234193Y-57220040D01*
X51234193Y-57220040D02*
X51210383Y-57196231D01*
X51210383Y-57196231D02*
X51234193Y-57172421D01*
X51234193Y-57172421D02*
X51234193Y-57220040D01*
X50996098Y-57339088D02*
X50996098Y-57672421D01*
X50996098Y-57386707D02*
X50972288Y-57362897D01*
X50972288Y-57362897D02*
X50924669Y-57339088D01*
X50924669Y-57339088D02*
X50853241Y-57339088D01*
X50853241Y-57339088D02*
X50805622Y-57362897D01*
X50805622Y-57362897D02*
X50781812Y-57410516D01*
X50781812Y-57410516D02*
X50781812Y-57672421D01*
X50329431Y-57672421D02*
X50329431Y-57410516D01*
X50329431Y-57410516D02*
X50353241Y-57362897D01*
X50353241Y-57362897D02*
X50400860Y-57339088D01*
X50400860Y-57339088D02*
X50496098Y-57339088D01*
X50496098Y-57339088D02*
X50543717Y-57362897D01*
X50329431Y-57648612D02*
X50377050Y-57672421D01*
X50377050Y-57672421D02*
X50496098Y-57672421D01*
X50496098Y-57672421D02*
X50543717Y-57648612D01*
X50543717Y-57648612D02*
X50567526Y-57600992D01*
X50567526Y-57600992D02*
X50567526Y-57553373D01*
X50567526Y-57553373D02*
X50543717Y-57505754D01*
X50543717Y-57505754D02*
X50496098Y-57481945D01*
X50496098Y-57481945D02*
X50377050Y-57481945D01*
X50377050Y-57481945D02*
X50329431Y-57458135D01*
X50091336Y-57672421D02*
X50091336Y-57339088D01*
X50091336Y-57386707D02*
X50067526Y-57362897D01*
X50067526Y-57362897D02*
X50019907Y-57339088D01*
X50019907Y-57339088D02*
X49948479Y-57339088D01*
X49948479Y-57339088D02*
X49900860Y-57362897D01*
X49900860Y-57362897D02*
X49877050Y-57410516D01*
X49877050Y-57410516D02*
X49877050Y-57672421D01*
X49877050Y-57410516D02*
X49853241Y-57362897D01*
X49853241Y-57362897D02*
X49805622Y-57339088D01*
X49805622Y-57339088D02*
X49734193Y-57339088D01*
X49734193Y-57339088D02*
X49686574Y-57362897D01*
X49686574Y-57362897D02*
X49662764Y-57410516D01*
X49662764Y-57410516D02*
X49662764Y-57672421D01*
X49353240Y-57672421D02*
X49400859Y-57648612D01*
X49400859Y-57648612D02*
X49424669Y-57624802D01*
X49424669Y-57624802D02*
X49448478Y-57577183D01*
X49448478Y-57577183D02*
X49448478Y-57434326D01*
X49448478Y-57434326D02*
X49424669Y-57386707D01*
X49424669Y-57386707D02*
X49400859Y-57362897D01*
X49400859Y-57362897D02*
X49353240Y-57339088D01*
X49353240Y-57339088D02*
X49281812Y-57339088D01*
X49281812Y-57339088D02*
X49234193Y-57362897D01*
X49234193Y-57362897D02*
X49210383Y-57386707D01*
X49210383Y-57386707D02*
X49186574Y-57434326D01*
X49186574Y-57434326D02*
X49186574Y-57577183D01*
X49186574Y-57577183D02*
X49210383Y-57624802D01*
X49210383Y-57624802D02*
X49234193Y-57648612D01*
X49234193Y-57648612D02*
X49281812Y-57672421D01*
X49281812Y-57672421D02*
X49353240Y-57672421D01*
X49400859Y-57220040D02*
X49305621Y-57148612D01*
X49305621Y-57148612D02*
X49210383Y-57220040D01*
X48972288Y-57672421D02*
X48972288Y-57339088D01*
X48972288Y-57386707D02*
X48948478Y-57362897D01*
X48948478Y-57362897D02*
X48900859Y-57339088D01*
X48900859Y-57339088D02*
X48829431Y-57339088D01*
X48829431Y-57339088D02*
X48781812Y-57362897D01*
X48781812Y-57362897D02*
X48758002Y-57410516D01*
X48758002Y-57410516D02*
X48758002Y-57672421D01*
X48758002Y-57410516D02*
X48734193Y-57362897D01*
X48734193Y-57362897D02*
X48686574Y-57339088D01*
X48686574Y-57339088D02*
X48615145Y-57339088D01*
X48615145Y-57339088D02*
X48567526Y-57362897D01*
X48567526Y-57362897D02*
X48543716Y-57410516D01*
X48543716Y-57410516D02*
X48543716Y-57672421D01*
X48115145Y-57648612D02*
X48162764Y-57672421D01*
X48162764Y-57672421D02*
X48258002Y-57672421D01*
X48258002Y-57672421D02*
X48305621Y-57648612D01*
X48305621Y-57648612D02*
X48329430Y-57600992D01*
X48329430Y-57600992D02*
X48329430Y-57410516D01*
X48329430Y-57410516D02*
X48305621Y-57362897D01*
X48305621Y-57362897D02*
X48258002Y-57339088D01*
X48258002Y-57339088D02*
X48162764Y-57339088D01*
X48162764Y-57339088D02*
X48115145Y-57362897D01*
X48115145Y-57362897D02*
X48091335Y-57410516D01*
X48091335Y-57410516D02*
X48091335Y-57458135D01*
X48091335Y-57458135D02*
X48329430Y-57505754D01*
X47948478Y-57339088D02*
X47758002Y-57339088D01*
X47877050Y-57172421D02*
X47877050Y-57600992D01*
X47877050Y-57600992D02*
X47853240Y-57648612D01*
X47853240Y-57648612D02*
X47805621Y-57672421D01*
X47805621Y-57672421D02*
X47758002Y-57672421D01*
X47591336Y-57672421D02*
X47591336Y-57339088D01*
X47591336Y-57434326D02*
X47567526Y-57386707D01*
X47567526Y-57386707D02*
X47543717Y-57362897D01*
X47543717Y-57362897D02*
X47496098Y-57339088D01*
X47496098Y-57339088D02*
X47448479Y-57339088D01*
X47210383Y-57672421D02*
X47258002Y-57648612D01*
X47258002Y-57648612D02*
X47281812Y-57624802D01*
X47281812Y-57624802D02*
X47305621Y-57577183D01*
X47305621Y-57577183D02*
X47305621Y-57434326D01*
X47305621Y-57434326D02*
X47281812Y-57386707D01*
X47281812Y-57386707D02*
X47258002Y-57362897D01*
X47258002Y-57362897D02*
X47210383Y-57339088D01*
X47210383Y-57339088D02*
X47138955Y-57339088D01*
X47138955Y-57339088D02*
X47091336Y-57362897D01*
X47091336Y-57362897D02*
X47067526Y-57386707D01*
X47067526Y-57386707D02*
X47043717Y-57434326D01*
X47043717Y-57434326D02*
X47043717Y-57577183D01*
X47043717Y-57577183D02*
X47067526Y-57624802D01*
X47067526Y-57624802D02*
X47091336Y-57648612D01*
X47091336Y-57648612D02*
X47138955Y-57672421D01*
X47138955Y-57672421D02*
X47210383Y-57672421D01*
X55043716Y-58477393D02*
X55043716Y-57977393D01*
X55043716Y-57977393D02*
X54877049Y-58334536D01*
X54877049Y-58334536D02*
X54710383Y-57977393D01*
X54710383Y-57977393D02*
X54710383Y-58477393D01*
X54400858Y-58477393D02*
X54448477Y-58453584D01*
X54448477Y-58453584D02*
X54472287Y-58429774D01*
X54472287Y-58429774D02*
X54496096Y-58382155D01*
X54496096Y-58382155D02*
X54496096Y-58239298D01*
X54496096Y-58239298D02*
X54472287Y-58191679D01*
X54472287Y-58191679D02*
X54448477Y-58167869D01*
X54448477Y-58167869D02*
X54400858Y-58144060D01*
X54400858Y-58144060D02*
X54329430Y-58144060D01*
X54329430Y-58144060D02*
X54281811Y-58167869D01*
X54281811Y-58167869D02*
X54258001Y-58191679D01*
X54258001Y-58191679D02*
X54234192Y-58239298D01*
X54234192Y-58239298D02*
X54234192Y-58382155D01*
X54234192Y-58382155D02*
X54258001Y-58429774D01*
X54258001Y-58429774D02*
X54281811Y-58453584D01*
X54281811Y-58453584D02*
X54329430Y-58477393D01*
X54329430Y-58477393D02*
X54400858Y-58477393D01*
X54019906Y-58477393D02*
X54019906Y-57977393D01*
X53805620Y-58477393D02*
X53805620Y-58215488D01*
X53805620Y-58215488D02*
X53829430Y-58167869D01*
X53829430Y-58167869D02*
X53877049Y-58144060D01*
X53877049Y-58144060D02*
X53948477Y-58144060D01*
X53948477Y-58144060D02*
X53996096Y-58167869D01*
X53996096Y-58167869D02*
X54019906Y-58191679D01*
X53353239Y-58477393D02*
X53353239Y-58215488D01*
X53353239Y-58215488D02*
X53377049Y-58167869D01*
X53377049Y-58167869D02*
X53424668Y-58144060D01*
X53424668Y-58144060D02*
X53519906Y-58144060D01*
X53519906Y-58144060D02*
X53567525Y-58167869D01*
X53353239Y-58453584D02*
X53400858Y-58477393D01*
X53400858Y-58477393D02*
X53519906Y-58477393D01*
X53519906Y-58477393D02*
X53567525Y-58453584D01*
X53567525Y-58453584D02*
X53591334Y-58405964D01*
X53591334Y-58405964D02*
X53591334Y-58358345D01*
X53591334Y-58358345D02*
X53567525Y-58310726D01*
X53567525Y-58310726D02*
X53519906Y-58286917D01*
X53519906Y-58286917D02*
X53400858Y-58286917D01*
X53400858Y-58286917D02*
X53353239Y-58263107D01*
X53115144Y-58477393D02*
X53115144Y-58144060D01*
X53115144Y-58191679D02*
X53091334Y-58167869D01*
X53091334Y-58167869D02*
X53043715Y-58144060D01*
X53043715Y-58144060D02*
X52972287Y-58144060D01*
X52972287Y-58144060D02*
X52924668Y-58167869D01*
X52924668Y-58167869D02*
X52900858Y-58215488D01*
X52900858Y-58215488D02*
X52900858Y-58477393D01*
X52900858Y-58215488D02*
X52877049Y-58167869D01*
X52877049Y-58167869D02*
X52829430Y-58144060D01*
X52829430Y-58144060D02*
X52758001Y-58144060D01*
X52758001Y-58144060D02*
X52710382Y-58167869D01*
X52710382Y-58167869D02*
X52686572Y-58215488D01*
X52686572Y-58215488D02*
X52686572Y-58477393D01*
X52234191Y-58477393D02*
X52234191Y-58215488D01*
X52234191Y-58215488D02*
X52258001Y-58167869D01*
X52258001Y-58167869D02*
X52305620Y-58144060D01*
X52305620Y-58144060D02*
X52400858Y-58144060D01*
X52400858Y-58144060D02*
X52448477Y-58167869D01*
X52234191Y-58453584D02*
X52281810Y-58477393D01*
X52281810Y-58477393D02*
X52400858Y-58477393D01*
X52400858Y-58477393D02*
X52448477Y-58453584D01*
X52448477Y-58453584D02*
X52472286Y-58405964D01*
X52472286Y-58405964D02*
X52472286Y-58358345D01*
X52472286Y-58358345D02*
X52448477Y-58310726D01*
X52448477Y-58310726D02*
X52400858Y-58286917D01*
X52400858Y-58286917D02*
X52281810Y-58286917D01*
X52281810Y-58286917D02*
X52234191Y-58263107D01*
X51781810Y-58477393D02*
X51781810Y-57977393D01*
X51781810Y-58453584D02*
X51829429Y-58477393D01*
X51829429Y-58477393D02*
X51924667Y-58477393D01*
X51924667Y-58477393D02*
X51972286Y-58453584D01*
X51972286Y-58453584D02*
X51996096Y-58429774D01*
X51996096Y-58429774D02*
X52019905Y-58382155D01*
X52019905Y-58382155D02*
X52019905Y-58239298D01*
X52019905Y-58239298D02*
X51996096Y-58191679D01*
X51996096Y-58191679D02*
X51972286Y-58167869D01*
X51972286Y-58167869D02*
X51924667Y-58144060D01*
X51924667Y-58144060D02*
X51829429Y-58144060D01*
X51829429Y-58144060D02*
X51781810Y-58167869D01*
X50996096Y-58215488D02*
X51162763Y-58215488D01*
X51162763Y-58477393D02*
X51162763Y-57977393D01*
X51162763Y-57977393D02*
X50924668Y-57977393D01*
X50519906Y-58477393D02*
X50519906Y-58215488D01*
X50519906Y-58215488D02*
X50543716Y-58167869D01*
X50543716Y-58167869D02*
X50591335Y-58144060D01*
X50591335Y-58144060D02*
X50686573Y-58144060D01*
X50686573Y-58144060D02*
X50734192Y-58167869D01*
X50519906Y-58453584D02*
X50567525Y-58477393D01*
X50567525Y-58477393D02*
X50686573Y-58477393D01*
X50686573Y-58477393D02*
X50734192Y-58453584D01*
X50734192Y-58453584D02*
X50758001Y-58405964D01*
X50758001Y-58405964D02*
X50758001Y-58358345D01*
X50758001Y-58358345D02*
X50734192Y-58310726D01*
X50734192Y-58310726D02*
X50686573Y-58286917D01*
X50686573Y-58286917D02*
X50567525Y-58286917D01*
X50567525Y-58286917D02*
X50519906Y-58263107D01*
X50281811Y-58477393D02*
X50281811Y-58144060D01*
X50281811Y-58239298D02*
X50258001Y-58191679D01*
X50258001Y-58191679D02*
X50234192Y-58167869D01*
X50234192Y-58167869D02*
X50186573Y-58144060D01*
X50186573Y-58144060D02*
X50138954Y-58144060D01*
X49781811Y-58453584D02*
X49829430Y-58477393D01*
X49829430Y-58477393D02*
X49924668Y-58477393D01*
X49924668Y-58477393D02*
X49972287Y-58453584D01*
X49972287Y-58453584D02*
X49996096Y-58405964D01*
X49996096Y-58405964D02*
X49996096Y-58215488D01*
X49996096Y-58215488D02*
X49972287Y-58167869D01*
X49972287Y-58167869D02*
X49924668Y-58144060D01*
X49924668Y-58144060D02*
X49829430Y-58144060D01*
X49829430Y-58144060D02*
X49781811Y-58167869D01*
X49781811Y-58167869D02*
X49758001Y-58215488D01*
X49758001Y-58215488D02*
X49758001Y-58263107D01*
X49758001Y-58263107D02*
X49996096Y-58310726D01*
X49567525Y-58453584D02*
X49519906Y-58477393D01*
X49519906Y-58477393D02*
X49424668Y-58477393D01*
X49424668Y-58477393D02*
X49377049Y-58453584D01*
X49377049Y-58453584D02*
X49353240Y-58405964D01*
X49353240Y-58405964D02*
X49353240Y-58382155D01*
X49353240Y-58382155D02*
X49377049Y-58334536D01*
X49377049Y-58334536D02*
X49424668Y-58310726D01*
X49424668Y-58310726D02*
X49496097Y-58310726D01*
X49496097Y-58310726D02*
X49543716Y-58286917D01*
X49543716Y-58286917D02*
X49567525Y-58239298D01*
X49567525Y-58239298D02*
X49567525Y-58215488D01*
X49567525Y-58215488D02*
X49543716Y-58167869D01*
X49543716Y-58167869D02*
X49496097Y-58144060D01*
X49496097Y-58144060D02*
X49424668Y-58144060D01*
X49424668Y-58144060D02*
X49377049Y-58167869D01*
X55067525Y-59139508D02*
X54829430Y-59139508D01*
X55115144Y-59282365D02*
X54948478Y-58782365D01*
X54948478Y-58782365D02*
X54781811Y-59282365D01*
X54615145Y-59282365D02*
X54615145Y-58949032D01*
X54615145Y-59044270D02*
X54591335Y-58996651D01*
X54591335Y-58996651D02*
X54567526Y-58972841D01*
X54567526Y-58972841D02*
X54519907Y-58949032D01*
X54519907Y-58949032D02*
X54472288Y-58949032D01*
X54377049Y-58949032D02*
X54186573Y-58949032D01*
X54305621Y-58782365D02*
X54305621Y-59210936D01*
X54305621Y-59210936D02*
X54281811Y-59258556D01*
X54281811Y-59258556D02*
X54234192Y-59282365D01*
X54234192Y-59282365D02*
X54186573Y-59282365D01*
X54019907Y-59282365D02*
X54019907Y-58782365D01*
X53805621Y-59282365D02*
X53805621Y-59020460D01*
X53805621Y-59020460D02*
X53829431Y-58972841D01*
X53829431Y-58972841D02*
X53877050Y-58949032D01*
X53877050Y-58949032D02*
X53948478Y-58949032D01*
X53948478Y-58949032D02*
X53996097Y-58972841D01*
X53996097Y-58972841D02*
X54019907Y-58996651D01*
X53353240Y-58949032D02*
X53353240Y-59282365D01*
X53567526Y-58949032D02*
X53567526Y-59210936D01*
X53567526Y-59210936D02*
X53543716Y-59258556D01*
X53543716Y-59258556D02*
X53496097Y-59282365D01*
X53496097Y-59282365D02*
X53424669Y-59282365D01*
X53424669Y-59282365D02*
X53377050Y-59258556D01*
X53377050Y-59258556D02*
X53353240Y-59234746D01*
X53115145Y-59282365D02*
X53115145Y-58949032D01*
X53115145Y-59044270D02*
X53091335Y-58996651D01*
X53091335Y-58996651D02*
X53067526Y-58972841D01*
X53067526Y-58972841D02*
X53019907Y-58949032D01*
X53019907Y-58949032D02*
X52972288Y-58949032D01*
X52162764Y-58806175D02*
X52210383Y-58782365D01*
X52210383Y-58782365D02*
X52281812Y-58782365D01*
X52281812Y-58782365D02*
X52353240Y-58806175D01*
X52353240Y-58806175D02*
X52400859Y-58853794D01*
X52400859Y-58853794D02*
X52424669Y-58901413D01*
X52424669Y-58901413D02*
X52448478Y-58996651D01*
X52448478Y-58996651D02*
X52448478Y-59068079D01*
X52448478Y-59068079D02*
X52424669Y-59163317D01*
X52424669Y-59163317D02*
X52400859Y-59210936D01*
X52400859Y-59210936D02*
X52353240Y-59258556D01*
X52353240Y-59258556D02*
X52281812Y-59282365D01*
X52281812Y-59282365D02*
X52234193Y-59282365D01*
X52234193Y-59282365D02*
X52162764Y-59258556D01*
X52162764Y-59258556D02*
X52138955Y-59234746D01*
X52138955Y-59234746D02*
X52138955Y-59068079D01*
X52138955Y-59068079D02*
X52234193Y-59068079D01*
X51924669Y-59282365D02*
X51924669Y-58949032D01*
X51924669Y-58782365D02*
X51948478Y-58806175D01*
X51948478Y-58806175D02*
X51924669Y-58829984D01*
X51924669Y-58829984D02*
X51900859Y-58806175D01*
X51900859Y-58806175D02*
X51924669Y-58782365D01*
X51924669Y-58782365D02*
X51924669Y-58829984D01*
X51615145Y-59282365D02*
X51662764Y-59258556D01*
X51662764Y-59258556D02*
X51686574Y-59234746D01*
X51686574Y-59234746D02*
X51710383Y-59187127D01*
X51710383Y-59187127D02*
X51710383Y-59044270D01*
X51710383Y-59044270D02*
X51686574Y-58996651D01*
X51686574Y-58996651D02*
X51662764Y-58972841D01*
X51662764Y-58972841D02*
X51615145Y-58949032D01*
X51615145Y-58949032D02*
X51543717Y-58949032D01*
X51543717Y-58949032D02*
X51496098Y-58972841D01*
X51496098Y-58972841D02*
X51472288Y-58996651D01*
X51472288Y-58996651D02*
X51448479Y-59044270D01*
X51448479Y-59044270D02*
X51448479Y-59187127D01*
X51448479Y-59187127D02*
X51472288Y-59234746D01*
X51472288Y-59234746D02*
X51496098Y-59258556D01*
X51496098Y-59258556D02*
X51543717Y-59282365D01*
X51543717Y-59282365D02*
X51615145Y-59282365D01*
X51162764Y-59282365D02*
X51210383Y-59258556D01*
X51210383Y-59258556D02*
X51234193Y-59210936D01*
X51234193Y-59210936D02*
X51234193Y-58782365D01*
X50900859Y-59282365D02*
X50948478Y-59258556D01*
X50948478Y-59258556D02*
X50972288Y-59234746D01*
X50972288Y-59234746D02*
X50996097Y-59187127D01*
X50996097Y-59187127D02*
X50996097Y-59044270D01*
X50996097Y-59044270D02*
X50972288Y-58996651D01*
X50972288Y-58996651D02*
X50948478Y-58972841D01*
X50948478Y-58972841D02*
X50900859Y-58949032D01*
X50900859Y-58949032D02*
X50829431Y-58949032D01*
X50829431Y-58949032D02*
X50781812Y-58972841D01*
X50781812Y-58972841D02*
X50758002Y-58996651D01*
X50758002Y-58996651D02*
X50734193Y-59044270D01*
X50734193Y-59044270D02*
X50734193Y-59187127D01*
X50734193Y-59187127D02*
X50758002Y-59234746D01*
X50758002Y-59234746D02*
X50781812Y-59258556D01*
X50781812Y-59258556D02*
X50829431Y-59282365D01*
X50829431Y-59282365D02*
X50900859Y-59282365D01*
X55115144Y-59587337D02*
X54829430Y-59587337D01*
X54972287Y-60087337D02*
X54972287Y-59587337D01*
X54448478Y-60087337D02*
X54448478Y-59825432D01*
X54448478Y-59825432D02*
X54472288Y-59777813D01*
X54472288Y-59777813D02*
X54519907Y-59754004D01*
X54519907Y-59754004D02*
X54615145Y-59754004D01*
X54615145Y-59754004D02*
X54662764Y-59777813D01*
X54448478Y-60063528D02*
X54496097Y-60087337D01*
X54496097Y-60087337D02*
X54615145Y-60087337D01*
X54615145Y-60087337D02*
X54662764Y-60063528D01*
X54662764Y-60063528D02*
X54686573Y-60015908D01*
X54686573Y-60015908D02*
X54686573Y-59968289D01*
X54686573Y-59968289D02*
X54662764Y-59920670D01*
X54662764Y-59920670D02*
X54615145Y-59896861D01*
X54615145Y-59896861D02*
X54496097Y-59896861D01*
X54496097Y-59896861D02*
X54448478Y-59873051D01*
X54258002Y-59754004D02*
X54138954Y-60087337D01*
X54019907Y-59754004D02*
X54138954Y-60087337D01*
X54138954Y-60087337D02*
X54186573Y-60206385D01*
X54186573Y-60206385D02*
X54210383Y-60230194D01*
X54210383Y-60230194D02*
X54258002Y-60254004D01*
X53615145Y-59754004D02*
X53615145Y-60158766D01*
X53615145Y-60158766D02*
X53638955Y-60206385D01*
X53638955Y-60206385D02*
X53662764Y-60230194D01*
X53662764Y-60230194D02*
X53710383Y-60254004D01*
X53710383Y-60254004D02*
X53781812Y-60254004D01*
X53781812Y-60254004D02*
X53829431Y-60230194D01*
X53615145Y-60063528D02*
X53662764Y-60087337D01*
X53662764Y-60087337D02*
X53758002Y-60087337D01*
X53758002Y-60087337D02*
X53805621Y-60063528D01*
X53805621Y-60063528D02*
X53829431Y-60039718D01*
X53829431Y-60039718D02*
X53853240Y-59992099D01*
X53853240Y-59992099D02*
X53853240Y-59849242D01*
X53853240Y-59849242D02*
X53829431Y-59801623D01*
X53829431Y-59801623D02*
X53805621Y-59777813D01*
X53805621Y-59777813D02*
X53758002Y-59754004D01*
X53758002Y-59754004D02*
X53662764Y-59754004D01*
X53662764Y-59754004D02*
X53615145Y-59777813D01*
X53305621Y-60087337D02*
X53353240Y-60063528D01*
X53353240Y-60063528D02*
X53377050Y-60039718D01*
X53377050Y-60039718D02*
X53400859Y-59992099D01*
X53400859Y-59992099D02*
X53400859Y-59849242D01*
X53400859Y-59849242D02*
X53377050Y-59801623D01*
X53377050Y-59801623D02*
X53353240Y-59777813D01*
X53353240Y-59777813D02*
X53305621Y-59754004D01*
X53305621Y-59754004D02*
X53234193Y-59754004D01*
X53234193Y-59754004D02*
X53186574Y-59777813D01*
X53186574Y-59777813D02*
X53162764Y-59801623D01*
X53162764Y-59801623D02*
X53138955Y-59849242D01*
X53138955Y-59849242D02*
X53138955Y-59992099D01*
X53138955Y-59992099D02*
X53162764Y-60039718D01*
X53162764Y-60039718D02*
X53186574Y-60063528D01*
X53186574Y-60063528D02*
X53234193Y-60087337D01*
X53234193Y-60087337D02*
X53305621Y-60087337D01*
X52710383Y-60087337D02*
X52710383Y-59825432D01*
X52710383Y-59825432D02*
X52734193Y-59777813D01*
X52734193Y-59777813D02*
X52781812Y-59754004D01*
X52781812Y-59754004D02*
X52877050Y-59754004D01*
X52877050Y-59754004D02*
X52924669Y-59777813D01*
X52710383Y-60063528D02*
X52758002Y-60087337D01*
X52758002Y-60087337D02*
X52877050Y-60087337D01*
X52877050Y-60087337D02*
X52924669Y-60063528D01*
X52924669Y-60063528D02*
X52948478Y-60015908D01*
X52948478Y-60015908D02*
X52948478Y-59968289D01*
X52948478Y-59968289D02*
X52924669Y-59920670D01*
X52924669Y-59920670D02*
X52877050Y-59896861D01*
X52877050Y-59896861D02*
X52758002Y-59896861D01*
X52758002Y-59896861D02*
X52710383Y-59873051D01*
X52472288Y-60087337D02*
X52472288Y-59754004D01*
X52472288Y-59849242D02*
X52448478Y-59801623D01*
X52448478Y-59801623D02*
X52424669Y-59777813D01*
X52424669Y-59777813D02*
X52377050Y-59754004D01*
X52377050Y-59754004D02*
X52329431Y-59754004D01*
X51948478Y-60087337D02*
X51948478Y-59825432D01*
X51948478Y-59825432D02*
X51972288Y-59777813D01*
X51972288Y-59777813D02*
X52019907Y-59754004D01*
X52019907Y-59754004D02*
X52115145Y-59754004D01*
X52115145Y-59754004D02*
X52162764Y-59777813D01*
X51948478Y-60063528D02*
X51996097Y-60087337D01*
X51996097Y-60087337D02*
X52115145Y-60087337D01*
X52115145Y-60087337D02*
X52162764Y-60063528D01*
X52162764Y-60063528D02*
X52186573Y-60015908D01*
X52186573Y-60015908D02*
X52186573Y-59968289D01*
X52186573Y-59968289D02*
X52162764Y-59920670D01*
X52162764Y-59920670D02*
X52115145Y-59896861D01*
X52115145Y-59896861D02*
X51996097Y-59896861D01*
X51996097Y-59896861D02*
X51948478Y-59873051D01*
X51162764Y-59825432D02*
X51329431Y-59825432D01*
X51329431Y-60087337D02*
X51329431Y-59587337D01*
X51329431Y-59587337D02*
X51091336Y-59587337D01*
X50710384Y-60063528D02*
X50758003Y-60087337D01*
X50758003Y-60087337D02*
X50853241Y-60087337D01*
X50853241Y-60087337D02*
X50900860Y-60063528D01*
X50900860Y-60063528D02*
X50924669Y-60015908D01*
X50924669Y-60015908D02*
X50924669Y-59825432D01*
X50924669Y-59825432D02*
X50900860Y-59777813D01*
X50900860Y-59777813D02*
X50853241Y-59754004D01*
X50853241Y-59754004D02*
X50758003Y-59754004D01*
X50758003Y-59754004D02*
X50710384Y-59777813D01*
X50710384Y-59777813D02*
X50686574Y-59825432D01*
X50686574Y-59825432D02*
X50686574Y-59873051D01*
X50686574Y-59873051D02*
X50924669Y-59920670D01*
X50400860Y-60087337D02*
X50448479Y-60063528D01*
X50448479Y-60063528D02*
X50472289Y-60015908D01*
X50472289Y-60015908D02*
X50472289Y-59587337D01*
X49996098Y-60087337D02*
X49996098Y-59825432D01*
X49996098Y-59825432D02*
X50019908Y-59777813D01*
X50019908Y-59777813D02*
X50067527Y-59754004D01*
X50067527Y-59754004D02*
X50162765Y-59754004D01*
X50162765Y-59754004D02*
X50210384Y-59777813D01*
X49996098Y-60063528D02*
X50043717Y-60087337D01*
X50043717Y-60087337D02*
X50162765Y-60087337D01*
X50162765Y-60087337D02*
X50210384Y-60063528D01*
X50210384Y-60063528D02*
X50234193Y-60015908D01*
X50234193Y-60015908D02*
X50234193Y-59968289D01*
X50234193Y-59968289D02*
X50210384Y-59920670D01*
X50210384Y-59920670D02*
X50162765Y-59896861D01*
X50162765Y-59896861D02*
X50043717Y-59896861D01*
X50043717Y-59896861D02*
X49996098Y-59873051D01*
X49758003Y-60087337D02*
X49758003Y-59754004D01*
X49758003Y-59801623D02*
X49734193Y-59777813D01*
X49734193Y-59777813D02*
X49686574Y-59754004D01*
X49686574Y-59754004D02*
X49615146Y-59754004D01*
X49615146Y-59754004D02*
X49567527Y-59777813D01*
X49567527Y-59777813D02*
X49543717Y-59825432D01*
X49543717Y-59825432D02*
X49543717Y-60087337D01*
X49543717Y-59825432D02*
X49519908Y-59777813D01*
X49519908Y-59777813D02*
X49472289Y-59754004D01*
X49472289Y-59754004D02*
X49400860Y-59754004D01*
X49400860Y-59754004D02*
X49353241Y-59777813D01*
X49353241Y-59777813D02*
X49329431Y-59825432D01*
X49329431Y-59825432D02*
X49329431Y-60087337D01*
X49091336Y-60087337D02*
X49091336Y-59754004D01*
X49091336Y-59587337D02*
X49115145Y-59611147D01*
X49115145Y-59611147D02*
X49091336Y-59634956D01*
X49091336Y-59634956D02*
X49067526Y-59611147D01*
X49067526Y-59611147D02*
X49091336Y-59587337D01*
X49091336Y-59587337D02*
X49091336Y-59634956D01*
X48853241Y-59754004D02*
X48853241Y-60087337D01*
X48853241Y-59801623D02*
X48829431Y-59777813D01*
X48829431Y-59777813D02*
X48781812Y-59754004D01*
X48781812Y-59754004D02*
X48710384Y-59754004D01*
X48710384Y-59754004D02*
X48662765Y-59777813D01*
X48662765Y-59777813D02*
X48638955Y-59825432D01*
X48638955Y-59825432D02*
X48638955Y-60087337D01*
X48186574Y-59754004D02*
X48186574Y-60158766D01*
X48186574Y-60158766D02*
X48210384Y-60206385D01*
X48210384Y-60206385D02*
X48234193Y-60230194D01*
X48234193Y-60230194D02*
X48281812Y-60254004D01*
X48281812Y-60254004D02*
X48353241Y-60254004D01*
X48353241Y-60254004D02*
X48400860Y-60230194D01*
X48186574Y-60063528D02*
X48234193Y-60087337D01*
X48234193Y-60087337D02*
X48329431Y-60087337D01*
X48329431Y-60087337D02*
X48377050Y-60063528D01*
X48377050Y-60063528D02*
X48400860Y-60039718D01*
X48400860Y-60039718D02*
X48424669Y-59992099D01*
X48424669Y-59992099D02*
X48424669Y-59849242D01*
X48424669Y-59849242D02*
X48400860Y-59801623D01*
X48400860Y-59801623D02*
X48377050Y-59777813D01*
X48377050Y-59777813D02*
X48329431Y-59754004D01*
X48329431Y-59754004D02*
X48234193Y-59754004D01*
X48234193Y-59754004D02*
X48186574Y-59777813D01*
X47877050Y-60087337D02*
X47924669Y-60063528D01*
X47924669Y-60063528D02*
X47948479Y-60039718D01*
X47948479Y-60039718D02*
X47972288Y-59992099D01*
X47972288Y-59992099D02*
X47972288Y-59849242D01*
X47972288Y-59849242D02*
X47948479Y-59801623D01*
X47948479Y-59801623D02*
X47924669Y-59777813D01*
X47924669Y-59777813D02*
X47877050Y-59754004D01*
X47877050Y-59754004D02*
X47805622Y-59754004D01*
X47805622Y-59754004D02*
X47758003Y-59777813D01*
X47758003Y-59777813D02*
X47734193Y-59801623D01*
X47734193Y-59801623D02*
X47710384Y-59849242D01*
X47710384Y-59849242D02*
X47710384Y-59992099D01*
X47710384Y-59992099D02*
X47734193Y-60039718D01*
X47734193Y-60039718D02*
X47758003Y-60063528D01*
X47758003Y-60063528D02*
X47805622Y-60087337D01*
X47805622Y-60087337D02*
X47877050Y-60087337D01*
X54758002Y-60892309D02*
X54924668Y-60654214D01*
X55043716Y-60892309D02*
X55043716Y-60392309D01*
X55043716Y-60392309D02*
X54853240Y-60392309D01*
X54853240Y-60392309D02*
X54805621Y-60416119D01*
X54805621Y-60416119D02*
X54781811Y-60439928D01*
X54781811Y-60439928D02*
X54758002Y-60487547D01*
X54758002Y-60487547D02*
X54758002Y-60558976D01*
X54758002Y-60558976D02*
X54781811Y-60606595D01*
X54781811Y-60606595D02*
X54805621Y-60630404D01*
X54805621Y-60630404D02*
X54853240Y-60654214D01*
X54853240Y-60654214D02*
X55043716Y-60654214D01*
X54329430Y-60892309D02*
X54329430Y-60630404D01*
X54329430Y-60630404D02*
X54353240Y-60582785D01*
X54353240Y-60582785D02*
X54400859Y-60558976D01*
X54400859Y-60558976D02*
X54496097Y-60558976D01*
X54496097Y-60558976D02*
X54543716Y-60582785D01*
X54329430Y-60868500D02*
X54377049Y-60892309D01*
X54377049Y-60892309D02*
X54496097Y-60892309D01*
X54496097Y-60892309D02*
X54543716Y-60868500D01*
X54543716Y-60868500D02*
X54567525Y-60820880D01*
X54567525Y-60820880D02*
X54567525Y-60773261D01*
X54567525Y-60773261D02*
X54543716Y-60725642D01*
X54543716Y-60725642D02*
X54496097Y-60701833D01*
X54496097Y-60701833D02*
X54377049Y-60701833D01*
X54377049Y-60701833D02*
X54329430Y-60678023D01*
X54162763Y-60558976D02*
X53972287Y-60558976D01*
X54091335Y-60892309D02*
X54091335Y-60463738D01*
X54091335Y-60463738D02*
X54067525Y-60416119D01*
X54067525Y-60416119D02*
X54019906Y-60392309D01*
X54019906Y-60392309D02*
X53972287Y-60392309D01*
X53591335Y-60892309D02*
X53591335Y-60630404D01*
X53591335Y-60630404D02*
X53615145Y-60582785D01*
X53615145Y-60582785D02*
X53662764Y-60558976D01*
X53662764Y-60558976D02*
X53758002Y-60558976D01*
X53758002Y-60558976D02*
X53805621Y-60582785D01*
X53591335Y-60868500D02*
X53638954Y-60892309D01*
X53638954Y-60892309D02*
X53758002Y-60892309D01*
X53758002Y-60892309D02*
X53805621Y-60868500D01*
X53805621Y-60868500D02*
X53829430Y-60820880D01*
X53829430Y-60820880D02*
X53829430Y-60773261D01*
X53829430Y-60773261D02*
X53805621Y-60725642D01*
X53805621Y-60725642D02*
X53758002Y-60701833D01*
X53758002Y-60701833D02*
X53638954Y-60701833D01*
X53638954Y-60701833D02*
X53591335Y-60678023D01*
X53162764Y-60868500D02*
X53210383Y-60892309D01*
X53210383Y-60892309D02*
X53305621Y-60892309D01*
X53305621Y-60892309D02*
X53353240Y-60868500D01*
X53353240Y-60868500D02*
X53377049Y-60820880D01*
X53377049Y-60820880D02*
X53377049Y-60630404D01*
X53377049Y-60630404D02*
X53353240Y-60582785D01*
X53353240Y-60582785D02*
X53305621Y-60558976D01*
X53305621Y-60558976D02*
X53210383Y-60558976D01*
X53210383Y-60558976D02*
X53162764Y-60582785D01*
X53162764Y-60582785D02*
X53138954Y-60630404D01*
X53138954Y-60630404D02*
X53138954Y-60678023D01*
X53138954Y-60678023D02*
X53377049Y-60725642D01*
X52853240Y-60892309D02*
X52900859Y-60868500D01*
X52900859Y-60868500D02*
X52924669Y-60820880D01*
X52924669Y-60820880D02*
X52924669Y-60392309D01*
X51996098Y-60844690D02*
X52019907Y-60868500D01*
X52019907Y-60868500D02*
X52091336Y-60892309D01*
X52091336Y-60892309D02*
X52138955Y-60892309D01*
X52138955Y-60892309D02*
X52210383Y-60868500D01*
X52210383Y-60868500D02*
X52258002Y-60820880D01*
X52258002Y-60820880D02*
X52281812Y-60773261D01*
X52281812Y-60773261D02*
X52305621Y-60678023D01*
X52305621Y-60678023D02*
X52305621Y-60606595D01*
X52305621Y-60606595D02*
X52281812Y-60511357D01*
X52281812Y-60511357D02*
X52258002Y-60463738D01*
X52258002Y-60463738D02*
X52210383Y-60416119D01*
X52210383Y-60416119D02*
X52138955Y-60392309D01*
X52138955Y-60392309D02*
X52091336Y-60392309D01*
X52091336Y-60392309D02*
X52019907Y-60416119D01*
X52019907Y-60416119D02*
X51996098Y-60439928D01*
X51567526Y-60892309D02*
X51567526Y-60630404D01*
X51567526Y-60630404D02*
X51591336Y-60582785D01*
X51591336Y-60582785D02*
X51638955Y-60558976D01*
X51638955Y-60558976D02*
X51734193Y-60558976D01*
X51734193Y-60558976D02*
X51781812Y-60582785D01*
X51567526Y-60868500D02*
X51615145Y-60892309D01*
X51615145Y-60892309D02*
X51734193Y-60892309D01*
X51734193Y-60892309D02*
X51781812Y-60868500D01*
X51781812Y-60868500D02*
X51805621Y-60820880D01*
X51805621Y-60820880D02*
X51805621Y-60773261D01*
X51805621Y-60773261D02*
X51781812Y-60725642D01*
X51781812Y-60725642D02*
X51734193Y-60701833D01*
X51734193Y-60701833D02*
X51615145Y-60701833D01*
X51615145Y-60701833D02*
X51567526Y-60678023D01*
X51353240Y-60868500D02*
X51305621Y-60892309D01*
X51305621Y-60892309D02*
X51210383Y-60892309D01*
X51210383Y-60892309D02*
X51162764Y-60868500D01*
X51162764Y-60868500D02*
X51138955Y-60820880D01*
X51138955Y-60820880D02*
X51138955Y-60797071D01*
X51138955Y-60797071D02*
X51162764Y-60749452D01*
X51162764Y-60749452D02*
X51210383Y-60725642D01*
X51210383Y-60725642D02*
X51281812Y-60725642D01*
X51281812Y-60725642D02*
X51329431Y-60701833D01*
X51329431Y-60701833D02*
X51353240Y-60654214D01*
X51353240Y-60654214D02*
X51353240Y-60630404D01*
X51353240Y-60630404D02*
X51329431Y-60582785D01*
X51329431Y-60582785D02*
X51281812Y-60558976D01*
X51281812Y-60558976D02*
X51210383Y-60558976D01*
X51210383Y-60558976D02*
X51162764Y-60582785D01*
X50996097Y-60558976D02*
X50805621Y-60558976D01*
X50924669Y-60392309D02*
X50924669Y-60820880D01*
X50924669Y-60820880D02*
X50900859Y-60868500D01*
X50900859Y-60868500D02*
X50853240Y-60892309D01*
X50853240Y-60892309D02*
X50805621Y-60892309D01*
X50638955Y-60892309D02*
X50638955Y-60558976D01*
X50638955Y-60392309D02*
X50662764Y-60416119D01*
X50662764Y-60416119D02*
X50638955Y-60439928D01*
X50638955Y-60439928D02*
X50615145Y-60416119D01*
X50615145Y-60416119D02*
X50638955Y-60392309D01*
X50638955Y-60392309D02*
X50638955Y-60439928D01*
X50329431Y-60892309D02*
X50377050Y-60868500D01*
X50377050Y-60868500D02*
X50400860Y-60820880D01*
X50400860Y-60820880D02*
X50400860Y-60392309D01*
X50138955Y-60892309D02*
X50138955Y-60392309D01*
X49924669Y-60892309D02*
X49924669Y-60630404D01*
X49924669Y-60630404D02*
X49948479Y-60582785D01*
X49948479Y-60582785D02*
X49996098Y-60558976D01*
X49996098Y-60558976D02*
X50067526Y-60558976D01*
X50067526Y-60558976D02*
X50115145Y-60582785D01*
X50115145Y-60582785D02*
X50138955Y-60606595D01*
X49615145Y-60892309D02*
X49662764Y-60868500D01*
X49662764Y-60868500D02*
X49686574Y-60844690D01*
X49686574Y-60844690D02*
X49710383Y-60797071D01*
X49710383Y-60797071D02*
X49710383Y-60654214D01*
X49710383Y-60654214D02*
X49686574Y-60606595D01*
X49686574Y-60606595D02*
X49662764Y-60582785D01*
X49662764Y-60582785D02*
X49615145Y-60558976D01*
X49615145Y-60558976D02*
X49543717Y-60558976D01*
X49543717Y-60558976D02*
X49496098Y-60582785D01*
X49496098Y-60582785D02*
X49472288Y-60606595D01*
X49472288Y-60606595D02*
X49448479Y-60654214D01*
X49448479Y-60654214D02*
X49448479Y-60797071D01*
X49448479Y-60797071D02*
X49472288Y-60844690D01*
X49472288Y-60844690D02*
X49496098Y-60868500D01*
X49496098Y-60868500D02*
X49543717Y-60892309D01*
X49543717Y-60892309D02*
X49615145Y-60892309D01*
D11*
X60896427Y-48714819D02*
X60896427Y-47714819D01*
X60896427Y-47714819D02*
X60563094Y-48429104D01*
X60563094Y-48429104D02*
X60229761Y-47714819D01*
X60229761Y-47714819D02*
X60229761Y-48714819D01*
X59753570Y-48714819D02*
X59753570Y-47714819D01*
X60515476Y-50524580D02*
X60563095Y-50572200D01*
X60563095Y-50572200D02*
X60705952Y-50619819D01*
X60705952Y-50619819D02*
X60801190Y-50619819D01*
X60801190Y-50619819D02*
X60944047Y-50572200D01*
X60944047Y-50572200D02*
X61039285Y-50476961D01*
X61039285Y-50476961D02*
X61086904Y-50381723D01*
X61086904Y-50381723D02*
X61134523Y-50191247D01*
X61134523Y-50191247D02*
X61134523Y-50048390D01*
X61134523Y-50048390D02*
X61086904Y-49857914D01*
X61086904Y-49857914D02*
X61039285Y-49762676D01*
X61039285Y-49762676D02*
X60944047Y-49667438D01*
X60944047Y-49667438D02*
X60801190Y-49619819D01*
X60801190Y-49619819D02*
X60705952Y-49619819D01*
X60705952Y-49619819D02*
X60563095Y-49667438D01*
X60563095Y-49667438D02*
X60515476Y-49715057D01*
X60086904Y-50619819D02*
X60086904Y-49619819D01*
X59515476Y-50619819D02*
X59944047Y-50048390D01*
X59515476Y-49619819D02*
X60086904Y-50191247D01*
X60491666Y-52429580D02*
X60539285Y-52477200D01*
X60539285Y-52477200D02*
X60682142Y-52524819D01*
X60682142Y-52524819D02*
X60777380Y-52524819D01*
X60777380Y-52524819D02*
X60920237Y-52477200D01*
X60920237Y-52477200D02*
X61015475Y-52381961D01*
X61015475Y-52381961D02*
X61063094Y-52286723D01*
X61063094Y-52286723D02*
X61110713Y-52096247D01*
X61110713Y-52096247D02*
X61110713Y-51953390D01*
X61110713Y-51953390D02*
X61063094Y-51762914D01*
X61063094Y-51762914D02*
X61015475Y-51667676D01*
X61015475Y-51667676D02*
X60920237Y-51572438D01*
X60920237Y-51572438D02*
X60777380Y-51524819D01*
X60777380Y-51524819D02*
X60682142Y-51524819D01*
X60682142Y-51524819D02*
X60539285Y-51572438D01*
X60539285Y-51572438D02*
X60491666Y-51620057D01*
X60110713Y-52477200D02*
X59967856Y-52524819D01*
X59967856Y-52524819D02*
X59729761Y-52524819D01*
X59729761Y-52524819D02*
X59634523Y-52477200D01*
X59634523Y-52477200D02*
X59586904Y-52429580D01*
X59586904Y-52429580D02*
X59539285Y-52334342D01*
X59539285Y-52334342D02*
X59539285Y-52239104D01*
X59539285Y-52239104D02*
X59586904Y-52143866D01*
X59586904Y-52143866D02*
X59634523Y-52096247D01*
X59634523Y-52096247D02*
X59729761Y-52048628D01*
X59729761Y-52048628D02*
X59920237Y-52001009D01*
X59920237Y-52001009D02*
X60015475Y-51953390D01*
X60015475Y-51953390D02*
X60063094Y-51905771D01*
X60063094Y-51905771D02*
X60110713Y-51810533D01*
X60110713Y-51810533D02*
X60110713Y-51715295D01*
X60110713Y-51715295D02*
X60063094Y-51620057D01*
X60063094Y-51620057D02*
X60015475Y-51572438D01*
X60015475Y-51572438D02*
X59920237Y-51524819D01*
X59920237Y-51524819D02*
X59682142Y-51524819D01*
X59682142Y-51524819D02*
X59539285Y-51572438D01*
X57911904Y-47127438D02*
X58007142Y-47079819D01*
X58007142Y-47079819D02*
X58149999Y-47079819D01*
X58149999Y-47079819D02*
X58292856Y-47127438D01*
X58292856Y-47127438D02*
X58388094Y-47222676D01*
X58388094Y-47222676D02*
X58435713Y-47317914D01*
X58435713Y-47317914D02*
X58483332Y-47508390D01*
X58483332Y-47508390D02*
X58483332Y-47651247D01*
X58483332Y-47651247D02*
X58435713Y-47841723D01*
X58435713Y-47841723D02*
X58388094Y-47936961D01*
X58388094Y-47936961D02*
X58292856Y-48032200D01*
X58292856Y-48032200D02*
X58149999Y-48079819D01*
X58149999Y-48079819D02*
X58054761Y-48079819D01*
X58054761Y-48079819D02*
X57911904Y-48032200D01*
X57911904Y-48032200D02*
X57864285Y-47984580D01*
X57864285Y-47984580D02*
X57864285Y-47651247D01*
X57864285Y-47651247D02*
X58054761Y-47651247D01*
X57435713Y-48079819D02*
X57435713Y-47079819D01*
X57435713Y-47079819D02*
X56864285Y-48079819D01*
X56864285Y-48079819D02*
X56864285Y-47079819D01*
X56388094Y-48079819D02*
X56388094Y-47079819D01*
X56388094Y-47079819D02*
X56149999Y-47079819D01*
X56149999Y-47079819D02*
X56007142Y-47127438D01*
X56007142Y-47127438D02*
X55911904Y-47222676D01*
X55911904Y-47222676D02*
X55864285Y-47317914D01*
X55864285Y-47317914D02*
X55816666Y-47508390D01*
X55816666Y-47508390D02*
X55816666Y-47651247D01*
X55816666Y-47651247D02*
X55864285Y-47841723D01*
X55864285Y-47841723D02*
X55911904Y-47936961D01*
X55911904Y-47936961D02*
X56007142Y-48032200D01*
X56007142Y-48032200D02*
X56149999Y-48079819D01*
X56149999Y-48079819D02*
X56388094Y-48079819D01*
X58388094Y-50889819D02*
X57769047Y-50889819D01*
X57769047Y-50889819D02*
X58102380Y-51270771D01*
X58102380Y-51270771D02*
X57959523Y-51270771D01*
X57959523Y-51270771D02*
X57864285Y-51318390D01*
X57864285Y-51318390D02*
X57816666Y-51366009D01*
X57816666Y-51366009D02*
X57769047Y-51461247D01*
X57769047Y-51461247D02*
X57769047Y-51699342D01*
X57769047Y-51699342D02*
X57816666Y-51794580D01*
X57816666Y-51794580D02*
X57864285Y-51842200D01*
X57864285Y-51842200D02*
X57959523Y-51889819D01*
X57959523Y-51889819D02*
X58245237Y-51889819D01*
X58245237Y-51889819D02*
X58340475Y-51842200D01*
X58340475Y-51842200D02*
X58388094Y-51794580D01*
X57483332Y-50889819D02*
X57149999Y-51889819D01*
X57149999Y-51889819D02*
X56816666Y-50889819D01*
X56578570Y-50889819D02*
X55959523Y-50889819D01*
X55959523Y-50889819D02*
X56292856Y-51270771D01*
X56292856Y-51270771D02*
X56149999Y-51270771D01*
X56149999Y-51270771D02*
X56054761Y-51318390D01*
X56054761Y-51318390D02*
X56007142Y-51366009D01*
X56007142Y-51366009D02*
X55959523Y-51461247D01*
X55959523Y-51461247D02*
X55959523Y-51699342D01*
X55959523Y-51699342D02*
X56007142Y-51794580D01*
X56007142Y-51794580D02*
X56054761Y-51842200D01*
X56054761Y-51842200D02*
X56149999Y-51889819D01*
X56149999Y-51889819D02*
X56435713Y-51889819D01*
X56435713Y-51889819D02*
X56530951Y-51842200D01*
X56530951Y-51842200D02*
X56578570Y-51794580D01*
X61182142Y-46809819D02*
X61182142Y-45809819D01*
X61182142Y-45809819D02*
X60848809Y-46524104D01*
X60848809Y-46524104D02*
X60515476Y-45809819D01*
X60515476Y-45809819D02*
X60515476Y-46809819D01*
X59848809Y-45809819D02*
X59658333Y-45809819D01*
X59658333Y-45809819D02*
X59563095Y-45857438D01*
X59563095Y-45857438D02*
X59467857Y-45952676D01*
X59467857Y-45952676D02*
X59420238Y-46143152D01*
X59420238Y-46143152D02*
X59420238Y-46476485D01*
X59420238Y-46476485D02*
X59467857Y-46666961D01*
X59467857Y-46666961D02*
X59563095Y-46762200D01*
X59563095Y-46762200D02*
X59658333Y-46809819D01*
X59658333Y-46809819D02*
X59848809Y-46809819D01*
X59848809Y-46809819D02*
X59944047Y-46762200D01*
X59944047Y-46762200D02*
X60039285Y-46666961D01*
X60039285Y-46666961D02*
X60086904Y-46476485D01*
X60086904Y-46476485D02*
X60086904Y-46143152D01*
X60086904Y-46143152D02*
X60039285Y-45952676D01*
X60039285Y-45952676D02*
X59944047Y-45857438D01*
X59944047Y-45857438D02*
X59848809Y-45809819D01*
D12*
%TO.C,G\u002A\u002A\u002A*%
G36*
X43580836Y-52499232D02*
G01*
X43580836Y-52622693D01*
X43543798Y-52622693D01*
X43506759Y-52622693D01*
X43506759Y-52499232D01*
X43506759Y-52375771D01*
X43543798Y-52375771D01*
X43580836Y-52375771D01*
X43580836Y-52499232D01*
G37*
G36*
X43580836Y-52318156D02*
G01*
X43580836Y-52351079D01*
X43543798Y-52351079D01*
X43506759Y-52351079D01*
X43506759Y-52318156D01*
X43506759Y-52285234D01*
X43543798Y-52285234D01*
X43580836Y-52285234D01*
X43580836Y-52318156D01*
G37*
G36*
X42403843Y-52976614D02*
G01*
X42403843Y-53067152D01*
X42375036Y-53067152D01*
X42346228Y-53067152D01*
X42346228Y-52976614D01*
X42346228Y-52886076D01*
X42375036Y-52886076D01*
X42403843Y-52886076D01*
X42403843Y-52976614D01*
G37*
G36*
X40979929Y-52499232D02*
G01*
X40979929Y-52622693D01*
X40938775Y-52622693D01*
X40897621Y-52622693D01*
X40897621Y-52499232D01*
X40897621Y-52375771D01*
X40938775Y-52375771D01*
X40979929Y-52375771D01*
X40979929Y-52499232D01*
G37*
G36*
X40979929Y-52318156D02*
G01*
X40979929Y-52351079D01*
X40938775Y-52351079D01*
X40897621Y-52351079D01*
X40897621Y-52318156D01*
X40897621Y-52285234D01*
X40938775Y-52285234D01*
X40979929Y-52285234D01*
X40979929Y-52318156D01*
G37*
G36*
X38946941Y-52499232D02*
G01*
X38946941Y-52622693D01*
X38909903Y-52622693D01*
X38872864Y-52622693D01*
X38872864Y-52499232D01*
X38872864Y-52375771D01*
X38909903Y-52375771D01*
X38946941Y-52375771D01*
X38946941Y-52499232D01*
G37*
G36*
X38946941Y-52318156D02*
G01*
X38946941Y-52351079D01*
X38909903Y-52351079D01*
X38872864Y-52351079D01*
X38872864Y-52318156D01*
X38872864Y-52285234D01*
X38909903Y-52285234D01*
X38946941Y-52285234D01*
X38946941Y-52318156D01*
G37*
G36*
X42377228Y-52820234D02*
G01*
X42395380Y-52821812D01*
X42402569Y-52829730D01*
X42403843Y-52849038D01*
X42403839Y-52851230D01*
X42402261Y-52869383D01*
X42394343Y-52876571D01*
X42375036Y-52877845D01*
X42372843Y-52877842D01*
X42354691Y-52876264D01*
X42347502Y-52868345D01*
X42346228Y-52849038D01*
X42346232Y-52846845D01*
X42347810Y-52828693D01*
X42355728Y-52821504D01*
X42375036Y-52820230D01*
X42377228Y-52820234D01*
G37*
G36*
X43934141Y-52285456D02*
G01*
X43955204Y-52287976D01*
X43968913Y-52296369D01*
X43982083Y-52314027D01*
X43986348Y-52320725D01*
X43996531Y-52337923D01*
X44000603Y-52346848D01*
X43996204Y-52349534D01*
X43981377Y-52351079D01*
X43972271Y-52348627D01*
X43953179Y-52339186D01*
X43930371Y-52325436D01*
X43908420Y-52310368D01*
X43891896Y-52296975D01*
X43885373Y-52288248D01*
X43887579Y-52287258D01*
X43901668Y-52285845D01*
X43924468Y-52285335D01*
X43934141Y-52285456D01*
G37*
G36*
X45622054Y-52976614D02*
G01*
X45622054Y-53067152D01*
X45593247Y-53067152D01*
X45564439Y-53067152D01*
X45564439Y-53000785D01*
X45564439Y-52934417D01*
X45537689Y-52936997D01*
X45510940Y-52939576D01*
X45508536Y-53003364D01*
X45506132Y-53067152D01*
X45481786Y-53067152D01*
X45457440Y-53067152D01*
X45457440Y-52989427D01*
X45457959Y-52954858D01*
X45461514Y-52923010D01*
X45470713Y-52902865D01*
X45488142Y-52891766D01*
X45516389Y-52887056D01*
X45558040Y-52886076D01*
X45622054Y-52886076D01*
X45622054Y-52976614D01*
G37*
G36*
X43926526Y-52976614D02*
G01*
X43926526Y-53067152D01*
X43897719Y-53067152D01*
X43868911Y-53067152D01*
X43868911Y-53001306D01*
X43868911Y-52935460D01*
X43840104Y-52935460D01*
X43811296Y-52935460D01*
X43811296Y-53001306D01*
X43811296Y-53067152D01*
X43781482Y-53067152D01*
X43751667Y-53067152D01*
X43755264Y-52991917D01*
X43757322Y-52959599D01*
X43762609Y-52926158D01*
X43773053Y-52904700D01*
X43791280Y-52892610D01*
X43819917Y-52887274D01*
X43861592Y-52886076D01*
X43926526Y-52886076D01*
X43926526Y-52976614D01*
G37*
G36*
X42922378Y-52976614D02*
G01*
X42922378Y-53067152D01*
X42897686Y-53067152D01*
X42872994Y-53067152D01*
X42872994Y-53001306D01*
X42872994Y-52935460D01*
X42844187Y-52935460D01*
X42815379Y-52935460D01*
X42815379Y-53001306D01*
X42815379Y-53067152D01*
X42785753Y-53067152D01*
X42756126Y-53067152D01*
X42759003Y-52992343D01*
X42760554Y-52963300D01*
X42765449Y-52928596D01*
X42775499Y-52906110D01*
X42793201Y-52893254D01*
X42821056Y-52887439D01*
X42861560Y-52886076D01*
X42922378Y-52886076D01*
X42922378Y-52976614D01*
G37*
G36*
X40930544Y-52976614D02*
G01*
X40930544Y-53067152D01*
X40901737Y-53067152D01*
X40872929Y-53067152D01*
X40872929Y-53000785D01*
X40872929Y-52934417D01*
X40846179Y-52936997D01*
X40819430Y-52939576D01*
X40817026Y-53003364D01*
X40814622Y-53067152D01*
X40790276Y-53067152D01*
X40765930Y-53067152D01*
X40765930Y-52989427D01*
X40766449Y-52954858D01*
X40770004Y-52923010D01*
X40779203Y-52902865D01*
X40796632Y-52891766D01*
X40824879Y-52887056D01*
X40866530Y-52886076D01*
X40930544Y-52886076D01*
X40930544Y-52976614D01*
G37*
G36*
X45128211Y-52976614D02*
G01*
X45128211Y-53067152D01*
X45099404Y-53067152D01*
X45070596Y-53067152D01*
X45070596Y-52997191D01*
X45070089Y-52962715D01*
X45068200Y-52941089D01*
X45064422Y-52930216D01*
X45058250Y-52927230D01*
X45050197Y-52931257D01*
X45045904Y-52947806D01*
X45044322Y-52960549D01*
X45035959Y-52966974D01*
X45016013Y-52968383D01*
X44986121Y-52968383D01*
X44990696Y-52934274D01*
X44991953Y-52926692D01*
X44998298Y-52905234D01*
X45006184Y-52893247D01*
X45018678Y-52889845D01*
X45042732Y-52887244D01*
X45072654Y-52886202D01*
X45128211Y-52886076D01*
X45128211Y-52976614D01*
G37*
G36*
X42255690Y-52976614D02*
G01*
X42255690Y-53067152D01*
X42226883Y-53067152D01*
X42198075Y-53067152D01*
X42198075Y-52997191D01*
X42197568Y-52962715D01*
X42195679Y-52941089D01*
X42191901Y-52930216D01*
X42185729Y-52927230D01*
X42177676Y-52931257D01*
X42173383Y-52947806D01*
X42172793Y-52956754D01*
X42166338Y-52966169D01*
X42148691Y-52968383D01*
X42145451Y-52968366D01*
X42130993Y-52966338D01*
X42125112Y-52957526D01*
X42123999Y-52937106D01*
X42124378Y-52924971D01*
X42128967Y-52905004D01*
X42141108Y-52893177D01*
X42163720Y-52887523D01*
X42199721Y-52886076D01*
X42255690Y-52886076D01*
X42255690Y-52976614D01*
G37*
G36*
X41770078Y-52976614D02*
G01*
X41770078Y-53067152D01*
X41745385Y-53067152D01*
X41720693Y-53067152D01*
X41720693Y-53001306D01*
X41720693Y-52935460D01*
X41691886Y-52935460D01*
X41663078Y-52935460D01*
X41663078Y-53001306D01*
X41663078Y-53067152D01*
X41634271Y-53067152D01*
X41605463Y-53067152D01*
X41605463Y-52996817D01*
X41605549Y-52977991D01*
X41606616Y-52949320D01*
X41609683Y-52930689D01*
X41615712Y-52917781D01*
X41625666Y-52906279D01*
X41626645Y-52905307D01*
X41639049Y-52895133D01*
X41653551Y-52889319D01*
X41674933Y-52886691D01*
X41707973Y-52886076D01*
X41770078Y-52886076D01*
X41770078Y-52976614D01*
G37*
G36*
X39235016Y-52976614D02*
G01*
X39235016Y-53067152D01*
X39210324Y-53067152D01*
X39185632Y-53067152D01*
X39185632Y-52996587D01*
X39185563Y-52977983D01*
X39184755Y-52950718D01*
X39182522Y-52935431D01*
X39178226Y-52929117D01*
X39171228Y-52928768D01*
X39161918Y-52934269D01*
X39154194Y-52949948D01*
X39153507Y-52953713D01*
X39145861Y-52965277D01*
X39127444Y-52968383D01*
X39112060Y-52967003D01*
X39104794Y-52959271D01*
X39103325Y-52940164D01*
X39103362Y-52936810D01*
X39107587Y-52912130D01*
X39120512Y-52896552D01*
X39144547Y-52888419D01*
X39182104Y-52886076D01*
X39235016Y-52886076D01*
X39235016Y-52976614D01*
G37*
G36*
X38288483Y-52976614D02*
G01*
X38288483Y-53067152D01*
X38259676Y-53067152D01*
X38230868Y-53067152D01*
X38230868Y-52997191D01*
X38230361Y-52962715D01*
X38228472Y-52941089D01*
X38224695Y-52930216D01*
X38218522Y-52927230D01*
X38210469Y-52931257D01*
X38206176Y-52947806D01*
X38205586Y-52956754D01*
X38199131Y-52966169D01*
X38181484Y-52968383D01*
X38178244Y-52968366D01*
X38163787Y-52966338D01*
X38157906Y-52957526D01*
X38156792Y-52937106D01*
X38157171Y-52924971D01*
X38161760Y-52905004D01*
X38173901Y-52893177D01*
X38196513Y-52887523D01*
X38232514Y-52886076D01*
X38288483Y-52886076D01*
X38288483Y-52976614D01*
G37*
G36*
X38584789Y-52499232D02*
G01*
X38584789Y-52622693D01*
X38547751Y-52622693D01*
X38510713Y-52622693D01*
X38510713Y-52528040D01*
X38510713Y-52433386D01*
X38479848Y-52433512D01*
X38461766Y-52434074D01*
X38444678Y-52437648D01*
X38433643Y-52446920D01*
X38427128Y-52464580D01*
X38423600Y-52493321D01*
X38421523Y-52535832D01*
X38418308Y-52622693D01*
X38386318Y-52622693D01*
X38354329Y-52622693D01*
X38354591Y-52521867D01*
X38355399Y-52472578D01*
X38359101Y-52433657D01*
X38367887Y-52406840D01*
X38383954Y-52389885D01*
X38409501Y-52380549D01*
X38446726Y-52376592D01*
X38497826Y-52375771D01*
X38584789Y-52375771D01*
X38584789Y-52499232D01*
G37*
G36*
X41473772Y-52499232D02*
G01*
X41473772Y-52622693D01*
X41436734Y-52622693D01*
X41399695Y-52622693D01*
X41399695Y-52523924D01*
X41399695Y-52523213D01*
X41399086Y-52485040D01*
X41397462Y-52453872D01*
X41395066Y-52432860D01*
X41392138Y-52425156D01*
X41382644Y-52426039D01*
X41364732Y-52436787D01*
X41358542Y-52458959D01*
X41358497Y-52463544D01*
X41356133Y-52476495D01*
X41346742Y-52481769D01*
X41325619Y-52482771D01*
X41292696Y-52482771D01*
X41292696Y-52442205D01*
X41293019Y-52426822D01*
X41296503Y-52403970D01*
X41305947Y-52389117D01*
X41323964Y-52380585D01*
X41353167Y-52376695D01*
X41396168Y-52375771D01*
X41473772Y-52375771D01*
X41473772Y-52499232D01*
G37*
G36*
X44782521Y-52499232D02*
G01*
X44782521Y-52622693D01*
X44745483Y-52622693D01*
X44708444Y-52622693D01*
X44708444Y-52523352D01*
X44708356Y-52483158D01*
X44707747Y-52454665D01*
X44706110Y-52437429D01*
X44702933Y-52428787D01*
X44697708Y-52426078D01*
X44689925Y-52426641D01*
X44685451Y-52427525D01*
X44673747Y-52436028D01*
X44668827Y-52456021D01*
X44667563Y-52466691D01*
X44663125Y-52477739D01*
X44651752Y-52482042D01*
X44628684Y-52482771D01*
X44591120Y-52482771D01*
X44595207Y-52440235D01*
X44596973Y-52425288D01*
X44602636Y-52403139D01*
X44613576Y-52388734D01*
X44632578Y-52380452D01*
X44662425Y-52376671D01*
X44705902Y-52375771D01*
X44782521Y-52375771D01*
X44782521Y-52499232D01*
G37*
G36*
X43803065Y-52499232D02*
G01*
X43803065Y-52622693D01*
X43766027Y-52622693D01*
X43728989Y-52622693D01*
X43728989Y-52523352D01*
X43728900Y-52483158D01*
X43728292Y-52454665D01*
X43726654Y-52437429D01*
X43723478Y-52428787D01*
X43718253Y-52426078D01*
X43710470Y-52426641D01*
X43705995Y-52427525D01*
X43694292Y-52436028D01*
X43689371Y-52456021D01*
X43688107Y-52466691D01*
X43683669Y-52477739D01*
X43672297Y-52482042D01*
X43649228Y-52482771D01*
X43611664Y-52482771D01*
X43615752Y-52440235D01*
X43617518Y-52425288D01*
X43623180Y-52403139D01*
X43634120Y-52388734D01*
X43653122Y-52380452D01*
X43682970Y-52376671D01*
X43726447Y-52375771D01*
X43803065Y-52375771D01*
X43803065Y-52499232D01*
G37*
G36*
X40280026Y-52916941D02*
G01*
X40280009Y-52920755D01*
X40278690Y-52968280D01*
X40274743Y-53002582D01*
X40267281Y-53026613D01*
X40255416Y-53043324D01*
X40238258Y-53055666D01*
X40222337Y-53060850D01*
X40194749Y-53065114D01*
X40163030Y-53066860D01*
X40107472Y-53067152D01*
X40107472Y-53042460D01*
X40107476Y-53039803D01*
X40108529Y-53027101D01*
X40114205Y-53020555D01*
X40128450Y-53018124D01*
X40155211Y-53017768D01*
X40175910Y-53016872D01*
X40199631Y-53013285D01*
X40212826Y-53007891D01*
X40213662Y-53006878D01*
X40218614Y-52990542D01*
X40221663Y-52958992D01*
X40222702Y-52913237D01*
X40222702Y-52828461D01*
X40251510Y-52828461D01*
X40280317Y-52828461D01*
X40280026Y-52916941D01*
G37*
G36*
X45893067Y-52381944D02*
G01*
X45892608Y-52419026D01*
X45890571Y-52473881D01*
X45886669Y-52515816D01*
X45880541Y-52547072D01*
X45871828Y-52569888D01*
X45860170Y-52586504D01*
X45859216Y-52587519D01*
X45840644Y-52604145D01*
X45823707Y-52614841D01*
X45818597Y-52616272D01*
X45797445Y-52619133D01*
X45766702Y-52621224D01*
X45731111Y-52622171D01*
X45654977Y-52622693D01*
X45654977Y-52594968D01*
X45654977Y-52567243D01*
X45716755Y-52563278D01*
X45729261Y-52562455D01*
X45759488Y-52559545D01*
X45781203Y-52554087D01*
X45795813Y-52543763D01*
X45804727Y-52526253D01*
X45809351Y-52499238D01*
X45811093Y-52460399D01*
X45811361Y-52407419D01*
X45811361Y-52285234D01*
X45852514Y-52285234D01*
X45893668Y-52285234D01*
X45893067Y-52381944D01*
G37*
G36*
X41992307Y-52499232D02*
G01*
X41992307Y-52622693D01*
X41955269Y-52622693D01*
X41918231Y-52622693D01*
X41918231Y-52528040D01*
X41918231Y-52433386D01*
X41886954Y-52433386D01*
X41882518Y-52433482D01*
X41860082Y-52436762D01*
X41845800Y-52443263D01*
X41844964Y-52444276D01*
X41840012Y-52460612D01*
X41836963Y-52492162D01*
X41835923Y-52537917D01*
X41835923Y-52622693D01*
X41798214Y-52622693D01*
X41760504Y-52622693D01*
X41763233Y-52519077D01*
X41763275Y-52517503D01*
X41764535Y-52474992D01*
X41766116Y-52445633D01*
X41768688Y-52426221D01*
X41772922Y-52413551D01*
X41779488Y-52404418D01*
X41789056Y-52395616D01*
X41791733Y-52393352D01*
X41803074Y-52385296D01*
X41816100Y-52380158D01*
X41834506Y-52377289D01*
X41861985Y-52376043D01*
X41902228Y-52375771D01*
X41992307Y-52375771D01*
X41992307Y-52499232D01*
G37*
G36*
X45342210Y-52454672D02*
G01*
X45342210Y-52624110D01*
X45246905Y-52621344D01*
X45151600Y-52618578D01*
X45123444Y-52587833D01*
X45103373Y-52560601D01*
X45093809Y-52530218D01*
X45093095Y-52502975D01*
X45093104Y-52502881D01*
X45169365Y-52502881D01*
X45170010Y-52519209D01*
X45175268Y-52539143D01*
X45187658Y-52552265D01*
X45189347Y-52553368D01*
X45211132Y-52561674D01*
X45237042Y-52565078D01*
X45268133Y-52565078D01*
X45268133Y-52499232D01*
X45268133Y-52433386D01*
X45235211Y-52433386D01*
X45217902Y-52434633D01*
X45190545Y-52445495D01*
X45174562Y-52468037D01*
X45169365Y-52502881D01*
X45093104Y-52502881D01*
X45097799Y-52454208D01*
X45111776Y-52418219D01*
X45135926Y-52393894D01*
X45171148Y-52380116D01*
X45218340Y-52375771D01*
X45268133Y-52375771D01*
X45268133Y-52330502D01*
X45268133Y-52285234D01*
X45305172Y-52285234D01*
X45342210Y-52285234D01*
X45342210Y-52433386D01*
X45342210Y-52454672D01*
G37*
G36*
X39630091Y-52498733D02*
G01*
X39630091Y-52622693D01*
X39593052Y-52622693D01*
X39556014Y-52622693D01*
X39556014Y-52528040D01*
X39556014Y-52433386D01*
X39523091Y-52433386D01*
X39490168Y-52433386D01*
X39490168Y-52528040D01*
X39490168Y-52622693D01*
X39453130Y-52622693D01*
X39416092Y-52622693D01*
X39416092Y-52528040D01*
X39416092Y-52433386D01*
X39393046Y-52433386D01*
X39385044Y-52433624D01*
X39369706Y-52437069D01*
X39359611Y-52446647D01*
X39353706Y-52464931D01*
X39350935Y-52494496D01*
X39350246Y-52537917D01*
X39350246Y-52622693D01*
X39312537Y-52622693D01*
X39274827Y-52622693D01*
X39277556Y-52520014D01*
X39278415Y-52485801D01*
X39280153Y-52449547D01*
X39284393Y-52422671D01*
X39293127Y-52403728D01*
X39308346Y-52391268D01*
X39332043Y-52383846D01*
X39366209Y-52380014D01*
X39412836Y-52378324D01*
X39473916Y-52377330D01*
X39630091Y-52374774D01*
X39630091Y-52498733D01*
G37*
G36*
X43017666Y-52526885D02*
G01*
X43005161Y-52562540D01*
X42985616Y-52592054D01*
X42961751Y-52610306D01*
X42940352Y-52616198D01*
X42902922Y-52620668D01*
X42854475Y-52622371D01*
X42774225Y-52622693D01*
X42774225Y-52453963D01*
X42774225Y-52433386D01*
X42840071Y-52433386D01*
X42840071Y-52499232D01*
X42840071Y-52565078D01*
X42872082Y-52565078D01*
X42888007Y-52564100D01*
X42918212Y-52553685D01*
X42936460Y-52532010D01*
X42942581Y-52499232D01*
X42941534Y-52484359D01*
X42930383Y-52456147D01*
X42907176Y-52439103D01*
X42872082Y-52433386D01*
X42840071Y-52433386D01*
X42774225Y-52433386D01*
X42774225Y-52285234D01*
X42807148Y-52285234D01*
X42840071Y-52285234D01*
X42840071Y-52330502D01*
X42840071Y-52375771D01*
X42889864Y-52375771D01*
X42906327Y-52376316D01*
X42939909Y-52380773D01*
X42964587Y-52388663D01*
X42981253Y-52401498D01*
X43001296Y-52429317D01*
X43015433Y-52463783D01*
X43020785Y-52499232D01*
X43017666Y-52526885D01*
G37*
G36*
X43667190Y-53009648D02*
G01*
X43652311Y-53040416D01*
X43627282Y-53058990D01*
X43612138Y-53062443D01*
X43585386Y-53065327D01*
X43554086Y-53066630D01*
X43498529Y-53067152D01*
X43498529Y-52947806D01*
X43498529Y-52935460D01*
X43547913Y-52935460D01*
X43547913Y-52976614D01*
X43547913Y-53017768D01*
X43576897Y-53017768D01*
X43588797Y-53016747D01*
X43610119Y-53006216D01*
X43619096Y-52985910D01*
X43614452Y-52957862D01*
X43609738Y-52947721D01*
X43598124Y-52937880D01*
X43576924Y-52935460D01*
X43547913Y-52935460D01*
X43498529Y-52935460D01*
X43498529Y-52828461D01*
X43523221Y-52828461D01*
X43539555Y-52829975D01*
X43546537Y-52837914D01*
X43547913Y-52857268D01*
X43548173Y-52870630D01*
X43551586Y-52881476D01*
X43562576Y-52885492D01*
X43585584Y-52886076D01*
X43605650Y-52887112D01*
X43627353Y-52893968D01*
X43647315Y-52910135D01*
X43661491Y-52926756D01*
X43669400Y-52946321D01*
X43671374Y-52974149D01*
X43669988Y-52985910D01*
X43667190Y-53009648D01*
G37*
G36*
X39226785Y-52453963D02*
G01*
X39226785Y-52622693D01*
X39142420Y-52622662D01*
X39127509Y-52622606D01*
X39090862Y-52621619D01*
X39065250Y-52618931D01*
X39046593Y-52613935D01*
X39030810Y-52606021D01*
X39011029Y-52589608D01*
X38991081Y-52557840D01*
X38981057Y-52519980D01*
X38980944Y-52499830D01*
X39053940Y-52499830D01*
X39056678Y-52523386D01*
X39070402Y-52548617D01*
X39086454Y-52559258D01*
X39119786Y-52565078D01*
X39152709Y-52565078D01*
X39152709Y-52499232D01*
X39152709Y-52433386D01*
X39125011Y-52433386D01*
X39111139Y-52434409D01*
X39080942Y-52445925D01*
X39061086Y-52468470D01*
X39053940Y-52499830D01*
X38980944Y-52499830D01*
X38980833Y-52479961D01*
X38990286Y-52441719D01*
X39009291Y-52409188D01*
X39037726Y-52386301D01*
X39049106Y-52382361D01*
X39075317Y-52377743D01*
X39105382Y-52375893D01*
X39152709Y-52375771D01*
X39152709Y-52330502D01*
X39152709Y-52285234D01*
X39189747Y-52285234D01*
X39226785Y-52285234D01*
X39226785Y-52433386D01*
X39226785Y-52453963D01*
G37*
G36*
X42658774Y-52886108D02*
G01*
X42676462Y-52887993D01*
X42683688Y-52891888D01*
X42681523Y-52899126D01*
X42674150Y-52918917D01*
X42662781Y-52947731D01*
X42648707Y-52982239D01*
X42613726Y-53066777D01*
X42584279Y-53066965D01*
X42575298Y-53066899D01*
X42564477Y-53065085D01*
X42555650Y-53058840D01*
X42546670Y-53045503D01*
X42535386Y-53022411D01*
X42519650Y-52986902D01*
X42508519Y-52961470D01*
X42495080Y-52930633D01*
X42485074Y-52907519D01*
X42480097Y-52895802D01*
X42479371Y-52891840D01*
X42486240Y-52887326D01*
X42506612Y-52887571D01*
X42511889Y-52888057D01*
X42526900Y-52891025D01*
X42537383Y-52898563D01*
X42546798Y-52914276D01*
X42558602Y-52941770D01*
X42559136Y-52943070D01*
X42570308Y-52967535D01*
X42579634Y-52983312D01*
X42585145Y-52987039D01*
X42589641Y-52979031D01*
X42598570Y-52959383D01*
X42609284Y-52933403D01*
X42609626Y-52932536D01*
X42620486Y-52906809D01*
X42629446Y-52892890D01*
X42640049Y-52887179D01*
X42655836Y-52886076D01*
X42658774Y-52886108D01*
G37*
G36*
X38555587Y-52999240D02*
G01*
X38552844Y-53020132D01*
X38545889Y-53034280D01*
X38532888Y-53047288D01*
X38523561Y-53053884D01*
X38491613Y-53065258D01*
X38454038Y-53067267D01*
X38416990Y-53059275D01*
X38402243Y-53050696D01*
X38383496Y-53026939D01*
X38373304Y-52995388D01*
X38372949Y-52969521D01*
X38429583Y-52969521D01*
X38430578Y-52993233D01*
X38441340Y-53013064D01*
X38450984Y-53020601D01*
X38465444Y-53025998D01*
X38483213Y-53018831D01*
X38496987Y-53000563D01*
X38502482Y-52976614D01*
X38497107Y-52952922D01*
X38483405Y-52934556D01*
X38465444Y-52927230D01*
X38450985Y-52931487D01*
X38436877Y-52947185D01*
X38429583Y-52969521D01*
X38372949Y-52969521D01*
X38372826Y-52960584D01*
X38383222Y-52927065D01*
X38389314Y-52916562D01*
X38406978Y-52898279D01*
X38431992Y-52888790D01*
X38468559Y-52886076D01*
X38486342Y-52886726D01*
X38511929Y-52892439D01*
X38532888Y-52905940D01*
X38543018Y-52915522D01*
X38551441Y-52928802D01*
X38555152Y-52947297D01*
X38555982Y-52976614D01*
X38555587Y-52999240D01*
G37*
G36*
X44535599Y-52952443D02*
G01*
X44535599Y-53018810D01*
X44562349Y-53016231D01*
X44589099Y-53013652D01*
X44591503Y-52949864D01*
X44593907Y-52886076D01*
X44618253Y-52886076D01*
X44642599Y-52886076D01*
X44642599Y-52958579D01*
X44642499Y-52975059D01*
X44640586Y-53012570D01*
X44634917Y-53037501D01*
X44623785Y-53052684D01*
X44605478Y-53060955D01*
X44578287Y-53065144D01*
X44552495Y-53069087D01*
X44541568Y-53073943D01*
X44545350Y-53078649D01*
X44563005Y-53082206D01*
X44593700Y-53083613D01*
X44594575Y-53083613D01*
X44621411Y-53084089D01*
X44635771Y-53086588D01*
X44641539Y-53092743D01*
X44642599Y-53104190D01*
X44642271Y-53112340D01*
X44639080Y-53119409D01*
X44629625Y-53123111D01*
X44610506Y-53124534D01*
X44578326Y-53124767D01*
X44545971Y-53124467D01*
X44519327Y-53121997D01*
X44501299Y-53114976D01*
X44490090Y-53101023D01*
X44483900Y-53077756D01*
X44480932Y-53042794D01*
X44479388Y-52993756D01*
X44476676Y-52886076D01*
X44506138Y-52886076D01*
X44535599Y-52886076D01*
X44535599Y-52952443D01*
G37*
G36*
X42044734Y-52987865D02*
G01*
X42042234Y-53011009D01*
X42034392Y-53027246D01*
X42018452Y-53043559D01*
X42002915Y-53055761D01*
X41981275Y-53064811D01*
X41952134Y-53067152D01*
X41924202Y-53063973D01*
X41890596Y-53048664D01*
X41867794Y-53022737D01*
X41857535Y-52988480D01*
X41858721Y-52976614D01*
X41910000Y-52976614D01*
X41914130Y-52991619D01*
X41926461Y-53009537D01*
X41940569Y-53020565D01*
X41954802Y-53025998D01*
X41960548Y-53024574D01*
X41974934Y-53012910D01*
X41987149Y-52994779D01*
X41992307Y-52976614D01*
X41991225Y-52969048D01*
X41982368Y-52950105D01*
X41968598Y-52934021D01*
X41954802Y-52927230D01*
X41948150Y-52928480D01*
X41930744Y-52939848D01*
X41916133Y-52957980D01*
X41910000Y-52976614D01*
X41858721Y-52976614D01*
X41861563Y-52948181D01*
X41863734Y-52941230D01*
X41882185Y-52910730D01*
X41911755Y-52892275D01*
X41952134Y-52886076D01*
X41974021Y-52887188D01*
X41996947Y-52893992D01*
X42018452Y-52909669D01*
X42025238Y-52915933D01*
X42037974Y-52931418D01*
X42043595Y-52949317D01*
X42044857Y-52976614D01*
X42044734Y-52987865D01*
G37*
G36*
X39761782Y-53067152D02*
G01*
X39704554Y-53067152D01*
X39701031Y-53067143D01*
X39658425Y-53064754D01*
X39628429Y-53057236D01*
X39607837Y-53043275D01*
X39593449Y-53021556D01*
X39589524Y-53012497D01*
X39582000Y-52976614D01*
X39638321Y-52976614D01*
X39640593Y-52992500D01*
X39648198Y-53007891D01*
X39648425Y-53008111D01*
X39663426Y-53014939D01*
X39685236Y-53017768D01*
X39699675Y-53017296D01*
X39708613Y-53013113D01*
X39711919Y-53000969D01*
X39712398Y-52976614D01*
X39712087Y-52954737D01*
X39709326Y-52941194D01*
X39701311Y-52936185D01*
X39685236Y-52935460D01*
X39660762Y-52938895D01*
X39643746Y-52952254D01*
X39638321Y-52976614D01*
X39582000Y-52976614D01*
X39581292Y-52973236D01*
X39587612Y-52938619D01*
X39607001Y-52910991D01*
X39637980Y-52892695D01*
X39679066Y-52886076D01*
X39689482Y-52886002D01*
X39705358Y-52883853D01*
X39711424Y-52875634D01*
X39712398Y-52857268D01*
X39713696Y-52838212D01*
X39720500Y-52830067D01*
X39737090Y-52828461D01*
X39761782Y-52828461D01*
X39761782Y-52947806D01*
X39761782Y-52976614D01*
X39761782Y-53067152D01*
G37*
G36*
X41578713Y-52375802D02*
G01*
X41608476Y-52376242D01*
X41638471Y-52378621D01*
X41660090Y-52383762D01*
X41677977Y-52392444D01*
X41696369Y-52407293D01*
X41716965Y-52438494D01*
X41727490Y-52475845D01*
X41728065Y-52515423D01*
X41718813Y-52553303D01*
X41699854Y-52585562D01*
X41671309Y-52608276D01*
X41653017Y-52615213D01*
X41620048Y-52620898D01*
X41574598Y-52622680D01*
X41506695Y-52622693D01*
X41506695Y-52593885D01*
X41506695Y-52565078D01*
X41566779Y-52565078D01*
X41586497Y-52564685D01*
X41620606Y-52560715D01*
X41640292Y-52552183D01*
X41646617Y-52538740D01*
X41645416Y-52537525D01*
X41632450Y-52534779D01*
X41608271Y-52532870D01*
X41576656Y-52532155D01*
X41506695Y-52532155D01*
X41506695Y-52499232D01*
X41506695Y-52466309D01*
X41576656Y-52466309D01*
X41589559Y-52466196D01*
X41618739Y-52464976D01*
X41639018Y-52462700D01*
X41646617Y-52459725D01*
X41645427Y-52453220D01*
X41633391Y-52441967D01*
X41607530Y-52435473D01*
X41566779Y-52433386D01*
X41506695Y-52433386D01*
X41506695Y-52404579D01*
X41506695Y-52375771D01*
X41578713Y-52375802D01*
G37*
G36*
X38717645Y-52376763D02*
G01*
X38764294Y-52383608D01*
X38797898Y-52398028D01*
X38819995Y-52421272D01*
X38832125Y-52454590D01*
X38835826Y-52499232D01*
X38834462Y-52528362D01*
X38825731Y-52565911D01*
X38807868Y-52592543D01*
X38779648Y-52610683D01*
X38779202Y-52610874D01*
X38756698Y-52616669D01*
X38723610Y-52620736D01*
X38685616Y-52622371D01*
X38617712Y-52622693D01*
X38617712Y-52593885D01*
X38617712Y-52565078D01*
X38677796Y-52565078D01*
X38697514Y-52564685D01*
X38731624Y-52560715D01*
X38751309Y-52552183D01*
X38757634Y-52538740D01*
X38756433Y-52537525D01*
X38743468Y-52534779D01*
X38719288Y-52532870D01*
X38687673Y-52532155D01*
X38617712Y-52532155D01*
X38617712Y-52499232D01*
X38617712Y-52466309D01*
X38687673Y-52466309D01*
X38700577Y-52466196D01*
X38729757Y-52464976D01*
X38750035Y-52462700D01*
X38757634Y-52459725D01*
X38756444Y-52453220D01*
X38744408Y-52441967D01*
X38718547Y-52435473D01*
X38677796Y-52433386D01*
X38617712Y-52433386D01*
X38617712Y-52404579D01*
X38617712Y-52375771D01*
X38683822Y-52375771D01*
X38717645Y-52376763D01*
G37*
G36*
X37959255Y-52951922D02*
G01*
X37959255Y-53017768D01*
X37988062Y-53017768D01*
X38016870Y-53017768D01*
X38016870Y-52951922D01*
X38016870Y-52886076D01*
X38046496Y-52886076D01*
X38076123Y-52886076D01*
X38073246Y-52960885D01*
X38072268Y-52983262D01*
X38070056Y-53011983D01*
X38066401Y-53030327D01*
X38060348Y-53042180D01*
X38050938Y-53051423D01*
X38030975Y-53061934D01*
X37994895Y-53067152D01*
X37985030Y-53067390D01*
X37967232Y-53070116D01*
X37963370Y-53075383D01*
X37970593Y-53078994D01*
X37990397Y-53082327D01*
X38017355Y-53083613D01*
X38018230Y-53083613D01*
X38045066Y-53084089D01*
X38059426Y-53086588D01*
X38065194Y-53092743D01*
X38066254Y-53104190D01*
X38065974Y-53111942D01*
X38062949Y-53119229D01*
X38053750Y-53123051D01*
X38034948Y-53124524D01*
X38003114Y-53124767D01*
X37972521Y-53124425D01*
X37946471Y-53121805D01*
X37928875Y-53114543D01*
X37918074Y-53100275D01*
X37912411Y-53076638D01*
X37910229Y-53041267D01*
X37909870Y-52991800D01*
X37909870Y-52886076D01*
X37934562Y-52886076D01*
X37959255Y-52886076D01*
X37959255Y-52951922D01*
G37*
G36*
X38001265Y-52376368D02*
G01*
X38050201Y-52382804D01*
X38085899Y-52397200D01*
X38109716Y-52420664D01*
X38123011Y-52454305D01*
X38127141Y-52499232D01*
X38126764Y-52512310D01*
X38118487Y-52556483D01*
X38099944Y-52589772D01*
X38071894Y-52610646D01*
X38071629Y-52610760D01*
X38049134Y-52616618D01*
X38015964Y-52620723D01*
X37977774Y-52622371D01*
X37909870Y-52622693D01*
X37909870Y-52593885D01*
X37909870Y-52565078D01*
X37969955Y-52565078D01*
X37989672Y-52564685D01*
X38023782Y-52560715D01*
X38043467Y-52552183D01*
X38049792Y-52538740D01*
X38048591Y-52537525D01*
X38035626Y-52534779D01*
X38011447Y-52532870D01*
X37979831Y-52532155D01*
X37909870Y-52532155D01*
X37909870Y-52499232D01*
X37909870Y-52466309D01*
X37979831Y-52466309D01*
X37991445Y-52466207D01*
X38021536Y-52464801D01*
X38042147Y-52462056D01*
X38049792Y-52458368D01*
X38047998Y-52452358D01*
X38033094Y-52442147D01*
X38004501Y-52435659D01*
X37963911Y-52433386D01*
X37909870Y-52433386D01*
X37909870Y-52404579D01*
X37909870Y-52375771D01*
X37975980Y-52375771D01*
X38001265Y-52376368D01*
G37*
G36*
X45067987Y-52539143D02*
G01*
X45050918Y-52577321D01*
X45023560Y-52606150D01*
X44987312Y-52622975D01*
X44987155Y-52623014D01*
X44959689Y-52626286D01*
X44926661Y-52625578D01*
X44895356Y-52621435D01*
X44873059Y-52614406D01*
X44871304Y-52613434D01*
X44841448Y-52587618D01*
X44821085Y-52551511D01*
X44811745Y-52509070D01*
X44812348Y-52500662D01*
X44889520Y-52500662D01*
X44893096Y-52531896D01*
X44904572Y-52551456D01*
X44921825Y-52560767D01*
X44945259Y-52565078D01*
X44950754Y-52564818D01*
X44975287Y-52555123D01*
X44990988Y-52532688D01*
X44996520Y-52499232D01*
X44996311Y-52491941D01*
X44988691Y-52460266D01*
X44970855Y-52440320D01*
X44943829Y-52433386D01*
X44934035Y-52433940D01*
X44909022Y-52443590D01*
X44894325Y-52465656D01*
X44889520Y-52500662D01*
X44812348Y-52500662D01*
X44814961Y-52464252D01*
X44829593Y-52428326D01*
X44854923Y-52400086D01*
X44887587Y-52381261D01*
X44924602Y-52371840D01*
X44962980Y-52371809D01*
X44999736Y-52381156D01*
X45031885Y-52399868D01*
X45056441Y-52427933D01*
X45070418Y-52465337D01*
X45073366Y-52494272D01*
X45072771Y-52499232D01*
X45067987Y-52539143D01*
G37*
G36*
X44095138Y-52504549D02*
G01*
X44087611Y-52543854D01*
X44069991Y-52579024D01*
X44043125Y-52606564D01*
X44007857Y-52622975D01*
X44007700Y-52623014D01*
X43980234Y-52626286D01*
X43947205Y-52625578D01*
X43915900Y-52621435D01*
X43893603Y-52614406D01*
X43863680Y-52589735D01*
X43843452Y-52555469D01*
X43833627Y-52515756D01*
X43834032Y-52499232D01*
X43910065Y-52499232D01*
X43910071Y-52500169D01*
X43913964Y-52525768D01*
X43922877Y-52546785D01*
X43936450Y-52559296D01*
X43962755Y-52565078D01*
X43972549Y-52564525D01*
X43997563Y-52554874D01*
X44012259Y-52532808D01*
X44017064Y-52497802D01*
X44016676Y-52487026D01*
X44008840Y-52456850D01*
X43990553Y-52439158D01*
X43961325Y-52433386D01*
X43955830Y-52433646D01*
X43931297Y-52443341D01*
X43915596Y-52465777D01*
X43910065Y-52499232D01*
X43834032Y-52499232D01*
X43834637Y-52474593D01*
X43846914Y-52435978D01*
X43870888Y-52403910D01*
X43900107Y-52384415D01*
X43941218Y-52372147D01*
X43984676Y-52371837D01*
X44025856Y-52383414D01*
X44060129Y-52406807D01*
X44076532Y-52427527D01*
X44091727Y-52464608D01*
X44094562Y-52497802D01*
X44095138Y-52504549D01*
G37*
G36*
X41514925Y-52976614D02*
G01*
X41514925Y-53067152D01*
X41486118Y-53067152D01*
X41457310Y-53067152D01*
X41457310Y-53001306D01*
X41457185Y-52973556D01*
X41456115Y-52951851D01*
X41453049Y-52940506D01*
X41446939Y-52936162D01*
X41436734Y-52935460D01*
X41428062Y-52935860D01*
X41421279Y-52939285D01*
X41417734Y-52949095D01*
X41416376Y-52968649D01*
X41416157Y-53001306D01*
X41416157Y-53067152D01*
X41387349Y-53067152D01*
X41358542Y-53067152D01*
X41358542Y-53001306D01*
X41358420Y-52974195D01*
X41357369Y-52952212D01*
X41354354Y-52940667D01*
X41348346Y-52936202D01*
X41338311Y-52935460D01*
X41331120Y-52935749D01*
X41323673Y-52938860D01*
X41319423Y-52948209D01*
X41317160Y-52967204D01*
X41315677Y-52999248D01*
X41313273Y-53063036D01*
X41286523Y-53065616D01*
X41259773Y-53068195D01*
X41259899Y-52995655D01*
X41260033Y-52981709D01*
X41261213Y-52949957D01*
X41263336Y-52925955D01*
X41266072Y-52914058D01*
X41277013Y-52902925D01*
X41294685Y-52894841D01*
X41321344Y-52889655D01*
X41359459Y-52886891D01*
X41411500Y-52886076D01*
X41514925Y-52886076D01*
X41514925Y-52976614D01*
G37*
G36*
X43469737Y-52538288D02*
G01*
X43455699Y-52576359D01*
X43429804Y-52603822D01*
X43391529Y-52621561D01*
X43376274Y-52624831D01*
X43337860Y-52626204D01*
X43298774Y-52620457D01*
X43267127Y-52608445D01*
X43244936Y-52590046D01*
X43224693Y-52557270D01*
X43214562Y-52518317D01*
X43214729Y-52499232D01*
X43290516Y-52499232D01*
X43294031Y-52526301D01*
X43305260Y-52548786D01*
X43317591Y-52558357D01*
X43342553Y-52565179D01*
X43367854Y-52561268D01*
X43386947Y-52546785D01*
X43387353Y-52546191D01*
X43396130Y-52524771D01*
X43399760Y-52499232D01*
X43399552Y-52491941D01*
X43391932Y-52460266D01*
X43374095Y-52440320D01*
X43347069Y-52433386D01*
X43339700Y-52433728D01*
X43312857Y-52443306D01*
X43296221Y-52465421D01*
X43290516Y-52499232D01*
X43214729Y-52499232D01*
X43214920Y-52477317D01*
X43226145Y-52438402D01*
X43248614Y-52405701D01*
X43278287Y-52384652D01*
X43318704Y-52371985D01*
X43362116Y-52371081D01*
X43403982Y-52381967D01*
X43439763Y-52404667D01*
X43454404Y-52419208D01*
X43464321Y-52434516D01*
X43469442Y-52454298D01*
X43472199Y-52484548D01*
X43472437Y-52488725D01*
X43471865Y-52499232D01*
X43469737Y-52538288D01*
G37*
G36*
X42618549Y-52376923D02*
G01*
X42664090Y-52383871D01*
X42696696Y-52398257D01*
X42717983Y-52421401D01*
X42729569Y-52454620D01*
X42733072Y-52499232D01*
X42732335Y-52521094D01*
X42724861Y-52560991D01*
X42708459Y-52589499D01*
X42682057Y-52608925D01*
X42666222Y-52614759D01*
X42631525Y-52620544D01*
X42582861Y-52622506D01*
X42510842Y-52622693D01*
X42510842Y-52593885D01*
X42510842Y-52565078D01*
X42571985Y-52565078D01*
X42584825Y-52564983D01*
X42615588Y-52563237D01*
X42635188Y-52558718D01*
X42647567Y-52550674D01*
X42647724Y-52550518D01*
X42653447Y-52543795D01*
X42652668Y-52539454D01*
X42642897Y-52536814D01*
X42621645Y-52535191D01*
X42586425Y-52533904D01*
X42510842Y-52531537D01*
X42510842Y-52499232D01*
X42510842Y-52466927D01*
X42586425Y-52464561D01*
X42587245Y-52464535D01*
X42622175Y-52463247D01*
X42643183Y-52461612D01*
X42652759Y-52458945D01*
X42653391Y-52454566D01*
X42647567Y-52447790D01*
X42644153Y-52444788D01*
X42629893Y-52437953D01*
X42607150Y-52434403D01*
X42571985Y-52433386D01*
X42510842Y-52433386D01*
X42510842Y-52404579D01*
X42510842Y-52375771D01*
X42581617Y-52375771D01*
X42618549Y-52376923D01*
G37*
G36*
X44247524Y-52330502D02*
G01*
X44247524Y-52331195D01*
X44247964Y-52356775D01*
X44250753Y-52370030D01*
X44258100Y-52375011D01*
X44272216Y-52375771D01*
X44288550Y-52377286D01*
X44295532Y-52385224D01*
X44296909Y-52404579D01*
X44295610Y-52423635D01*
X44288806Y-52431781D01*
X44272216Y-52433386D01*
X44247524Y-52433386D01*
X44247524Y-52507837D01*
X44247370Y-52533812D01*
X44246166Y-52561161D01*
X44243010Y-52578973D01*
X44237022Y-52591373D01*
X44227322Y-52602490D01*
X44222061Y-52607452D01*
X44207181Y-52617038D01*
X44187552Y-52621559D01*
X44157360Y-52622693D01*
X44107602Y-52622693D01*
X44107602Y-52594382D01*
X44107620Y-52590346D01*
X44109578Y-52573714D01*
X44118234Y-52566397D01*
X44138467Y-52563517D01*
X44169332Y-52560963D01*
X44171736Y-52497175D01*
X44174140Y-52433386D01*
X44140871Y-52433386D01*
X44130562Y-52433314D01*
X44114658Y-52431172D01*
X44108579Y-52422957D01*
X44107602Y-52404579D01*
X44107676Y-52396079D01*
X44110078Y-52382028D01*
X44119445Y-52376644D01*
X44140525Y-52375771D01*
X44173448Y-52375771D01*
X44173448Y-52330502D01*
X44173448Y-52285234D01*
X44210486Y-52285234D01*
X44247524Y-52285234D01*
X44247524Y-52330502D01*
G37*
G36*
X40642341Y-52829975D02*
G01*
X40649323Y-52837914D01*
X40650700Y-52857268D01*
X40651238Y-52870273D01*
X40655816Y-52882854D01*
X40667161Y-52886076D01*
X40679765Y-52890517D01*
X40683623Y-52906653D01*
X40680070Y-52922407D01*
X40667161Y-52927230D01*
X40667127Y-52927230D01*
X40658323Y-52928868D01*
X40653369Y-52936169D01*
X40651187Y-52952727D01*
X40650700Y-52982139D01*
X40649855Y-53009597D01*
X40645570Y-53036057D01*
X40637078Y-53052100D01*
X40619736Y-53062888D01*
X40587694Y-53067152D01*
X40579838Y-53067102D01*
X40561350Y-53065421D01*
X40553540Y-53059437D01*
X40551931Y-53046575D01*
X40554854Y-53031856D01*
X40566746Y-53025998D01*
X40569011Y-53025946D01*
X40587490Y-53019105D01*
X40597992Y-52999825D01*
X40601316Y-52966737D01*
X40601097Y-52948899D01*
X40598714Y-52933973D01*
X40591458Y-52928194D01*
X40576623Y-52927230D01*
X40565886Y-52926738D01*
X40554589Y-52921358D01*
X40551931Y-52906653D01*
X40552521Y-52897705D01*
X40558977Y-52888291D01*
X40576623Y-52886076D01*
X40592957Y-52884562D01*
X40599939Y-52876623D01*
X40601316Y-52857268D01*
X40602614Y-52838212D01*
X40609418Y-52830067D01*
X40626008Y-52828461D01*
X40642341Y-52829975D01*
G37*
G36*
X38724584Y-52829975D02*
G01*
X38731566Y-52837914D01*
X38732942Y-52857268D01*
X38733480Y-52870273D01*
X38738058Y-52882854D01*
X38749404Y-52886076D01*
X38762007Y-52890517D01*
X38765865Y-52906653D01*
X38762312Y-52922407D01*
X38749404Y-52927230D01*
X38740917Y-52928666D01*
X38735741Y-52935634D01*
X38733455Y-52951776D01*
X38732942Y-52980729D01*
X38732895Y-52988925D01*
X38731152Y-53018338D01*
X38726061Y-53037308D01*
X38716481Y-53050690D01*
X38700429Y-53061332D01*
X38667096Y-53067152D01*
X38664229Y-53067144D01*
X38644447Y-53065725D01*
X38635971Y-53059832D01*
X38634174Y-53046575D01*
X38637621Y-53030974D01*
X38650345Y-53025998D01*
X38651253Y-53025983D01*
X38668771Y-53017858D01*
X38679754Y-52995673D01*
X38683558Y-52960694D01*
X38683508Y-52952677D01*
X38681670Y-52935418D01*
X38674608Y-52928496D01*
X38658866Y-52927230D01*
X38648128Y-52926738D01*
X38636831Y-52921358D01*
X38634174Y-52906653D01*
X38634763Y-52897705D01*
X38641219Y-52888291D01*
X38658866Y-52886076D01*
X38675200Y-52884562D01*
X38682181Y-52876623D01*
X38683558Y-52857268D01*
X38684856Y-52838212D01*
X38691660Y-52830067D01*
X38708250Y-52828461D01*
X38724584Y-52829975D01*
G37*
G36*
X39950744Y-52495947D02*
G01*
X39968270Y-52537807D01*
X39982523Y-52572187D01*
X39992442Y-52596533D01*
X39996969Y-52608289D01*
X39997822Y-52611466D01*
X39996178Y-52618631D01*
X39985059Y-52621909D01*
X39960992Y-52622693D01*
X39939543Y-52622295D01*
X39924546Y-52618563D01*
X39915339Y-52607559D01*
X39906139Y-52585346D01*
X39891876Y-52547999D01*
X39821320Y-52550365D01*
X39750764Y-52552732D01*
X39739126Y-52587712D01*
X39727487Y-52622693D01*
X39682219Y-52622693D01*
X39663534Y-52622033D01*
X39645549Y-52619434D01*
X39639693Y-52615538D01*
X39640378Y-52613858D01*
X39646338Y-52599731D01*
X39657449Y-52573604D01*
X39672723Y-52537799D01*
X39691171Y-52494634D01*
X39696248Y-52482771D01*
X39779467Y-52482771D01*
X39823214Y-52482771D01*
X39866962Y-52482771D01*
X39845303Y-52424960D01*
X39842795Y-52418388D01*
X39832497Y-52394007D01*
X39824518Y-52379157D01*
X39820412Y-52376844D01*
X39816862Y-52386560D01*
X39808758Y-52407810D01*
X39798323Y-52434655D01*
X39779467Y-52482771D01*
X39696248Y-52482771D01*
X39711803Y-52446429D01*
X39781169Y-52284476D01*
X39822217Y-52286912D01*
X39863265Y-52289349D01*
X39927810Y-52441617D01*
X39931006Y-52449161D01*
X39945185Y-52482771D01*
X39950744Y-52495947D01*
G37*
G36*
X45809382Y-52829238D02*
G01*
X45850987Y-52835035D01*
X45879863Y-52848050D01*
X45898012Y-52870117D01*
X45907433Y-52903067D01*
X45910129Y-52948735D01*
X45910126Y-52950853D01*
X45908225Y-52989039D01*
X45901544Y-53015570D01*
X45888220Y-53034804D01*
X45866393Y-53051100D01*
X45863217Y-53052958D01*
X45842432Y-53061391D01*
X45815115Y-53065823D01*
X45776380Y-53067121D01*
X45712592Y-53067152D01*
X45712592Y-53042460D01*
X45712592Y-53017768D01*
X45766092Y-53017768D01*
X45774288Y-53017720D01*
X45803700Y-53015977D01*
X45822671Y-53010886D01*
X45836053Y-53001306D01*
X45847618Y-52988158D01*
X45850684Y-52978111D01*
X45841870Y-52972087D01*
X45819663Y-52969154D01*
X45782553Y-52968383D01*
X45712592Y-52968383D01*
X45712592Y-52944011D01*
X45712592Y-52919640D01*
X45784611Y-52917262D01*
X45856630Y-52914884D01*
X45834369Y-52892249D01*
X45826082Y-52884378D01*
X45811203Y-52874914D01*
X45791967Y-52870624D01*
X45762351Y-52869615D01*
X45759965Y-52869614D01*
X45733462Y-52869104D01*
X45719300Y-52866567D01*
X45713627Y-52860409D01*
X45712592Y-52849038D01*
X45713012Y-52840236D01*
X45716498Y-52833525D01*
X45726400Y-52830018D01*
X45746067Y-52828677D01*
X45778847Y-52828461D01*
X45809382Y-52829238D01*
G37*
G36*
X41070066Y-52887451D02*
G01*
X41099265Y-52890189D01*
X41133151Y-52898982D01*
X41154653Y-52915008D01*
X41165953Y-52940232D01*
X41169235Y-52976614D01*
X41169177Y-52981685D01*
X41163409Y-53019098D01*
X41147364Y-53044970D01*
X41119851Y-53061339D01*
X41110833Y-53063214D01*
X41088336Y-53065390D01*
X41060178Y-53066502D01*
X41034321Y-53066438D01*
X41019763Y-53064212D01*
X41013922Y-53058145D01*
X41012851Y-53046575D01*
X41014644Y-53033359D01*
X41023353Y-53027276D01*
X41043717Y-53025886D01*
X41046065Y-53025864D01*
X41072172Y-53024221D01*
X41093101Y-53020811D01*
X41099753Y-53018813D01*
X41111165Y-53012402D01*
X41107838Y-53006792D01*
X41091090Y-53002816D01*
X41062236Y-53001306D01*
X41012851Y-53001306D01*
X41012851Y-52976614D01*
X41012851Y-52951922D01*
X41062236Y-52951922D01*
X41072287Y-52951771D01*
X41097571Y-52949416D01*
X41110345Y-52944851D01*
X41109294Y-52938908D01*
X41093101Y-52932417D01*
X41091637Y-52932048D01*
X41069728Y-52928756D01*
X41043717Y-52927342D01*
X41043625Y-52927342D01*
X41023345Y-52925984D01*
X41014679Y-52919893D01*
X41012851Y-52905724D01*
X41012963Y-52898806D01*
X41015172Y-52890524D01*
X41023029Y-52886637D01*
X41040128Y-52885995D01*
X41070066Y-52887451D01*
G37*
G36*
X39506623Y-52979258D02*
G01*
X39504717Y-53006409D01*
X39497591Y-53025224D01*
X39482571Y-53043093D01*
X39482240Y-53043423D01*
X39464133Y-53058448D01*
X39444854Y-53065437D01*
X39416855Y-53067152D01*
X39391066Y-53065705D01*
X39369381Y-53058785D01*
X39348793Y-53043559D01*
X39342008Y-53037294D01*
X39329271Y-53021810D01*
X39323650Y-53003911D01*
X39322388Y-52976614D01*
X39322408Y-52974783D01*
X39374938Y-52974783D01*
X39377962Y-52988513D01*
X39387751Y-53007705D01*
X39399223Y-53019812D01*
X39412443Y-53025998D01*
X39419095Y-53024748D01*
X39436501Y-53013380D01*
X39451112Y-52995248D01*
X39457246Y-52976614D01*
X39455451Y-52967714D01*
X39445155Y-52949449D01*
X39430274Y-52933841D01*
X39416092Y-52927230D01*
X39408789Y-52929417D01*
X39393664Y-52941556D01*
X39380540Y-52958804D01*
X39374938Y-52974783D01*
X39322408Y-52974783D01*
X39322511Y-52965363D01*
X39325011Y-52942219D01*
X39332854Y-52925982D01*
X39348793Y-52909669D01*
X39366668Y-52895980D01*
X39387722Y-52888084D01*
X39416855Y-52886076D01*
X39417428Y-52886076D01*
X39445222Y-52887856D01*
X39464420Y-52894955D01*
X39482571Y-52910135D01*
X39484066Y-52911643D01*
X39498385Y-52929322D01*
X39505014Y-52948516D01*
X39506630Y-52976614D01*
X39506623Y-52979258D01*
G37*
G36*
X45269126Y-52887530D02*
G01*
X45299539Y-52889871D01*
X45320622Y-52893960D01*
X45334889Y-52901320D01*
X45347318Y-52913610D01*
X45350548Y-52917651D01*
X45364383Y-52947261D01*
X45367736Y-52980892D01*
X45361398Y-53013851D01*
X45346159Y-53041448D01*
X45322810Y-53058990D01*
X45312197Y-53061801D01*
X45287260Y-53065121D01*
X45257845Y-53066630D01*
X45232053Y-53066496D01*
X45217459Y-53064232D01*
X45211596Y-53058149D01*
X45210518Y-53046575D01*
X45212311Y-53033359D01*
X45221020Y-53027276D01*
X45241384Y-53025886D01*
X45243732Y-53025864D01*
X45269839Y-53024221D01*
X45290768Y-53020811D01*
X45297419Y-53018813D01*
X45308832Y-53012402D01*
X45305505Y-53006792D01*
X45288756Y-53002816D01*
X45259903Y-53001306D01*
X45210518Y-53001306D01*
X45210518Y-52976614D01*
X45210518Y-52951922D01*
X45261960Y-52951660D01*
X45262104Y-52951659D01*
X45289455Y-52951181D01*
X45302819Y-52949535D01*
X45304655Y-52945865D01*
X45297425Y-52939314D01*
X45293405Y-52936841D01*
X45272100Y-52929984D01*
X45245983Y-52927230D01*
X45237522Y-52927172D01*
X45219510Y-52925426D01*
X45212014Y-52919190D01*
X45210518Y-52905724D01*
X45210663Y-52898183D01*
X45213062Y-52890257D01*
X45221237Y-52886575D01*
X45238740Y-52886033D01*
X45269126Y-52887530D01*
G37*
G36*
X42130172Y-52286760D02*
G01*
X42133552Y-52286891D01*
X42183971Y-52290265D01*
X42221514Y-52296538D01*
X42249494Y-52306913D01*
X42271226Y-52322594D01*
X42290022Y-52344782D01*
X42299200Y-52359968D01*
X42305831Y-52379184D01*
X42309769Y-52405469D01*
X42312060Y-52443512D01*
X42312413Y-52455427D01*
X42309761Y-52508772D01*
X42298978Y-52549906D01*
X42279205Y-52581040D01*
X42249585Y-52604386D01*
X42239260Y-52609902D01*
X42222227Y-52616275D01*
X42201117Y-52620082D01*
X42171806Y-52621950D01*
X42130172Y-52622504D01*
X42041691Y-52622693D01*
X42041691Y-52589770D01*
X42041691Y-52556847D01*
X42114856Y-52556847D01*
X42146767Y-52556144D01*
X42181495Y-52551993D01*
X42204663Y-52542998D01*
X42219048Y-52527892D01*
X42227424Y-52505405D01*
X42232782Y-52482771D01*
X42137237Y-52482771D01*
X42041691Y-52482771D01*
X42041691Y-52449848D01*
X42041691Y-52416925D01*
X42135574Y-52416925D01*
X42162417Y-52416881D01*
X42193886Y-52416409D01*
X42213220Y-52415008D01*
X42223088Y-52412182D01*
X42226159Y-52407433D01*
X42225100Y-52400265D01*
X42224877Y-52399431D01*
X42213263Y-52377068D01*
X42191588Y-52362093D01*
X42157973Y-52353698D01*
X42110543Y-52351079D01*
X42041691Y-52351079D01*
X42041691Y-52317246D01*
X42041691Y-52283413D01*
X42130172Y-52286760D01*
G37*
G36*
X38288483Y-52330502D02*
G01*
X38288820Y-52353111D01*
X38291139Y-52368385D01*
X38297275Y-52374596D01*
X38309060Y-52375771D01*
X38321181Y-52377122D01*
X38328100Y-52385098D01*
X38329637Y-52404579D01*
X38328778Y-52420719D01*
X38323389Y-52431014D01*
X38310202Y-52433386D01*
X38310103Y-52433386D01*
X38300904Y-52434276D01*
X38294945Y-52439029D01*
X38291228Y-52450790D01*
X38288752Y-52472704D01*
X38286517Y-52507918D01*
X38286015Y-52516401D01*
X38283162Y-52551151D01*
X38279106Y-52574354D01*
X38272842Y-52590124D01*
X38263364Y-52602571D01*
X38259327Y-52606665D01*
X38245019Y-52616741D01*
X38226027Y-52621498D01*
X38196511Y-52622693D01*
X38148561Y-52622693D01*
X38148561Y-52593885D01*
X38149838Y-52574943D01*
X38156564Y-52566713D01*
X38172964Y-52565078D01*
X38174165Y-52565069D01*
X38193494Y-52560824D01*
X38205878Y-52547294D01*
X38212466Y-52522213D01*
X38214407Y-52483312D01*
X38214407Y-52433386D01*
X38181484Y-52433386D01*
X38171769Y-52433322D01*
X38155712Y-52431220D01*
X38149558Y-52423023D01*
X38148561Y-52404579D01*
X38148635Y-52396079D01*
X38151037Y-52382028D01*
X38160405Y-52376644D01*
X38181484Y-52375771D01*
X38214407Y-52375771D01*
X38214407Y-52330502D01*
X38214407Y-52285234D01*
X38251445Y-52285234D01*
X38288483Y-52285234D01*
X38288483Y-52330502D01*
G37*
G36*
X43114689Y-52828597D02*
G01*
X43141428Y-52829872D01*
X43159327Y-52833448D01*
X43173042Y-52840465D01*
X43187230Y-52852068D01*
X43200311Y-52864957D01*
X43209472Y-52879659D01*
X43214363Y-52899581D01*
X43217132Y-52930343D01*
X43217834Y-52960687D01*
X43212460Y-53000933D01*
X43198160Y-53030438D01*
X43174071Y-53051633D01*
X43172677Y-53052466D01*
X43151987Y-53061129D01*
X43124284Y-53065746D01*
X43084935Y-53067121D01*
X43021147Y-53067152D01*
X43021147Y-53042460D01*
X43021147Y-53017768D01*
X43071072Y-53017768D01*
X43094265Y-53017103D01*
X43127524Y-53011914D01*
X43146689Y-53001211D01*
X43152839Y-52984555D01*
X43152618Y-52980551D01*
X43149335Y-52974011D01*
X43139506Y-52970344D01*
X43119826Y-52968738D01*
X43086993Y-52968383D01*
X43021147Y-52968383D01*
X43021147Y-52943691D01*
X43021147Y-52918999D01*
X43087596Y-52918999D01*
X43099321Y-52918970D01*
X43127923Y-52918275D01*
X43144078Y-52916138D01*
X43150852Y-52911875D01*
X43151311Y-52904802D01*
X43148957Y-52898219D01*
X43132545Y-52883143D01*
X43103519Y-52873315D01*
X43064358Y-52869736D01*
X43044821Y-52869419D01*
X43028924Y-52867171D01*
X43022405Y-52861034D01*
X43021147Y-52849038D01*
X43021763Y-52839188D01*
X43025793Y-52833053D01*
X43036497Y-52829861D01*
X43057138Y-52828651D01*
X43090978Y-52828461D01*
X43114689Y-52828597D01*
G37*
G36*
X39027065Y-53026152D02*
G01*
X39012787Y-53050690D01*
X39008589Y-53054527D01*
X38997460Y-53061033D01*
X38981185Y-53064869D01*
X38955999Y-53066690D01*
X38918133Y-53067152D01*
X38839942Y-53067152D01*
X38839987Y-53015710D01*
X38840166Y-53009537D01*
X38897557Y-53009537D01*
X38899302Y-53018835D01*
X38908649Y-53024573D01*
X38929994Y-53025998D01*
X38946187Y-53024863D01*
X38964087Y-53019213D01*
X38970282Y-53010474D01*
X38962399Y-53000512D01*
X38946579Y-52995410D01*
X38924306Y-52993201D01*
X38914398Y-52993508D01*
X38901043Y-52997885D01*
X38897557Y-53009537D01*
X38840166Y-53009537D01*
X38840865Y-52985370D01*
X38847139Y-52939910D01*
X38859501Y-52909489D01*
X38878011Y-52893915D01*
X38895165Y-52890121D01*
X38923453Y-52887196D01*
X38955707Y-52886076D01*
X38970227Y-52886109D01*
X38994252Y-52886891D01*
X39006951Y-52889709D01*
X39011928Y-52895864D01*
X39012787Y-52906653D01*
X39012191Y-52916223D01*
X39007452Y-52923623D01*
X38994450Y-52926649D01*
X38969091Y-52927230D01*
X38952889Y-52927939D01*
X38926877Y-52932006D01*
X38910009Y-52938480D01*
X38903535Y-52944366D01*
X38905543Y-52948398D01*
X38919117Y-52951109D01*
X38946698Y-52953498D01*
X38954140Y-52954079D01*
X38983050Y-52958000D01*
X39001379Y-52964788D01*
X39014011Y-52976082D01*
X39026240Y-52998614D01*
X39026595Y-53010474D01*
X39027065Y-53026152D01*
G37*
G36*
X41268276Y-52535120D02*
G01*
X41250743Y-52578068D01*
X41240881Y-52591946D01*
X41218425Y-52609994D01*
X41187338Y-52619760D01*
X41144156Y-52622693D01*
X41122049Y-52623406D01*
X41102633Y-52625793D01*
X41095159Y-52629278D01*
X41097419Y-52638050D01*
X41110869Y-52648099D01*
X41137638Y-52653809D01*
X41179112Y-52655616D01*
X41243312Y-52655616D01*
X41243312Y-52684423D01*
X41243312Y-52713231D01*
X41168971Y-52713231D01*
X41135509Y-52712550D01*
X41092609Y-52708176D01*
X41062259Y-52699069D01*
X41042264Y-52684441D01*
X41030427Y-52663504D01*
X41029409Y-52659936D01*
X41026033Y-52637275D01*
X41023401Y-52601981D01*
X41021692Y-52557062D01*
X41021082Y-52505526D01*
X41021082Y-52433386D01*
X41095159Y-52433386D01*
X41095159Y-52499232D01*
X41095159Y-52565078D01*
X41126250Y-52565078D01*
X41148245Y-52563532D01*
X41174657Y-52553378D01*
X41189368Y-52532447D01*
X41193927Y-52499232D01*
X41192338Y-52477832D01*
X41181902Y-52452135D01*
X41160389Y-52437823D01*
X41126250Y-52433386D01*
X41095159Y-52433386D01*
X41021082Y-52433386D01*
X41021082Y-52374355D01*
X41115599Y-52377121D01*
X41148223Y-52378151D01*
X41178782Y-52379754D01*
X41199212Y-52382430D01*
X41213092Y-52387019D01*
X41223999Y-52394364D01*
X41235510Y-52405303D01*
X41240399Y-52410507D01*
X41262753Y-52447349D01*
X41272162Y-52490217D01*
X41271382Y-52499232D01*
X41268276Y-52535120D01*
G37*
G36*
X40255483Y-52377058D02*
G01*
X40269229Y-52377543D01*
X40302459Y-52379158D01*
X40324571Y-52381791D01*
X40339597Y-52386541D01*
X40351576Y-52394509D01*
X40364540Y-52406795D01*
X40373774Y-52416322D01*
X40383648Y-52429373D01*
X40388927Y-52444193D01*
X40391045Y-52465679D01*
X40391432Y-52498727D01*
X40391414Y-52506943D01*
X40390553Y-52538033D01*
X40387585Y-52558396D01*
X40381392Y-52572770D01*
X40370855Y-52585892D01*
X40369335Y-52587499D01*
X40350605Y-52604213D01*
X40333817Y-52614841D01*
X40330023Y-52615993D01*
X40309931Y-52618981D01*
X40280053Y-52621177D01*
X40245337Y-52622171D01*
X40173318Y-52622693D01*
X40173318Y-52593885D01*
X40173318Y-52565078D01*
X40230260Y-52565078D01*
X40234048Y-52565072D01*
X40272226Y-52563928D01*
X40296581Y-52560377D01*
X40309468Y-52553810D01*
X40313240Y-52543621D01*
X40311141Y-52538976D01*
X40300610Y-52534903D01*
X40278856Y-52532771D01*
X40243279Y-52532155D01*
X40173318Y-52532155D01*
X40173318Y-52499232D01*
X40173318Y-52466309D01*
X40243279Y-52466309D01*
X40271617Y-52465965D01*
X40296475Y-52464239D01*
X40309483Y-52460674D01*
X40313240Y-52454844D01*
X40313218Y-52453864D01*
X40308791Y-52443992D01*
X40295059Y-52437694D01*
X40269667Y-52434362D01*
X40230260Y-52433386D01*
X40173318Y-52433386D01*
X40173318Y-52403808D01*
X40173318Y-52374229D01*
X40255483Y-52377058D01*
G37*
G36*
X40042059Y-53011136D02*
G01*
X40036540Y-53036412D01*
X40023334Y-53054339D01*
X40021523Y-53055525D01*
X40003515Y-53062253D01*
X39974889Y-53065994D01*
X39932796Y-53067152D01*
X39860551Y-53067152D01*
X39860652Y-53009537D01*
X39909935Y-53009537D01*
X39911681Y-53018835D01*
X39921027Y-53024573D01*
X39942372Y-53025998D01*
X39958565Y-53024863D01*
X39976466Y-53019213D01*
X39982660Y-53010474D01*
X39974778Y-53000512D01*
X39958957Y-52995410D01*
X39936685Y-52993201D01*
X39926777Y-52993508D01*
X39913421Y-52997885D01*
X39909935Y-53009537D01*
X39860652Y-53009537D01*
X39860677Y-52995133D01*
X39860804Y-52981665D01*
X39861978Y-52949962D01*
X39864104Y-52925968D01*
X39866850Y-52914058D01*
X39870461Y-52909451D01*
X39890981Y-52896172D01*
X39923990Y-52888527D01*
X39971124Y-52886076D01*
X39993617Y-52886158D01*
X40016199Y-52887115D01*
X40028055Y-52890090D01*
X40032636Y-52896222D01*
X40033396Y-52906653D01*
X40032718Y-52916636D01*
X40027772Y-52923769D01*
X40014485Y-52926676D01*
X39988800Y-52927230D01*
X39971508Y-52927581D01*
X39946498Y-52929391D01*
X39931185Y-52932226D01*
X39922706Y-52936413D01*
X39918530Y-52943943D01*
X39928346Y-52949655D01*
X39950553Y-52951922D01*
X39960055Y-52952198D01*
X39992459Y-52957058D01*
X40019303Y-52966637D01*
X40035160Y-52979187D01*
X40038664Y-52986305D01*
X40041968Y-53010474D01*
X40042059Y-53011136D01*
G37*
G36*
X44911753Y-53011681D02*
G01*
X44893364Y-53040778D01*
X44864215Y-53060128D01*
X44826194Y-53067152D01*
X44816493Y-53067385D01*
X44798720Y-53070108D01*
X44794867Y-53075383D01*
X44802090Y-53078994D01*
X44821894Y-53082327D01*
X44848852Y-53083613D01*
X44849727Y-53083613D01*
X44876563Y-53084089D01*
X44890923Y-53086588D01*
X44896691Y-53092743D01*
X44897751Y-53104190D01*
X44897471Y-53111942D01*
X44894446Y-53119229D01*
X44885247Y-53123051D01*
X44866445Y-53124524D01*
X44834611Y-53124767D01*
X44804018Y-53124425D01*
X44777968Y-53121805D01*
X44760372Y-53114543D01*
X44749571Y-53100275D01*
X44743908Y-53076638D01*
X44741726Y-53041267D01*
X44741367Y-52991800D01*
X44741367Y-52975733D01*
X44790752Y-52975733D01*
X44790814Y-52984827D01*
X44792921Y-53011325D01*
X44799832Y-53024173D01*
X44813989Y-53025542D01*
X44837832Y-53017602D01*
X44842203Y-53015459D01*
X44856195Y-53000294D01*
X44861855Y-52979598D01*
X44859527Y-52958486D01*
X44849556Y-52942069D01*
X44832289Y-52935460D01*
X44823543Y-52934879D01*
X44803771Y-52930464D01*
X44799012Y-52929404D01*
X44793825Y-52933609D01*
X44791371Y-52948013D01*
X44790752Y-52975733D01*
X44741367Y-52975733D01*
X44741367Y-52886076D01*
X44801988Y-52886076D01*
X44805919Y-52886092D01*
X44849497Y-52889605D01*
X44880262Y-52900202D01*
X44900692Y-52919266D01*
X44913265Y-52948181D01*
X44917494Y-52975418D01*
X44916832Y-52979598D01*
X44911753Y-53011681D01*
G37*
G36*
X44194615Y-53031899D02*
G01*
X44184518Y-53052100D01*
X44182659Y-53054026D01*
X44172586Y-53060664D01*
X44156842Y-53064666D01*
X44131836Y-53066630D01*
X44093980Y-53067152D01*
X44017064Y-53067152D01*
X44017064Y-53009537D01*
X44074679Y-53009537D01*
X44076215Y-53018439D01*
X44085243Y-53024486D01*
X44106230Y-53025998D01*
X44111602Y-53025921D01*
X44132133Y-53024090D01*
X44143197Y-53020583D01*
X44145843Y-53014598D01*
X44139482Y-53004523D01*
X44123634Y-52996408D01*
X44102479Y-52993075D01*
X44091032Y-52993518D01*
X44078041Y-52998032D01*
X44074679Y-53009537D01*
X44017064Y-53009537D01*
X44017064Y-52996817D01*
X44017149Y-52977991D01*
X44018217Y-52949320D01*
X44021284Y-52930689D01*
X44027312Y-52917781D01*
X44037267Y-52906279D01*
X44040782Y-52902869D01*
X44052702Y-52893933D01*
X44067471Y-52888861D01*
X44089623Y-52886596D01*
X44123689Y-52886076D01*
X44151980Y-52886206D01*
X44173598Y-52887287D01*
X44184892Y-52890362D01*
X44189213Y-52896470D01*
X44189909Y-52906653D01*
X44189232Y-52916636D01*
X44184286Y-52923769D01*
X44170998Y-52926676D01*
X44145313Y-52927230D01*
X44112579Y-52928543D01*
X44087475Y-52932462D01*
X44075128Y-52937959D01*
X44076412Y-52943989D01*
X44092201Y-52949506D01*
X44123371Y-52953465D01*
X44144883Y-52955928D01*
X44170073Y-52961338D01*
X44185101Y-52967808D01*
X44193884Y-52981790D01*
X44197754Y-53006063D01*
X44196717Y-53014598D01*
X44194615Y-53031899D01*
G37*
G36*
X40861020Y-52575273D02*
G01*
X40844496Y-52602490D01*
X40835674Y-52610560D01*
X40825905Y-52616261D01*
X40812302Y-52619825D01*
X40791708Y-52621751D01*
X40760966Y-52622541D01*
X40716920Y-52622693D01*
X40609546Y-52622693D01*
X40609546Y-52544501D01*
X40683623Y-52544501D01*
X40683624Y-52545406D01*
X40684842Y-52556410D01*
X40690951Y-52562291D01*
X40705807Y-52564648D01*
X40733265Y-52565078D01*
X40734424Y-52565077D01*
X40763913Y-52563847D01*
X40780613Y-52559731D01*
X40787964Y-52551901D01*
X40789421Y-52545837D01*
X40783411Y-52533639D01*
X40762745Y-52526466D01*
X40726834Y-52524050D01*
X40707152Y-52524258D01*
X40691336Y-52526416D01*
X40684865Y-52532514D01*
X40683623Y-52544501D01*
X40609546Y-52544501D01*
X40609546Y-52532542D01*
X40610442Y-52483545D01*
X40614829Y-52441754D01*
X40624779Y-52412329D01*
X40642352Y-52393145D01*
X40669608Y-52382075D01*
X40708605Y-52376993D01*
X40761406Y-52375771D01*
X40848237Y-52375771D01*
X40848237Y-52404579D01*
X40848237Y-52433386D01*
X40775807Y-52433386D01*
X40736696Y-52434520D01*
X40706186Y-52438804D01*
X40689007Y-52446679D01*
X40683623Y-52458565D01*
X40685110Y-52459755D01*
X40698669Y-52462817D01*
X40723334Y-52465892D01*
X40755379Y-52468466D01*
X40775123Y-52469795D01*
X40803907Y-52472721D01*
X40822517Y-52477051D01*
X40835130Y-52483999D01*
X40845917Y-52494777D01*
X40856482Y-52510783D01*
X40865040Y-52542843D01*
X40864669Y-52545837D01*
X40861020Y-52575273D01*
G37*
G36*
X45638371Y-52578721D02*
G01*
X45619769Y-52606594D01*
X45616593Y-52609370D01*
X45606951Y-52615253D01*
X45593282Y-52619120D01*
X45572479Y-52621377D01*
X45541435Y-52622432D01*
X45497042Y-52622693D01*
X45391594Y-52622693D01*
X45391594Y-52544501D01*
X45465671Y-52544501D01*
X45465671Y-52544575D01*
X45466756Y-52556026D01*
X45472602Y-52562157D01*
X45487109Y-52564623D01*
X45514174Y-52565078D01*
X45533360Y-52564594D01*
X45557088Y-52561033D01*
X45567031Y-52553735D01*
X45568267Y-52549427D01*
X45563625Y-52535388D01*
X45543842Y-52526822D01*
X45509293Y-52523924D01*
X45489078Y-52524202D01*
X45473342Y-52526430D01*
X45466905Y-52532552D01*
X45465671Y-52544501D01*
X45391594Y-52544501D01*
X45391594Y-52523291D01*
X45391710Y-52481925D01*
X45392499Y-52452895D01*
X45394624Y-52433574D01*
X45398750Y-52420558D01*
X45405538Y-52410445D01*
X45415653Y-52399830D01*
X45424760Y-52391045D01*
X45434953Y-52383659D01*
X45447563Y-52379146D01*
X45466099Y-52376799D01*
X45494074Y-52375910D01*
X45534999Y-52375771D01*
X45630285Y-52375771D01*
X45630285Y-52404579D01*
X45630285Y-52433386D01*
X45557855Y-52433386D01*
X45514904Y-52434777D01*
X45486371Y-52439293D01*
X45470551Y-52447440D01*
X45465671Y-52459725D01*
X45470390Y-52462587D01*
X45487569Y-52465292D01*
X45512997Y-52466355D01*
X45514918Y-52466360D01*
X45563087Y-52469008D01*
X45597752Y-52477096D01*
X45621152Y-52491475D01*
X45635525Y-52512999D01*
X45643156Y-52544747D01*
X45642497Y-52549427D01*
X45638371Y-52578721D01*
G37*
G36*
X44570455Y-52577247D02*
G01*
X44551851Y-52606441D01*
X44548006Y-52609973D01*
X44538729Y-52615625D01*
X44525202Y-52619321D01*
X44504373Y-52621463D01*
X44473189Y-52622452D01*
X44428600Y-52622693D01*
X44321601Y-52622693D01*
X44321601Y-52544501D01*
X44395677Y-52544501D01*
X44395677Y-52544869D01*
X44396808Y-52556162D01*
X44402746Y-52562205D01*
X44417374Y-52564632D01*
X44444576Y-52565078D01*
X44469058Y-52564164D01*
X44492446Y-52559289D01*
X44500651Y-52549964D01*
X44494147Y-52535910D01*
X44492248Y-52534020D01*
X44473015Y-52526510D01*
X44439938Y-52523924D01*
X44418789Y-52524225D01*
X44403235Y-52526489D01*
X44396888Y-52532616D01*
X44395677Y-52544501D01*
X44321601Y-52544501D01*
X44321601Y-52524383D01*
X44321652Y-52499700D01*
X44322241Y-52465020D01*
X44323950Y-52441466D01*
X44327343Y-52425581D01*
X44332987Y-52413905D01*
X44341446Y-52402980D01*
X44349383Y-52394260D01*
X44358534Y-52387290D01*
X44370953Y-52382807D01*
X44389938Y-52380097D01*
X44418785Y-52378446D01*
X44460791Y-52377140D01*
X44560292Y-52374393D01*
X44560292Y-52403890D01*
X44560292Y-52433386D01*
X44487861Y-52433386D01*
X44444910Y-52434777D01*
X44416378Y-52439293D01*
X44400557Y-52447440D01*
X44395677Y-52459725D01*
X44401873Y-52462904D01*
X44420464Y-52465574D01*
X44447119Y-52466774D01*
X44453077Y-52466855D01*
X44498934Y-52470238D01*
X44531611Y-52479106D01*
X44553536Y-52494483D01*
X44567140Y-52517396D01*
X44573642Y-52542793D01*
X44572979Y-52549964D01*
X44570455Y-52577247D01*
G37*
G36*
X44703399Y-48666119D02*
G01*
X44703368Y-48681834D01*
X44698833Y-48848306D01*
X44684936Y-48974792D01*
X44659257Y-49067275D01*
X44619379Y-49131739D01*
X44562882Y-49174167D01*
X44487347Y-49200541D01*
X44426878Y-49209892D01*
X44337290Y-49217463D01*
X44239898Y-49221248D01*
X44069704Y-49223651D01*
X44069704Y-49141488D01*
X44069704Y-49059326D01*
X44234029Y-49059326D01*
X44291811Y-49058700D01*
X44372352Y-49051744D01*
X44427865Y-49031552D01*
X44462982Y-48991390D01*
X44482332Y-48924522D01*
X44490546Y-48824212D01*
X44492255Y-48683725D01*
X44492255Y-48402024D01*
X44597892Y-48402024D01*
X44703530Y-48402024D01*
X44703399Y-48666119D01*
G37*
G36*
X41180230Y-47020950D02*
G01*
X41194606Y-47077308D01*
X41248987Y-47360359D01*
X41341856Y-47763606D01*
X41450886Y-48165309D01*
X41570286Y-48542875D01*
X41695810Y-48880571D01*
X41890253Y-49313527D01*
X42110118Y-49709285D01*
X42356563Y-50069871D01*
X42630747Y-50397311D01*
X42788860Y-50568088D01*
X42707424Y-50637054D01*
X42692655Y-50649205D01*
X42616575Y-50705050D01*
X42543826Y-50750212D01*
X42526536Y-50759456D01*
X42477862Y-50784770D01*
X42455077Y-50795442D01*
X42447009Y-50791246D01*
X42413320Y-50757547D01*
X42360274Y-50695577D01*
X42293166Y-50611852D01*
X42217290Y-50512885D01*
X42137938Y-50405191D01*
X42008033Y-50214929D01*
X41779594Y-49819621D01*
X41585070Y-49394531D01*
X41426096Y-48943020D01*
X41382674Y-48789769D01*
X41327212Y-48564701D01*
X41275608Y-48323586D01*
X41229584Y-48076556D01*
X41190859Y-47833748D01*
X41161154Y-47605294D01*
X41142189Y-47401329D01*
X41135683Y-47231987D01*
X41136418Y-47183254D01*
X41142215Y-47092662D01*
X41152484Y-47032699D01*
X41165673Y-47007438D01*
X41180230Y-47020950D01*
G37*
G36*
X39283614Y-48000999D02*
G01*
X39297657Y-48039347D01*
X39316226Y-48117089D01*
X39340828Y-48237699D01*
X39368713Y-48370073D01*
X39433568Y-48632300D01*
X39511503Y-48902097D01*
X39599310Y-49170446D01*
X39693780Y-49428327D01*
X39791705Y-49666721D01*
X39889878Y-49876611D01*
X39985091Y-50048976D01*
X40014733Y-50098464D01*
X40044104Y-50151295D01*
X40055471Y-50177392D01*
X40055228Y-50178137D01*
X40029648Y-50183409D01*
X39970188Y-50184803D01*
X39888586Y-50181996D01*
X39864678Y-50180517D01*
X39775776Y-50170821D01*
X39721105Y-50154744D01*
X39690230Y-50129525D01*
X39658899Y-50073183D01*
X39618001Y-49975841D01*
X39571805Y-49847947D01*
X39522688Y-49697430D01*
X39473028Y-49532222D01*
X39425202Y-49360253D01*
X39381589Y-49189453D01*
X39344567Y-49027753D01*
X39316513Y-48883084D01*
X39306722Y-48821708D01*
X39287745Y-48677252D01*
X39272185Y-48524553D01*
X39260796Y-48374541D01*
X39254329Y-48238142D01*
X39253537Y-48126285D01*
X39259172Y-48049899D01*
X39263061Y-48028601D01*
X39272585Y-47998575D01*
X39283614Y-48000999D01*
G37*
G36*
X40497061Y-48983276D02*
G01*
X40539804Y-49079256D01*
X40570203Y-49148329D01*
X40584731Y-49182570D01*
X40587102Y-49189365D01*
X40585877Y-49211319D01*
X40557481Y-49221295D01*
X40492081Y-49223651D01*
X40449465Y-49223069D01*
X40400893Y-49214640D01*
X40372224Y-49187242D01*
X40346170Y-49129751D01*
X40308599Y-49035851D01*
X40125896Y-49035851D01*
X39943194Y-49035851D01*
X39905622Y-49129751D01*
X39885990Y-49175697D01*
X39860966Y-49208898D01*
X39821390Y-49221603D01*
X39751066Y-49223651D01*
X39715140Y-49224524D01*
X39682511Y-49224805D01*
X39661593Y-49219239D01*
X39653407Y-49202519D01*
X39658977Y-49169339D01*
X39679325Y-49114392D01*
X39715472Y-49032373D01*
X39768441Y-48917973D01*
X39790068Y-48871525D01*
X40010189Y-48871525D01*
X40124575Y-48871525D01*
X40238961Y-48871525D01*
X40188518Y-48743366D01*
X40163967Y-48687297D01*
X40138071Y-48642585D01*
X40121740Y-48631859D01*
X40112821Y-48645079D01*
X40088024Y-48693144D01*
X40057798Y-48760019D01*
X40010189Y-48871525D01*
X39790068Y-48871525D01*
X39839255Y-48765888D01*
X40002529Y-48413762D01*
X40118227Y-48406828D01*
X40233924Y-48399895D01*
X40401483Y-48770692D01*
X40445498Y-48868314D01*
X40446938Y-48871525D01*
X40497061Y-48983276D01*
G37*
G36*
X39682257Y-46949499D02*
G01*
X39814262Y-46988177D01*
X39951548Y-47070225D01*
X40091256Y-47193670D01*
X40230530Y-47356538D01*
X40298065Y-47451929D01*
X40423612Y-47663861D01*
X40539834Y-47903700D01*
X40643088Y-48160942D01*
X40729736Y-48425086D01*
X40796134Y-48685629D01*
X40838644Y-48932067D01*
X40853623Y-49153899D01*
X40851585Y-49236916D01*
X40845798Y-49311380D01*
X40837577Y-49355526D01*
X40836874Y-49357286D01*
X40823690Y-49367569D01*
X40805905Y-49339554D01*
X40781003Y-49269414D01*
X40779744Y-49265440D01*
X40756073Y-49190693D01*
X40722798Y-49085578D01*
X40684158Y-48963495D01*
X40644397Y-48837845D01*
X40623940Y-48775505D01*
X40554396Y-48586877D01*
X40473300Y-48393974D01*
X40385461Y-48206703D01*
X40295691Y-48034968D01*
X40208800Y-47888676D01*
X40129598Y-47777734D01*
X40105417Y-47749056D01*
X39982025Y-47625937D01*
X39856843Y-47536679D01*
X39734909Y-47483620D01*
X39621262Y-47469096D01*
X39520941Y-47495445D01*
X39492015Y-47515743D01*
X39429572Y-47590795D01*
X39362028Y-47710564D01*
X39290125Y-47873836D01*
X39277023Y-47894439D01*
X39266695Y-47879092D01*
X39261668Y-47826657D01*
X39262085Y-47742274D01*
X39268087Y-47631086D01*
X39279813Y-47498235D01*
X39297493Y-47363334D01*
X39333371Y-47205093D01*
X39383259Y-47087374D01*
X39449147Y-47007099D01*
X39533027Y-46961190D01*
X39636892Y-46946571D01*
X39682257Y-46949499D01*
G37*
G36*
X42335724Y-48402629D02*
G01*
X42422281Y-48406327D01*
X42482334Y-48415111D01*
X42527575Y-48430927D01*
X42569698Y-48455719D01*
X42581734Y-48464103D01*
X42653255Y-48533431D01*
X42698437Y-48624077D01*
X42723469Y-48747797D01*
X42727503Y-48809983D01*
X42711731Y-48944575D01*
X42663907Y-49059085D01*
X42587904Y-49146115D01*
X42487592Y-49198272D01*
X42474676Y-49201398D01*
X42406595Y-49210971D01*
X42312712Y-49218137D01*
X42209306Y-49221534D01*
X42003900Y-49223651D01*
X42003900Y-49141488D01*
X42003900Y-49059326D01*
X42188534Y-49059326D01*
X42263562Y-49058235D01*
X42340334Y-49051604D01*
X42393029Y-49036629D01*
X42435022Y-49010672D01*
X42437387Y-49008779D01*
X42479482Y-48961831D01*
X42496876Y-48916772D01*
X42496809Y-48912805D01*
X42491804Y-48893897D01*
X42472927Y-48881833D01*
X42431910Y-48875095D01*
X42360487Y-48872165D01*
X42250388Y-48871525D01*
X42003900Y-48871525D01*
X42003900Y-48789363D01*
X42003900Y-48707200D01*
X42250388Y-48707200D01*
X42329257Y-48706499D01*
X42415913Y-48703738D01*
X42475019Y-48699371D01*
X42496876Y-48693919D01*
X42495234Y-48676852D01*
X42461641Y-48621218D01*
X42388087Y-48579116D01*
X42279018Y-48552420D01*
X42138881Y-48543006D01*
X42126388Y-48542990D01*
X42055844Y-48541418D01*
X42019450Y-48533076D01*
X42005903Y-48512056D01*
X42003900Y-48472449D01*
X42003900Y-48402024D01*
X42246916Y-48402024D01*
X42335724Y-48402629D01*
G37*
G36*
X45889617Y-50318266D02*
G01*
X45877968Y-50395010D01*
X45828780Y-50581179D01*
X45751633Y-50779749D01*
X45651789Y-50978187D01*
X45534512Y-51163957D01*
X45497029Y-51214326D01*
X45333955Y-51391851D01*
X45143965Y-51544601D01*
X44937275Y-51665233D01*
X44724100Y-51746405D01*
X44714896Y-51748861D01*
X44637178Y-51763542D01*
X44536391Y-51772555D01*
X44404640Y-51776367D01*
X44234029Y-51775445D01*
X44208911Y-51775027D01*
X44072339Y-51771943D01*
X43969584Y-51767046D01*
X43889288Y-51758784D01*
X43820090Y-51745602D01*
X43750632Y-51725947D01*
X43669555Y-51698268D01*
X43668213Y-51697791D01*
X43479468Y-51618579D01*
X43286042Y-51516316D01*
X43104988Y-51400907D01*
X42953355Y-51282257D01*
X42824986Y-51167842D01*
X42930894Y-51050047D01*
X42984101Y-50988873D01*
X43022411Y-50940991D01*
X43037161Y-50917184D01*
X43039559Y-50906813D01*
X43057859Y-50870012D01*
X43067908Y-50860669D01*
X43096020Y-50861804D01*
X43145316Y-50886078D01*
X43223524Y-50936597D01*
X43319636Y-50998030D01*
X43563608Y-51123986D01*
X43811478Y-51212259D01*
X43837628Y-51218699D01*
X43958212Y-51237902D01*
X44108830Y-51250412D01*
X44276731Y-51256225D01*
X44449165Y-51255340D01*
X44613381Y-51247754D01*
X44756629Y-51233464D01*
X44866160Y-51212467D01*
X44918891Y-51196999D01*
X45160396Y-51098494D01*
X45373979Y-50962249D01*
X45559621Y-50788280D01*
X45717301Y-50576606D01*
X45847000Y-50327244D01*
X45902814Y-50197865D01*
X45889617Y-50318266D01*
G37*
G36*
X37923891Y-48737215D02*
G01*
X37946021Y-48799563D01*
X37978059Y-48906738D01*
X37990405Y-48947188D01*
X38092321Y-49189401D01*
X38235491Y-49412640D01*
X38417683Y-49615032D01*
X38636668Y-49794702D01*
X38890214Y-49949777D01*
X39176092Y-50078382D01*
X39492070Y-50178644D01*
X39494749Y-50179335D01*
X39720991Y-50221875D01*
X39936114Y-50231774D01*
X40132357Y-50209262D01*
X40301959Y-50154570D01*
X40357282Y-50127172D01*
X40494923Y-50035336D01*
X40605834Y-49918404D01*
X40695688Y-49769428D01*
X40770161Y-49581463D01*
X40788768Y-49530801D01*
X40812297Y-49483175D01*
X40828744Y-49469271D01*
X40832292Y-49472278D01*
X40848676Y-49513476D01*
X40859377Y-49588543D01*
X40863828Y-49686640D01*
X40861462Y-49796927D01*
X40851713Y-49908564D01*
X40834987Y-50011629D01*
X40780237Y-50206593D01*
X40700593Y-50376895D01*
X40599446Y-50517308D01*
X40480187Y-50622610D01*
X40346204Y-50687573D01*
X40337412Y-50690134D01*
X40237950Y-50708533D01*
X40107310Y-50719798D01*
X39959165Y-50723855D01*
X39807187Y-50720626D01*
X39665049Y-50710037D01*
X39546423Y-50692011D01*
X39446719Y-50668406D01*
X39151230Y-50568912D01*
X38875885Y-50431342D01*
X38624971Y-50258949D01*
X38402774Y-50054984D01*
X38213579Y-49822700D01*
X38061673Y-49565350D01*
X38003954Y-49438560D01*
X37940921Y-49255769D01*
X37906763Y-49075272D01*
X37897356Y-48879874D01*
X37898277Y-48812917D01*
X37901887Y-48744514D01*
X37909803Y-48719072D01*
X37923891Y-48737215D01*
G37*
G36*
X43256606Y-49743675D02*
G01*
X43264252Y-49780979D01*
X43269563Y-49850214D01*
X43271552Y-49940630D01*
X43270662Y-49997569D01*
X43242024Y-50267174D01*
X43175104Y-50524319D01*
X43072679Y-50763473D01*
X42937526Y-50979107D01*
X42772421Y-51165688D01*
X42580143Y-51317686D01*
X42571979Y-51322898D01*
X42438510Y-51393049D01*
X42275088Y-51457439D01*
X42097551Y-51510557D01*
X41921737Y-51546887D01*
X41845098Y-51554519D01*
X41734397Y-51559766D01*
X41606281Y-51561909D01*
X41475711Y-51560492D01*
X41403635Y-51558230D01*
X41274585Y-51550997D01*
X41171143Y-51538928D01*
X41078722Y-51520003D01*
X40982735Y-51492200D01*
X40796407Y-51419240D01*
X40601309Y-51314189D01*
X40434333Y-51192889D01*
X40395390Y-51157587D01*
X40326989Y-51089345D01*
X40256356Y-51013079D01*
X40190553Y-50937054D01*
X40136645Y-50869539D01*
X40101695Y-50818801D01*
X40092767Y-50793108D01*
X40112469Y-50780633D01*
X40160403Y-50773004D01*
X40201234Y-50768077D01*
X40275633Y-50751711D01*
X40360702Y-50727847D01*
X40505790Y-50682691D01*
X40608136Y-50760814D01*
X40626726Y-50774820D01*
X40754718Y-50859896D01*
X40884458Y-50923210D01*
X41024724Y-50966900D01*
X41184289Y-50993103D01*
X41371930Y-51003957D01*
X41596421Y-51001601D01*
X41856433Y-50985276D01*
X42095545Y-50951371D01*
X42301335Y-50898552D01*
X42479528Y-50824907D01*
X42635846Y-50728522D01*
X42776012Y-50607487D01*
X42840729Y-50539940D01*
X42982229Y-50362328D01*
X43088658Y-50174073D01*
X43168144Y-49961792D01*
X43187442Y-49899992D01*
X43215915Y-49817602D01*
X43239051Y-49761086D01*
X43253149Y-49740102D01*
X43256606Y-49743675D01*
G37*
G36*
X41533785Y-45961262D02*
G01*
X41604118Y-45971426D01*
X41673241Y-45999019D01*
X41759641Y-46050537D01*
X41804521Y-46081888D01*
X41923583Y-46181033D01*
X42053709Y-46307783D01*
X42186271Y-46452908D01*
X42312636Y-46607176D01*
X42424176Y-46761355D01*
X42425355Y-46763116D01*
X42556597Y-46975381D01*
X42686531Y-47215576D01*
X42811330Y-47474339D01*
X42927166Y-47742305D01*
X43030214Y-48010111D01*
X43116644Y-48268394D01*
X43182630Y-48507791D01*
X43224345Y-48718937D01*
X43230447Y-48766110D01*
X43240902Y-48871791D01*
X43250331Y-48996194D01*
X43258332Y-49129961D01*
X43264502Y-49263731D01*
X43268437Y-49388147D01*
X43269734Y-49493848D01*
X43267990Y-49571476D01*
X43262802Y-49611670D01*
X43252271Y-49633404D01*
X43238146Y-49643693D01*
X43234272Y-49632172D01*
X43221951Y-49581470D01*
X43203452Y-49497806D01*
X43180512Y-49389119D01*
X43154870Y-49263349D01*
X43097645Y-49005045D01*
X42956132Y-48513820D01*
X42775481Y-48045366D01*
X42553750Y-47594957D01*
X42288996Y-47157869D01*
X42186043Y-47015063D01*
X42066007Y-46871968D01*
X41941161Y-46743432D01*
X41817349Y-46634564D01*
X41700412Y-46550474D01*
X41596194Y-46496273D01*
X41510538Y-46477071D01*
X41449172Y-46484331D01*
X41378879Y-46519245D01*
X41318990Y-46587236D01*
X41265756Y-46692925D01*
X41215428Y-46840934D01*
X41194942Y-46907697D01*
X41179060Y-46946451D01*
X41167699Y-46949791D01*
X41157037Y-46923096D01*
X41152541Y-46899774D01*
X41145583Y-46830341D01*
X41140329Y-46735279D01*
X41137663Y-46628050D01*
X41138190Y-46541030D01*
X41150191Y-46379411D01*
X41179045Y-46250218D01*
X41227152Y-46144815D01*
X41296909Y-46054567D01*
X41330326Y-46020569D01*
X41379932Y-45981180D01*
X41431012Y-45964239D01*
X41503650Y-45960620D01*
X41533785Y-45961262D01*
G37*
%TD*%
M02*
