%TF.GenerationSoftware,KiCad,Pcbnew,9.0.4*%
%TF.CreationDate,2025-10-04T22:45:10-03:00*%
%TF.ProjectId,encoder_magnetico,656e636f-6465-4725-9f6d-61676e657469,rev?*%
%TF.SameCoordinates,Original*%
%TF.FileFunction,Copper,L2,Bot*%
%TF.FilePolarity,Positive*%
%FSLAX46Y46*%
G04 Gerber Fmt 4.6, Leading zero omitted, Abs format (unit mm)*
G04 Created by KiCad (PCBNEW 9.0.4) date 2025-10-04 22:45:10*
%MOMM*%
%LPD*%
G01*
G04 APERTURE LIST*
%TA.AperFunction,ViaPad*%
%ADD10C,0.800000*%
%TD*%
G04 APERTURE END LIST*
D10*
%TO.N,GND*%
X43180000Y-49530000D03*
X50800000Y-45085000D03*
X47625000Y-59055000D03*
%TD*%
%TA.AperFunction,Conductor*%
%TO.N,GND*%
G36*
X50265134Y-37104932D02*
G01*
X50265638Y-37104939D01*
X50361860Y-37106276D01*
X50366470Y-37106429D01*
X50925768Y-37135741D01*
X50927562Y-37135850D01*
X51051379Y-37144470D01*
X51055609Y-37144839D01*
X51595901Y-37201626D01*
X51598249Y-37201897D01*
X51736710Y-37219311D01*
X51740520Y-37219852D01*
X52267838Y-37303371D01*
X52270527Y-37303829D01*
X52415498Y-37330316D01*
X52418878Y-37330984D01*
X52937254Y-37441169D01*
X52940500Y-37441904D01*
X53006305Y-37457751D01*
X53085221Y-37476755D01*
X53088278Y-37477532D01*
X53601220Y-37614975D01*
X53604652Y-37615950D01*
X53743327Y-37657622D01*
X53745866Y-37658416D01*
X54256644Y-37824378D01*
X54260514Y-37825707D01*
X54386582Y-37871371D01*
X54388486Y-37872082D01*
X54901380Y-38068963D01*
X54905545Y-38070650D01*
X55010391Y-38115365D01*
X55012181Y-38116145D01*
X55168784Y-38185869D01*
X55533108Y-38348076D01*
X55537511Y-38350143D01*
X55608794Y-38385347D01*
X55610056Y-38385980D01*
X56149704Y-38660945D01*
X56154399Y-38663467D01*
X56168360Y-38671356D01*
X56169346Y-38671918D01*
X56737178Y-38999756D01*
X56742677Y-39003126D01*
X57303651Y-39367427D01*
X57308967Y-39371080D01*
X57787351Y-39718647D01*
X57850084Y-39764225D01*
X57855229Y-39768172D01*
X57910410Y-39812857D01*
X58375034Y-40189102D01*
X58379970Y-40193318D01*
X58877020Y-40640863D01*
X58881729Y-40645332D01*
X59354667Y-41118270D01*
X59359136Y-41122979D01*
X59785829Y-41596870D01*
X59786671Y-41597815D01*
X59812264Y-41626829D01*
X59815638Y-41630820D01*
X60189071Y-42091971D01*
X60190111Y-42093274D01*
X60246649Y-42165044D01*
X60249561Y-42168892D01*
X60580483Y-42624366D01*
X60581685Y-42626049D01*
X60651090Y-42725006D01*
X60653565Y-42728673D01*
X60950382Y-43185733D01*
X60951707Y-43187818D01*
X61024398Y-43304790D01*
X61026465Y-43308240D01*
X61293838Y-43771345D01*
X61295245Y-43773849D01*
X61365508Y-43902332D01*
X61367199Y-43905533D01*
X61607904Y-44377942D01*
X61609352Y-44380879D01*
X61673441Y-44515322D01*
X61674776Y-44518218D01*
X61785722Y-44767407D01*
X61890578Y-45002919D01*
X61892006Y-45006258D01*
X61914298Y-45060609D01*
X61947266Y-45140990D01*
X61948304Y-45143606D01*
X62140329Y-45643848D01*
X62141728Y-45647680D01*
X62186235Y-45776098D01*
X62187003Y-45778386D01*
X62356038Y-46298622D01*
X62357346Y-46302909D01*
X62389593Y-46415896D01*
X62390129Y-46417833D01*
X62536748Y-46965023D01*
X62537918Y-46969763D01*
X62556827Y-47053370D01*
X62557172Y-47054943D01*
X62681735Y-47640965D01*
X62682724Y-47646159D01*
X62687389Y-47673867D01*
X62687583Y-47675056D01*
X62788633Y-48313059D01*
X62789481Y-48319495D01*
X62859396Y-48984692D01*
X62859905Y-48991164D01*
X62894910Y-49659086D01*
X62895080Y-49665576D01*
X62895080Y-50334423D01*
X62894910Y-50340913D01*
X62859905Y-51008835D01*
X62859396Y-51015307D01*
X62789481Y-51680504D01*
X62788633Y-51686940D01*
X62687583Y-52324942D01*
X62687389Y-52326131D01*
X62682724Y-52353839D01*
X62681735Y-52359033D01*
X62557172Y-52945055D01*
X62556827Y-52946628D01*
X62537918Y-53030235D01*
X62536748Y-53034975D01*
X62390129Y-53582165D01*
X62389593Y-53584102D01*
X62357346Y-53697089D01*
X62356038Y-53701376D01*
X62187003Y-54221612D01*
X62186235Y-54223900D01*
X62141728Y-54352318D01*
X62140329Y-54356150D01*
X61948304Y-54856392D01*
X61947266Y-54859008D01*
X61892024Y-54993698D01*
X61890578Y-54997079D01*
X61674788Y-55481753D01*
X61673441Y-55484676D01*
X61609352Y-55619119D01*
X61607904Y-55622056D01*
X61367199Y-56094465D01*
X61365508Y-56097666D01*
X61295245Y-56226149D01*
X61293838Y-56228653D01*
X61026465Y-56691758D01*
X61024398Y-56695208D01*
X60951707Y-56812180D01*
X60950382Y-56814265D01*
X60653565Y-57271325D01*
X60651090Y-57274992D01*
X60581685Y-57373949D01*
X60580483Y-57375632D01*
X60249561Y-57831106D01*
X60246649Y-57834954D01*
X60190111Y-57906724D01*
X60189071Y-57908027D01*
X59815638Y-58369178D01*
X59812265Y-58373168D01*
X59786672Y-58402183D01*
X59785829Y-58403129D01*
X59359136Y-58877020D01*
X59354667Y-58881729D01*
X58881729Y-59354667D01*
X58877020Y-59359136D01*
X58379970Y-59806681D01*
X58375034Y-59810897D01*
X57855235Y-60231822D01*
X57850084Y-60235774D01*
X57308984Y-60628907D01*
X57303634Y-60632584D01*
X56742695Y-60996862D01*
X56737160Y-61000254D01*
X56169358Y-61328073D01*
X56168358Y-61328644D01*
X56154396Y-61336533D01*
X56149691Y-61339060D01*
X55610084Y-61614004D01*
X55608698Y-61614699D01*
X55537556Y-61649834D01*
X55533082Y-61651934D01*
X55012181Y-61883853D01*
X55010391Y-61884633D01*
X54905576Y-61929335D01*
X54901369Y-61931039D01*
X54388610Y-62127870D01*
X54386401Y-62128694D01*
X54260555Y-62174277D01*
X54256644Y-62175620D01*
X53745912Y-62341567D01*
X53743280Y-62342390D01*
X53604731Y-62384025D01*
X53601138Y-62385046D01*
X53088283Y-62522464D01*
X53085221Y-62523243D01*
X52940504Y-62558093D01*
X52937254Y-62558829D01*
X52418935Y-62669002D01*
X52415441Y-62669693D01*
X52270624Y-62696152D01*
X52267735Y-62696644D01*
X51740578Y-62780137D01*
X51736653Y-62780695D01*
X51598329Y-62798091D01*
X51595818Y-62798381D01*
X51055669Y-62855153D01*
X51051319Y-62855533D01*
X50927719Y-62864138D01*
X50925597Y-62864267D01*
X50366549Y-62893566D01*
X50361783Y-62893724D01*
X50265134Y-62895068D01*
X50263410Y-62895080D01*
X49675441Y-62895080D01*
X49670268Y-62894972D01*
X49669247Y-62894929D01*
X49621871Y-62892951D01*
X49620556Y-62892889D01*
X48991165Y-62859905D01*
X48984692Y-62859396D01*
X48319495Y-62789481D01*
X48313059Y-62788633D01*
X47652460Y-62684004D01*
X47646077Y-62682821D01*
X46991859Y-62543763D01*
X46985546Y-62542248D01*
X46339473Y-62369133D01*
X46333249Y-62367289D01*
X45697149Y-62160608D01*
X45691029Y-62158441D01*
X45094187Y-61929335D01*
X45068888Y-61919623D01*
X45067883Y-61919232D01*
X45065096Y-61918133D01*
X45060149Y-61916058D01*
X44500723Y-61666986D01*
X44499361Y-61666369D01*
X44433319Y-61636006D01*
X44428821Y-61633828D01*
X43917258Y-61373174D01*
X43915637Y-61372332D01*
X43865966Y-61346060D01*
X43818234Y-61320812D01*
X43814213Y-61318588D01*
X43336501Y-61042782D01*
X43334522Y-61041615D01*
X43265854Y-61000254D01*
X43221753Y-60973691D01*
X43218209Y-60971473D01*
X42766715Y-60678269D01*
X42764467Y-60676774D01*
X42645805Y-60595988D01*
X42642738Y-60593831D01*
X42374372Y-60398851D01*
X42212647Y-60281351D01*
X42210161Y-60279496D01*
X42092252Y-60189238D01*
X42089589Y-60187141D01*
X41677824Y-59853702D01*
X41675168Y-59851488D01*
X41562953Y-59755243D01*
X41560754Y-59753310D01*
X41409419Y-59617048D01*
X41164710Y-59396710D01*
X41161848Y-59394051D01*
X41060077Y-59296438D01*
X41058277Y-59294674D01*
X40675477Y-58911874D01*
X40672484Y-58908775D01*
X40586043Y-58816108D01*
X40584623Y-58814559D01*
X40214170Y-58403129D01*
X40211958Y-58400672D01*
X40208887Y-58397129D01*
X40143774Y-58319042D01*
X40142787Y-58317840D01*
X39775824Y-57864678D01*
X39772695Y-57860647D01*
X39750726Y-57831106D01*
X39738537Y-57814715D01*
X39737781Y-57813687D01*
X39371068Y-57308950D01*
X39367427Y-57303651D01*
X39003126Y-56742677D01*
X38999756Y-56737178D01*
X38665326Y-56157927D01*
X38662228Y-56152222D01*
X38605255Y-56040406D01*
X38578635Y-55988162D01*
X42846414Y-55988162D01*
X42846414Y-56250417D01*
X42873037Y-56452629D01*
X42880644Y-56510406D01*
X42948516Y-56763708D01*
X42948519Y-56763718D01*
X43048867Y-57005980D01*
X43048872Y-57005990D01*
X43179989Y-57233093D01*
X43339632Y-57441141D01*
X43339640Y-57441150D01*
X43525054Y-57626564D01*
X43525062Y-57626571D01*
X43733110Y-57786214D01*
X43960213Y-57917331D01*
X43960223Y-57917336D01*
X44202485Y-58017684D01*
X44202495Y-58017688D01*
X44455798Y-58085560D01*
X44715794Y-58119790D01*
X44715801Y-58119790D01*
X44978027Y-58119790D01*
X44978034Y-58119790D01*
X45238030Y-58085560D01*
X45491333Y-58017688D01*
X45733611Y-57917333D01*
X45960717Y-57786214D01*
X46168765Y-57626572D01*
X46168769Y-57626567D01*
X46168774Y-57626564D01*
X46354188Y-57441150D01*
X46354191Y-57441145D01*
X46354196Y-57441141D01*
X46513838Y-57233093D01*
X46644957Y-57005987D01*
X46745312Y-56763709D01*
X46813184Y-56510406D01*
X46847414Y-56250410D01*
X46847414Y-55988170D01*
X46847413Y-55988162D01*
X55266156Y-55988162D01*
X55266156Y-56250417D01*
X55292779Y-56452629D01*
X55300386Y-56510406D01*
X55368258Y-56763708D01*
X55368261Y-56763718D01*
X55468609Y-57005980D01*
X55468614Y-57005990D01*
X55599731Y-57233093D01*
X55759374Y-57441141D01*
X55759382Y-57441150D01*
X55944796Y-57626564D01*
X55944804Y-57626571D01*
X56152852Y-57786214D01*
X56379955Y-57917331D01*
X56379965Y-57917336D01*
X56622227Y-58017684D01*
X56622237Y-58017688D01*
X56875540Y-58085560D01*
X57135536Y-58119790D01*
X57135543Y-58119790D01*
X57397769Y-58119790D01*
X57397776Y-58119790D01*
X57657772Y-58085560D01*
X57911075Y-58017688D01*
X58153353Y-57917333D01*
X58380459Y-57786214D01*
X58588507Y-57626572D01*
X58588511Y-57626567D01*
X58588516Y-57626564D01*
X58773930Y-57441150D01*
X58773933Y-57441145D01*
X58773938Y-57441141D01*
X58933580Y-57233093D01*
X59064699Y-57005987D01*
X59165054Y-56763709D01*
X59232926Y-56510406D01*
X59267156Y-56250410D01*
X59267156Y-55988170D01*
X59232926Y-55728174D01*
X59165054Y-55474871D01*
X59165050Y-55474861D01*
X59064702Y-55232599D01*
X59064697Y-55232589D01*
X58933580Y-55005486D01*
X58773937Y-54797438D01*
X58773930Y-54797430D01*
X58588516Y-54612016D01*
X58588507Y-54612008D01*
X58380459Y-54452365D01*
X58153356Y-54321248D01*
X58153346Y-54321243D01*
X57911084Y-54220895D01*
X57911077Y-54220893D01*
X57911075Y-54220892D01*
X57657772Y-54153020D01*
X57599995Y-54145413D01*
X57397783Y-54118790D01*
X57397776Y-54118790D01*
X57135536Y-54118790D01*
X57135528Y-54118790D01*
X56904428Y-54149216D01*
X56875540Y-54153020D01*
X56622237Y-54220892D01*
X56622227Y-54220895D01*
X56379965Y-54321243D01*
X56379955Y-54321248D01*
X56152852Y-54452365D01*
X55944804Y-54612008D01*
X55759374Y-54797438D01*
X55599731Y-55005486D01*
X55468614Y-55232589D01*
X55468609Y-55232599D01*
X55368261Y-55474861D01*
X55368258Y-55474871D01*
X55348018Y-55550410D01*
X55300386Y-55728175D01*
X55266156Y-55988162D01*
X46847413Y-55988162D01*
X46813184Y-55728174D01*
X46745312Y-55474871D01*
X46745308Y-55474861D01*
X46644960Y-55232599D01*
X46644955Y-55232589D01*
X46513838Y-55005486D01*
X46354195Y-54797438D01*
X46354188Y-54797430D01*
X46168774Y-54612016D01*
X46168765Y-54612008D01*
X45960717Y-54452365D01*
X45733614Y-54321248D01*
X45733604Y-54321243D01*
X45491342Y-54220895D01*
X45491335Y-54220893D01*
X45491333Y-54220892D01*
X45238030Y-54153020D01*
X45180253Y-54145413D01*
X44978041Y-54118790D01*
X44978034Y-54118790D01*
X44715794Y-54118790D01*
X44715786Y-54118790D01*
X44484686Y-54149216D01*
X44455798Y-54153020D01*
X44202495Y-54220892D01*
X44202485Y-54220895D01*
X43960223Y-54321243D01*
X43960213Y-54321248D01*
X43733110Y-54452365D01*
X43525062Y-54612008D01*
X43339632Y-54797438D01*
X43179989Y-55005486D01*
X43048872Y-55232589D01*
X43048867Y-55232599D01*
X42948519Y-55474861D01*
X42948516Y-55474871D01*
X42928276Y-55550410D01*
X42880644Y-55728175D01*
X42846414Y-55988162D01*
X38578635Y-55988162D01*
X38530635Y-55893958D01*
X38358565Y-55556253D01*
X38355787Y-55550427D01*
X38083734Y-54939386D01*
X38081252Y-54933393D01*
X37896603Y-54452366D01*
X37841553Y-54308958D01*
X37839391Y-54302850D01*
X37812995Y-54221612D01*
X37632706Y-53666739D01*
X37630866Y-53660526D01*
X37610388Y-53584102D01*
X37470905Y-53063543D01*
X37470542Y-53062155D01*
X37454367Y-52998864D01*
X37453246Y-52994075D01*
X37332965Y-52428196D01*
X37332635Y-52426585D01*
X37312102Y-52322411D01*
X37311300Y-52317899D01*
X37224592Y-51770444D01*
X37224307Y-51768536D01*
X37206363Y-51640285D01*
X37205855Y-51636136D01*
X37149420Y-51099194D01*
X37149183Y-51096676D01*
X37137314Y-50954702D01*
X37137066Y-50951061D01*
X37109205Y-50419440D01*
X37109092Y-50416622D01*
X37104968Y-50268301D01*
X37104920Y-50264855D01*
X37104920Y-49735143D01*
X37104968Y-49731697D01*
X37109092Y-49583370D01*
X37109205Y-49580567D01*
X37137067Y-49048929D01*
X37137313Y-49045306D01*
X37149184Y-48903305D01*
X37149418Y-48900824D01*
X37205857Y-48363848D01*
X37206361Y-48359728D01*
X37224311Y-48231432D01*
X37224586Y-48229594D01*
X37311303Y-47682082D01*
X37312098Y-47677606D01*
X37332645Y-47573361D01*
X37332951Y-47571866D01*
X37453251Y-47005901D01*
X37454361Y-47001156D01*
X37470576Y-46937712D01*
X37470883Y-46936539D01*
X37630872Y-46339452D01*
X37632703Y-46333270D01*
X37839399Y-45697125D01*
X37841549Y-45691053D01*
X38081258Y-45066589D01*
X38083728Y-45060626D01*
X38355794Y-44449557D01*
X38358558Y-44443761D01*
X38662236Y-43847761D01*
X38665317Y-43842087D01*
X38718725Y-43749582D01*
X40732844Y-43749582D01*
X40732844Y-44011837D01*
X40759467Y-44214049D01*
X40767074Y-44271826D01*
X40834946Y-44525128D01*
X40834949Y-44525138D01*
X40935297Y-44767400D01*
X40935302Y-44767410D01*
X41066419Y-44994513D01*
X41226062Y-45202561D01*
X41226070Y-45202570D01*
X41411484Y-45387984D01*
X41411492Y-45387991D01*
X41619540Y-45547634D01*
X41846643Y-45678751D01*
X41846653Y-45678756D01*
X42081658Y-45776098D01*
X42088925Y-45779108D01*
X42342228Y-45846980D01*
X42602224Y-45881210D01*
X42602231Y-45881210D01*
X42864457Y-45881210D01*
X42864464Y-45881210D01*
X43124460Y-45846980D01*
X43377763Y-45779108D01*
X43620041Y-45678753D01*
X43847147Y-45547634D01*
X44055195Y-45387992D01*
X44055199Y-45387987D01*
X44055204Y-45387984D01*
X44240618Y-45202570D01*
X44240621Y-45202565D01*
X44240626Y-45202561D01*
X44400268Y-44994513D01*
X44531387Y-44767407D01*
X44631742Y-44525129D01*
X44699614Y-44271826D01*
X44733844Y-44011830D01*
X44733844Y-43749590D01*
X44733843Y-43749582D01*
X53152586Y-43749582D01*
X53152586Y-44011837D01*
X53179209Y-44214049D01*
X53186816Y-44271826D01*
X53254688Y-44525128D01*
X53254691Y-44525138D01*
X53355039Y-44767400D01*
X53355044Y-44767410D01*
X53486161Y-44994513D01*
X53645804Y-45202561D01*
X53645812Y-45202570D01*
X53831226Y-45387984D01*
X53831234Y-45387991D01*
X54039282Y-45547634D01*
X54266385Y-45678751D01*
X54266395Y-45678756D01*
X54501400Y-45776098D01*
X54508667Y-45779108D01*
X54761970Y-45846980D01*
X55021966Y-45881210D01*
X55021973Y-45881210D01*
X55284199Y-45881210D01*
X55284206Y-45881210D01*
X55544202Y-45846980D01*
X55797505Y-45779108D01*
X56039783Y-45678753D01*
X56266889Y-45547634D01*
X56474937Y-45387992D01*
X56474941Y-45387987D01*
X56474946Y-45387984D01*
X56660360Y-45202570D01*
X56660363Y-45202565D01*
X56660368Y-45202561D01*
X56820010Y-44994513D01*
X56951129Y-44767407D01*
X57051484Y-44525129D01*
X57119356Y-44271826D01*
X57153586Y-44011830D01*
X57153586Y-43749590D01*
X57119356Y-43489594D01*
X57051484Y-43236291D01*
X57030542Y-43185733D01*
X56951132Y-42994019D01*
X56951127Y-42994009D01*
X56820010Y-42766906D01*
X56660367Y-42558858D01*
X56660360Y-42558850D01*
X56474946Y-42373436D01*
X56474937Y-42373428D01*
X56266889Y-42213785D01*
X56039786Y-42082668D01*
X56039776Y-42082663D01*
X55797514Y-41982315D01*
X55797507Y-41982313D01*
X55797505Y-41982312D01*
X55544202Y-41914440D01*
X55486425Y-41906833D01*
X55284213Y-41880210D01*
X55284206Y-41880210D01*
X55021966Y-41880210D01*
X55021958Y-41880210D01*
X54790858Y-41910636D01*
X54761970Y-41914440D01*
X54508667Y-41982312D01*
X54508657Y-41982315D01*
X54266395Y-42082663D01*
X54266385Y-42082668D01*
X54039282Y-42213785D01*
X53831234Y-42373428D01*
X53645804Y-42558858D01*
X53486161Y-42766906D01*
X53355044Y-42994009D01*
X53355039Y-42994019D01*
X53254691Y-43236281D01*
X53254688Y-43236291D01*
X53186816Y-43489595D01*
X53152586Y-43749582D01*
X44733843Y-43749582D01*
X44699614Y-43489594D01*
X44631742Y-43236291D01*
X44610800Y-43185733D01*
X44531390Y-42994019D01*
X44531385Y-42994009D01*
X44400268Y-42766906D01*
X44240625Y-42558858D01*
X44240618Y-42558850D01*
X44055204Y-42373436D01*
X44055195Y-42373428D01*
X43847147Y-42213785D01*
X43620044Y-42082668D01*
X43620034Y-42082663D01*
X43377772Y-41982315D01*
X43377765Y-41982313D01*
X43377763Y-41982312D01*
X43124460Y-41914440D01*
X43066683Y-41906833D01*
X42864471Y-41880210D01*
X42864464Y-41880210D01*
X42602224Y-41880210D01*
X42602216Y-41880210D01*
X42371116Y-41910636D01*
X42342228Y-41914440D01*
X42088925Y-41982312D01*
X42088915Y-41982315D01*
X41846653Y-42082663D01*
X41846643Y-42082668D01*
X41619540Y-42213785D01*
X41411492Y-42373428D01*
X41226062Y-42558858D01*
X41066419Y-42766906D01*
X40935302Y-42994009D01*
X40935297Y-42994019D01*
X40834949Y-43236281D01*
X40834946Y-43236291D01*
X40767074Y-43489595D01*
X40732844Y-43749582D01*
X38718725Y-43749582D01*
X38999766Y-43262804D01*
X39003115Y-43257339D01*
X39367438Y-42696330D01*
X39371068Y-42691049D01*
X39737872Y-42186187D01*
X39738420Y-42185441D01*
X39772738Y-42139294D01*
X39775786Y-42135368D01*
X40142912Y-41682004D01*
X40143664Y-41681089D01*
X40208930Y-41602818D01*
X40211920Y-41599368D01*
X40584727Y-41185324D01*
X40585937Y-41184005D01*
X40672510Y-41091195D01*
X40675419Y-41088183D01*
X41058380Y-40705222D01*
X41059981Y-40703653D01*
X41161921Y-40605878D01*
X41164667Y-40603327D01*
X41560851Y-40246602D01*
X41562858Y-40244837D01*
X41675250Y-40148440D01*
X41677736Y-40146369D01*
X42089625Y-39812828D01*
X42092181Y-39810815D01*
X42210240Y-39720442D01*
X42212569Y-39718704D01*
X42642825Y-39406105D01*
X42645710Y-39404076D01*
X42764519Y-39323188D01*
X42766615Y-39321795D01*
X43218288Y-39028475D01*
X43221668Y-39026360D01*
X43334676Y-38958291D01*
X43336369Y-38957293D01*
X43814251Y-38681388D01*
X43818176Y-38679217D01*
X43915838Y-38627560D01*
X43917020Y-38626946D01*
X44428864Y-38366148D01*
X44433275Y-38364012D01*
X44499614Y-38333514D01*
X44500494Y-38333115D01*
X45060201Y-38083917D01*
X45065066Y-38081877D01*
X45068275Y-38080613D01*
X45068517Y-38080518D01*
X45691045Y-37841552D01*
X45697121Y-37839400D01*
X46333270Y-37632703D01*
X46339452Y-37630872D01*
X46985567Y-37457745D01*
X46991837Y-37456241D01*
X47646079Y-37317177D01*
X47652460Y-37315995D01*
X48313084Y-37211362D01*
X48319465Y-37210521D01*
X48984728Y-37140600D01*
X48991132Y-37140096D01*
X49620774Y-37107097D01*
X49621715Y-37107053D01*
X49663825Y-37105296D01*
X49670271Y-37105028D01*
X49675438Y-37104920D01*
X50263412Y-37104920D01*
X50265134Y-37104932D01*
G37*
%TD.AperFunction*%
%TD*%
M02*
