%TF.GenerationSoftware,KiCad,Pcbnew,9.0.4*%
%TF.CreationDate,2025-10-04T22:45:10-03:00*%
%TF.ProjectId,encoder_magnetico,656e636f-6465-4725-9f6d-61676e657469,rev?*%
%TF.SameCoordinates,Original*%
%TF.FileFunction,Copper,L1,Top*%
%TF.FilePolarity,Positive*%
%FSLAX46Y46*%
G04 Gerber Fmt 4.6, Leading zero omitted, Abs format (unit mm)*
G04 Created by KiCad (PCBNEW 9.0.4) date 2025-10-04 22:45:10*
%MOMM*%
%LPD*%
G01*
G04 APERTURE LIST*
G04 Aperture macros list*
%AMRoundRect*
0 Rectangle with rounded corners*
0 $1 Rounding radius*
0 $2 $3 $4 $5 $6 $7 $8 $9 X,Y pos of 4 corners*
0 Add a 4 corners polygon primitive as box body*
4,1,4,$2,$3,$4,$5,$6,$7,$8,$9,$2,$3,0*
0 Add four circle primitives for the rounded corners*
1,1,$1+$1,$2,$3*
1,1,$1+$1,$4,$5*
1,1,$1+$1,$6,$7*
1,1,$1+$1,$8,$9*
0 Add four rect primitives between the rounded corners*
20,1,$1+$1,$2,$3,$4,$5,0*
20,1,$1+$1,$4,$5,$6,$7,0*
20,1,$1+$1,$6,$7,$8,$9,0*
20,1,$1+$1,$8,$9,$2,$3,0*%
G04 Aperture macros list end*
%TA.AperFunction,SMDPad,CuDef*%
%ADD10RoundRect,0.250000X-0.750000X0.250000X-0.750000X-0.250000X0.750000X-0.250000X0.750000X0.250000X0*%
%TD*%
%TA.AperFunction,SMDPad,CuDef*%
%ADD11RoundRect,0.100000X0.637500X0.100000X-0.637500X0.100000X-0.637500X-0.100000X0.637500X-0.100000X0*%
%TD*%
%TA.AperFunction,SMDPad,CuDef*%
%ADD12RoundRect,0.237500X0.300000X0.237500X-0.300000X0.237500X-0.300000X-0.237500X0.300000X-0.237500X0*%
%TD*%
%TA.AperFunction,ViaPad*%
%ADD13C,0.800000*%
%TD*%
%TA.AperFunction,Conductor*%
%ADD14C,0.250000*%
%TD*%
G04 APERTURE END LIST*
D10*
%TO.P,MI,1,Pin_1*%
%TO.N,MISO*%
X60325000Y-48260000D03*
%TD*%
D11*
%TO.P,U1,1,~{CS}*%
%TO.N,CS*%
X52862500Y-51950000D03*
%TO.P,U1,2,CLK*%
%TO.N,CLK*%
X52862500Y-51300000D03*
%TO.P,U1,3,MISO*%
%TO.N,MISO*%
X52862500Y-50650000D03*
%TO.P,U1,4,MOSI*%
%TO.N,MOSI*%
X52862500Y-50000000D03*
%TO.P,U1,5,TST*%
%TO.N,GND*%
X52862500Y-49350000D03*
%TO.P,U1,6,B*%
%TO.N,unconnected-(U1-B-Pad6)*%
X52862500Y-48700000D03*
%TO.P,U1,7,A*%
%TO.N,unconnected-(U1-A-Pad7)*%
X52862500Y-48050000D03*
%TO.P,U1,8,W/PWM*%
%TO.N,unconnected-(U1-W{slash}PWM-Pad8)*%
X47137500Y-48050000D03*
%TO.P,U1,9,V*%
%TO.N,unconnected-(U1-V-Pad9)*%
X47137500Y-48700000D03*
%TO.P,U1,10,U*%
%TO.N,unconnected-(U1-U-Pad10)*%
X47137500Y-49350000D03*
%TO.P,U1,11,VDD*%
%TO.N,3v3*%
X47137500Y-50000000D03*
%TO.P,U1,12,VDD3V3*%
X47137500Y-50650000D03*
%TO.P,U1,13,GND*%
%TO.N,GND*%
X47137500Y-51300000D03*
%TO.P,U1,14,I/PWM*%
%TO.N,unconnected-(U1-I{slash}PWM-Pad14)*%
X47137500Y-51950000D03*
%TD*%
D10*
%TO.P,CK,1,Pin_1*%
%TO.N,CLK*%
X60325000Y-50165000D03*
%TD*%
%TO.P,CS,1,Pin_1*%
%TO.N,CS*%
X60325000Y-52070000D03*
%TD*%
%TO.P,GND,1,Pin_1*%
%TO.N,GND*%
X57150000Y-47625000D03*
%TD*%
%TO.P,3V3,1,Pin_1*%
%TO.N,3v3*%
X57150000Y-51435000D03*
%TD*%
D12*
%TO.P,C1,1*%
%TO.N,3v3*%
X51027500Y-54610000D03*
%TO.P,C1,2*%
%TO.N,GND*%
X49302500Y-54610000D03*
%TD*%
D10*
%TO.P,MO,1,Pin_1*%
%TO.N,MOSI*%
X60325000Y-46355000D03*
%TD*%
D13*
%TO.N,GND*%
X43180000Y-49530000D03*
X50800000Y-45085000D03*
X47625000Y-59055000D03*
%TD*%
D14*
%TO.N,3v3*%
X48895000Y-51670000D02*
X49095000Y-51870000D01*
X48895000Y-50800000D02*
X48895000Y-51670000D01*
X47874999Y-50650000D02*
X47137500Y-50650000D01*
X55880000Y-51435000D02*
X57150000Y-51435000D01*
X49095000Y-51870000D02*
X47874999Y-50650000D01*
X52705000Y-54610000D02*
X55880000Y-51435000D01*
X51027500Y-53802501D02*
X49095000Y-51870000D01*
X47137500Y-50000000D02*
X48095000Y-50000000D01*
X48095000Y-50000000D02*
X48895000Y-50800000D01*
X51027500Y-54610000D02*
X51027500Y-53802501D01*
X51027500Y-54610000D02*
X52705000Y-54610000D01*
%TO.N,GND*%
X53567416Y-49350000D02*
X54472416Y-48445000D01*
X47874999Y-51300000D02*
X49302500Y-52727501D01*
X47137500Y-51300000D02*
X47874999Y-51300000D01*
X55695000Y-48445000D02*
X56515000Y-47625000D01*
X56515000Y-47625000D02*
X57150000Y-47625000D01*
X49302500Y-52727501D02*
X49302500Y-54610000D01*
X54472416Y-48445000D02*
X55695000Y-48445000D01*
X52862500Y-49350000D02*
X53567416Y-49350000D01*
%TO.N,MOSI*%
X57785000Y-48895000D02*
X60325000Y-46355000D01*
X53553812Y-50000000D02*
X54658812Y-48895000D01*
X52862500Y-50000000D02*
X53553812Y-50000000D01*
X54658812Y-48895000D02*
X57785000Y-48895000D01*
%TO.N,MISO*%
X59056396Y-48260000D02*
X60325000Y-48260000D01*
X53553812Y-50650000D02*
X54858812Y-49345000D01*
X54858812Y-49345000D02*
X57971396Y-49345000D01*
X52862500Y-50650000D02*
X53553812Y-50650000D01*
X57971396Y-49345000D02*
X59056396Y-48260000D01*
%TO.N,CLK*%
X52862500Y-51300000D02*
X53599999Y-51300000D01*
X53599999Y-51300000D02*
X55104999Y-49795000D01*
X58050000Y-49795000D02*
X58420000Y-50165000D01*
X55104999Y-49795000D02*
X58050000Y-49795000D01*
X58420000Y-50165000D02*
X60325000Y-50165000D01*
%TO.N,CS*%
X52862500Y-51950000D02*
X53586395Y-51950000D01*
X55291395Y-50245000D02*
X57863604Y-50245000D01*
X53586395Y-51950000D02*
X55291395Y-50245000D01*
X57863604Y-50245000D02*
X59688604Y-52070000D01*
X59688604Y-52070000D02*
X60325000Y-52070000D01*
%TD*%
%TA.AperFunction,Conductor*%
%TO.N,GND*%
G36*
X50265134Y-37104932D02*
G01*
X50265638Y-37104939D01*
X50361860Y-37106276D01*
X50366470Y-37106429D01*
X50925768Y-37135741D01*
X50927562Y-37135850D01*
X51051379Y-37144470D01*
X51055609Y-37144839D01*
X51595901Y-37201626D01*
X51598249Y-37201897D01*
X51736710Y-37219311D01*
X51740520Y-37219852D01*
X52267838Y-37303371D01*
X52270527Y-37303829D01*
X52415498Y-37330316D01*
X52418878Y-37330984D01*
X52937254Y-37441169D01*
X52940500Y-37441904D01*
X53006305Y-37457751D01*
X53085221Y-37476755D01*
X53088278Y-37477532D01*
X53601220Y-37614975D01*
X53604652Y-37615950D01*
X53743327Y-37657622D01*
X53745866Y-37658416D01*
X54256644Y-37824378D01*
X54260514Y-37825707D01*
X54386582Y-37871371D01*
X54388486Y-37872082D01*
X54901380Y-38068963D01*
X54905545Y-38070650D01*
X55010391Y-38115365D01*
X55012181Y-38116145D01*
X55168784Y-38185869D01*
X55533108Y-38348076D01*
X55537511Y-38350143D01*
X55608794Y-38385347D01*
X55610056Y-38385980D01*
X56149704Y-38660945D01*
X56154399Y-38663467D01*
X56168360Y-38671356D01*
X56169346Y-38671918D01*
X56737178Y-38999756D01*
X56742677Y-39003126D01*
X57303651Y-39367427D01*
X57308967Y-39371080D01*
X57787351Y-39718647D01*
X57850084Y-39764225D01*
X57855229Y-39768172D01*
X57910410Y-39812857D01*
X58375034Y-40189102D01*
X58379970Y-40193318D01*
X58877020Y-40640863D01*
X58881729Y-40645332D01*
X59354667Y-41118270D01*
X59359136Y-41122979D01*
X59785829Y-41596870D01*
X59786671Y-41597815D01*
X59812264Y-41626829D01*
X59815638Y-41630820D01*
X60189071Y-42091971D01*
X60190111Y-42093274D01*
X60246649Y-42165044D01*
X60249561Y-42168892D01*
X60580483Y-42624366D01*
X60581685Y-42626049D01*
X60651090Y-42725006D01*
X60653565Y-42728673D01*
X60950382Y-43185733D01*
X60951707Y-43187818D01*
X61024398Y-43304790D01*
X61026465Y-43308240D01*
X61293838Y-43771345D01*
X61295245Y-43773849D01*
X61365508Y-43902332D01*
X61367199Y-43905533D01*
X61607904Y-44377942D01*
X61609352Y-44380879D01*
X61673441Y-44515322D01*
X61674776Y-44518218D01*
X61785722Y-44767407D01*
X61890578Y-45002919D01*
X61892006Y-45006258D01*
X61914298Y-45060609D01*
X61947266Y-45140990D01*
X61948304Y-45143606D01*
X62140329Y-45643848D01*
X62141728Y-45647680D01*
X62186235Y-45776098D01*
X62187003Y-45778386D01*
X62356038Y-46298622D01*
X62357346Y-46302909D01*
X62389593Y-46415896D01*
X62390129Y-46417833D01*
X62536748Y-46965023D01*
X62537918Y-46969763D01*
X62556827Y-47053370D01*
X62557172Y-47054943D01*
X62681735Y-47640965D01*
X62682724Y-47646159D01*
X62687389Y-47673867D01*
X62687583Y-47675056D01*
X62788633Y-48313059D01*
X62789481Y-48319495D01*
X62859396Y-48984692D01*
X62859905Y-48991164D01*
X62894910Y-49659086D01*
X62895080Y-49665576D01*
X62895080Y-50334423D01*
X62894910Y-50340913D01*
X62859905Y-51008835D01*
X62859396Y-51015307D01*
X62789481Y-51680504D01*
X62788633Y-51686940D01*
X62687583Y-52324942D01*
X62687389Y-52326131D01*
X62682724Y-52353839D01*
X62681735Y-52359033D01*
X62557172Y-52945055D01*
X62556827Y-52946628D01*
X62537918Y-53030235D01*
X62536748Y-53034975D01*
X62390129Y-53582165D01*
X62389593Y-53584102D01*
X62357346Y-53697089D01*
X62356038Y-53701376D01*
X62187003Y-54221612D01*
X62186235Y-54223900D01*
X62141728Y-54352318D01*
X62140329Y-54356150D01*
X61948304Y-54856392D01*
X61947266Y-54859008D01*
X61892024Y-54993698D01*
X61890578Y-54997079D01*
X61674788Y-55481753D01*
X61673441Y-55484676D01*
X61609352Y-55619119D01*
X61607904Y-55622056D01*
X61367199Y-56094465D01*
X61365508Y-56097666D01*
X61295245Y-56226149D01*
X61293838Y-56228653D01*
X61026465Y-56691758D01*
X61024398Y-56695208D01*
X60951707Y-56812180D01*
X60950382Y-56814265D01*
X60653565Y-57271325D01*
X60651090Y-57274992D01*
X60581685Y-57373949D01*
X60580483Y-57375632D01*
X60249561Y-57831106D01*
X60246649Y-57834954D01*
X60190111Y-57906724D01*
X60189071Y-57908027D01*
X59815638Y-58369178D01*
X59812265Y-58373168D01*
X59786672Y-58402183D01*
X59785829Y-58403129D01*
X59359136Y-58877020D01*
X59354667Y-58881729D01*
X58881729Y-59354667D01*
X58877020Y-59359136D01*
X58379970Y-59806681D01*
X58375034Y-59810897D01*
X57855235Y-60231822D01*
X57850084Y-60235774D01*
X57308984Y-60628907D01*
X57303634Y-60632584D01*
X56742695Y-60996862D01*
X56737160Y-61000254D01*
X56169358Y-61328073D01*
X56168358Y-61328644D01*
X56154396Y-61336533D01*
X56149691Y-61339060D01*
X55610084Y-61614004D01*
X55608698Y-61614699D01*
X55537556Y-61649834D01*
X55533082Y-61651934D01*
X55012181Y-61883853D01*
X55010391Y-61884633D01*
X54905576Y-61929335D01*
X54901369Y-61931039D01*
X54388610Y-62127870D01*
X54386401Y-62128694D01*
X54260555Y-62174277D01*
X54256644Y-62175620D01*
X53745912Y-62341567D01*
X53743280Y-62342390D01*
X53604731Y-62384025D01*
X53601138Y-62385046D01*
X53088283Y-62522464D01*
X53085221Y-62523243D01*
X52940504Y-62558093D01*
X52937254Y-62558829D01*
X52418935Y-62669002D01*
X52415441Y-62669693D01*
X52270624Y-62696152D01*
X52267735Y-62696644D01*
X51740578Y-62780137D01*
X51736653Y-62780695D01*
X51598329Y-62798091D01*
X51595818Y-62798381D01*
X51055669Y-62855153D01*
X51051319Y-62855533D01*
X50927719Y-62864138D01*
X50925597Y-62864267D01*
X50366549Y-62893566D01*
X50361783Y-62893724D01*
X50265134Y-62895068D01*
X50263410Y-62895080D01*
X49675441Y-62895080D01*
X49670268Y-62894972D01*
X49669247Y-62894929D01*
X49621871Y-62892951D01*
X49620556Y-62892889D01*
X48991165Y-62859905D01*
X48984692Y-62859396D01*
X48319495Y-62789481D01*
X48313059Y-62788633D01*
X47652460Y-62684004D01*
X47646077Y-62682821D01*
X46991859Y-62543763D01*
X46985546Y-62542248D01*
X46339473Y-62369133D01*
X46333249Y-62367289D01*
X45697149Y-62160608D01*
X45691029Y-62158441D01*
X45094187Y-61929335D01*
X45068888Y-61919623D01*
X45067883Y-61919232D01*
X45065096Y-61918133D01*
X45060149Y-61916058D01*
X44500723Y-61666986D01*
X44499361Y-61666369D01*
X44433319Y-61636006D01*
X44428821Y-61633828D01*
X43917258Y-61373174D01*
X43915637Y-61372332D01*
X43865966Y-61346060D01*
X43818234Y-61320812D01*
X43814213Y-61318588D01*
X43336501Y-61042782D01*
X43334522Y-61041615D01*
X43265854Y-61000254D01*
X43221753Y-60973691D01*
X43218209Y-60971473D01*
X42766715Y-60678269D01*
X42764467Y-60676774D01*
X42645805Y-60595988D01*
X42642738Y-60593831D01*
X42374372Y-60398851D01*
X42212647Y-60281351D01*
X42210161Y-60279496D01*
X42092252Y-60189238D01*
X42089589Y-60187141D01*
X41677824Y-59853702D01*
X41675168Y-59851488D01*
X41562953Y-59755243D01*
X41560754Y-59753310D01*
X41409419Y-59617048D01*
X41164710Y-59396710D01*
X41161848Y-59394051D01*
X41060077Y-59296438D01*
X41058277Y-59294674D01*
X40675477Y-58911874D01*
X40672484Y-58908775D01*
X40586043Y-58816108D01*
X40584623Y-58814559D01*
X40214170Y-58403129D01*
X40211958Y-58400672D01*
X40208887Y-58397129D01*
X40143774Y-58319042D01*
X40142787Y-58317840D01*
X39775824Y-57864678D01*
X39772695Y-57860647D01*
X39750726Y-57831106D01*
X39738537Y-57814715D01*
X39737781Y-57813687D01*
X39371068Y-57308950D01*
X39367427Y-57303651D01*
X39003126Y-56742677D01*
X38999756Y-56737178D01*
X38665326Y-56157927D01*
X38662228Y-56152222D01*
X38605255Y-56040406D01*
X38578635Y-55988162D01*
X42846414Y-55988162D01*
X42846414Y-56250417D01*
X42873037Y-56452629D01*
X42880644Y-56510406D01*
X42948516Y-56763708D01*
X42948519Y-56763718D01*
X43048867Y-57005980D01*
X43048872Y-57005990D01*
X43179989Y-57233093D01*
X43339632Y-57441141D01*
X43339640Y-57441150D01*
X43525054Y-57626564D01*
X43525062Y-57626571D01*
X43733110Y-57786214D01*
X43960213Y-57917331D01*
X43960223Y-57917336D01*
X44202485Y-58017684D01*
X44202495Y-58017688D01*
X44455798Y-58085560D01*
X44715794Y-58119790D01*
X44715801Y-58119790D01*
X44978027Y-58119790D01*
X44978034Y-58119790D01*
X45238030Y-58085560D01*
X45491333Y-58017688D01*
X45733611Y-57917333D01*
X45960717Y-57786214D01*
X46168765Y-57626572D01*
X46168769Y-57626567D01*
X46168774Y-57626564D01*
X46354188Y-57441150D01*
X46354191Y-57441145D01*
X46354196Y-57441141D01*
X46513838Y-57233093D01*
X46644957Y-57005987D01*
X46745312Y-56763709D01*
X46813184Y-56510406D01*
X46847414Y-56250410D01*
X46847414Y-55988170D01*
X46847413Y-55988162D01*
X55266156Y-55988162D01*
X55266156Y-56250417D01*
X55292779Y-56452629D01*
X55300386Y-56510406D01*
X55368258Y-56763708D01*
X55368261Y-56763718D01*
X55468609Y-57005980D01*
X55468614Y-57005990D01*
X55599731Y-57233093D01*
X55759374Y-57441141D01*
X55759382Y-57441150D01*
X55944796Y-57626564D01*
X55944804Y-57626571D01*
X56152852Y-57786214D01*
X56379955Y-57917331D01*
X56379965Y-57917336D01*
X56622227Y-58017684D01*
X56622237Y-58017688D01*
X56875540Y-58085560D01*
X57135536Y-58119790D01*
X57135543Y-58119790D01*
X57397769Y-58119790D01*
X57397776Y-58119790D01*
X57657772Y-58085560D01*
X57911075Y-58017688D01*
X58153353Y-57917333D01*
X58380459Y-57786214D01*
X58588507Y-57626572D01*
X58588511Y-57626567D01*
X58588516Y-57626564D01*
X58773930Y-57441150D01*
X58773933Y-57441145D01*
X58773938Y-57441141D01*
X58933580Y-57233093D01*
X59064699Y-57005987D01*
X59165054Y-56763709D01*
X59232926Y-56510406D01*
X59267156Y-56250410D01*
X59267156Y-55988170D01*
X59232926Y-55728174D01*
X59165054Y-55474871D01*
X59146445Y-55429944D01*
X59064702Y-55232599D01*
X59064697Y-55232589D01*
X58933580Y-55005486D01*
X58773937Y-54797438D01*
X58773930Y-54797430D01*
X58588516Y-54612016D01*
X58588507Y-54612008D01*
X58380459Y-54452365D01*
X58153356Y-54321248D01*
X58153346Y-54321243D01*
X57911084Y-54220895D01*
X57911077Y-54220893D01*
X57911075Y-54220892D01*
X57657772Y-54153020D01*
X57599995Y-54145413D01*
X57397783Y-54118790D01*
X57397776Y-54118790D01*
X57135536Y-54118790D01*
X57135528Y-54118790D01*
X56904428Y-54149216D01*
X56875540Y-54153020D01*
X56622237Y-54220892D01*
X56622227Y-54220895D01*
X56379965Y-54321243D01*
X56379955Y-54321248D01*
X56152852Y-54452365D01*
X55944804Y-54612008D01*
X55759374Y-54797438D01*
X55599731Y-55005486D01*
X55468614Y-55232589D01*
X55468609Y-55232599D01*
X55368261Y-55474861D01*
X55368258Y-55474871D01*
X55338616Y-55585499D01*
X55300386Y-55728175D01*
X55266156Y-55988162D01*
X46847413Y-55988162D01*
X46813184Y-55728174D01*
X46745312Y-55474871D01*
X46726703Y-55429944D01*
X46644960Y-55232599D01*
X46644955Y-55232589D01*
X46513838Y-55005486D01*
X46430327Y-54896654D01*
X48265001Y-54896654D01*
X48275319Y-54997652D01*
X48329546Y-55161300D01*
X48329551Y-55161311D01*
X48420052Y-55308034D01*
X48420055Y-55308038D01*
X48541961Y-55429944D01*
X48541965Y-55429947D01*
X48688688Y-55520448D01*
X48688699Y-55520453D01*
X48852347Y-55574680D01*
X48953351Y-55584999D01*
X49052500Y-55584998D01*
X49052500Y-54860000D01*
X48265001Y-54860000D01*
X48265001Y-54896654D01*
X46430327Y-54896654D01*
X46420713Y-54884125D01*
X46401440Y-54859008D01*
X46354196Y-54797439D01*
X46354195Y-54797438D01*
X46354188Y-54797430D01*
X46168774Y-54612016D01*
X46168765Y-54612008D01*
X45960717Y-54452365D01*
X45917792Y-54427583D01*
X45737246Y-54323345D01*
X48265000Y-54323345D01*
X48265000Y-54360000D01*
X49052500Y-54360000D01*
X49052500Y-53634999D01*
X48953360Y-53635000D01*
X48953344Y-53635001D01*
X48852347Y-53645319D01*
X48688699Y-53699546D01*
X48688688Y-53699551D01*
X48541965Y-53790052D01*
X48541961Y-53790055D01*
X48420055Y-53911961D01*
X48420052Y-53911965D01*
X48329551Y-54058688D01*
X48329546Y-54058699D01*
X48275319Y-54222347D01*
X48265000Y-54323345D01*
X45737246Y-54323345D01*
X45733614Y-54321248D01*
X45733604Y-54321243D01*
X45491342Y-54220895D01*
X45491335Y-54220893D01*
X45491333Y-54220892D01*
X45238030Y-54153020D01*
X45180253Y-54145413D01*
X44978041Y-54118790D01*
X44978034Y-54118790D01*
X44715794Y-54118790D01*
X44715786Y-54118790D01*
X44484686Y-54149216D01*
X44455798Y-54153020D01*
X44202495Y-54220892D01*
X44202485Y-54220895D01*
X43960223Y-54321243D01*
X43960213Y-54321248D01*
X43733110Y-54452365D01*
X43525062Y-54612008D01*
X43339632Y-54797438D01*
X43179989Y-55005486D01*
X43048872Y-55232589D01*
X43048867Y-55232599D01*
X42948519Y-55474861D01*
X42948516Y-55474871D01*
X42918874Y-55585499D01*
X42880644Y-55728175D01*
X42846414Y-55988162D01*
X38578635Y-55988162D01*
X38530635Y-55893958D01*
X38358565Y-55556253D01*
X38355787Y-55550427D01*
X38083734Y-54939386D01*
X38081252Y-54933393D01*
X37896603Y-54452366D01*
X37841553Y-54308958D01*
X37839391Y-54302850D01*
X37812995Y-54221612D01*
X37632706Y-53666739D01*
X37630866Y-53660526D01*
X37626791Y-53645319D01*
X37470905Y-53063543D01*
X37470542Y-53062155D01*
X37469991Y-53059998D01*
X37454367Y-52998864D01*
X37453246Y-52994075D01*
X37332965Y-52428196D01*
X37332635Y-52426585D01*
X37312102Y-52322411D01*
X37311300Y-52317899D01*
X37224592Y-51770444D01*
X37224307Y-51768536D01*
X37206363Y-51640285D01*
X37205855Y-51636136D01*
X37149420Y-51099194D01*
X37149183Y-51096676D01*
X37137314Y-50954702D01*
X37137066Y-50951061D01*
X37109205Y-50419440D01*
X37109092Y-50416622D01*
X37104968Y-50268301D01*
X37104920Y-50264855D01*
X37104920Y-49735143D01*
X37104968Y-49731697D01*
X37105932Y-49697019D01*
X37109092Y-49583370D01*
X37109205Y-49580567D01*
X37137067Y-49048929D01*
X37137313Y-49045306D01*
X37149184Y-48903305D01*
X37149418Y-48900824D01*
X37205857Y-48363848D01*
X37206361Y-48359728D01*
X37224311Y-48231432D01*
X37224586Y-48229594D01*
X37275103Y-47910638D01*
X45899500Y-47910638D01*
X45899500Y-48189363D01*
X45914953Y-48306753D01*
X45914956Y-48306762D01*
X45923566Y-48327550D01*
X45931033Y-48397019D01*
X45923566Y-48422450D01*
X45914957Y-48443234D01*
X45914955Y-48443239D01*
X45899500Y-48560638D01*
X45899500Y-48839363D01*
X45914953Y-48956753D01*
X45914957Y-48956765D01*
X45923566Y-48977550D01*
X45931033Y-49047019D01*
X45923566Y-49072450D01*
X45914957Y-49093234D01*
X45914955Y-49093239D01*
X45899500Y-49210638D01*
X45899500Y-49489363D01*
X45914953Y-49606753D01*
X45914957Y-49606765D01*
X45923566Y-49627550D01*
X45931033Y-49697019D01*
X45923566Y-49722450D01*
X45914957Y-49743234D01*
X45914955Y-49743239D01*
X45899500Y-49860638D01*
X45899500Y-50139363D01*
X45914953Y-50256753D01*
X45914957Y-50256765D01*
X45923566Y-50277550D01*
X45931033Y-50347019D01*
X45923566Y-50372450D01*
X45914957Y-50393234D01*
X45914955Y-50393239D01*
X45899500Y-50510638D01*
X45899500Y-50789363D01*
X45914953Y-50906753D01*
X45914956Y-50906762D01*
X45923837Y-50928203D01*
X45931304Y-50997673D01*
X45923838Y-51023103D01*
X45915443Y-51043370D01*
X45907987Y-51100000D01*
X45950500Y-51100000D01*
X45979880Y-51108627D01*
X46009818Y-51115108D01*
X46013930Y-51118625D01*
X46017539Y-51119685D01*
X46038094Y-51136231D01*
X46043888Y-51142014D01*
X46071718Y-51178282D01*
X46108540Y-51206536D01*
X46114246Y-51212231D01*
X46127304Y-51236088D01*
X46143341Y-51258052D01*
X46143831Y-51266284D01*
X46147792Y-51273521D01*
X46145878Y-51300651D01*
X46147496Y-51327798D01*
X46143457Y-51334989D01*
X46142877Y-51343217D01*
X46126599Y-51365006D01*
X46113283Y-51388719D01*
X46102146Y-51398369D01*
X46071718Y-51421718D01*
X46071717Y-51421719D01*
X46071716Y-51421720D01*
X46048875Y-51451487D01*
X45992447Y-51492690D01*
X45950500Y-51500000D01*
X45907990Y-51500000D01*
X45907988Y-51500001D01*
X45915441Y-51556622D01*
X45915445Y-51556634D01*
X45923837Y-51576895D01*
X45931304Y-51646364D01*
X45923838Y-51671794D01*
X45914956Y-51693238D01*
X45914955Y-51693239D01*
X45899500Y-51810638D01*
X45899500Y-52089363D01*
X45914953Y-52206753D01*
X45914956Y-52206762D01*
X45974596Y-52350747D01*
X45975464Y-52352841D01*
X46071718Y-52478282D01*
X46197159Y-52574536D01*
X46343238Y-52635044D01*
X46460639Y-52650500D01*
X47814360Y-52650499D01*
X47814363Y-52650499D01*
X47931753Y-52635046D01*
X47931757Y-52635044D01*
X47931762Y-52635044D01*
X48077841Y-52574536D01*
X48203282Y-52478282D01*
X48299536Y-52352841D01*
X48343835Y-52245893D01*
X48364422Y-52220345D01*
X48384085Y-52194080D01*
X48386233Y-52193278D01*
X48387674Y-52191491D01*
X48418817Y-52181125D01*
X48449549Y-52169663D01*
X48451790Y-52170150D01*
X48453968Y-52169426D01*
X48485761Y-52177540D01*
X48517822Y-52184515D01*
X48520271Y-52186348D01*
X48521668Y-52186705D01*
X48546049Y-52205645D01*
X48546072Y-52205662D01*
X48696267Y-52355858D01*
X48696269Y-52355859D01*
X48703338Y-52362928D01*
X49765785Y-53425376D01*
X49799270Y-53486699D01*
X49794286Y-53556391D01*
X49752414Y-53612324D01*
X49686950Y-53636741D01*
X49665503Y-53636415D01*
X49651659Y-53635000D01*
X49552500Y-53635000D01*
X49552500Y-55584999D01*
X49651640Y-55584999D01*
X49651654Y-55584998D01*
X49752652Y-55574680D01*
X49916300Y-55520453D01*
X49916311Y-55520448D01*
X50063035Y-55429947D01*
X50076960Y-55416021D01*
X50138282Y-55382533D01*
X50207973Y-55387514D01*
X50252327Y-55416017D01*
X50266650Y-55430340D01*
X50413484Y-55520908D01*
X50577247Y-55575174D01*
X50678323Y-55585500D01*
X51376676Y-55585499D01*
X51376684Y-55585498D01*
X51376687Y-55585498D01*
X51432030Y-55579844D01*
X51477753Y-55575174D01*
X51641516Y-55520908D01*
X51788350Y-55430340D01*
X51910340Y-55308350D01*
X51918942Y-55294404D01*
X51970890Y-55247679D01*
X52024481Y-55235500D01*
X52766607Y-55235500D01*
X52827029Y-55223481D01*
X52887452Y-55211463D01*
X52920792Y-55197652D01*
X53001286Y-55164312D01*
X53052509Y-55130084D01*
X53103733Y-55095858D01*
X53190858Y-55008733D01*
X53190859Y-55008731D01*
X53197925Y-55001665D01*
X53197927Y-55001661D01*
X55856162Y-52343427D01*
X55917483Y-52309944D01*
X55987175Y-52314928D01*
X56008938Y-52325572D01*
X56080657Y-52369809D01*
X56080660Y-52369810D01*
X56080666Y-52369814D01*
X56247203Y-52424999D01*
X56349991Y-52435500D01*
X57950008Y-52435499D01*
X58052797Y-52424999D01*
X58219334Y-52369814D01*
X58368656Y-52277712D01*
X58492712Y-52153656D01*
X58561058Y-52042849D01*
X58578349Y-52027296D01*
X58592287Y-52008678D01*
X58603839Y-52004369D01*
X58613006Y-51996124D01*
X58635961Y-51992388D01*
X58657751Y-51984261D01*
X58669797Y-51986881D01*
X58681968Y-51984901D01*
X58703299Y-51994169D01*
X58726024Y-51999113D01*
X58741720Y-52010863D01*
X58746051Y-52012745D01*
X58754278Y-52020264D01*
X58788181Y-52054167D01*
X58821666Y-52115490D01*
X58824500Y-52141847D01*
X58824500Y-52370000D01*
X58824501Y-52370019D01*
X58835000Y-52472796D01*
X58835001Y-52472799D01*
X58890185Y-52639331D01*
X58890187Y-52639336D01*
X58897073Y-52650500D01*
X58982288Y-52788656D01*
X59106344Y-52912712D01*
X59255666Y-53004814D01*
X59422203Y-53059999D01*
X59524991Y-53070500D01*
X61125008Y-53070499D01*
X61227797Y-53059999D01*
X61394334Y-53004814D01*
X61543656Y-52912712D01*
X61667712Y-52788656D01*
X61759814Y-52639334D01*
X61814999Y-52472797D01*
X61825500Y-52370009D01*
X61825499Y-51769992D01*
X61814999Y-51667203D01*
X61759814Y-51500666D01*
X61667712Y-51351344D01*
X61543656Y-51227288D01*
X61536766Y-51223038D01*
X61490042Y-51171093D01*
X61478819Y-51102130D01*
X61506662Y-51038048D01*
X61536765Y-51011961D01*
X61543656Y-51007712D01*
X61667712Y-50883656D01*
X61759814Y-50734334D01*
X61814999Y-50567797D01*
X61825500Y-50465009D01*
X61825499Y-49864992D01*
X61825054Y-49860639D01*
X61814999Y-49762203D01*
X61814998Y-49762200D01*
X61793182Y-49696364D01*
X61759814Y-49595666D01*
X61667712Y-49446344D01*
X61543656Y-49322288D01*
X61536766Y-49318038D01*
X61490042Y-49266093D01*
X61478819Y-49197130D01*
X61506662Y-49133048D01*
X61536765Y-49106961D01*
X61543656Y-49102712D01*
X61667712Y-48978656D01*
X61759814Y-48829334D01*
X61814999Y-48662797D01*
X61825500Y-48560009D01*
X61825499Y-47959992D01*
X61820457Y-47910638D01*
X61814999Y-47857203D01*
X61814998Y-47857200D01*
X61802021Y-47818039D01*
X61759814Y-47690666D01*
X61667712Y-47541344D01*
X61543656Y-47417288D01*
X61536766Y-47413038D01*
X61490042Y-47361093D01*
X61478819Y-47292130D01*
X61506662Y-47228048D01*
X61536765Y-47201961D01*
X61543656Y-47197712D01*
X61667712Y-47073656D01*
X61759814Y-46924334D01*
X61814999Y-46757797D01*
X61825500Y-46655009D01*
X61825499Y-46054992D01*
X61814999Y-45952203D01*
X61759814Y-45785666D01*
X61667712Y-45636344D01*
X61543656Y-45512288D01*
X61394334Y-45420186D01*
X61227797Y-45365001D01*
X61227795Y-45365000D01*
X61125010Y-45354500D01*
X59524998Y-45354500D01*
X59524981Y-45354501D01*
X59422203Y-45365000D01*
X59422200Y-45365001D01*
X59255668Y-45420185D01*
X59255663Y-45420187D01*
X59106342Y-45512289D01*
X58982289Y-45636342D01*
X58890187Y-45785663D01*
X58890185Y-45785668D01*
X58862349Y-45869670D01*
X58835001Y-45952203D01*
X58835001Y-45952204D01*
X58835000Y-45952204D01*
X58824500Y-46054983D01*
X58824500Y-46655001D01*
X58824501Y-46655019D01*
X58835000Y-46757796D01*
X58835002Y-46757803D01*
X58861370Y-46837378D01*
X58861905Y-46852942D01*
X58867348Y-46867535D01*
X58863081Y-46887148D01*
X58863771Y-46907207D01*
X58855601Y-46921530D01*
X58852496Y-46935808D01*
X58831345Y-46964062D01*
X58754446Y-47040961D01*
X58693123Y-47074446D01*
X58623431Y-47069462D01*
X58567498Y-47027590D01*
X58561226Y-47018376D01*
X58492317Y-46906656D01*
X58368345Y-46782684D01*
X58219124Y-46690643D01*
X58219119Y-46690641D01*
X58052697Y-46635494D01*
X58052690Y-46635493D01*
X57949986Y-46625000D01*
X57400000Y-46625000D01*
X57400000Y-47501000D01*
X57380315Y-47568039D01*
X57327511Y-47613794D01*
X57276000Y-47625000D01*
X57150000Y-47625000D01*
X57150000Y-47751000D01*
X57130315Y-47818039D01*
X57077511Y-47863794D01*
X57026000Y-47875000D01*
X55650001Y-47875000D01*
X55650001Y-47924986D01*
X55660493Y-48027695D01*
X55686606Y-48106495D01*
X55689008Y-48176324D01*
X55653277Y-48236366D01*
X55590756Y-48267559D01*
X55568900Y-48269500D01*
X54597201Y-48269500D01*
X54536783Y-48281518D01*
X54476360Y-48293537D01*
X54476358Y-48293537D01*
X54476357Y-48293538D01*
X54476355Y-48293538D01*
X54444431Y-48306762D01*
X54362525Y-48340688D01*
X54362520Y-48340690D01*
X54311303Y-48374913D01*
X54311301Y-48374916D01*
X54280933Y-48395207D01*
X54214256Y-48416084D01*
X54146876Y-48397599D01*
X54100186Y-48345620D01*
X54089010Y-48276650D01*
X54089078Y-48276120D01*
X54100500Y-48189361D01*
X54100499Y-47910640D01*
X54100499Y-47910638D01*
X54100499Y-47910636D01*
X54085046Y-47793246D01*
X54085044Y-47793239D01*
X54085044Y-47793238D01*
X54024536Y-47647159D01*
X53928282Y-47521718D01*
X53802841Y-47425464D01*
X53783102Y-47417288D01*
X53656762Y-47364956D01*
X53656760Y-47364955D01*
X53539370Y-47349501D01*
X53539367Y-47349500D01*
X53539361Y-47349500D01*
X53539354Y-47349500D01*
X52185636Y-47349500D01*
X52068246Y-47364953D01*
X52068237Y-47364956D01*
X51922160Y-47425463D01*
X51796718Y-47521718D01*
X51700463Y-47647160D01*
X51639956Y-47793237D01*
X51639955Y-47793239D01*
X51624500Y-47910638D01*
X51624500Y-48189363D01*
X51639953Y-48306753D01*
X51639956Y-48306762D01*
X51648566Y-48327550D01*
X51656033Y-48397019D01*
X51648566Y-48422450D01*
X51639957Y-48443234D01*
X51639955Y-48443239D01*
X51624500Y-48560638D01*
X51624500Y-48839363D01*
X51639953Y-48956753D01*
X51639956Y-48956762D01*
X51648837Y-48978203D01*
X51656304Y-49047673D01*
X51648838Y-49073103D01*
X51640443Y-49093370D01*
X51632987Y-49150000D01*
X51675500Y-49150000D01*
X51704880Y-49158627D01*
X51734818Y-49165108D01*
X51738930Y-49168625D01*
X51742539Y-49169685D01*
X51763094Y-49186231D01*
X51768888Y-49192014D01*
X51796718Y-49228282D01*
X51833540Y-49256536D01*
X51839246Y-49262231D01*
X51852304Y-49286088D01*
X51868341Y-49308052D01*
X51868831Y-49316284D01*
X51872792Y-49323521D01*
X51870878Y-49350651D01*
X51872496Y-49377798D01*
X51868457Y-49384989D01*
X51867877Y-49393217D01*
X51851599Y-49415006D01*
X51838283Y-49438719D01*
X51827146Y-49448369D01*
X51796718Y-49471718D01*
X51796717Y-49471719D01*
X51796716Y-49471720D01*
X51773875Y-49501487D01*
X51717447Y-49542690D01*
X51675500Y-49550000D01*
X51632990Y-49550000D01*
X51632988Y-49550001D01*
X51640441Y-49606622D01*
X51640445Y-49606634D01*
X51648837Y-49626895D01*
X51656304Y-49696364D01*
X51648838Y-49721794D01*
X51639956Y-49743238D01*
X51639955Y-49743239D01*
X51624500Y-49860638D01*
X51624500Y-50139363D01*
X51639953Y-50256753D01*
X51639957Y-50256765D01*
X51648566Y-50277550D01*
X51656033Y-50347019D01*
X51648566Y-50372450D01*
X51639957Y-50393234D01*
X51639955Y-50393239D01*
X51624500Y-50510638D01*
X51624500Y-50789363D01*
X51639953Y-50906753D01*
X51639957Y-50906765D01*
X51648566Y-50927550D01*
X51656033Y-50997019D01*
X51648566Y-51022450D01*
X51639957Y-51043234D01*
X51639955Y-51043239D01*
X51624500Y-51160638D01*
X51624500Y-51439363D01*
X51639953Y-51556753D01*
X51639957Y-51556765D01*
X51648566Y-51577550D01*
X51656033Y-51647019D01*
X51648566Y-51672450D01*
X51639957Y-51693234D01*
X51639955Y-51693239D01*
X51624500Y-51810638D01*
X51624500Y-52089363D01*
X51639953Y-52206753D01*
X51639956Y-52206762D01*
X51699596Y-52350747D01*
X51700464Y-52352841D01*
X51796718Y-52478282D01*
X51922159Y-52574536D01*
X52068238Y-52635044D01*
X52185639Y-52650500D01*
X53480548Y-52650499D01*
X53547587Y-52670184D01*
X53593342Y-52722987D01*
X53603286Y-52792146D01*
X53574261Y-52855702D01*
X53568229Y-52862180D01*
X52482229Y-53948181D01*
X52420906Y-53981666D01*
X52394548Y-53984500D01*
X52024481Y-53984500D01*
X51957442Y-53964815D01*
X51918942Y-53925596D01*
X51910534Y-53911965D01*
X51910340Y-53911650D01*
X51788350Y-53789660D01*
X51788346Y-53789657D01*
X51691109Y-53729680D01*
X51644384Y-53677732D01*
X51634589Y-53648336D01*
X51628963Y-53620049D01*
X51581811Y-53506215D01*
X51581810Y-53506214D01*
X51581807Y-53506208D01*
X51513358Y-53403768D01*
X51513355Y-53403764D01*
X51421914Y-53312323D01*
X51421891Y-53312302D01*
X49585198Y-51475608D01*
X49585195Y-51475605D01*
X49580859Y-51471269D01*
X49580858Y-51471267D01*
X49571005Y-51461414D01*
X49556816Y-51447224D01*
X49538906Y-51414421D01*
X49523334Y-51385904D01*
X49523333Y-51385901D01*
X49523333Y-51385896D01*
X49520500Y-51359546D01*
X49520500Y-50738679D01*
X49520500Y-50738394D01*
X49519692Y-50734334D01*
X49507791Y-50674500D01*
X49496463Y-50617548D01*
X49464874Y-50541286D01*
X49449312Y-50503715D01*
X49425146Y-50467549D01*
X49380858Y-50401267D01*
X49380856Y-50401264D01*
X49290637Y-50311045D01*
X49290606Y-50311016D01*
X48588502Y-49608912D01*
X48580860Y-49601270D01*
X48580858Y-49601267D01*
X48493733Y-49514142D01*
X48430241Y-49471718D01*
X48424358Y-49467787D01*
X48418659Y-49462887D01*
X48403582Y-49439625D01*
X48385803Y-49418351D01*
X48383914Y-49409278D01*
X48380658Y-49404255D01*
X48380616Y-49393438D01*
X48375499Y-49368861D01*
X48375499Y-49210638D01*
X48372277Y-49186170D01*
X48360044Y-49093238D01*
X48360042Y-49093234D01*
X48354391Y-49079592D01*
X48351434Y-49072454D01*
X48343965Y-49002986D01*
X48351435Y-48977545D01*
X48360044Y-48956762D01*
X48375500Y-48839361D01*
X48375499Y-48560640D01*
X48360044Y-48443238D01*
X48360042Y-48443234D01*
X48351435Y-48422455D01*
X48343965Y-48352986D01*
X48351435Y-48327545D01*
X48360044Y-48306762D01*
X48375500Y-48189361D01*
X48375499Y-47910640D01*
X48375499Y-47910638D01*
X48375499Y-47910636D01*
X48360046Y-47793246D01*
X48360044Y-47793239D01*
X48360044Y-47793238D01*
X48299536Y-47647159D01*
X48203282Y-47521718D01*
X48077841Y-47425464D01*
X48058102Y-47417288D01*
X47931762Y-47364956D01*
X47931760Y-47364955D01*
X47814370Y-47349501D01*
X47814367Y-47349500D01*
X47814361Y-47349500D01*
X47814354Y-47349500D01*
X46460636Y-47349500D01*
X46343246Y-47364953D01*
X46343237Y-47364956D01*
X46197160Y-47425463D01*
X46071718Y-47521718D01*
X45975463Y-47647160D01*
X45914956Y-47793237D01*
X45914955Y-47793239D01*
X45899500Y-47910638D01*
X37275103Y-47910638D01*
X37311303Y-47682082D01*
X37312098Y-47677606D01*
X37332645Y-47573361D01*
X37332951Y-47571866D01*
X37385421Y-47325013D01*
X55650000Y-47325013D01*
X55650000Y-47375000D01*
X56900000Y-47375000D01*
X56900000Y-46625000D01*
X56350028Y-46625000D01*
X56350012Y-46625001D01*
X56247302Y-46635494D01*
X56080880Y-46690641D01*
X56080875Y-46690643D01*
X55931654Y-46782684D01*
X55807684Y-46906654D01*
X55715643Y-47055875D01*
X55715641Y-47055880D01*
X55660494Y-47222302D01*
X55660493Y-47222309D01*
X55650000Y-47325013D01*
X37385421Y-47325013D01*
X37453251Y-47005901D01*
X37454361Y-47001156D01*
X37470576Y-46937712D01*
X37470883Y-46936539D01*
X37630872Y-46339452D01*
X37632703Y-46333270D01*
X37839399Y-45697125D01*
X37841549Y-45691053D01*
X38081258Y-45066589D01*
X38083728Y-45060626D01*
X38355794Y-44449557D01*
X38358558Y-44443761D01*
X38662236Y-43847761D01*
X38665317Y-43842087D01*
X38718725Y-43749582D01*
X40732844Y-43749582D01*
X40732844Y-44011837D01*
X40759467Y-44214049D01*
X40767074Y-44271826D01*
X40834946Y-44525128D01*
X40834949Y-44525138D01*
X40935297Y-44767400D01*
X40935302Y-44767410D01*
X41066419Y-44994513D01*
X41226062Y-45202561D01*
X41226070Y-45202570D01*
X41411484Y-45387984D01*
X41411492Y-45387991D01*
X41619540Y-45547634D01*
X41846643Y-45678751D01*
X41846653Y-45678756D01*
X42081658Y-45776098D01*
X42088925Y-45779108D01*
X42342228Y-45846980D01*
X42602224Y-45881210D01*
X42602231Y-45881210D01*
X42864457Y-45881210D01*
X42864464Y-45881210D01*
X43124460Y-45846980D01*
X43377763Y-45779108D01*
X43620041Y-45678753D01*
X43847147Y-45547634D01*
X44055195Y-45387992D01*
X44055199Y-45387987D01*
X44055204Y-45387984D01*
X44240618Y-45202570D01*
X44240621Y-45202565D01*
X44240626Y-45202561D01*
X44400268Y-44994513D01*
X44531387Y-44767407D01*
X44631742Y-44525129D01*
X44699614Y-44271826D01*
X44733844Y-44011830D01*
X44733844Y-43749590D01*
X44733843Y-43749582D01*
X53152586Y-43749582D01*
X53152586Y-44011837D01*
X53179209Y-44214049D01*
X53186816Y-44271826D01*
X53254688Y-44525128D01*
X53254691Y-44525138D01*
X53355039Y-44767400D01*
X53355044Y-44767410D01*
X53486161Y-44994513D01*
X53645804Y-45202561D01*
X53645812Y-45202570D01*
X53831226Y-45387984D01*
X53831234Y-45387991D01*
X54039282Y-45547634D01*
X54266385Y-45678751D01*
X54266395Y-45678756D01*
X54501400Y-45776098D01*
X54508667Y-45779108D01*
X54761970Y-45846980D01*
X55021966Y-45881210D01*
X55021973Y-45881210D01*
X55284199Y-45881210D01*
X55284206Y-45881210D01*
X55544202Y-45846980D01*
X55797505Y-45779108D01*
X56039783Y-45678753D01*
X56266889Y-45547634D01*
X56474937Y-45387992D01*
X56474941Y-45387987D01*
X56474946Y-45387984D01*
X56660360Y-45202570D01*
X56660363Y-45202565D01*
X56660368Y-45202561D01*
X56820010Y-44994513D01*
X56951129Y-44767407D01*
X57051484Y-44525129D01*
X57119356Y-44271826D01*
X57153586Y-44011830D01*
X57153586Y-43749590D01*
X57119356Y-43489594D01*
X57051484Y-43236291D01*
X57030542Y-43185733D01*
X56951132Y-42994019D01*
X56951127Y-42994009D01*
X56820010Y-42766906D01*
X56660367Y-42558858D01*
X56660360Y-42558850D01*
X56474946Y-42373436D01*
X56474937Y-42373428D01*
X56266889Y-42213785D01*
X56039786Y-42082668D01*
X56039776Y-42082663D01*
X55797514Y-41982315D01*
X55797507Y-41982313D01*
X55797505Y-41982312D01*
X55544202Y-41914440D01*
X55486425Y-41906833D01*
X55284213Y-41880210D01*
X55284206Y-41880210D01*
X55021966Y-41880210D01*
X55021958Y-41880210D01*
X54790858Y-41910636D01*
X54761970Y-41914440D01*
X54508667Y-41982312D01*
X54508657Y-41982315D01*
X54266395Y-42082663D01*
X54266385Y-42082668D01*
X54039282Y-42213785D01*
X53831234Y-42373428D01*
X53645804Y-42558858D01*
X53486161Y-42766906D01*
X53355044Y-42994009D01*
X53355039Y-42994019D01*
X53254691Y-43236281D01*
X53254688Y-43236291D01*
X53186816Y-43489595D01*
X53152586Y-43749582D01*
X44733843Y-43749582D01*
X44699614Y-43489594D01*
X44631742Y-43236291D01*
X44610800Y-43185733D01*
X44531390Y-42994019D01*
X44531385Y-42994009D01*
X44400268Y-42766906D01*
X44240625Y-42558858D01*
X44240618Y-42558850D01*
X44055204Y-42373436D01*
X44055195Y-42373428D01*
X43847147Y-42213785D01*
X43620044Y-42082668D01*
X43620034Y-42082663D01*
X43377772Y-41982315D01*
X43377765Y-41982313D01*
X43377763Y-41982312D01*
X43124460Y-41914440D01*
X43066683Y-41906833D01*
X42864471Y-41880210D01*
X42864464Y-41880210D01*
X42602224Y-41880210D01*
X42602216Y-41880210D01*
X42371116Y-41910636D01*
X42342228Y-41914440D01*
X42088925Y-41982312D01*
X42088915Y-41982315D01*
X41846653Y-42082663D01*
X41846643Y-42082668D01*
X41619540Y-42213785D01*
X41411492Y-42373428D01*
X41226062Y-42558858D01*
X41066419Y-42766906D01*
X40935302Y-42994009D01*
X40935297Y-42994019D01*
X40834949Y-43236281D01*
X40834946Y-43236291D01*
X40767074Y-43489595D01*
X40732844Y-43749582D01*
X38718725Y-43749582D01*
X38999766Y-43262804D01*
X39003115Y-43257339D01*
X39367438Y-42696330D01*
X39371068Y-42691049D01*
X39737872Y-42186187D01*
X39738420Y-42185441D01*
X39772738Y-42139294D01*
X39775786Y-42135368D01*
X40142912Y-41682004D01*
X40143664Y-41681089D01*
X40208930Y-41602818D01*
X40211920Y-41599368D01*
X40584727Y-41185324D01*
X40585937Y-41184005D01*
X40672510Y-41091195D01*
X40675419Y-41088183D01*
X41058380Y-40705222D01*
X41059981Y-40703653D01*
X41161921Y-40605878D01*
X41164667Y-40603327D01*
X41560851Y-40246602D01*
X41562858Y-40244837D01*
X41675250Y-40148440D01*
X41677736Y-40146369D01*
X42089625Y-39812828D01*
X42092181Y-39810815D01*
X42210240Y-39720442D01*
X42212569Y-39718704D01*
X42642825Y-39406105D01*
X42645710Y-39404076D01*
X42764519Y-39323188D01*
X42766615Y-39321795D01*
X43218288Y-39028475D01*
X43221668Y-39026360D01*
X43334676Y-38958291D01*
X43336369Y-38957293D01*
X43814251Y-38681388D01*
X43818176Y-38679217D01*
X43915838Y-38627560D01*
X43917020Y-38626946D01*
X44428864Y-38366148D01*
X44433275Y-38364012D01*
X44499614Y-38333514D01*
X44500494Y-38333115D01*
X45060201Y-38083917D01*
X45065066Y-38081877D01*
X45068275Y-38080613D01*
X45068517Y-38080518D01*
X45691045Y-37841552D01*
X45697121Y-37839400D01*
X46333270Y-37632703D01*
X46339452Y-37630872D01*
X46985567Y-37457745D01*
X46991837Y-37456241D01*
X47646079Y-37317177D01*
X47652460Y-37315995D01*
X48313084Y-37211362D01*
X48319465Y-37210521D01*
X48984728Y-37140600D01*
X48991132Y-37140096D01*
X49620774Y-37107097D01*
X49621715Y-37107053D01*
X49663825Y-37105296D01*
X49670271Y-37105028D01*
X49675438Y-37104920D01*
X50263412Y-37104920D01*
X50265134Y-37104932D01*
G37*
%TD.AperFunction*%
%TD*%
M02*
