<svg width="109" height="80" viewBox="0 0 109 80" fill="none" xmlns="http://www.w3.org/2000/svg">
<path d="M72.3139 65.5822C69.7894 67.3835 67.0056 68.6904 63.957 68.8962C58.5879 69.259 53.2305 69.0649 48.0573 67.1952C44.7824 66.0116 42.3283 63.855 40.2638 61.1579C38.2997 58.5917 37.6011 57.1135 36.523 52.9575C36.3594 52.4422 36.1545 51.4909 36.1545 51.4909C36.1545 51.4909 35.9605 52.3303 35.9285 52.5835C35.5941 55.2463 36.1179 57.8742 36.6875 60.4093C37.2706 63.0043 38.4924 65.4404 39.9654 67.7251C39.9654 67.7251 40.8448 69.1548 42.6594 70.8679C44.5544 72.6571 47.2031 74.2149 49.892 74.9953C52.2325 75.6744 54.6698 76.1109 57.137 76.2714C60.8286 76.5117 64.4743 76.1996 67.9351 74.9357C71.4351 73.6573 74.3853 71.4637 76.8482 68.6346C77.6298 67.7369 78.4425 66.8607 79.0786 65.9345C75.6583 65.6424 73.586 64.5105 73.586 64.5105C73.586 64.5105 73.16 64.9786 72.3139 65.5822Z" fill="white"/>
<path d="M108.779 37.2504C107.152 48.0322 99.2182 53.9317 89.2501 57.1866C83.0495 59.1918 75.3171 59.5621 71.2453 53.2527C70.4673 52.0061 69.1105 47.8288 69.1105 47.8288C68.999 48.0754 68.0933 51.694 69.392 56.641C71.3482 62.4758 74.1962 64.5101 79.105 64.9402C98.6079 65.7307 110.814 48.6425 108.779 37.2504Z" fill="white"/>
<path d="M41.6027 70.9936C41.6027 70.9936 39.0027 73.8679 33.3292 76.8305C31.169 77.9383 28.8706 78.5899 26.5419 79.0619C24.8689 79.401 23.1023 79.3473 21.3777 79.3461C18.4861 79.3442 15.6893 78.8867 13.0423 77.587C10.0067 76.0965 7.48803 74.0349 5.46735 71.3344C3.3828 68.5486 1.92603 65.443 0.858424 62.1578C0.59193 61.338 -0.0305658 58.0656 0.00116938 58.1329C0.678797 60.0444 3.14071 66.6079 9.20681 69.8845C10.9309 70.8472 12.7923 71.4971 14.7759 71.9325C17.8797 72.6135 20.9797 72.4901 24.0831 72.4044C26.1693 72.3468 28.2656 71.9011 30.2338 71.2542C34.5272 69.7993 38.3444 66.8312 38.3444 66.8312C39.3265 68.5398 40.4104 69.9738 41.6027 70.9936Z" fill="white"/>
<path d="M36.6524 37.2497C37.0121 34.9568 37.5792 32.979 38.0959 31.2601C39.0394 28.16 40.7918 23.5659 42.7927 19.4C44.8301 15.0348 47.2977 10.9139 50.3453 7.19156C52.5877 4.45257 55.0362 1.86799 58.3521 0.335342C59.5644 -0.224906 61.6278 -0.319704 63.1161 1.96035C64.2311 3.802 64.6044 4.75162 64.7934 7.35187C64.841 8.82898 64.7506 11.1515 64.4319 13.6527C64.4319 13.6527 64.1251 12.3337 63.8781 11.5623C63.6177 10.693 63.4957 10.2927 63.182 9.44252C62.2134 6.81746 59.8402 6.15224 57.2384 7.68427C54.136 9.51088 51.8619 12.1555 49.7989 15.0238C47.1683 18.6813 45.0728 22.6411 43.0959 26.679C42.0561 28.8024 41.1663 30.9903 40.4014 33.2053C39.6253 35.4526 38.8395 37.7035 38.2573 40.0367C37.5463 42.8859 37.0332 45.7541 36.5202 48.6322C36.485 48.8259 36.1548 50.2702 36.1548 50.2702C36.1548 50.2702 35.9617 49.1084 35.9617 45.4353C35.9617 44.2157 36.3291 39.7767 36.6524 37.2497Z" fill="white"/>
<path d="M68.8711 43.3997C68.7777 40.8796 69.4381 38.4765 69.9239 36.0323C70.3883 33.6957 71.1921 31.4706 72.0361 29.2912C73.2485 26.1608 74.5841 23.0558 76.514 20.2495C78.1622 17.8527 80.0793 15.7952 82.6131 14.3089C85.9794 12.3342 88.2798 14.147 89.3535 16.886C90.2702 19.9828 90.2283 25.3835 90.2673 26.4688C90.2673 26.4688 89.4839 23.3524 87.9844 21.534C87.1144 20.479 85.5996 19.9991 84.2869 20.375C80.7769 21.3804 78.7123 24.0415 76.8102 26.8494C75.2198 29.1972 74.187 31.8367 73.037 34.4256C71.851 37.0954 71.1689 39.8997 70.2919 42.6491C69.9194 43.9891 69.1103 46.6084 69.1103 46.6084C69.1103 46.6084 68.8711 44.281 68.8711 43.3997Z" fill="white"/>
<path d="M64.773 18.7069C63.3335 34.4282 59.6461 51.5034 46.9364 65.7311C45.2253 64.8779 43.9126 64.0064 42.6643 62.6797C48.36 57.1533 59.1422 45.1846 64.4314 14.2632C64.4314 14.2632 64.6788 15.3515 64.7238 15.9356C64.7724 16.6582 64.8987 17.3342 64.773 18.7069Z" fill="white"/>
<path d="M89.0467 42.3365C88.6004 44.2213 87.7244 47.6484 87.132 49.5035C86.4723 51.5686 85.1815 55.5595 84.1334 57.1869C82.8317 57.4164 81.3818 57.429 79.8502 57.3218C87.0124 46.4051 90.2294 27.6 90.2673 27.486C90.783 28.9778 90.2673 36.437 89.0467 42.3365Z" fill="white"/>
<path d="M17.6307 43.0881C16.7268 42.204 16.5627 41.2436 16.5627 39.7954V33.286H19.0441V39.7191C19.0441 40.6185 19.0606 41.2741 19.455 41.7009C19.9809 42.2803 20.6876 42.4174 21.7394 42.4174H24.6645V44.2314H21.5258C19.8163 44.2314 18.6824 44.1248 17.6307 43.0881Z" fill="white"/>
<path d="M46.1714 37.738H53.0404V39.6435H46.1549C46.1714 41.6101 47.0095 42.3264 48.9649 42.3264H53.0402V44.2319H48.8498C47.4201 44.2319 46.3191 44.1253 45.1687 43.2715C43.9526 42.3721 43.361 40.9392 43.361 38.9573C43.361 35.0852 45.1195 33.2865 48.9155 33.2865H53.04V35.192H48.9647C47.1737 35.1922 46.2701 36.0153 46.1714 37.738Z" fill="white"/>
<path d="M80.0205 33.286L85.0491 44.2314H82.2883L81.2038 41.6246H76.0768L75.025 44.2314H72.3957L77.3913 33.286H80.0205ZM76.8817 39.6733H80.3984L78.6072 35.4658L76.8817 39.6733Z" fill="white"/>
</svg>
