<svg width="311" height="33" viewBox="0 0 311 33" fill="none" xmlns="http://www.w3.org/2000/svg">
<path d="M2.1145 11.6952C1.13097 10.6581 0.952148 9.53125 0.952148 7.83242V0.196289H3.65257V7.74301C3.65257 8.79819 3.67033 9.56708 4.09963 10.068C4.67193 10.7475 5.44081 10.9082 6.5854 10.9082H9.76871V13.0364H6.35269C4.4928 13.0367 3.2588 12.9114 2.1145 11.6952Z" fill="white"/>
<path d="M16.2427 3.6123C18.8179 3.6123 20.1232 4.81019 20.1232 7.1352V13.0367H13.4351C11.5574 13.0367 10.52 12.0529 10.52 10.3185C10.52 8.13679 11.6465 7.31432 14.2753 7.31432H17.548V7.08192C17.548 5.88404 16.8686 5.56191 15.2947 5.56191H11.1462V3.61261H16.2427V3.6123ZM17.5661 11.141V9.19167H14.6333C13.5781 9.19167 13.0952 9.40633 13.0952 10.2469C13.0952 11.0335 13.5423 11.141 14.4544 11.141H17.5661Z" fill="white"/>
<path d="M24.8088 3.6123H26.9547C28.6535 3.6123 29.7981 3.93383 30.6923 5.06096C31.3717 5.91925 31.7116 6.95636 31.7116 8.20813C31.7116 11.2126 30.0305 13.0367 27.1155 13.0367H22.3228V0.196289H24.8085V3.6123H24.8088ZM24.8088 5.65071V11.0154H26.5257C28.3678 11.0154 29.1009 10.354 29.1009 8.38695C29.1009 6.34824 28.2604 5.65071 26.3288 5.65071H24.8088V5.65071Z" fill="white"/>
<path d="M37.6138 13.1979C34.538 13.1979 32.6064 11.2486 32.6064 8.3338C32.6064 5.40096 34.538 3.45166 37.6138 3.45166C40.6719 3.45166 42.6031 5.40096 42.6031 8.3338C42.6031 11.2486 40.7074 13.1979 37.6138 13.1979ZM37.5958 11.1772C39.0622 11.1772 39.9918 10.1579 39.9918 8.3338C39.9918 6.50973 39.0799 5.49068 37.5958 5.49068C36.1471 5.49068 35.2172 6.51003 35.2172 8.3338C35.2175 10.1579 36.1293 11.1772 37.5958 11.1772Z" fill="white"/>
<path d="M48.3081 3.6123C50.2752 3.6123 50.955 4.23819 50.955 5.9906V7.56449H48.5767V6.34825C48.5767 5.50772 48.2904 5.4183 47.4857 5.4183H46.6093V13.0367H44.1235V3.6123H48.3081V3.6123Z" fill="white"/>
<path d="M57.8223 3.6123C60.3975 3.6123 61.7028 4.81019 61.7028 7.1352V13.0367H55.0147C53.137 13.0367 52.0996 12.0529 52.0996 10.3185C52.0996 8.13679 53.2261 7.31432 55.8549 7.31432H59.1276V7.08192C59.1276 5.88404 58.4482 5.56191 56.8743 5.56191H52.7255V3.61261H57.8223V3.6123ZM59.1457 11.141V9.19167H56.2129C55.1577 9.19167 54.6748 9.40633 54.6748 10.2469C54.6748 11.0335 55.1219 11.141 56.034 11.141H59.1457Z" fill="white"/>
<path d="M64.7078 3.6123V0.196289H67.1936V3.6123H69.8223V5.48995H67.1936V9.29883C67.1936 10.6042 67.5332 11.1587 68.803 11.1587H69.8223V13.0364H67.5512C65.7449 13.0364 64.7078 12.017 64.7078 10.0855V5.48965H62.9551V3.612H64.7078V3.6123Z" fill="white"/>
<path d="M75.67 13.1977C72.5941 13.1977 70.6626 11.2484 70.6626 8.33367C70.6626 5.40084 72.5941 3.45154 75.67 3.45154C78.728 3.45154 80.6593 5.40084 80.6593 8.33367C80.6593 11.2484 78.7639 13.1977 75.67 13.1977ZM75.6522 11.1771C77.1186 11.1771 78.0486 10.1577 78.0486 8.33367C78.0486 6.50961 77.1367 5.49056 75.6522 5.49056C74.2036 5.49056 73.2739 6.50991 73.2739 8.33367C73.2736 10.1577 74.1858 11.1771 75.6522 11.1771ZM78.567 0L75.5089 2.48577H74.2571L75.9918 0H78.567Z" fill="white"/>
<path d="M86.3643 3.6123C88.3314 3.6123 89.0111 4.23819 89.0111 5.9906V7.56449H86.6328V6.34825C86.6328 5.50772 86.3465 5.4183 85.5418 5.4183H84.6655V13.0367H82.1797V3.6123H86.3643V3.6123Z" fill="white"/>
<path d="M90.585 2.53906V0.196289H93.196V2.53906H90.585V2.53906ZM90.585 13.0367V3.6123H93.196V13.0367H90.585Z" fill="white"/>
<path d="M99.7232 13.1979C96.6474 13.1979 94.7158 11.2486 94.7158 8.3338C94.7158 5.40096 96.6474 3.45166 99.7232 3.45166C102.781 3.45166 104.712 5.40096 104.712 8.3338C104.712 11.2486 102.817 13.1979 99.7232 13.1979ZM99.7054 11.1772C101.172 11.1772 102.101 10.1579 102.101 8.3338C102.101 6.50973 101.19 5.49068 99.7054 5.49068C98.2568 5.49068 97.3268 6.51003 97.3268 8.3338C97.3268 10.1579 98.239 11.1772 99.7054 11.1772Z" fill="white"/>
<path d="M117.106 13.0367C114.173 13.0367 112.51 11.2126 112.51 8.20813C112.51 6.95636 112.85 5.91895 113.53 5.06096C114.424 3.93413 115.568 3.6123 117.267 3.6123H119.395V0.196289H121.881V13.0364H117.106V13.0367ZM119.395 5.65071H117.893C115.961 5.65071 115.121 6.34794 115.121 8.38695C115.121 10.354 115.854 11.0154 117.696 11.0154H119.395V5.65071V5.65071Z" fill="white"/>
<path d="M123.509 8.33338C123.509 5.25755 125.118 3.6123 128.248 3.6123H131.878V5.57937H128.588C126.996 5.57937 126.317 5.8476 126.263 7.34984H131.878V9.3169H126.263C126.317 10.8727 126.96 11.0693 128.57 11.0693H131.879V13.0364H128.248C125.119 13.0367 123.509 11.427 123.509 8.33338Z" fill="white"/>
<path d="M142.894 5.4183H150.37V7.6539H142.876C142.894 9.96084 143.806 10.8011 145.935 10.8011H150.37V13.0367H145.809C144.253 13.0367 143.055 12.9114 141.803 11.9101C140.48 10.855 139.836 9.1739 139.836 6.84889C139.836 2.30664 141.75 0.196289 145.881 0.196289H150.37V2.43189H145.935C143.985 2.43189 143.001 3.39765 142.894 5.4183Z" fill="white"/>
<path d="M157.166 3.6123C159.956 3.6123 161.1 4.55971 161.1 7.06354V13.0367H158.614V7.36761C158.614 6.06225 158.382 5.68684 156.969 5.68684H154.966V13.0367H152.48V3.6123H157.166V3.6123Z" fill="white"/>
<path d="M162.674 8.33338C162.674 5.25755 164.283 3.6123 167.413 3.6123H171.043V5.57937H167.753C166.161 5.57937 165.481 5.8476 165.428 7.34984H171.043V9.3169H165.428C165.481 10.8727 166.125 11.0693 167.735 11.0693H171.043V13.0364H167.413C164.283 13.0367 162.674 11.427 162.674 8.33338Z" fill="white"/>
<path d="M176.82 3.6123C178.787 3.6123 179.466 4.23819 179.466 5.9906V7.56449H177.088V6.34825C177.088 5.50772 176.802 5.4183 175.997 5.4183H175.121V13.0367H172.635V3.6123H176.82V3.6123Z" fill="white"/>
<path d="M186.316 16.4521H181.433V14.5389H185.886C186.852 14.5389 187.371 14.056 187.371 13.1974V13.0367H185.35C183.919 13.0367 182.864 13.0186 181.809 11.9996C180.933 11.159 180.414 9.85368 180.414 8.35144C180.414 6.86696 180.933 5.56161 181.809 4.72108C182.703 3.84472 183.794 3.6123 185.35 3.6123H189.874V12.6968C189.875 15.2362 188.801 16.4521 186.316 16.4521ZM187.371 11.0874V5.63296H186.083C185.261 5.63296 184.634 5.63296 184.116 5.93702C183.311 6.4199 183.007 7.17102 183.007 8.35144C183.007 10.5154 183.955 11.0877 186.083 11.0877H187.371V11.0874Z" fill="white"/>
<path d="M191.949 2.53906V0.196289H194.56V2.53906H191.949V2.53906ZM191.949 13.0367V3.6123H194.56V13.0367H191.949Z" fill="white"/>
<path d="M202 3.6123C204.575 3.6123 205.88 4.81019 205.88 7.1352V13.0367H199.192C197.314 13.0367 196.277 12.0529 196.277 10.3185C196.277 8.13679 197.403 7.31432 200.032 7.31432H203.305V7.08192C203.305 5.88404 202.625 5.56191 201.052 5.56191H196.903V3.61261H202V3.6123ZM203.323 11.141V9.19167H200.39C199.335 9.19167 198.852 9.40633 198.852 10.2469C198.852 11.0335 199.299 11.141 200.212 11.141H203.323Z" fill="white"/>
<path d="M214.447 8.33338C214.447 5.25755 216.056 3.6123 219.186 3.6123H222.816V5.57937H219.525C217.934 5.57937 217.254 5.8476 217.2 7.34984H222.816V9.3169H217.2C217.254 10.8727 217.898 11.0693 219.507 11.0693H222.816V13.0364H219.185C216.056 13.0367 214.447 11.427 214.447 8.33338Z" fill="white"/>
<path d="M238.124 0.196289L243.597 13.0364H240.592L239.412 9.97831H233.832L232.688 13.0364H229.826L235.263 0.196289H238.124ZM234.708 7.68943H238.535L236.586 2.75371L234.708 7.68943Z" fill="white"/>
<path d="M253.79 3.61261C256.508 3.61261 257.706 4.57807 257.706 7.06384V13.037H255.203V7.38568C255.203 6.02643 254.917 5.68685 253.593 5.68685H252.198V13.0367H249.659V5.68685H246.744V13.0367H244.24V3.6123H253.79V3.61261Z" fill="white"/>
<path d="M262.429 3.6123H264.575C266.274 3.6123 267.418 3.93383 268.313 5.06096C268.992 5.91925 269.332 6.95636 269.332 8.20813C269.332 11.2126 267.651 13.0367 264.736 13.0367H259.943V0.196289H262.429V3.6123V3.6123ZM262.429 5.65071V11.0154H264.146C265.988 11.0154 266.721 10.354 266.721 8.38695C266.721 6.34824 265.88 5.65071 263.949 5.65071H262.429V5.65071Z" fill="white"/>
<path d="M270.852 2.53906V0.196289H273.463V2.53906H270.852V2.53906ZM270.852 13.0367V3.6123H273.463V13.0367H270.852Z" fill="white"/>
<path d="M275.072 8.33338C275.072 5.25755 276.682 3.6123 279.811 3.6123H283.441V5.57937H280.151C278.559 5.57937 277.88 5.8476 277.826 7.34984H283.441V9.3169H277.826C277.88 10.8727 278.524 11.0693 280.133 11.0693H283.441V13.0364H279.811C276.681 13.0367 275.072 11.427 275.072 8.33338Z" fill="white"/>
<path d="M289.719 3.6123C292.509 3.6123 293.653 4.55971 293.653 7.06354V13.0367H291.167V7.36761C291.167 6.06225 290.935 5.68684 289.522 5.68684H287.519V13.0367H285.033V3.6123H289.719V3.6123Z" fill="white"/>
<path d="M296.586 3.6123V0.196289H299.072V3.6123H301.701V5.48995H299.072V9.29883C299.072 10.6042 299.412 11.1587 300.681 11.1587H301.701V13.0364H299.43C297.624 13.0364 296.586 12.017 296.586 10.0855V5.48965H294.834V3.612H296.586V3.6123Z" fill="white"/>
<path d="M302.631 8.33338C302.631 5.25755 304.24 3.6123 307.37 3.6123H311V5.57937H307.71C306.118 5.57937 305.438 5.8476 305.385 7.34984H311V9.3169H305.385C305.438 10.8727 306.082 11.0693 307.692 11.0693H311V13.0364H307.369C304.24 13.0367 302.631 11.427 302.631 8.33338Z" fill="white"/>
<path d="M2.17087 24.8474H7.47809V26.4345H2.15823C2.17087 28.0722 2.81843 28.6692 4.3294 28.6692H7.47809V30.256H4.24059C3.13604 30.256 2.28527 30.1672 1.39657 29.4562C0.456994 28.7071 0 27.5138 0 25.8628C0 22.638 1.35864 21.1396 4.29147 21.1396H7.47839V22.7268H4.3294C2.94548 22.7271 2.24704 23.4126 2.17087 24.8474Z" fill="white"/>
<path d="M14.7781 23.5649C16.7587 23.5649 17.5712 24.2378 17.5712 26.0155V30.2564H15.8065V26.2316C15.8065 25.3047 15.6415 25.038 14.6384 25.038H13.2162V30.2564H11.4512V23.5649H14.7781V23.5649Z" fill="white"/>
<path d="M21.1631 26.9171C21.1631 24.733 22.3059 23.5649 24.5279 23.5649H27.1055V24.9618H24.7694C23.6392 24.9618 23.1569 25.1524 23.1187 26.2187H27.1055V27.6156H23.1187C23.1566 28.7201 23.6139 28.8598 24.7564 28.8598H27.1055V30.2567H24.5279C22.3059 30.2564 21.1631 29.1136 21.1631 26.9171Z" fill="white"/>
<path d="M33.6817 23.5649C35.0783 23.5649 35.5609 24.0096 35.5609 25.2535V26.371H33.8723V25.5076C33.8723 24.9109 33.6691 24.8474 33.0977 24.8474H32.4757V30.2564H30.7109V23.5649H33.6817Z" fill="white"/>
<path d="M42.8986 32.6817H39.4323V31.323H42.5937C43.2792 31.323 43.6473 30.9801 43.6473 30.3708V30.2564H42.2125C41.1968 30.2564 40.4478 30.2437 39.6985 29.52C39.0762 28.9233 38.708 27.9964 38.708 26.9298C38.708 25.8758 39.0762 24.9492 39.6985 24.3522C40.3331 23.7302 41.1077 23.5649 42.2125 23.5649H45.4247V30.0149C45.4253 31.8182 44.6637 32.6817 42.8986 32.6817ZM43.6476 28.8728V25.0001H42.7334C42.1493 25.0001 41.705 25.0001 41.3368 25.2162C40.7654 25.5591 40.5495 26.092 40.5495 26.9301C40.5495 28.4667 41.2224 28.8728 42.7334 28.8728H43.6476V28.8728Z" fill="white"/>
<path d="M53.6642 28.7837V23.5653H55.429V30.0788C55.429 31.8309 54.6291 32.6817 52.9149 32.6817H49.4486V31.323H52.61C53.2955 31.323 53.6636 30.9801 53.6636 30.3708V30.2564H52.1018C50.1465 30.2564 49.3213 29.5709 49.3213 27.6914V23.5649H51.0734V27.5518C51.0734 28.5549 51.2766 28.7834 52.2415 28.7834H53.6642V28.7837Z" fill="white"/>
<path d="M70.6387 23.5649C72.4669 23.5649 73.3939 24.4157 73.3939 26.0664V30.2564H68.6454C67.3121 30.2564 66.5757 29.5582 66.5757 28.3266C66.5757 26.7774 67.3756 26.1934 69.2418 26.1934H71.5653V26.0284C71.5653 25.1777 71.0827 24.9492 69.9655 24.9492H67.0197V23.5649H70.6387ZM71.5782 28.9104V27.5265H69.4959C68.7469 27.5265 68.404 27.6788 68.404 28.2755C68.404 28.8339 68.7213 28.9101 69.3688 28.9101H71.5782V28.9104Z" fill="white"/>
<path d="M80.7444 23.5649C82.725 23.5649 83.5375 24.2378 83.5375 26.0155V30.2564H81.7728V26.2316C81.7728 25.3047 81.6078 25.038 80.6047 25.038H79.1825V30.2564H77.4175V23.5649H80.7444V23.5649Z" fill="white"/>
<path d="M90.3168 30.2564C88.2344 30.2564 87.0537 28.9612 87.0537 26.828C87.0537 25.9393 87.2948 25.2029 87.7774 24.5933C88.4123 23.7937 89.2249 23.5649 90.4312 23.5649H91.9422V21.1396H93.7072V30.256H90.3168V30.2564ZM91.9419 25.0127H90.8755C89.5043 25.0127 88.9076 25.5079 88.9076 26.955C88.9076 28.3519 89.4281 28.8216 90.7359 28.8216H91.9419V25.0127V25.0127Z" fill="white"/>
<path d="M106.885 24.8474H112.192V26.4345H106.872C106.885 28.0722 107.532 28.6692 109.043 28.6692H112.192V30.256H108.954C107.849 30.256 106.999 30.1672 106.11 29.4562C105.17 28.7071 104.713 27.5138 104.713 25.8628C104.713 22.638 106.072 21.1396 109.005 21.1396H112.192V22.7268H109.043C107.659 22.7271 106.961 23.4126 106.885 24.8474Z" fill="white"/>
<path d="M119.491 23.5649C121.472 23.5649 122.284 24.2378 122.284 26.0155V30.2564H120.52V26.2316C120.52 25.3047 120.355 25.038 119.351 25.038H117.929V30.2564H116.165V23.5649H119.491V23.5649Z" fill="white"/>
<path d="M127.489 23.5649L129.343 28.3134L131.311 23.5649H133.216L130.245 30.2564H128.34L125.509 23.5649H127.489Z" fill="white"/>
<path d="M136.478 22.8034V21.1401H138.331V22.8034H136.478ZM136.478 30.2565V23.5651H138.331V30.2565H136.478Z" fill="white"/>
<path d="M145.301 23.5649C146.698 23.5649 147.18 24.0096 147.18 25.2535V26.371H145.492V25.5076C145.492 24.9109 145.289 24.8474 144.717 24.8474H144.095V30.2564H142.331V23.5649H145.301Z" fill="white"/>
<path d="M153.883 30.3706C151.699 30.3706 150.328 28.9864 150.328 26.917C150.328 24.8346 151.699 23.4507 153.883 23.4507C156.054 23.4507 157.426 24.8346 157.426 26.917C157.426 28.9864 156.08 30.3706 153.883 30.3706ZM153.871 28.9355C154.912 28.9355 155.572 28.2121 155.572 26.917C155.572 25.6219 154.924 24.8981 153.871 24.8981C152.842 24.8981 152.182 25.6219 152.182 26.917C152.182 28.2121 152.829 28.9355 153.871 28.9355Z" fill="white"/>
<path d="M164.307 23.5649C166.287 23.5649 167.1 24.2378 167.1 26.0155V30.2564H165.335V26.2316C165.335 25.3047 165.17 25.038 164.167 25.038H162.745V30.2564H160.98V23.5649H164.307V23.5649Z" fill="white"/>
<path d="M177.853 23.5649C179.783 23.5649 180.633 24.2504 180.633 26.0155V30.2564H178.856V26.2443C178.856 25.2791 178.653 25.038 177.713 25.038H176.723V30.2564H174.92V25.038H172.85V30.2564H171.073V23.5649H177.853Z" fill="white"/>
<path d="M184.302 26.9171C184.302 24.733 185.445 23.5649 187.667 23.5649H190.244V24.9618H187.908C186.778 24.9618 186.296 25.1524 186.258 26.2187H190.244V27.6156H186.258C186.296 28.7201 186.753 28.8598 187.896 28.8598H190.244V30.2567H187.667C185.445 30.2564 184.302 29.1136 184.302 26.9171Z" fill="white"/>
<path d="M197.176 23.5649C199.157 23.5649 199.969 24.2378 199.969 26.0155V30.2564H198.204V26.2316C198.204 25.3047 198.039 25.038 197.036 25.038H195.614V30.2564H193.849V23.5649H197.176V23.5649Z" fill="white"/>
<path d="M204.526 23.5649V21.1396H206.291V23.5649H208.158V24.8983H206.291V27.6026C206.291 28.5292 206.533 28.923 207.434 28.923H208.158V30.2564H206.545C205.263 30.2564 204.526 29.5326 204.526 28.1614V24.8983H203.282V23.5649H204.526V23.5649Z" fill="white"/>
<path d="M219.85 29.3043C219.152 28.5679 219.025 27.7677 219.025 26.5617V21.1401H220.942V26.4982C220.942 27.2475 220.955 27.7936 221.26 28.1489C221.666 28.6315 222.212 28.7456 223.024 28.7456H225.284V30.2565H222.859C221.539 30.2565 220.663 30.1677 219.85 29.3043Z" fill="white"/>
<path d="M232.355 23.5649C234.183 23.5649 235.11 24.4157 235.11 26.0664V30.2564H230.361C229.028 30.2564 228.292 29.5582 228.292 28.3266C228.292 26.7774 229.092 26.1934 230.958 26.1934H233.282V26.0284C233.282 25.1777 232.799 24.9492 231.682 24.9492H228.736V23.5649H232.355ZM233.295 28.9104V27.5265H231.212C230.463 27.5265 230.12 27.6788 230.12 28.2755C230.12 28.8339 230.438 28.9101 231.085 28.9101H233.295V28.9104Z" fill="white"/>
<path d="M240.912 23.5651H242.436C243.642 23.5651 244.454 23.7939 245.089 24.5935C245.572 25.2028 245.813 25.9395 245.813 26.8282C245.813 28.9614 244.619 30.2565 242.55 30.2565H239.147V21.1401H240.912V23.5651V23.5651ZM240.912 25.0128V28.8217H242.131C243.439 28.8217 243.959 28.3518 243.959 26.9552C243.959 25.5078 243.363 25.0128 241.991 25.0128H240.912Z" fill="white"/>
<path d="M252.478 30.3706C250.294 30.3706 248.923 28.9864 248.923 26.917C248.923 24.8346 250.294 23.4507 252.478 23.4507C254.649 23.4507 256.021 24.8346 256.021 26.917C256.02 28.9864 254.675 30.3706 252.478 30.3706ZM252.465 28.9355C253.506 28.9355 254.167 28.2121 254.167 26.917C254.167 25.6219 253.519 24.8981 252.465 24.8981C251.437 24.8981 250.777 25.6219 250.777 26.917C250.777 28.2121 251.424 28.9355 252.465 28.9355Z" fill="white"/>
<path d="M262.545 23.5649C263.942 23.5649 264.425 24.0096 264.425 25.2535V26.371H262.736V25.5076C262.736 24.9109 262.533 24.8474 261.962 24.8474H261.339V30.2564H259.575V23.5649H262.545Z" fill="white"/>
<path d="M271.775 23.5649C273.603 23.5649 274.53 24.4157 274.53 26.0664V30.2564H269.781C268.448 30.2564 267.712 29.5582 267.712 28.3266C267.712 26.7774 268.512 26.1934 270.378 26.1934H272.702V26.0284C272.702 25.1777 272.219 24.9492 271.102 24.9492H268.156V23.5649H271.775ZM272.715 28.9104V27.5265H270.632C269.883 27.5265 269.541 27.6788 269.541 28.2755C269.541 28.8339 269.858 28.9101 270.505 28.9101H272.715V28.9104Z" fill="white"/>
<path d="M279.138 23.5649V21.1396H280.903V23.5649H282.77V24.8983H280.903V27.6026C280.903 28.5292 281.144 28.923 282.046 28.923H282.77V30.2564H281.157C279.875 30.2564 279.138 29.5326 279.138 28.1614V24.8983H277.894V23.5649H279.138V23.5649Z" fill="white"/>
<path d="M289.396 30.3706C287.213 30.3706 285.841 28.9864 285.841 26.917C285.841 24.8346 287.213 23.4507 289.396 23.4507C291.568 23.4507 292.939 24.8346 292.939 26.917C292.939 28.9864 291.593 30.3706 289.396 30.3706ZM289.384 28.9355C290.425 28.9355 291.085 28.2121 291.085 26.917C291.085 25.6219 290.438 24.8981 289.384 24.8981C288.355 24.8981 287.695 25.6219 287.695 26.917C287.695 28.2121 288.343 28.9355 289.384 28.9355Z" fill="white"/>
<path d="M299.464 23.5649C300.861 23.5649 301.343 24.0096 301.343 25.2535V26.371H299.655V25.5076C299.655 24.9109 299.451 24.8474 298.88 24.8474H298.258V30.2564H296.493V23.5649H299.464Z" fill="white"/>
<path d="M309.227 28.7837V23.5653H310.992V30.0788C310.992 31.8309 310.192 32.6817 308.478 32.6817H305.011V31.323H308.173C308.858 31.323 309.227 30.9801 309.227 30.3708V30.2564H307.665C305.71 30.2564 304.884 29.5709 304.884 27.6914V23.5649H306.636V27.5518C306.636 28.5549 306.84 28.7834 307.805 28.7834H309.227V28.7837Z" fill="white"/>
</svg>
